G04 #@! TF.GenerationSoftware,KiCad,Pcbnew,(6.0.6)*
G04 #@! TF.CreationDate,2022-07-18T13:46:11+09:00*
G04 #@! TF.ProjectId,mt_reflowcnt,6d745f72-6566-46c6-9f77-636e742e6b69,rev?*
G04 #@! TF.SameCoordinates,Original*
G04 #@! TF.FileFunction,Copper,L2,Bot*
G04 #@! TF.FilePolarity,Positive*
%FSLAX46Y46*%
G04 Gerber Fmt 4.6, Leading zero omitted, Abs format (unit mm)*
G04 Created by KiCad (PCBNEW (6.0.6)) date 2022-07-18 13:46:11*
%MOMM*%
%LPD*%
G01*
G04 APERTURE LIST*
G04 #@! TA.AperFunction,ComponentPad*
%ADD10R,1.700000X1.700000*%
G04 #@! TD*
G04 #@! TA.AperFunction,ComponentPad*
%ADD11O,1.700000X1.700000*%
G04 #@! TD*
G04 #@! TA.AperFunction,ComponentPad*
%ADD12C,1.650000*%
G04 #@! TD*
G04 #@! TA.AperFunction,ComponentPad*
%ADD13C,2.100000*%
G04 #@! TD*
G04 #@! TA.AperFunction,ComponentPad*
%ADD14C,3.294000*%
G04 #@! TD*
G04 #@! TA.AperFunction,ComponentPad*
%ADD15C,1.524000*%
G04 #@! TD*
G04 #@! TA.AperFunction,ComponentPad*
%ADD16O,1.727200X2.032000*%
G04 #@! TD*
G04 #@! TA.AperFunction,ComponentPad*
%ADD17C,4.064000*%
G04 #@! TD*
G04 #@! TA.AperFunction,ViaPad*
%ADD18C,0.889000*%
G04 #@! TD*
G04 #@! TA.AperFunction,Conductor*
%ADD19C,0.406400*%
G04 #@! TD*
G04 #@! TA.AperFunction,Conductor*
%ADD20C,0.203200*%
G04 #@! TD*
G04 APERTURE END LIST*
D10*
G04 #@! TO.P,J1,1,Pin_1*
G04 #@! TO.N,/A0*
X211846000Y-75565000D03*
D11*
G04 #@! TO.P,J1,2,Pin_2*
G04 #@! TO.N,GND*
X214386000Y-75565000D03*
G04 #@! TO.P,J1,3,Pin_3*
X216926000Y-75565000D03*
G04 #@! TO.P,J1,4,Pin_4*
G04 #@! TO.N,/A1*
X219466000Y-75565000D03*
G04 #@! TD*
D12*
G04 #@! TO.P,R2,1,1*
G04 #@! TO.N,Net-(R1-Pad2)*
X115864000Y-107275000D03*
G04 #@! TO.P,R2,2,2*
G04 #@! TO.N,GND*
X120864000Y-107275000D03*
D13*
G04 #@! TO.P,R2,3,3*
G04 #@! TO.N,Net-(R2-Pad3)*
X118364000Y-102275000D03*
G04 #@! TD*
D14*
G04 #@! TO.P,J2,4,NC*
G04 #@! TO.N,unconnected-(J2-Pad4)*
X198604000Y-77959000D03*
G04 #@! TO.P,J2,3,NC*
G04 #@! TO.N,unconnected-(J2-Pad3)*
X182904000Y-77959000D03*
G04 #@! TO.P,J2,2,N*
G04 #@! TO.N,Net-(J2-Pad2)*
X197604000Y-91459000D03*
G04 #@! TO.P,J2,1,P*
G04 #@! TO.N,Net-(J2-Pad1)*
X183904000Y-91459000D03*
G04 #@! TD*
D15*
G04 #@! TO.P,U1,14,DB7*
G04 #@! TO.N,Net-(R10-Pad1)*
X143080000Y-91849000D03*
G04 #@! TO.P,U1,13,DB6*
G04 #@! TO.N,Net-(R9-Pad1)*
X145980000Y-91849000D03*
G04 #@! TO.P,U1,12,DB5*
G04 #@! TO.N,Net-(R8-Pad1)*
X143080000Y-94389000D03*
G04 #@! TO.P,U1,11,DB4*
G04 #@! TO.N,Net-(R7-Pad1)*
X145980000Y-94389000D03*
G04 #@! TO.P,U1,10,DB3*
G04 #@! TO.N,unconnected-(U1-Pad10)*
X143080000Y-96929000D03*
G04 #@! TO.P,U1,9,DB2*
G04 #@! TO.N,unconnected-(U1-Pad9)*
X145980000Y-96929000D03*
G04 #@! TO.P,U1,8,DB1*
G04 #@! TO.N,unconnected-(U1-Pad8)*
X143080000Y-99469000D03*
G04 #@! TO.P,U1,7,DB0*
G04 #@! TO.N,unconnected-(U1-Pad7)*
X145980000Y-99459000D03*
G04 #@! TO.P,U1,6,E*
G04 #@! TO.N,Net-(R6-Pad1)*
X143080000Y-101919000D03*
G04 #@! TO.P,U1,5,RW*
G04 #@! TO.N,GND*
X145980000Y-101939000D03*
G04 #@! TO.P,U1,4,RS*
G04 #@! TO.N,Net-(R5-Pad1)*
X143080000Y-104549000D03*
G04 #@! TO.P,U1,3,Vo*
G04 #@! TO.N,Net-(R2-Pad3)*
X145980000Y-104549000D03*
G04 #@! TO.P,U1,2,VDD*
G04 #@! TO.N,+5V*
X143080000Y-107089000D03*
G04 #@! TO.P,U1,1,VSS*
G04 #@! TO.N,GND*
X145980000Y-107049000D03*
G04 #@! TD*
D16*
G04 #@! TO.P,P1,1,Pin_1*
G04 #@! TO.N,unconnected-(P1-Pad1)*
X138938000Y-123825000D03*
G04 #@! TO.P,P1,2,Pin_2*
G04 #@! TO.N,/IOREF*
X141478000Y-123825000D03*
G04 #@! TO.P,P1,3,Pin_3*
G04 #@! TO.N,/Reset*
X144018000Y-123825000D03*
G04 #@! TO.P,P1,4,Pin_4*
G04 #@! TO.N,+3V3*
X146558000Y-123825000D03*
G04 #@! TO.P,P1,5,Pin_5*
G04 #@! TO.N,+5V*
X149098000Y-123825000D03*
G04 #@! TO.P,P1,6,Pin_6*
G04 #@! TO.N,GND*
X151638000Y-123825000D03*
G04 #@! TO.P,P1,7,Pin_7*
X154178000Y-123825000D03*
G04 #@! TO.P,P1,8,Pin_8*
G04 #@! TO.N,/Vin*
X156718000Y-123825000D03*
G04 #@! TD*
G04 #@! TO.P,P2,1,Pin_1*
G04 #@! TO.N,/A0*
X161798000Y-123825000D03*
G04 #@! TO.P,P2,2,Pin_2*
G04 #@! TO.N,/A1*
X164338000Y-123825000D03*
G04 #@! TO.P,P2,3,Pin_3*
G04 #@! TO.N,/A2*
X166878000Y-123825000D03*
G04 #@! TO.P,P2,4,Pin_4*
G04 #@! TO.N,/A3*
X169418000Y-123825000D03*
G04 #@! TO.P,P2,5,Pin_5*
G04 #@! TO.N,/A4(SDA)*
X171958000Y-123825000D03*
G04 #@! TO.P,P2,6,Pin_6*
G04 #@! TO.N,/A5(SCL)*
X174498000Y-123825000D03*
G04 #@! TD*
G04 #@! TO.P,P3,1,Pin_1*
G04 #@! TO.N,unconnected-(P3-Pad1)*
X129794000Y-75565000D03*
G04 #@! TO.P,P3,2,Pin_2*
G04 #@! TO.N,unconnected-(P3-Pad2)*
X132334000Y-75565000D03*
G04 #@! TO.P,P3,3,Pin_3*
G04 #@! TO.N,/AREF*
X134874000Y-75565000D03*
G04 #@! TO.P,P3,4,Pin_4*
G04 #@! TO.N,GND*
X137414000Y-75565000D03*
G04 #@! TO.P,P3,5,Pin_5*
G04 #@! TO.N,/13(SCK)*
X139954000Y-75565000D03*
G04 #@! TO.P,P3,6,Pin_6*
G04 #@! TO.N,/12(MISO)*
X142494000Y-75565000D03*
G04 #@! TO.P,P3,7,Pin_7*
G04 #@! TO.N,/11(\u002A\u002A{slash}MOSI)*
X145034000Y-75565000D03*
G04 #@! TO.P,P3,8,Pin_8*
G04 #@! TO.N,/10(\u002A\u002A{slash}SS)*
X147574000Y-75565000D03*
G04 #@! TO.P,P3,9,Pin_9*
G04 #@! TO.N,/9(\u002A\u002A)*
X150114000Y-75565000D03*
G04 #@! TO.P,P3,10,Pin_10*
G04 #@! TO.N,/8*
X152654000Y-75565000D03*
G04 #@! TD*
G04 #@! TO.P,P4,1,Pin_1*
G04 #@! TO.N,/7*
X156718000Y-75565000D03*
G04 #@! TO.P,P4,2,Pin_2*
G04 #@! TO.N,/6(\u002A\u002A)*
X159258000Y-75565000D03*
G04 #@! TO.P,P4,3,Pin_3*
G04 #@! TO.N,/5(\u002A\u002A)*
X161798000Y-75565000D03*
G04 #@! TO.P,P4,4,Pin_4*
G04 #@! TO.N,/4*
X164338000Y-75565000D03*
G04 #@! TO.P,P4,5,Pin_5*
G04 #@! TO.N,/3(\u002A\u002A)*
X166878000Y-75565000D03*
G04 #@! TO.P,P4,6,Pin_6*
G04 #@! TO.N,/2*
X169418000Y-75565000D03*
G04 #@! TO.P,P4,7,Pin_7*
G04 #@! TO.N,/1(Tx)*
X171958000Y-75565000D03*
G04 #@! TO.P,P4,8,Pin_8*
G04 #@! TO.N,/0(Rx)*
X174498000Y-75565000D03*
G04 #@! TD*
D17*
G04 #@! TO.P,P5,1,Pin_1*
G04 #@! TO.N,unconnected-(P5-Pad1)*
X124968000Y-123825000D03*
G04 #@! TD*
G04 #@! TO.P,P6,1,Pin_1*
G04 #@! TO.N,unconnected-(P6-Pad1)*
X177038000Y-118745000D03*
G04 #@! TD*
G04 #@! TO.P,P7,1,Pin_1*
G04 #@! TO.N,unconnected-(P7-Pad1)*
X126238000Y-75565000D03*
G04 #@! TD*
G04 #@! TO.P,P8,1,Pin_1*
G04 #@! TO.N,unconnected-(P8-Pad1)*
X177038000Y-90805000D03*
G04 #@! TD*
D18*
G04 #@! TO.N,GND*
X193294000Y-105283000D03*
G04 #@! TO.N,+5V*
X141859000Y-110998000D03*
X152908000Y-118491000D03*
G04 #@! TO.N,GND*
X126746000Y-114681000D03*
X125984000Y-89789000D03*
X226060000Y-74803000D03*
X205740000Y-74803000D03*
G04 #@! TO.N,+3V3*
X168910000Y-108839000D03*
X168021000Y-97028000D03*
G04 #@! TO.N,GND*
X182372000Y-105283000D03*
X190246000Y-103251000D03*
G04 #@! TO.N,+3V3*
X168867000Y-106764000D03*
G04 #@! TO.N,GND*
X172466000Y-110363000D03*
X172466000Y-105283000D03*
X172466000Y-100203000D03*
X157988000Y-110363000D03*
X157988000Y-105283000D03*
X157988000Y-100203000D03*
X162560000Y-112141000D03*
X162560000Y-107061000D03*
X162560000Y-101981000D03*
G04 #@! TO.N,/10(\u002A\u002A{slash}SS)*
X166370000Y-109347000D03*
G04 #@! TO.N,/12(MISO)*
X163850000Y-113899000D03*
G04 #@! TO.N,/13(SCK)*
X163830000Y-103759000D03*
G04 #@! TD*
D19*
G04 #@! TO.N,GND*
X215900000Y-83185000D02*
X215900000Y-78359000D01*
X206502000Y-94742000D02*
X206502000Y-91059000D01*
X214376000Y-83185000D02*
X215900000Y-83185000D01*
X197993000Y-103251000D02*
X206502000Y-94742000D01*
X206502000Y-91059000D02*
X214376000Y-83185000D01*
X193548000Y-103251000D02*
X197993000Y-103251000D01*
X215900000Y-78359000D02*
X215646000Y-78105000D01*
D20*
G04 #@! TO.N,/12(MISO)*
X165100000Y-112649000D02*
X163850000Y-113899000D01*
X165100000Y-99949000D02*
X165100000Y-112649000D01*
X142494000Y-77343000D02*
X165100000Y-99949000D01*
X142494000Y-75565000D02*
X142494000Y-77343000D01*
D19*
G04 #@! TO.N,+3V3*
X168867000Y-108796000D02*
X168910000Y-108839000D01*
X168867000Y-106764000D02*
X168867000Y-108796000D01*
X168021000Y-105918000D02*
X168867000Y-106764000D01*
G04 #@! TO.N,GND*
X193294000Y-103505000D02*
X193548000Y-103251000D01*
X193294000Y-105283000D02*
X193294000Y-103505000D01*
X190246000Y-103251000D02*
X193548000Y-103251000D01*
G04 #@! TO.N,+5V*
X145415000Y-110998000D02*
X152908000Y-118491000D01*
X141859000Y-110998000D02*
X145415000Y-110998000D01*
G04 #@! TO.N,GND*
X215646000Y-78105000D02*
X216916000Y-78105000D01*
X214630000Y-78105000D02*
X215646000Y-78105000D01*
X216926000Y-78095000D02*
X216916000Y-78105000D01*
X216926000Y-75565000D02*
X216926000Y-78095000D01*
X216916000Y-78105000D02*
X222758000Y-78105000D01*
X214386000Y-77861000D02*
X214630000Y-78105000D01*
X214386000Y-75565000D02*
X214386000Y-77861000D01*
X209042000Y-78105000D02*
X214630000Y-78105000D01*
X222758000Y-78105000D02*
X226060000Y-74803000D01*
X205740000Y-74803000D02*
X209042000Y-78105000D01*
X183134000Y-103251000D02*
X190246000Y-103251000D01*
X182372000Y-104013000D02*
X183134000Y-103251000D01*
X182372000Y-105283000D02*
X182372000Y-104013000D01*
X172466000Y-105283000D02*
X182372000Y-105283000D01*
X172466000Y-114173000D02*
X170180000Y-116459000D01*
X154178000Y-116459000D02*
X154178000Y-114173000D01*
X172466000Y-110363000D02*
X172466000Y-114173000D01*
X154178000Y-123825000D02*
X154178000Y-116459000D01*
X170180000Y-116459000D02*
X154178000Y-116459000D01*
X172466000Y-105283000D02*
X172466000Y-110363000D01*
X172466000Y-100203000D02*
X172466000Y-105283000D01*
X156210000Y-112141000D02*
X157988000Y-110363000D01*
X162560000Y-112141000D02*
X156210000Y-112141000D01*
X154178000Y-114173000D02*
X156210000Y-112141000D01*
X158242000Y-107061000D02*
X157988000Y-106807000D01*
X162560000Y-107061000D02*
X158242000Y-107061000D01*
X157988000Y-106807000D02*
X157988000Y-110363000D01*
X157988000Y-105283000D02*
X157988000Y-106807000D01*
X162560000Y-101981000D02*
X157988000Y-101981000D01*
X157988000Y-101981000D02*
X157988000Y-103505000D01*
X157988000Y-100203000D02*
X157988000Y-101981000D01*
X148336000Y-103505000D02*
X148336000Y-106045000D01*
X157988000Y-103505000D02*
X157988000Y-105283000D01*
X148336000Y-102743000D02*
X148336000Y-103505000D01*
X157988000Y-103505000D02*
X148336000Y-103505000D01*
X151638000Y-123825000D02*
X154178000Y-123825000D01*
X147332000Y-107049000D02*
X145980000Y-107049000D01*
X148336000Y-106045000D02*
X147332000Y-107049000D01*
X147532000Y-101939000D02*
X148336000Y-102743000D01*
X145980000Y-101939000D02*
X147532000Y-101939000D01*
X127762000Y-114681000D02*
X126746000Y-114681000D01*
X145980000Y-108655000D02*
X145034000Y-109601000D01*
X145034000Y-109601000D02*
X132842000Y-109601000D01*
X132842000Y-109601000D02*
X127762000Y-114681000D01*
X145980000Y-107049000D02*
X145980000Y-108655000D01*
X125222000Y-114681000D02*
X126746000Y-114681000D01*
X120864000Y-110323000D02*
X125222000Y-114681000D01*
X120864000Y-107275000D02*
X120864000Y-110323000D01*
X128524000Y-89789000D02*
X125984000Y-89789000D01*
X129540000Y-88773000D02*
X128524000Y-89789000D01*
X129540000Y-82677000D02*
X129540000Y-88773000D01*
X132080000Y-80137000D02*
X129540000Y-82677000D01*
X135128000Y-80137000D02*
X132080000Y-80137000D01*
X137414000Y-77851000D02*
X135128000Y-80137000D01*
X137414000Y-75565000D02*
X137414000Y-77851000D01*
X120864000Y-107275000D02*
X120864000Y-94909000D01*
X120864000Y-94909000D02*
X125984000Y-89789000D01*
G04 #@! TO.N,+3V3*
X168021000Y-105918000D02*
X168021000Y-97028000D01*
D20*
G04 #@! TO.N,/10(\u002A\u002A{slash}SS)*
X147574000Y-81407000D02*
X166370000Y-100203000D01*
X166370000Y-100203000D02*
X166370000Y-109347000D01*
X147574000Y-75565000D02*
X147574000Y-81407000D01*
G04 #@! TO.N,/13(SCK)*
X163830000Y-99949000D02*
X163830000Y-103759000D01*
X142494000Y-78613000D02*
X163830000Y-99949000D01*
X139954000Y-77851000D02*
X140716000Y-78613000D01*
X139954000Y-75565000D02*
X139954000Y-77851000D01*
X140716000Y-78613000D02*
X142494000Y-78613000D01*
G04 #@! TD*
G04 #@! TA.AperFunction,Conductor*
G04 #@! TO.N,Net-(J2-Pad1)*
G36*
X187648121Y-87523002D02*
G01*
X187694614Y-87576658D01*
X187706000Y-87629000D01*
X187706000Y-95759000D01*
X187685998Y-95827121D01*
X187632342Y-95873614D01*
X187580000Y-95885000D01*
X180212000Y-95885000D01*
X180143879Y-95864998D01*
X180097386Y-95811342D01*
X180086000Y-95759000D01*
X180086000Y-93153014D01*
X182575259Y-93153014D01*
X182582312Y-93162985D01*
X182631071Y-93203754D01*
X182638003Y-93208789D01*
X182879633Y-93360364D01*
X182887184Y-93364413D01*
X183147160Y-93481797D01*
X183155191Y-93484783D01*
X183428690Y-93565797D01*
X183437042Y-93567664D01*
X183719012Y-93610811D01*
X183727545Y-93611527D01*
X184012757Y-93616009D01*
X184021308Y-93615560D01*
X184304486Y-93581292D01*
X184312900Y-93579687D01*
X184588813Y-93507303D01*
X184596929Y-93504572D01*
X184860463Y-93395412D01*
X184868131Y-93391606D01*
X185114420Y-93247686D01*
X185121493Y-93242879D01*
X185223361Y-93163004D01*
X185231830Y-93151147D01*
X185225314Y-93139525D01*
X183916810Y-91831020D01*
X183902869Y-91823408D01*
X183901034Y-91823539D01*
X183894420Y-91827790D01*
X182582551Y-93139660D01*
X182575259Y-93153014D01*
X180086000Y-93153014D01*
X180086000Y-91440661D01*
X181744329Y-91440661D01*
X181760750Y-91725434D01*
X181761824Y-91733940D01*
X181816739Y-92013848D01*
X181818955Y-92022116D01*
X181911353Y-92291992D01*
X181914668Y-92299877D01*
X182042839Y-92554717D01*
X182047195Y-92562083D01*
X182197630Y-92780966D01*
X182207885Y-92789310D01*
X182221625Y-92782164D01*
X183531980Y-91471810D01*
X183538357Y-91460131D01*
X184268408Y-91460131D01*
X184268539Y-91461966D01*
X184272790Y-91468580D01*
X185584887Y-92780676D01*
X185597097Y-92787344D01*
X185608595Y-92778655D01*
X185725241Y-92619860D01*
X185729825Y-92612637D01*
X185865933Y-92361957D01*
X185869501Y-92354163D01*
X185970327Y-92087337D01*
X185972804Y-92079131D01*
X186036484Y-91801088D01*
X186037824Y-91792628D01*
X186063342Y-91506701D01*
X186063588Y-91501762D01*
X186064010Y-91461484D01*
X186063867Y-91456520D01*
X186044343Y-91170126D01*
X186043182Y-91161652D01*
X185985335Y-90882321D01*
X185983036Y-90874086D01*
X185887814Y-90605187D01*
X185884417Y-90597337D01*
X185753583Y-90343850D01*
X185749155Y-90336538D01*
X185609548Y-90137899D01*
X185599027Y-90129520D01*
X185585639Y-90136572D01*
X184276020Y-91446190D01*
X184268408Y-91460131D01*
X183538357Y-91460131D01*
X183539592Y-91457869D01*
X183539461Y-91456034D01*
X183535210Y-91449420D01*
X182222482Y-90136693D01*
X182210471Y-90130134D01*
X182198733Y-90139101D01*
X182070709Y-90317267D01*
X182066187Y-90324561D01*
X181932720Y-90576637D01*
X181929234Y-90584465D01*
X181831206Y-90852338D01*
X181828817Y-90860561D01*
X181768049Y-91139269D01*
X181766800Y-91147725D01*
X181744418Y-91432111D01*
X181744329Y-91440661D01*
X180086000Y-91440661D01*
X180086000Y-89766923D01*
X182576006Y-89766923D01*
X182582401Y-89778190D01*
X183891190Y-91086980D01*
X183905131Y-91094592D01*
X183906966Y-91094461D01*
X183913580Y-91090210D01*
X185225066Y-89778723D01*
X185232258Y-89765553D01*
X185224936Y-89755318D01*
X185158586Y-89701010D01*
X185151614Y-89696056D01*
X184908386Y-89547004D01*
X184900816Y-89543047D01*
X184639615Y-89428389D01*
X184631555Y-89425487D01*
X184357225Y-89347342D01*
X184348850Y-89345562D01*
X184066449Y-89305370D01*
X184057901Y-89304742D01*
X183772656Y-89303248D01*
X183764122Y-89303785D01*
X183481309Y-89341019D01*
X183472911Y-89342712D01*
X183197775Y-89417981D01*
X183189688Y-89420797D01*
X182927316Y-89532708D01*
X182919677Y-89536601D01*
X182674920Y-89683084D01*
X182667891Y-89687969D01*
X182584475Y-89754799D01*
X182576006Y-89766923D01*
X180086000Y-89766923D01*
X180086000Y-87629000D01*
X180106002Y-87560879D01*
X180159658Y-87514386D01*
X180212000Y-87503000D01*
X187580000Y-87503000D01*
X187648121Y-87523002D01*
G37*
G04 #@! TD.AperFunction*
G04 #@! TD*
G04 #@! TA.AperFunction,Conductor*
G04 #@! TO.N,Net-(J2-Pad2)*
G36*
X201364121Y-87523002D02*
G01*
X201410614Y-87576658D01*
X201422000Y-87629000D01*
X201422000Y-95759000D01*
X201401998Y-95827121D01*
X201348342Y-95873614D01*
X201296000Y-95885000D01*
X194182000Y-95885000D01*
X194113879Y-95864998D01*
X194067386Y-95811342D01*
X194056000Y-95759000D01*
X194056000Y-93153014D01*
X196275259Y-93153014D01*
X196282312Y-93162985D01*
X196331071Y-93203754D01*
X196338003Y-93208789D01*
X196579633Y-93360364D01*
X196587184Y-93364413D01*
X196847160Y-93481797D01*
X196855191Y-93484783D01*
X197128690Y-93565797D01*
X197137042Y-93567664D01*
X197419012Y-93610811D01*
X197427545Y-93611527D01*
X197712757Y-93616009D01*
X197721308Y-93615560D01*
X198004486Y-93581292D01*
X198012900Y-93579687D01*
X198288813Y-93507303D01*
X198296929Y-93504572D01*
X198560463Y-93395412D01*
X198568131Y-93391606D01*
X198814420Y-93247686D01*
X198821493Y-93242879D01*
X198923361Y-93163004D01*
X198931830Y-93151147D01*
X198925314Y-93139525D01*
X197616810Y-91831020D01*
X197602869Y-91823408D01*
X197601034Y-91823539D01*
X197594420Y-91827790D01*
X196282551Y-93139660D01*
X196275259Y-93153014D01*
X194056000Y-93153014D01*
X194056000Y-91440661D01*
X195444329Y-91440661D01*
X195460750Y-91725434D01*
X195461824Y-91733940D01*
X195516739Y-92013848D01*
X195518955Y-92022116D01*
X195611353Y-92291992D01*
X195614668Y-92299877D01*
X195742839Y-92554717D01*
X195747195Y-92562083D01*
X195897630Y-92780966D01*
X195907885Y-92789310D01*
X195921625Y-92782164D01*
X197231980Y-91471810D01*
X197238357Y-91460131D01*
X197968408Y-91460131D01*
X197968539Y-91461966D01*
X197972790Y-91468580D01*
X199284887Y-92780676D01*
X199297097Y-92787344D01*
X199308595Y-92778655D01*
X199425241Y-92619860D01*
X199429825Y-92612637D01*
X199565933Y-92361957D01*
X199569501Y-92354163D01*
X199670327Y-92087337D01*
X199672804Y-92079131D01*
X199736484Y-91801088D01*
X199737824Y-91792628D01*
X199763342Y-91506701D01*
X199763588Y-91501762D01*
X199764010Y-91461484D01*
X199763867Y-91456520D01*
X199744343Y-91170126D01*
X199743182Y-91161652D01*
X199685335Y-90882321D01*
X199683036Y-90874086D01*
X199587814Y-90605187D01*
X199584417Y-90597337D01*
X199453583Y-90343850D01*
X199449155Y-90336538D01*
X199309548Y-90137899D01*
X199299027Y-90129520D01*
X199285639Y-90136572D01*
X197976020Y-91446190D01*
X197968408Y-91460131D01*
X197238357Y-91460131D01*
X197239592Y-91457869D01*
X197239461Y-91456034D01*
X197235210Y-91449420D01*
X195922482Y-90136693D01*
X195910471Y-90130134D01*
X195898733Y-90139101D01*
X195770709Y-90317267D01*
X195766187Y-90324561D01*
X195632720Y-90576637D01*
X195629234Y-90584465D01*
X195531206Y-90852338D01*
X195528817Y-90860561D01*
X195468049Y-91139269D01*
X195466800Y-91147725D01*
X195444418Y-91432111D01*
X195444329Y-91440661D01*
X194056000Y-91440661D01*
X194056000Y-89766923D01*
X196276006Y-89766923D01*
X196282401Y-89778190D01*
X197591190Y-91086980D01*
X197605131Y-91094592D01*
X197606966Y-91094461D01*
X197613580Y-91090210D01*
X198925066Y-89778723D01*
X198932258Y-89765553D01*
X198924936Y-89755318D01*
X198858586Y-89701010D01*
X198851614Y-89696056D01*
X198608386Y-89547004D01*
X198600816Y-89543047D01*
X198339615Y-89428389D01*
X198331555Y-89425487D01*
X198057225Y-89347342D01*
X198048850Y-89345562D01*
X197766449Y-89305370D01*
X197757901Y-89304742D01*
X197472656Y-89303248D01*
X197464122Y-89303785D01*
X197181309Y-89341019D01*
X197172911Y-89342712D01*
X196897775Y-89417981D01*
X196889688Y-89420797D01*
X196627316Y-89532708D01*
X196619677Y-89536601D01*
X196374920Y-89683084D01*
X196367891Y-89687969D01*
X196284475Y-89754799D01*
X196276006Y-89766923D01*
X194056000Y-89766923D01*
X194056000Y-87629000D01*
X194076002Y-87560879D01*
X194129658Y-87514386D01*
X194182000Y-87503000D01*
X201296000Y-87503000D01*
X201364121Y-87523002D01*
G37*
G04 #@! TD.AperFunction*
G04 #@! TD*
G04 #@! TA.AperFunction,Conductor*
G04 #@! TO.N,GND*
G36*
X124035186Y-74061002D02*
G01*
X124081679Y-74114658D01*
X124091783Y-74184932D01*
X124073450Y-74234514D01*
X124007341Y-74338685D01*
X124005657Y-74342264D01*
X124005653Y-74342271D01*
X123902875Y-74560687D01*
X123871233Y-74627930D01*
X123870007Y-74631702D01*
X123870007Y-74631703D01*
X123868107Y-74637551D01*
X123772449Y-74931954D01*
X123712549Y-75245961D01*
X123692477Y-75565000D01*
X123712549Y-75884039D01*
X123772449Y-76198046D01*
X123773676Y-76201822D01*
X123868201Y-76492737D01*
X123871233Y-76502070D01*
X123872920Y-76505656D01*
X123872922Y-76505660D01*
X124005653Y-76787729D01*
X124005657Y-76787736D01*
X124007341Y-76791315D01*
X124009465Y-76794661D01*
X124009465Y-76794662D01*
X124173324Y-77052861D01*
X124178629Y-77061221D01*
X124382394Y-77307530D01*
X124615423Y-77526359D01*
X124618625Y-77528686D01*
X124618627Y-77528687D01*
X124679455Y-77572881D01*
X124874041Y-77714256D01*
X124877510Y-77716163D01*
X124877513Y-77716165D01*
X125143790Y-77862552D01*
X125154169Y-77868258D01*
X125231618Y-77898922D01*
X125447707Y-77984478D01*
X125447710Y-77984479D01*
X125451390Y-77985936D01*
X125455224Y-77986920D01*
X125455232Y-77986923D01*
X125647153Y-78036200D01*
X125761017Y-78065435D01*
X125764945Y-78065931D01*
X125764949Y-78065932D01*
X125890642Y-78081810D01*
X126078165Y-78105500D01*
X126397835Y-78105500D01*
X126585358Y-78081810D01*
X126711051Y-78065932D01*
X126711055Y-78065931D01*
X126714983Y-78065435D01*
X126828847Y-78036200D01*
X127020768Y-77986923D01*
X127020776Y-77986920D01*
X127024610Y-77985936D01*
X127028290Y-77984479D01*
X127028293Y-77984478D01*
X127244382Y-77898922D01*
X127321831Y-77868258D01*
X127332211Y-77862552D01*
X127598487Y-77716165D01*
X127598490Y-77716163D01*
X127601959Y-77714256D01*
X127796545Y-77572881D01*
X127857373Y-77528687D01*
X127857375Y-77528686D01*
X127860577Y-77526359D01*
X128093606Y-77307530D01*
X128297371Y-77061221D01*
X128302677Y-77052861D01*
X128466535Y-76794662D01*
X128466535Y-76794661D01*
X128468659Y-76791315D01*
X128470343Y-76787736D01*
X128470347Y-76787729D01*
X128540177Y-76639332D01*
X128587280Y-76586211D01*
X128655625Y-76566988D01*
X128723512Y-76587767D01*
X128745355Y-76606008D01*
X128881532Y-76748758D01*
X129068350Y-76887754D01*
X129073102Y-76890170D01*
X129270244Y-76990402D01*
X129275916Y-76993286D01*
X129374161Y-77023792D01*
X129493193Y-77060753D01*
X129493199Y-77060754D01*
X129498296Y-77062337D01*
X129622660Y-77078820D01*
X129723848Y-77092232D01*
X129723852Y-77092232D01*
X129729132Y-77092932D01*
X129734462Y-77092732D01*
X129734463Y-77092732D01*
X129845477Y-77088564D01*
X129961822Y-77084197D01*
X130066005Y-77062337D01*
X130184486Y-77037477D01*
X130184489Y-77037476D01*
X130189713Y-77036380D01*
X130406290Y-76950850D01*
X130605359Y-76830051D01*
X130609855Y-76826150D01*
X130777197Y-76680939D01*
X130777199Y-76680937D01*
X130781230Y-76677439D01*
X130784613Y-76673313D01*
X130784617Y-76673309D01*
X130883776Y-76552374D01*
X130928872Y-76497376D01*
X130954845Y-76451748D01*
X131005927Y-76402442D01*
X131075558Y-76388580D01*
X131141629Y-76414563D01*
X131168867Y-76443713D01*
X131260804Y-76580272D01*
X131264483Y-76584129D01*
X131264485Y-76584131D01*
X131349223Y-76672959D01*
X131421532Y-76748758D01*
X131608350Y-76887754D01*
X131613102Y-76890170D01*
X131810244Y-76990402D01*
X131815916Y-76993286D01*
X131914161Y-77023792D01*
X132033193Y-77060753D01*
X132033199Y-77060754D01*
X132038296Y-77062337D01*
X132162660Y-77078820D01*
X132263848Y-77092232D01*
X132263852Y-77092232D01*
X132269132Y-77092932D01*
X132274462Y-77092732D01*
X132274463Y-77092732D01*
X132385477Y-77088564D01*
X132501822Y-77084197D01*
X132606005Y-77062337D01*
X132724486Y-77037477D01*
X132724489Y-77037476D01*
X132729713Y-77036380D01*
X132946290Y-76950850D01*
X133145359Y-76830051D01*
X133149855Y-76826150D01*
X133317197Y-76680939D01*
X133317199Y-76680937D01*
X133321230Y-76677439D01*
X133324613Y-76673313D01*
X133324617Y-76673309D01*
X133423776Y-76552374D01*
X133468872Y-76497376D01*
X133494845Y-76451748D01*
X133545927Y-76402442D01*
X133615558Y-76388580D01*
X133681629Y-76414563D01*
X133708867Y-76443713D01*
X133800804Y-76580272D01*
X133804483Y-76584129D01*
X133804485Y-76584131D01*
X133889223Y-76672959D01*
X133961532Y-76748758D01*
X134148350Y-76887754D01*
X134153102Y-76890170D01*
X134350244Y-76990402D01*
X134355916Y-76993286D01*
X134454161Y-77023792D01*
X134573193Y-77060753D01*
X134573199Y-77060754D01*
X134578296Y-77062337D01*
X134702660Y-77078820D01*
X134803848Y-77092232D01*
X134803852Y-77092232D01*
X134809132Y-77092932D01*
X134814462Y-77092732D01*
X134814463Y-77092732D01*
X134925477Y-77088564D01*
X135041822Y-77084197D01*
X135146005Y-77062337D01*
X135264486Y-77037477D01*
X135264489Y-77037476D01*
X135269713Y-77036380D01*
X135486290Y-76950850D01*
X135685359Y-76830051D01*
X135689855Y-76826150D01*
X135857197Y-76680939D01*
X135857199Y-76680937D01*
X135861230Y-76677439D01*
X135864613Y-76673313D01*
X135864617Y-76673309D01*
X135963776Y-76552374D01*
X136008872Y-76497376D01*
X136035122Y-76451261D01*
X136086202Y-76401956D01*
X136155832Y-76388094D01*
X136221904Y-76414077D01*
X136249143Y-76443227D01*
X136338215Y-76575530D01*
X136344876Y-76583816D01*
X136498180Y-76744520D01*
X136506148Y-76751569D01*
X136684336Y-76884144D01*
X136693366Y-76889743D01*
X136891347Y-76990402D01*
X136901208Y-76994405D01*
X137113301Y-77060263D01*
X137123696Y-77062548D01*
X137142041Y-77064980D01*
X137156208Y-77062783D01*
X137160000Y-77049599D01*
X137160000Y-75437000D01*
X137180002Y-75368879D01*
X137233658Y-75322386D01*
X137286000Y-75311000D01*
X137542000Y-75311000D01*
X137610121Y-75331002D01*
X137656614Y-75384658D01*
X137668000Y-75437000D01*
X137668000Y-77047488D01*
X137671973Y-77061019D01*
X137682580Y-77062544D01*
X137804343Y-77036996D01*
X137814539Y-77033936D01*
X138021097Y-76952363D01*
X138030634Y-76947629D01*
X138220503Y-76832414D01*
X138229093Y-76826150D01*
X138396837Y-76680589D01*
X138404257Y-76672959D01*
X138545073Y-76501220D01*
X138551102Y-76492449D01*
X138574533Y-76451285D01*
X138625615Y-76401978D01*
X138695245Y-76388116D01*
X138761316Y-76414099D01*
X138788555Y-76443249D01*
X138880804Y-76580272D01*
X138884483Y-76584129D01*
X138884485Y-76584131D01*
X138969223Y-76672959D01*
X139041532Y-76748758D01*
X139228350Y-76887754D01*
X139233099Y-76890168D01*
X139233111Y-76890176D01*
X139275005Y-76911476D01*
X139326663Y-76960179D01*
X139343900Y-77023792D01*
X139343900Y-77775322D01*
X139343402Y-77785874D01*
X139341781Y-77793128D01*
X139342030Y-77801049D01*
X139343838Y-77858595D01*
X139343900Y-77862552D01*
X139343900Y-77889383D01*
X139344396Y-77893310D01*
X139344453Y-77894216D01*
X139345292Y-77904860D01*
X139346622Y-77947199D01*
X139348834Y-77954812D01*
X139351964Y-77965586D01*
X139355972Y-77984943D01*
X139356098Y-77985936D01*
X139358371Y-78003932D01*
X139361291Y-78011307D01*
X139373964Y-78043318D01*
X139377808Y-78054545D01*
X139381117Y-78065932D01*
X139389628Y-78095225D01*
X139399374Y-78111705D01*
X139408065Y-78129445D01*
X139415116Y-78147254D01*
X139439558Y-78180896D01*
X139440020Y-78181532D01*
X139446536Y-78191452D01*
X139468095Y-78227906D01*
X139481622Y-78241433D01*
X139494463Y-78256467D01*
X139505721Y-78271962D01*
X139511829Y-78277015D01*
X139538367Y-78298969D01*
X139547148Y-78306959D01*
X140231084Y-78990896D01*
X140238190Y-78998706D01*
X140242174Y-79004983D01*
X140247952Y-79010409D01*
X140289931Y-79049830D01*
X140292773Y-79052585D01*
X140311735Y-79071547D01*
X140314862Y-79073973D01*
X140315503Y-79074538D01*
X140323661Y-79081506D01*
X140354542Y-79110504D01*
X140371319Y-79119728D01*
X140387832Y-79130575D01*
X140396698Y-79137452D01*
X140396703Y-79137455D01*
X140402966Y-79142313D01*
X140441847Y-79159138D01*
X140452495Y-79164354D01*
X140489622Y-79184765D01*
X140508161Y-79189525D01*
X140526859Y-79195926D01*
X140544435Y-79203532D01*
X140586278Y-79210159D01*
X140597897Y-79212565D01*
X140638926Y-79223100D01*
X140658064Y-79223100D01*
X140677774Y-79224651D01*
X140696684Y-79227646D01*
X140738860Y-79223659D01*
X140750719Y-79223100D01*
X142189099Y-79223100D01*
X142257220Y-79243102D01*
X142278194Y-79260005D01*
X142330095Y-79311906D01*
X142364121Y-79374218D01*
X142367000Y-79401001D01*
X142367000Y-84502866D01*
X142365009Y-84525177D01*
X142330552Y-84716684D01*
X142316941Y-85016404D01*
X142343091Y-85315292D01*
X142408540Y-85608095D01*
X142512140Y-85889671D01*
X142514084Y-85893359D01*
X142514088Y-85893367D01*
X142650116Y-86151367D01*
X142652069Y-86155071D01*
X142825871Y-86399633D01*
X143030490Y-86619061D01*
X143262333Y-86809498D01*
X143517325Y-86967600D01*
X143790988Y-87090589D01*
X143965368Y-87142574D01*
X144074514Y-87175112D01*
X144074516Y-87175112D01*
X144078513Y-87176304D01*
X144082633Y-87176957D01*
X144082635Y-87176957D01*
X144201509Y-87195785D01*
X144374848Y-87223239D01*
X144417577Y-87225179D01*
X144467262Y-87227436D01*
X144467281Y-87227436D01*
X144468681Y-87227500D01*
X144588986Y-87227500D01*
X144649804Y-87245358D01*
X144653000Y-87246053D01*
X144653000Y-87249000D01*
X150214999Y-87249000D01*
X150283120Y-87269002D01*
X150304094Y-87285905D01*
X163182995Y-100164807D01*
X163217021Y-100227119D01*
X163219900Y-100253902D01*
X163219900Y-102966280D01*
X163199898Y-103034401D01*
X163172856Y-103064473D01*
X163159995Y-103074813D01*
X163039862Y-103217981D01*
X163036899Y-103223370D01*
X163036896Y-103223375D01*
X162987799Y-103312684D01*
X162949826Y-103381757D01*
X162947965Y-103387624D01*
X162947964Y-103387626D01*
X162924269Y-103462321D01*
X162893315Y-103559901D01*
X162872482Y-103745630D01*
X162872998Y-103751774D01*
X162886815Y-103916311D01*
X162888121Y-103931867D01*
X162939636Y-104111520D01*
X162982350Y-104194633D01*
X163012003Y-104252331D01*
X163025064Y-104277746D01*
X163028887Y-104282570D01*
X163028890Y-104282574D01*
X163084436Y-104352655D01*
X163141152Y-104424212D01*
X163283478Y-104545342D01*
X163446621Y-104636519D01*
X163624367Y-104694272D01*
X163809945Y-104716401D01*
X163816080Y-104715929D01*
X163816082Y-104715929D01*
X163872119Y-104711617D01*
X163996287Y-104702063D01*
X164176296Y-104651804D01*
X164181789Y-104649029D01*
X164181795Y-104649027D01*
X164307090Y-104585736D01*
X164376912Y-104572876D01*
X164442603Y-104599805D01*
X164483306Y-104657975D01*
X164489900Y-104698202D01*
X164489900Y-112344098D01*
X164469898Y-112412219D01*
X164452995Y-112433194D01*
X163978894Y-112907294D01*
X163916582Y-112941319D01*
X163876630Y-112943508D01*
X163862815Y-112942056D01*
X163862812Y-112942056D01*
X163856685Y-112941412D01*
X163764629Y-112949790D01*
X163676703Y-112957792D01*
X163676702Y-112957792D01*
X163670562Y-112958351D01*
X163664648Y-112960092D01*
X163664646Y-112960092D01*
X163580031Y-112984996D01*
X163491273Y-113011119D01*
X163485808Y-113013976D01*
X163374383Y-113072227D01*
X163325647Y-113097705D01*
X163179995Y-113214813D01*
X163059862Y-113357981D01*
X163056899Y-113363370D01*
X163056896Y-113363375D01*
X163022735Y-113425515D01*
X162969826Y-113521757D01*
X162913315Y-113699901D01*
X162892482Y-113885630D01*
X162892998Y-113891774D01*
X162903464Y-114016404D01*
X162908121Y-114071867D01*
X162959636Y-114251520D01*
X163045064Y-114417746D01*
X163048887Y-114422570D01*
X163048890Y-114422574D01*
X163123418Y-114516604D01*
X163161152Y-114564212D01*
X163165846Y-114568207D01*
X163198819Y-114596269D01*
X163303478Y-114685342D01*
X163466621Y-114776519D01*
X163644367Y-114834272D01*
X163829945Y-114856401D01*
X163836080Y-114855929D01*
X163836082Y-114855929D01*
X163892119Y-114851617D01*
X164016287Y-114842063D01*
X164196296Y-114791804D01*
X164201785Y-114789031D01*
X164201791Y-114789029D01*
X164279159Y-114749947D01*
X164363114Y-114707538D01*
X164391524Y-114685342D01*
X164415486Y-114666621D01*
X164510387Y-114592475D01*
X164514413Y-114587811D01*
X164514416Y-114587808D01*
X164628480Y-114455663D01*
X164632507Y-114450998D01*
X164724821Y-114288495D01*
X164739091Y-114245600D01*
X164781867Y-114117009D01*
X164783814Y-114111157D01*
X164796311Y-114012234D01*
X164806796Y-113929241D01*
X164806797Y-113929232D01*
X164807238Y-113925738D01*
X164807611Y-113899000D01*
X164807269Y-113895510D01*
X164804958Y-113871939D01*
X164818218Y-113802192D01*
X164841262Y-113770550D01*
X165477890Y-113133922D01*
X165485705Y-113126810D01*
X165491983Y-113122826D01*
X165536830Y-113075069D01*
X165539585Y-113072227D01*
X165558547Y-113053265D01*
X165560973Y-113050138D01*
X165561538Y-113049497D01*
X165568507Y-113041337D01*
X165592075Y-113016239D01*
X165597504Y-113010458D01*
X165606728Y-112993681D01*
X165617575Y-112977168D01*
X165624452Y-112968302D01*
X165624455Y-112968297D01*
X165629313Y-112962034D01*
X165646139Y-112923150D01*
X165651354Y-112912505D01*
X165671765Y-112875378D01*
X165676525Y-112856838D01*
X165682928Y-112838136D01*
X165687384Y-112827839D01*
X165690532Y-112820565D01*
X165697159Y-112778722D01*
X165699566Y-112767098D01*
X165708129Y-112733750D01*
X165710100Y-112726074D01*
X165710100Y-112706936D01*
X165711651Y-112687225D01*
X165713406Y-112676144D01*
X165714646Y-112668316D01*
X165710659Y-112626139D01*
X165710100Y-112614281D01*
X165710100Y-110284738D01*
X165730102Y-110216617D01*
X165783758Y-110170124D01*
X165854032Y-110160020D01*
X165897568Y-110174749D01*
X165986621Y-110224519D01*
X166164367Y-110282272D01*
X166349945Y-110304401D01*
X166356080Y-110303929D01*
X166356082Y-110303929D01*
X166412119Y-110299617D01*
X166536287Y-110290063D01*
X166716296Y-110239804D01*
X166721785Y-110237031D01*
X166721791Y-110237029D01*
X166807267Y-110193851D01*
X166883114Y-110155538D01*
X166911524Y-110133342D01*
X166943477Y-110108377D01*
X167030387Y-110040475D01*
X167034413Y-110035811D01*
X167034416Y-110035808D01*
X167148480Y-109903663D01*
X167152507Y-109898998D01*
X167213424Y-109791764D01*
X167264464Y-109742413D01*
X167322981Y-109728000D01*
X168542000Y-109728000D01*
X168580936Y-109734167D01*
X168704367Y-109774272D01*
X168889945Y-109796401D01*
X168896080Y-109795929D01*
X168896082Y-109795929D01*
X168952119Y-109791617D01*
X169076287Y-109782063D01*
X169256296Y-109731804D01*
X169261785Y-109729031D01*
X169261791Y-109729029D01*
X169339159Y-109689947D01*
X169423114Y-109647538D01*
X169570387Y-109532475D01*
X169574413Y-109527811D01*
X169574416Y-109527808D01*
X169688480Y-109395663D01*
X169692507Y-109390998D01*
X169784821Y-109228495D01*
X169843814Y-109051157D01*
X169849203Y-109008501D01*
X169866796Y-108869241D01*
X169866797Y-108869232D01*
X169867238Y-108865738D01*
X169867611Y-108839000D01*
X169849373Y-108652999D01*
X169795355Y-108474083D01*
X169707615Y-108309066D01*
X169638873Y-108224781D01*
X169607057Y-108185770D01*
X169579503Y-108120338D01*
X169578700Y-108106134D01*
X169578700Y-107444887D01*
X169598702Y-107376766D01*
X169609319Y-107362556D01*
X169645480Y-107320663D01*
X169649507Y-107315998D01*
X169741821Y-107153495D01*
X169800814Y-106976157D01*
X169809113Y-106910461D01*
X169823796Y-106794241D01*
X169823797Y-106794232D01*
X169824238Y-106790738D01*
X169824611Y-106764000D01*
X169806373Y-106577999D01*
X169795714Y-106542693D01*
X169769633Y-106456311D01*
X169752355Y-106399083D01*
X169664615Y-106234066D01*
X169660720Y-106229290D01*
X169550388Y-106094010D01*
X169550385Y-106094007D01*
X169546493Y-106089235D01*
X169462715Y-106019928D01*
X169407239Y-105974034D01*
X169407236Y-105974032D01*
X169402489Y-105970105D01*
X169238089Y-105881214D01*
X169148822Y-105853581D01*
X169065441Y-105827770D01*
X169065438Y-105827769D01*
X169059554Y-105825948D01*
X169053429Y-105825304D01*
X169053428Y-105825304D01*
X168983945Y-105818001D01*
X168965240Y-105816035D01*
X168899583Y-105789022D01*
X168889316Y-105779820D01*
X168769605Y-105660109D01*
X168735579Y-105597797D01*
X168732700Y-105571014D01*
X168732700Y-97708887D01*
X168752702Y-97640766D01*
X168763319Y-97626556D01*
X168799480Y-97584663D01*
X168803507Y-97579998D01*
X168895821Y-97417495D01*
X168911562Y-97370178D01*
X168952867Y-97246009D01*
X168954814Y-97240157D01*
X168966837Y-97144984D01*
X168977796Y-97058241D01*
X168977797Y-97058232D01*
X168978238Y-97054738D01*
X168978611Y-97028000D01*
X168960373Y-96841999D01*
X168915378Y-96692969D01*
X168910000Y-96656551D01*
X168910000Y-77167475D01*
X168930002Y-77099354D01*
X168983658Y-77052861D01*
X169053932Y-77042757D01*
X169073360Y-77047142D01*
X169122296Y-77062337D01*
X169246660Y-77078820D01*
X169347848Y-77092232D01*
X169347852Y-77092232D01*
X169353132Y-77092932D01*
X169358462Y-77092732D01*
X169358463Y-77092732D01*
X169469477Y-77088564D01*
X169585822Y-77084197D01*
X169690005Y-77062337D01*
X169808486Y-77037477D01*
X169808489Y-77037476D01*
X169813713Y-77036380D01*
X170030290Y-76950850D01*
X170229359Y-76830051D01*
X170233855Y-76826150D01*
X170401197Y-76680939D01*
X170401199Y-76680937D01*
X170405230Y-76677439D01*
X170408613Y-76673313D01*
X170408617Y-76673309D01*
X170507776Y-76552374D01*
X170552872Y-76497376D01*
X170578845Y-76451748D01*
X170629927Y-76402442D01*
X170699558Y-76388580D01*
X170765629Y-76414563D01*
X170792867Y-76443713D01*
X170884804Y-76580272D01*
X170888483Y-76584129D01*
X170888485Y-76584131D01*
X170973223Y-76672959D01*
X171045532Y-76748758D01*
X171232350Y-76887754D01*
X171237102Y-76890170D01*
X171434244Y-76990402D01*
X171439916Y-76993286D01*
X171538161Y-77023792D01*
X171657193Y-77060753D01*
X171657199Y-77060754D01*
X171662296Y-77062337D01*
X171786660Y-77078820D01*
X171887848Y-77092232D01*
X171887852Y-77092232D01*
X171893132Y-77092932D01*
X171898462Y-77092732D01*
X171898463Y-77092732D01*
X172009477Y-77088564D01*
X172125822Y-77084197D01*
X172230005Y-77062337D01*
X172348486Y-77037477D01*
X172348489Y-77037476D01*
X172353713Y-77036380D01*
X172570290Y-76950850D01*
X172769359Y-76830051D01*
X172773855Y-76826150D01*
X172941197Y-76680939D01*
X172941199Y-76680937D01*
X172945230Y-76677439D01*
X172948613Y-76673313D01*
X172948617Y-76673309D01*
X173047776Y-76552374D01*
X173092872Y-76497376D01*
X173118845Y-76451748D01*
X173169927Y-76402442D01*
X173239558Y-76388580D01*
X173305629Y-76414563D01*
X173332867Y-76443713D01*
X173424804Y-76580272D01*
X173428483Y-76584129D01*
X173428485Y-76584131D01*
X173513223Y-76672959D01*
X173585532Y-76748758D01*
X173772350Y-76887754D01*
X173777102Y-76890170D01*
X173974244Y-76990402D01*
X173979916Y-76993286D01*
X174078161Y-77023792D01*
X174197193Y-77060753D01*
X174197199Y-77060754D01*
X174202296Y-77062337D01*
X174326660Y-77078820D01*
X174427848Y-77092232D01*
X174427852Y-77092232D01*
X174433132Y-77092932D01*
X174438462Y-77092732D01*
X174438463Y-77092732D01*
X174549477Y-77088564D01*
X174665822Y-77084197D01*
X174770005Y-77062337D01*
X174888486Y-77037477D01*
X174888489Y-77037476D01*
X174893713Y-77036380D01*
X175110290Y-76950850D01*
X175309359Y-76830051D01*
X175313855Y-76826150D01*
X175481197Y-76680939D01*
X175481199Y-76680937D01*
X175485230Y-76677439D01*
X175488613Y-76673313D01*
X175488617Y-76673309D01*
X175587776Y-76552374D01*
X175632872Y-76497376D01*
X175663696Y-76443227D01*
X175745422Y-76299654D01*
X175748065Y-76295011D01*
X175768239Y-76239435D01*
X175825695Y-76081146D01*
X175825696Y-76081142D01*
X175827515Y-76076131D01*
X175868950Y-75846993D01*
X175870100Y-75822606D01*
X175870100Y-75354132D01*
X175855374Y-75180580D01*
X175796875Y-74955194D01*
X175788164Y-74935855D01*
X175703433Y-74747760D01*
X175701238Y-74742887D01*
X175571196Y-74549728D01*
X175546598Y-74523942D01*
X175414152Y-74385104D01*
X175410468Y-74381242D01*
X175348771Y-74335338D01*
X175258385Y-74268089D01*
X175215672Y-74211379D01*
X175210399Y-74140578D01*
X175244241Y-74078166D01*
X175306453Y-74043959D01*
X175333598Y-74041000D01*
X178943000Y-74041000D01*
X178943000Y-88817685D01*
X178922998Y-88885806D01*
X178869342Y-88932299D01*
X178799068Y-88942403D01*
X178730747Y-88909535D01*
X178663464Y-88846352D01*
X178663463Y-88846351D01*
X178660577Y-88843641D01*
X178401959Y-88655744D01*
X178121831Y-88501742D01*
X177959917Y-88437636D01*
X177828293Y-88385522D01*
X177828290Y-88385521D01*
X177824610Y-88384064D01*
X177820776Y-88383080D01*
X177820768Y-88383077D01*
X177628847Y-88333800D01*
X177514983Y-88304565D01*
X177511055Y-88304069D01*
X177511051Y-88304068D01*
X177385358Y-88288190D01*
X177197835Y-88264500D01*
X176878165Y-88264500D01*
X176690642Y-88288190D01*
X176564949Y-88304068D01*
X176564945Y-88304069D01*
X176561017Y-88304565D01*
X176447153Y-88333800D01*
X176255232Y-88383077D01*
X176255224Y-88383080D01*
X176251390Y-88384064D01*
X176247710Y-88385521D01*
X176247707Y-88385522D01*
X176116083Y-88437636D01*
X175954169Y-88501742D01*
X175674041Y-88655744D01*
X175415423Y-88843641D01*
X175182394Y-89062470D01*
X174978629Y-89308779D01*
X174807341Y-89578685D01*
X174805657Y-89582264D01*
X174805653Y-89582271D01*
X174672922Y-89864340D01*
X174671233Y-89867930D01*
X174572449Y-90171954D01*
X174512549Y-90485961D01*
X174492477Y-90805000D01*
X174512549Y-91124039D01*
X174572449Y-91438046D01*
X174671233Y-91742070D01*
X174672920Y-91745656D01*
X174672922Y-91745660D01*
X174805653Y-92027729D01*
X174805657Y-92027736D01*
X174807341Y-92031315D01*
X174978629Y-92301221D01*
X175182394Y-92547530D01*
X175415423Y-92766359D01*
X175674041Y-92954256D01*
X175677510Y-92956163D01*
X175677513Y-92956165D01*
X175948203Y-93104978D01*
X175954169Y-93108258D01*
X176016716Y-93133022D01*
X176247707Y-93224478D01*
X176247710Y-93224479D01*
X176251390Y-93225936D01*
X176255224Y-93226920D01*
X176255232Y-93226923D01*
X176447153Y-93276200D01*
X176561017Y-93305435D01*
X176564945Y-93305931D01*
X176564949Y-93305932D01*
X176690642Y-93321810D01*
X176878165Y-93345500D01*
X177197835Y-93345500D01*
X177385358Y-93321810D01*
X177511051Y-93305932D01*
X177511055Y-93305931D01*
X177514983Y-93305435D01*
X177628847Y-93276200D01*
X177820768Y-93226923D01*
X177820776Y-93226920D01*
X177824610Y-93225936D01*
X177828290Y-93224479D01*
X177828293Y-93224478D01*
X178059284Y-93133022D01*
X178121831Y-93108258D01*
X178127798Y-93104978D01*
X178398487Y-92956165D01*
X178398490Y-92956163D01*
X178401959Y-92954256D01*
X178660577Y-92766359D01*
X178663464Y-92763648D01*
X178730747Y-92700465D01*
X178794097Y-92668414D01*
X178864719Y-92675701D01*
X178920190Y-92720012D01*
X178943000Y-92792315D01*
X178943000Y-117062176D01*
X178896138Y-117005529D01*
X178896127Y-117005517D01*
X178893606Y-117002470D01*
X178660577Y-116783641D01*
X178401959Y-116595744D01*
X178121831Y-116441742D01*
X177959917Y-116377636D01*
X177828293Y-116325522D01*
X177828290Y-116325521D01*
X177824610Y-116324064D01*
X177820776Y-116323080D01*
X177820768Y-116323077D01*
X177628847Y-116273800D01*
X177514983Y-116244565D01*
X177511055Y-116244069D01*
X177511051Y-116244068D01*
X177347428Y-116223398D01*
X177197835Y-116204500D01*
X176878165Y-116204500D01*
X176728572Y-116223398D01*
X176564949Y-116244068D01*
X176564945Y-116244069D01*
X176561017Y-116244565D01*
X176447153Y-116273800D01*
X176255232Y-116323077D01*
X176255224Y-116323080D01*
X176251390Y-116324064D01*
X176247710Y-116325521D01*
X176247707Y-116325522D01*
X176116083Y-116377636D01*
X175954169Y-116441742D01*
X175674041Y-116595744D01*
X175415423Y-116783641D01*
X175182394Y-117002470D01*
X174978629Y-117248779D01*
X174807341Y-117518685D01*
X174805657Y-117522264D01*
X174805653Y-117522271D01*
X174763833Y-117611144D01*
X174671233Y-117807930D01*
X174670007Y-117811702D01*
X174670007Y-117811703D01*
X174666983Y-117821010D01*
X174572449Y-118111954D01*
X174512549Y-118425961D01*
X174492477Y-118745000D01*
X174512549Y-119064039D01*
X174572449Y-119378046D01*
X174671233Y-119682070D01*
X174672920Y-119685656D01*
X174672922Y-119685660D01*
X174805653Y-119967729D01*
X174805657Y-119967736D01*
X174807341Y-119971315D01*
X174978629Y-120241221D01*
X175182394Y-120487530D01*
X175415423Y-120706359D01*
X175674041Y-120894256D01*
X175954169Y-121048258D01*
X176116083Y-121112364D01*
X176247707Y-121164478D01*
X176247710Y-121164479D01*
X176251390Y-121165936D01*
X176255224Y-121166920D01*
X176255232Y-121166923D01*
X176447153Y-121216200D01*
X176561017Y-121245435D01*
X176564945Y-121245931D01*
X176564949Y-121245932D01*
X176690642Y-121261810D01*
X176878165Y-121285500D01*
X177197835Y-121285500D01*
X177385358Y-121261810D01*
X177511051Y-121245932D01*
X177511055Y-121245931D01*
X177514983Y-121245435D01*
X177628847Y-121216200D01*
X177820768Y-121166923D01*
X177820776Y-121166920D01*
X177824610Y-121165936D01*
X177828290Y-121164479D01*
X177828293Y-121164478D01*
X177959917Y-121112364D01*
X178121831Y-121048258D01*
X178401959Y-120894256D01*
X178660577Y-120706359D01*
X178893606Y-120487530D01*
X178896131Y-120484478D01*
X178896138Y-120484471D01*
X178943000Y-120427824D01*
X178943000Y-125349000D01*
X175333148Y-125349000D01*
X175265027Y-125328998D01*
X175218534Y-125275342D01*
X175208430Y-125205068D01*
X175237924Y-125140488D01*
X175267782Y-125115282D01*
X175304791Y-125092824D01*
X175304800Y-125092818D01*
X175309359Y-125090051D01*
X175313855Y-125086150D01*
X175481197Y-124940939D01*
X175481199Y-124940937D01*
X175485230Y-124937439D01*
X175488613Y-124933313D01*
X175488617Y-124933309D01*
X175587776Y-124812374D01*
X175632872Y-124757376D01*
X175635672Y-124752458D01*
X175745422Y-124559654D01*
X175748065Y-124555011D01*
X175768239Y-124499435D01*
X175825695Y-124341146D01*
X175825696Y-124341142D01*
X175827515Y-124336131D01*
X175868950Y-124106993D01*
X175870100Y-124082606D01*
X175870100Y-123614132D01*
X175855374Y-123440580D01*
X175854035Y-123435420D01*
X175798217Y-123220363D01*
X175798216Y-123220359D01*
X175796875Y-123215194D01*
X175788164Y-123195855D01*
X175703433Y-123007760D01*
X175701238Y-123002887D01*
X175571196Y-122809728D01*
X175410468Y-122641242D01*
X175223650Y-122502246D01*
X175096574Y-122437637D01*
X175020842Y-122399133D01*
X175020841Y-122399133D01*
X175016084Y-122396714D01*
X174877299Y-122353620D01*
X174798807Y-122329247D01*
X174798801Y-122329246D01*
X174793704Y-122327663D01*
X174669340Y-122311180D01*
X174568152Y-122297768D01*
X174568148Y-122297768D01*
X174562868Y-122297068D01*
X174557538Y-122297268D01*
X174557537Y-122297268D01*
X174446523Y-122301435D01*
X174330178Y-122305803D01*
X174247474Y-122323156D01*
X174107514Y-122352523D01*
X174107511Y-122352524D01*
X174102287Y-122353620D01*
X173885710Y-122439150D01*
X173686641Y-122559949D01*
X173682611Y-122563446D01*
X173588075Y-122645480D01*
X173510770Y-122712561D01*
X173507387Y-122716687D01*
X173507383Y-122716691D01*
X173434262Y-122805869D01*
X173363128Y-122892624D01*
X173360490Y-122897259D01*
X173360487Y-122897263D01*
X173337155Y-122938252D01*
X173286073Y-122987558D01*
X173216442Y-123001420D01*
X173150371Y-122975437D01*
X173123133Y-122946287D01*
X173034388Y-122814470D01*
X173031196Y-122809728D01*
X172870468Y-122641242D01*
X172683650Y-122502246D01*
X172556574Y-122437637D01*
X172480842Y-122399133D01*
X172480841Y-122399133D01*
X172476084Y-122396714D01*
X172337299Y-122353620D01*
X172258807Y-122329247D01*
X172258801Y-122329246D01*
X172253704Y-122327663D01*
X172129340Y-122311180D01*
X172028152Y-122297768D01*
X172028148Y-122297768D01*
X172022868Y-122297068D01*
X172017538Y-122297268D01*
X172017537Y-122297268D01*
X171906523Y-122301435D01*
X171790178Y-122305803D01*
X171707474Y-122323156D01*
X171567514Y-122352523D01*
X171567511Y-122352524D01*
X171562287Y-122353620D01*
X171345710Y-122439150D01*
X171146641Y-122559949D01*
X171142611Y-122563446D01*
X171048075Y-122645480D01*
X170970770Y-122712561D01*
X170967387Y-122716687D01*
X170967383Y-122716691D01*
X170894262Y-122805869D01*
X170823128Y-122892624D01*
X170820490Y-122897259D01*
X170820487Y-122897263D01*
X170797155Y-122938252D01*
X170746073Y-122987558D01*
X170676442Y-123001420D01*
X170610371Y-122975437D01*
X170583133Y-122946287D01*
X170494388Y-122814470D01*
X170491196Y-122809728D01*
X170330468Y-122641242D01*
X170143650Y-122502246D01*
X170016574Y-122437637D01*
X169940842Y-122399133D01*
X169940841Y-122399133D01*
X169936084Y-122396714D01*
X169797299Y-122353620D01*
X169718807Y-122329247D01*
X169718801Y-122329246D01*
X169713704Y-122327663D01*
X169589340Y-122311180D01*
X169488152Y-122297768D01*
X169488148Y-122297768D01*
X169482868Y-122297068D01*
X169477538Y-122297268D01*
X169477537Y-122297268D01*
X169366523Y-122301435D01*
X169250178Y-122305803D01*
X169167474Y-122323156D01*
X169027514Y-122352523D01*
X169027511Y-122352524D01*
X169022287Y-122353620D01*
X168805710Y-122439150D01*
X168606641Y-122559949D01*
X168602611Y-122563446D01*
X168508075Y-122645480D01*
X168430770Y-122712561D01*
X168427387Y-122716687D01*
X168427383Y-122716691D01*
X168354262Y-122805869D01*
X168283128Y-122892624D01*
X168280490Y-122897259D01*
X168280487Y-122897263D01*
X168257155Y-122938252D01*
X168206073Y-122987558D01*
X168136442Y-123001420D01*
X168070371Y-122975437D01*
X168043133Y-122946287D01*
X167954388Y-122814470D01*
X167951196Y-122809728D01*
X167790468Y-122641242D01*
X167603650Y-122502246D01*
X167476574Y-122437637D01*
X167400842Y-122399133D01*
X167400841Y-122399133D01*
X167396084Y-122396714D01*
X167257299Y-122353620D01*
X167178807Y-122329247D01*
X167178801Y-122329246D01*
X167173704Y-122327663D01*
X167049340Y-122311180D01*
X166948152Y-122297768D01*
X166948148Y-122297768D01*
X166942868Y-122297068D01*
X166937538Y-122297268D01*
X166937537Y-122297268D01*
X166826523Y-122301435D01*
X166710178Y-122305803D01*
X166627474Y-122323156D01*
X166487514Y-122352523D01*
X166487511Y-122352524D01*
X166482287Y-122353620D01*
X166265710Y-122439150D01*
X166066641Y-122559949D01*
X166062611Y-122563446D01*
X165968075Y-122645480D01*
X165890770Y-122712561D01*
X165887387Y-122716687D01*
X165887383Y-122716691D01*
X165814262Y-122805869D01*
X165743128Y-122892624D01*
X165740490Y-122897259D01*
X165740487Y-122897263D01*
X165717155Y-122938252D01*
X165666073Y-122987558D01*
X165596442Y-123001420D01*
X165530371Y-122975437D01*
X165503133Y-122946287D01*
X165414388Y-122814470D01*
X165411196Y-122809728D01*
X165250468Y-122641242D01*
X165063650Y-122502246D01*
X164936574Y-122437637D01*
X164860842Y-122399133D01*
X164860841Y-122399133D01*
X164856084Y-122396714D01*
X164717299Y-122353620D01*
X164638807Y-122329247D01*
X164638801Y-122329246D01*
X164633704Y-122327663D01*
X164509340Y-122311180D01*
X164408152Y-122297768D01*
X164408148Y-122297768D01*
X164402868Y-122297068D01*
X164397538Y-122297268D01*
X164397537Y-122297268D01*
X164286523Y-122301435D01*
X164170178Y-122305803D01*
X164087474Y-122323156D01*
X163947514Y-122352523D01*
X163947511Y-122352524D01*
X163942287Y-122353620D01*
X163725710Y-122439150D01*
X163526641Y-122559949D01*
X163522611Y-122563446D01*
X163428075Y-122645480D01*
X163350770Y-122712561D01*
X163347387Y-122716687D01*
X163347383Y-122716691D01*
X163274262Y-122805869D01*
X163203128Y-122892624D01*
X163200490Y-122897259D01*
X163200487Y-122897263D01*
X163177155Y-122938252D01*
X163126073Y-122987558D01*
X163056442Y-123001420D01*
X162990371Y-122975437D01*
X162963133Y-122946287D01*
X162874388Y-122814470D01*
X162871196Y-122809728D01*
X162710468Y-122641242D01*
X162523650Y-122502246D01*
X162396574Y-122437637D01*
X162320842Y-122399133D01*
X162320841Y-122399133D01*
X162316084Y-122396714D01*
X162177299Y-122353620D01*
X162098807Y-122329247D01*
X162098801Y-122329246D01*
X162093704Y-122327663D01*
X161969340Y-122311180D01*
X161868152Y-122297768D01*
X161868148Y-122297768D01*
X161862868Y-122297068D01*
X161857538Y-122297268D01*
X161857537Y-122297268D01*
X161746523Y-122301435D01*
X161630178Y-122305803D01*
X161547474Y-122323156D01*
X161407514Y-122352523D01*
X161407511Y-122352524D01*
X161402287Y-122353620D01*
X161185710Y-122439150D01*
X160986641Y-122559949D01*
X160982611Y-122563446D01*
X160888075Y-122645480D01*
X160810770Y-122712561D01*
X160807387Y-122716687D01*
X160807383Y-122716691D01*
X160734262Y-122805869D01*
X160663128Y-122892624D01*
X160660490Y-122897259D01*
X160660487Y-122897263D01*
X160597589Y-123007760D01*
X160547935Y-123094989D01*
X160546114Y-123100005D01*
X160546112Y-123100010D01*
X160504302Y-123215194D01*
X160468485Y-123313869D01*
X160427050Y-123543007D01*
X160426855Y-123547146D01*
X160426854Y-123547153D01*
X160425970Y-123565905D01*
X160425900Y-123567394D01*
X160425900Y-124035868D01*
X160440626Y-124209420D01*
X160441964Y-124214577D01*
X160441965Y-124214580D01*
X160474816Y-124341146D01*
X160499125Y-124434806D01*
X160501317Y-124439672D01*
X160501318Y-124439675D01*
X160509594Y-124458046D01*
X160594762Y-124647113D01*
X160724804Y-124840272D01*
X160885532Y-125008758D01*
X160889817Y-125011946D01*
X160889818Y-125011947D01*
X161037615Y-125121911D01*
X161080328Y-125178621D01*
X161085601Y-125249422D01*
X161051759Y-125311834D01*
X160989547Y-125346041D01*
X160962402Y-125349000D01*
X157553148Y-125349000D01*
X157485027Y-125328998D01*
X157438534Y-125275342D01*
X157428430Y-125205068D01*
X157457924Y-125140488D01*
X157487782Y-125115282D01*
X157524791Y-125092824D01*
X157524800Y-125092818D01*
X157529359Y-125090051D01*
X157533855Y-125086150D01*
X157701197Y-124940939D01*
X157701199Y-124940937D01*
X157705230Y-124937439D01*
X157708613Y-124933313D01*
X157708617Y-124933309D01*
X157807776Y-124812374D01*
X157852872Y-124757376D01*
X157855672Y-124752458D01*
X157965422Y-124559654D01*
X157968065Y-124555011D01*
X157988239Y-124499435D01*
X158045695Y-124341146D01*
X158045696Y-124341142D01*
X158047515Y-124336131D01*
X158088950Y-124106993D01*
X158090100Y-124082606D01*
X158090100Y-123614132D01*
X158075374Y-123440580D01*
X158074035Y-123435420D01*
X158018217Y-123220363D01*
X158018216Y-123220359D01*
X158016875Y-123215194D01*
X158008164Y-123195855D01*
X157923433Y-123007760D01*
X157921238Y-123002887D01*
X157791196Y-122809728D01*
X157630468Y-122641242D01*
X157443650Y-122502246D01*
X157316574Y-122437637D01*
X157240842Y-122399133D01*
X157240841Y-122399133D01*
X157236084Y-122396714D01*
X157097299Y-122353620D01*
X157018807Y-122329247D01*
X157018801Y-122329246D01*
X157013704Y-122327663D01*
X156889340Y-122311180D01*
X156788152Y-122297768D01*
X156788148Y-122297768D01*
X156782868Y-122297068D01*
X156777538Y-122297268D01*
X156777537Y-122297268D01*
X156666523Y-122301435D01*
X156550178Y-122305803D01*
X156467474Y-122323156D01*
X156327514Y-122352523D01*
X156327511Y-122352524D01*
X156322287Y-122353620D01*
X156105710Y-122439150D01*
X155906641Y-122559949D01*
X155902611Y-122563446D01*
X155808075Y-122645480D01*
X155730770Y-122712561D01*
X155727387Y-122716687D01*
X155727383Y-122716691D01*
X155654262Y-122805869D01*
X155583128Y-122892624D01*
X155556878Y-122938739D01*
X155505798Y-122988044D01*
X155436168Y-123001906D01*
X155370096Y-122975923D01*
X155342857Y-122946773D01*
X155253785Y-122814470D01*
X155247124Y-122806184D01*
X155093820Y-122645480D01*
X155085852Y-122638431D01*
X154907664Y-122505856D01*
X154898634Y-122500257D01*
X154700653Y-122399598D01*
X154690792Y-122395595D01*
X154478699Y-122329737D01*
X154468304Y-122327452D01*
X154449959Y-122325020D01*
X154435792Y-122327217D01*
X154432000Y-122340401D01*
X154432000Y-123953000D01*
X154411998Y-124021121D01*
X154358342Y-124067614D01*
X154306000Y-124079000D01*
X151510000Y-124079000D01*
X151441879Y-124058998D01*
X151395386Y-124005342D01*
X151384000Y-123953000D01*
X151384000Y-123552885D01*
X151892000Y-123552885D01*
X151896475Y-123568124D01*
X151897865Y-123569329D01*
X151905548Y-123571000D01*
X153905885Y-123571000D01*
X153921124Y-123566525D01*
X153922329Y-123565135D01*
X153924000Y-123557452D01*
X153924000Y-122342512D01*
X153920027Y-122328981D01*
X153909420Y-122327456D01*
X153787657Y-122353004D01*
X153777461Y-122356064D01*
X153570903Y-122437637D01*
X153561366Y-122442371D01*
X153371497Y-122557586D01*
X153362907Y-122563850D01*
X153195163Y-122709411D01*
X153187743Y-122717041D01*
X153046927Y-122888780D01*
X153040905Y-122897542D01*
X153017190Y-122939202D01*
X152966107Y-122988508D01*
X152896476Y-123002369D01*
X152830406Y-122976385D01*
X152803168Y-122947236D01*
X152713785Y-122814469D01*
X152707124Y-122806184D01*
X152553820Y-122645480D01*
X152545852Y-122638431D01*
X152367664Y-122505856D01*
X152358634Y-122500257D01*
X152160653Y-122399598D01*
X152150792Y-122395595D01*
X151938699Y-122329737D01*
X151928304Y-122327452D01*
X151909959Y-122325020D01*
X151895792Y-122327217D01*
X151892000Y-122340401D01*
X151892000Y-123552885D01*
X151384000Y-123552885D01*
X151384000Y-122342512D01*
X151380027Y-122328981D01*
X151369420Y-122327456D01*
X151247657Y-122353004D01*
X151237461Y-122356064D01*
X151030903Y-122437637D01*
X151021366Y-122442371D01*
X150831497Y-122557586D01*
X150822907Y-122563850D01*
X150655163Y-122709411D01*
X150647743Y-122717041D01*
X150506927Y-122888780D01*
X150500898Y-122897551D01*
X150477467Y-122938715D01*
X150426385Y-122988022D01*
X150356755Y-123001884D01*
X150290684Y-122975901D01*
X150263445Y-122946751D01*
X150227005Y-122892624D01*
X150171196Y-122809728D01*
X150010468Y-122641242D01*
X149823650Y-122502246D01*
X149696574Y-122437637D01*
X149620842Y-122399133D01*
X149620841Y-122399133D01*
X149616084Y-122396714D01*
X149477299Y-122353620D01*
X149398807Y-122329247D01*
X149398801Y-122329246D01*
X149393704Y-122327663D01*
X149269340Y-122311180D01*
X149168152Y-122297768D01*
X149168148Y-122297768D01*
X149162868Y-122297068D01*
X149157538Y-122297268D01*
X149157537Y-122297268D01*
X149046523Y-122301435D01*
X148930178Y-122305803D01*
X148847474Y-122323156D01*
X148707514Y-122352523D01*
X148707511Y-122352524D01*
X148702287Y-122353620D01*
X148485710Y-122439150D01*
X148286641Y-122559949D01*
X148282611Y-122563446D01*
X148188075Y-122645480D01*
X148110770Y-122712561D01*
X148107387Y-122716687D01*
X148107383Y-122716691D01*
X148034262Y-122805869D01*
X147963128Y-122892624D01*
X147960490Y-122897259D01*
X147960487Y-122897263D01*
X147937155Y-122938252D01*
X147886073Y-122987558D01*
X147816442Y-123001420D01*
X147750371Y-122975437D01*
X147723133Y-122946287D01*
X147634388Y-122814470D01*
X147631196Y-122809728D01*
X147470468Y-122641242D01*
X147283650Y-122502246D01*
X147156574Y-122437637D01*
X147080842Y-122399133D01*
X147080841Y-122399133D01*
X147076084Y-122396714D01*
X146937299Y-122353620D01*
X146858807Y-122329247D01*
X146858801Y-122329246D01*
X146853704Y-122327663D01*
X146729340Y-122311180D01*
X146628152Y-122297768D01*
X146628148Y-122297768D01*
X146622868Y-122297068D01*
X146617538Y-122297268D01*
X146617537Y-122297268D01*
X146506523Y-122301435D01*
X146390178Y-122305803D01*
X146307474Y-122323156D01*
X146167514Y-122352523D01*
X146167511Y-122352524D01*
X146162287Y-122353620D01*
X145945710Y-122439150D01*
X145746641Y-122559949D01*
X145742611Y-122563446D01*
X145648075Y-122645480D01*
X145570770Y-122712561D01*
X145567387Y-122716687D01*
X145567383Y-122716691D01*
X145494262Y-122805869D01*
X145423128Y-122892624D01*
X145420490Y-122897259D01*
X145420487Y-122897263D01*
X145397155Y-122938252D01*
X145346073Y-122987558D01*
X145276442Y-123001420D01*
X145210371Y-122975437D01*
X145183133Y-122946287D01*
X145094388Y-122814470D01*
X145091196Y-122809728D01*
X144930468Y-122641242D01*
X144743650Y-122502246D01*
X144616574Y-122437637D01*
X144540842Y-122399133D01*
X144540841Y-122399133D01*
X144536084Y-122396714D01*
X144397299Y-122353620D01*
X144318807Y-122329247D01*
X144318801Y-122329246D01*
X144313704Y-122327663D01*
X144189340Y-122311180D01*
X144088152Y-122297768D01*
X144088148Y-122297768D01*
X144082868Y-122297068D01*
X144077538Y-122297268D01*
X144077537Y-122297268D01*
X143966523Y-122301435D01*
X143850178Y-122305803D01*
X143767474Y-122323156D01*
X143627514Y-122352523D01*
X143627511Y-122352524D01*
X143622287Y-122353620D01*
X143405710Y-122439150D01*
X143206641Y-122559949D01*
X143202611Y-122563446D01*
X143108075Y-122645480D01*
X143030770Y-122712561D01*
X143027387Y-122716687D01*
X143027383Y-122716691D01*
X142954262Y-122805869D01*
X142883128Y-122892624D01*
X142880490Y-122897259D01*
X142880487Y-122897263D01*
X142857155Y-122938252D01*
X142806073Y-122987558D01*
X142736442Y-123001420D01*
X142670371Y-122975437D01*
X142643133Y-122946287D01*
X142554388Y-122814470D01*
X142551196Y-122809728D01*
X142390468Y-122641242D01*
X142203650Y-122502246D01*
X142076574Y-122437637D01*
X142000842Y-122399133D01*
X142000841Y-122399133D01*
X141996084Y-122396714D01*
X141857299Y-122353620D01*
X141778807Y-122329247D01*
X141778801Y-122329246D01*
X141773704Y-122327663D01*
X141649340Y-122311180D01*
X141548152Y-122297768D01*
X141548148Y-122297768D01*
X141542868Y-122297068D01*
X141537538Y-122297268D01*
X141537537Y-122297268D01*
X141426523Y-122301435D01*
X141310178Y-122305803D01*
X141227474Y-122323156D01*
X141087514Y-122352523D01*
X141087511Y-122352524D01*
X141082287Y-122353620D01*
X140865710Y-122439150D01*
X140666641Y-122559949D01*
X140662611Y-122563446D01*
X140568075Y-122645480D01*
X140490770Y-122712561D01*
X140487387Y-122716687D01*
X140487383Y-122716691D01*
X140414262Y-122805869D01*
X140343128Y-122892624D01*
X140340490Y-122897259D01*
X140340487Y-122897263D01*
X140317155Y-122938252D01*
X140266073Y-122987558D01*
X140196442Y-123001420D01*
X140130371Y-122975437D01*
X140103133Y-122946287D01*
X140014388Y-122814470D01*
X140011196Y-122809728D01*
X139850468Y-122641242D01*
X139663650Y-122502246D01*
X139536574Y-122437637D01*
X139460842Y-122399133D01*
X139460841Y-122399133D01*
X139456084Y-122396714D01*
X139317299Y-122353620D01*
X139238807Y-122329247D01*
X139238801Y-122329246D01*
X139233704Y-122327663D01*
X139109340Y-122311180D01*
X139008152Y-122297768D01*
X139008148Y-122297768D01*
X139002868Y-122297068D01*
X138997538Y-122297268D01*
X138997537Y-122297268D01*
X138886523Y-122301435D01*
X138770178Y-122305803D01*
X138687474Y-122323156D01*
X138547514Y-122352523D01*
X138547511Y-122352524D01*
X138542287Y-122353620D01*
X138325710Y-122439150D01*
X138126641Y-122559949D01*
X138122611Y-122563446D01*
X138028075Y-122645480D01*
X137950770Y-122712561D01*
X137947387Y-122716687D01*
X137947383Y-122716691D01*
X137874262Y-122805869D01*
X137803128Y-122892624D01*
X137800490Y-122897259D01*
X137800487Y-122897263D01*
X137737589Y-123007760D01*
X137687935Y-123094989D01*
X137686114Y-123100005D01*
X137686112Y-123100010D01*
X137644302Y-123215194D01*
X137608485Y-123313869D01*
X137567050Y-123543007D01*
X137566855Y-123547146D01*
X137566854Y-123547153D01*
X137565970Y-123565905D01*
X137565900Y-123567394D01*
X137565900Y-124035868D01*
X137580626Y-124209420D01*
X137581964Y-124214577D01*
X137581965Y-124214580D01*
X137614816Y-124341146D01*
X137639125Y-124434806D01*
X137641317Y-124439672D01*
X137641318Y-124439675D01*
X137649594Y-124458046D01*
X137734762Y-124647113D01*
X137864804Y-124840272D01*
X138025532Y-125008758D01*
X138029817Y-125011946D01*
X138029818Y-125011947D01*
X138177615Y-125121911D01*
X138220328Y-125178621D01*
X138225601Y-125249422D01*
X138191759Y-125311834D01*
X138129547Y-125346041D01*
X138102402Y-125349000D01*
X127238935Y-125349000D01*
X127170814Y-125328998D01*
X127124321Y-125275342D01*
X127114217Y-125205068D01*
X127132550Y-125155486D01*
X127196535Y-125054662D01*
X127196535Y-125054661D01*
X127198659Y-125051315D01*
X127200343Y-125047736D01*
X127200347Y-125047729D01*
X127333078Y-124765660D01*
X127333080Y-124765656D01*
X127334767Y-124762070D01*
X127337800Y-124752737D01*
X127432324Y-124461822D01*
X127433551Y-124458046D01*
X127493451Y-124144039D01*
X127513523Y-123825000D01*
X127493451Y-123505961D01*
X127433551Y-123191954D01*
X127337890Y-122897542D01*
X127335993Y-122891703D01*
X127335993Y-122891702D01*
X127334767Y-122887930D01*
X127333078Y-122884340D01*
X127200347Y-122602271D01*
X127200343Y-122602264D01*
X127198659Y-122598685D01*
X127096170Y-122437188D01*
X127029498Y-122332130D01*
X127029495Y-122332126D01*
X127027371Y-122328779D01*
X126823606Y-122082470D01*
X126590577Y-121863641D01*
X126331959Y-121675744D01*
X126051831Y-121521742D01*
X125889917Y-121457636D01*
X125758293Y-121405522D01*
X125758290Y-121405521D01*
X125754610Y-121404064D01*
X125750776Y-121403080D01*
X125750768Y-121403077D01*
X125558847Y-121353800D01*
X125444983Y-121324565D01*
X125441055Y-121324069D01*
X125441051Y-121324068D01*
X125315358Y-121308190D01*
X125127835Y-121284500D01*
X124808165Y-121284500D01*
X124620642Y-121308190D01*
X124494949Y-121324068D01*
X124494945Y-121324069D01*
X124491017Y-121324565D01*
X124377153Y-121353800D01*
X124185232Y-121403077D01*
X124185224Y-121403080D01*
X124181390Y-121404064D01*
X124177710Y-121405521D01*
X124177707Y-121405522D01*
X124046083Y-121457636D01*
X123884169Y-121521742D01*
X123604041Y-121675744D01*
X123345423Y-121863641D01*
X123112394Y-122082470D01*
X122908629Y-122328779D01*
X122906505Y-122332126D01*
X122906502Y-122332130D01*
X122839830Y-122437188D01*
X122737341Y-122598685D01*
X122735657Y-122602264D01*
X122735653Y-122602271D01*
X122602922Y-122884340D01*
X122601233Y-122887930D01*
X122600007Y-122891702D01*
X122600007Y-122891703D01*
X122598110Y-122897542D01*
X122502449Y-123191954D01*
X122442549Y-123505961D01*
X122422477Y-123825000D01*
X122442549Y-124144039D01*
X122502449Y-124458046D01*
X122503676Y-124461822D01*
X122598201Y-124752737D01*
X122601233Y-124762070D01*
X122602920Y-124765656D01*
X122602922Y-124765660D01*
X122735653Y-125047729D01*
X122735657Y-125047736D01*
X122737341Y-125051315D01*
X122739465Y-125054661D01*
X122739465Y-125054662D01*
X122803450Y-125155486D01*
X122823063Y-125223720D01*
X122802672Y-125291725D01*
X122748752Y-125337911D01*
X122697065Y-125349000D01*
X112140000Y-125349000D01*
X112071879Y-125328998D01*
X112025386Y-125275342D01*
X112014000Y-125223000D01*
X112014000Y-110984630D01*
X140901482Y-110984630D01*
X140917121Y-111170867D01*
X140968636Y-111350520D01*
X141054064Y-111516746D01*
X141057887Y-111521570D01*
X141057890Y-111521574D01*
X141163170Y-111654402D01*
X141170152Y-111663212D01*
X141174846Y-111667207D01*
X141243139Y-111725329D01*
X141312478Y-111784342D01*
X141475621Y-111875519D01*
X141653367Y-111933272D01*
X141838945Y-111955401D01*
X141845080Y-111954929D01*
X141845082Y-111954929D01*
X141901119Y-111950617D01*
X142025287Y-111941063D01*
X142205296Y-111890804D01*
X142210785Y-111888031D01*
X142210791Y-111888029D01*
X142288159Y-111848947D01*
X142372114Y-111806538D01*
X142376965Y-111802748D01*
X142376968Y-111802746D01*
X142461872Y-111736411D01*
X142527867Y-111710233D01*
X142539446Y-111709700D01*
X143514519Y-111709700D01*
X143582640Y-111729702D01*
X143629133Y-111783358D01*
X143639237Y-111853632D01*
X143609743Y-111918212D01*
X143570938Y-111948362D01*
X143434565Y-112016653D01*
X143186416Y-112185294D01*
X142962752Y-112385274D01*
X142960035Y-112388444D01*
X142960034Y-112388445D01*
X142921680Y-112433194D01*
X142767501Y-112613077D01*
X142765227Y-112616579D01*
X142765223Y-112616584D01*
X142609200Y-112856839D01*
X142604093Y-112864703D01*
X142475400Y-113135730D01*
X142383682Y-113421396D01*
X142382941Y-113425515D01*
X142332471Y-113706020D01*
X142330552Y-113716684D01*
X142330363Y-113720851D01*
X142330362Y-113720858D01*
X142321246Y-113921596D01*
X142316941Y-114016404D01*
X142317304Y-114020552D01*
X142317304Y-114020556D01*
X142325231Y-114111157D01*
X142343091Y-114315292D01*
X142344001Y-114319364D01*
X142344002Y-114319369D01*
X142407628Y-114604016D01*
X142408540Y-114608095D01*
X142512140Y-114889671D01*
X142514084Y-114893359D01*
X142514088Y-114893367D01*
X142610805Y-115076807D01*
X142652069Y-115155071D01*
X142825871Y-115399633D01*
X143030490Y-115619061D01*
X143262333Y-115809498D01*
X143517325Y-115967600D01*
X143790988Y-116090589D01*
X143965368Y-116142574D01*
X144074514Y-116175112D01*
X144074516Y-116175112D01*
X144078513Y-116176304D01*
X144082633Y-116176957D01*
X144082635Y-116176957D01*
X144201509Y-116195785D01*
X144374848Y-116223239D01*
X144417577Y-116225179D01*
X144467262Y-116227436D01*
X144467281Y-116227436D01*
X144468681Y-116227500D01*
X144656107Y-116227500D01*
X144879370Y-116212671D01*
X144883464Y-116211846D01*
X144883468Y-116211845D01*
X145024513Y-116183405D01*
X145173480Y-116153368D01*
X145457163Y-116055688D01*
X145460896Y-116053819D01*
X145460900Y-116053817D01*
X145721691Y-115923222D01*
X145721693Y-115923221D01*
X145725435Y-115921347D01*
X145973584Y-115752706D01*
X146197248Y-115552726D01*
X146199966Y-115549555D01*
X146389779Y-115328097D01*
X146389782Y-115328093D01*
X146392499Y-115324923D01*
X146394773Y-115321421D01*
X146394777Y-115321416D01*
X146553628Y-115076807D01*
X146553631Y-115076802D01*
X146555907Y-115073297D01*
X146684600Y-114802270D01*
X146687961Y-114791804D01*
X146775038Y-114520591D01*
X146775038Y-114520590D01*
X146776318Y-114516604D01*
X146829448Y-114221316D01*
X146843059Y-113921596D01*
X146842695Y-113917438D01*
X146842695Y-113917429D01*
X146826343Y-113730530D01*
X146840331Y-113660925D01*
X146889730Y-113609933D01*
X146958856Y-113593742D01*
X147025762Y-113617494D01*
X147040958Y-113630453D01*
X151923593Y-118513088D01*
X151957619Y-118575400D01*
X151960056Y-118591640D01*
X151965605Y-118657728D01*
X151965606Y-118657733D01*
X151966121Y-118663867D01*
X152017636Y-118843520D01*
X152103064Y-119009746D01*
X152106887Y-119014570D01*
X152106890Y-119014574D01*
X152142955Y-119060076D01*
X152219152Y-119156212D01*
X152223846Y-119160207D01*
X152256819Y-119188269D01*
X152361478Y-119277342D01*
X152524621Y-119368519D01*
X152702367Y-119426272D01*
X152887945Y-119448401D01*
X152894080Y-119447929D01*
X152894082Y-119447929D01*
X152950119Y-119443617D01*
X153074287Y-119434063D01*
X153254296Y-119383804D01*
X153259785Y-119381031D01*
X153259791Y-119381029D01*
X153337159Y-119341947D01*
X153421114Y-119299538D01*
X153449524Y-119277342D01*
X153473486Y-119258621D01*
X153568387Y-119184475D01*
X153572413Y-119179811D01*
X153572416Y-119179808D01*
X153672345Y-119064039D01*
X153690507Y-119042998D01*
X153782821Y-118880495D01*
X153797091Y-118837600D01*
X153826578Y-118748958D01*
X153841814Y-118703157D01*
X153857954Y-118575400D01*
X153864796Y-118521241D01*
X153864797Y-118521232D01*
X153865238Y-118517738D01*
X153865611Y-118491000D01*
X153847373Y-118304999D01*
X153793355Y-118126083D01*
X153705615Y-117961066D01*
X153701720Y-117956290D01*
X153591388Y-117821010D01*
X153591385Y-117821007D01*
X153587493Y-117816235D01*
X153577454Y-117807930D01*
X153448239Y-117701034D01*
X153448236Y-117701032D01*
X153443489Y-117697105D01*
X153279089Y-117608214D01*
X153189822Y-117580581D01*
X153106441Y-117554770D01*
X153106438Y-117554769D01*
X153100554Y-117552948D01*
X153094429Y-117552304D01*
X153094428Y-117552304D01*
X153042434Y-117546839D01*
X153006240Y-117543035D01*
X152940583Y-117516022D01*
X152930316Y-117506820D01*
X145938780Y-110515284D01*
X145932926Y-110509018D01*
X145899710Y-110470941D01*
X145899708Y-110470939D01*
X145894718Y-110465219D01*
X145842199Y-110428309D01*
X145836902Y-110424375D01*
X145792366Y-110389454D01*
X145792360Y-110389450D01*
X145786387Y-110384767D01*
X145779466Y-110381642D01*
X145777461Y-110380428D01*
X145762088Y-110371659D01*
X145760004Y-110370541D01*
X145753784Y-110366170D01*
X145746705Y-110363410D01*
X145746703Y-110363409D01*
X145693976Y-110342852D01*
X145687903Y-110340300D01*
X145629391Y-110313880D01*
X145621923Y-110312496D01*
X145619664Y-110311788D01*
X145602682Y-110306951D01*
X145600373Y-110306358D01*
X145593292Y-110303597D01*
X145585763Y-110302606D01*
X145585760Y-110302605D01*
X145529644Y-110295217D01*
X145523130Y-110294185D01*
X145467485Y-110283872D01*
X145467484Y-110283872D01*
X145460017Y-110282488D01*
X145452437Y-110282925D01*
X145452436Y-110282925D01*
X145397530Y-110286091D01*
X145390277Y-110286300D01*
X142539209Y-110286300D01*
X142471088Y-110266298D01*
X142458894Y-110257385D01*
X142419165Y-110224519D01*
X142394489Y-110204105D01*
X142230089Y-110115214D01*
X142140821Y-110087581D01*
X142057441Y-110061770D01*
X142057438Y-110061769D01*
X142051554Y-110059948D01*
X142045429Y-110059304D01*
X142045428Y-110059304D01*
X141871813Y-110041056D01*
X141871812Y-110041056D01*
X141865685Y-110040412D01*
X141747087Y-110051206D01*
X141685703Y-110056792D01*
X141685702Y-110056792D01*
X141679562Y-110057351D01*
X141673648Y-110059092D01*
X141673646Y-110059092D01*
X141551466Y-110095052D01*
X141500273Y-110110119D01*
X141494808Y-110112976D01*
X141376644Y-110174750D01*
X141334647Y-110196705D01*
X141188995Y-110313813D01*
X141068862Y-110456981D01*
X141065899Y-110462370D01*
X141065896Y-110462375D01*
X140992509Y-110595868D01*
X140978826Y-110620757D01*
X140922315Y-110798901D01*
X140901482Y-110984630D01*
X112014000Y-110984630D01*
X112014000Y-107275000D01*
X114525406Y-107275000D01*
X114545742Y-107507444D01*
X114547166Y-107512757D01*
X114547166Y-107512759D01*
X114594908Y-107690932D01*
X114606133Y-107732826D01*
X114608455Y-107737806D01*
X114608456Y-107737808D01*
X114702418Y-107939310D01*
X114702421Y-107939315D01*
X114704744Y-107944297D01*
X114707900Y-107948804D01*
X114707901Y-107948806D01*
X114819214Y-108107777D01*
X114838578Y-108135432D01*
X115003568Y-108300422D01*
X115008076Y-108303579D01*
X115008079Y-108303581D01*
X115190194Y-108431099D01*
X115194703Y-108434256D01*
X115199685Y-108436579D01*
X115199690Y-108436582D01*
X115292764Y-108479983D01*
X115406174Y-108532867D01*
X115411482Y-108534289D01*
X115411484Y-108534290D01*
X115626241Y-108591834D01*
X115626243Y-108591834D01*
X115631556Y-108593258D01*
X115864000Y-108613594D01*
X116096444Y-108593258D01*
X116101757Y-108591834D01*
X116101759Y-108591834D01*
X116316516Y-108534290D01*
X116316518Y-108534289D01*
X116321826Y-108532867D01*
X116435236Y-108479983D01*
X116528310Y-108436582D01*
X116528315Y-108436579D01*
X116533297Y-108434256D01*
X116537806Y-108431099D01*
X116612193Y-108379013D01*
X120124542Y-108379013D01*
X120133838Y-108391028D01*
X120190446Y-108430665D01*
X120199941Y-108436148D01*
X120401364Y-108530072D01*
X120411656Y-108533818D01*
X120626328Y-108591339D01*
X120637123Y-108593242D01*
X120858525Y-108612613D01*
X120869475Y-108612613D01*
X121090877Y-108593242D01*
X121101672Y-108591339D01*
X121316344Y-108533818D01*
X121326636Y-108530072D01*
X121528059Y-108436148D01*
X121537554Y-108430665D01*
X121595000Y-108390441D01*
X121603375Y-108379964D01*
X121596307Y-108366517D01*
X120876812Y-107647022D01*
X120862868Y-107639408D01*
X120861035Y-107639539D01*
X120854420Y-107643790D01*
X120130972Y-108367238D01*
X120124542Y-108379013D01*
X116612193Y-108379013D01*
X116719921Y-108303581D01*
X116719924Y-108303579D01*
X116724432Y-108300422D01*
X116889422Y-108135432D01*
X116908787Y-108107777D01*
X117020099Y-107948806D01*
X117020100Y-107948804D01*
X117023256Y-107944297D01*
X117025579Y-107939315D01*
X117025582Y-107939310D01*
X117119544Y-107737808D01*
X117119545Y-107737806D01*
X117121867Y-107732826D01*
X117133093Y-107690932D01*
X117180834Y-107512759D01*
X117180834Y-107512757D01*
X117182258Y-107507444D01*
X117202115Y-107280475D01*
X119526387Y-107280475D01*
X119545758Y-107501877D01*
X119547661Y-107512672D01*
X119605182Y-107727344D01*
X119608928Y-107737636D01*
X119702852Y-107939059D01*
X119708335Y-107948554D01*
X119748559Y-108006000D01*
X119759036Y-108014375D01*
X119772483Y-108007307D01*
X120491978Y-107287812D01*
X120498356Y-107276132D01*
X121228408Y-107276132D01*
X121228539Y-107277965D01*
X121232790Y-107284580D01*
X121956238Y-108008028D01*
X121968013Y-108014458D01*
X121980028Y-108005162D01*
X122019665Y-107948554D01*
X122025148Y-107939059D01*
X122119072Y-107737636D01*
X122122818Y-107727344D01*
X122180339Y-107512672D01*
X122182242Y-107501877D01*
X122201613Y-107280475D01*
X122201613Y-107269525D01*
X122185818Y-107089000D01*
X141804647Y-107089000D01*
X141824022Y-107310463D01*
X141881560Y-107525196D01*
X141883882Y-107530177D01*
X141883883Y-107530178D01*
X141973186Y-107721689D01*
X141973189Y-107721694D01*
X141975512Y-107726676D01*
X141978668Y-107731183D01*
X141978669Y-107731185D01*
X141983307Y-107737808D01*
X142103023Y-107908781D01*
X142260219Y-108065977D01*
X142264727Y-108069134D01*
X142264730Y-108069136D01*
X142302069Y-108095281D01*
X142442323Y-108193488D01*
X142447305Y-108195811D01*
X142447310Y-108195814D01*
X142638822Y-108285117D01*
X142643804Y-108287440D01*
X142649112Y-108288862D01*
X142649114Y-108288863D01*
X142709196Y-108304962D01*
X142858537Y-108344978D01*
X143080000Y-108364353D01*
X143301463Y-108344978D01*
X143450804Y-108304962D01*
X143510886Y-108288863D01*
X143510888Y-108288862D01*
X143516196Y-108287440D01*
X143521178Y-108285117D01*
X143712690Y-108195814D01*
X143712695Y-108195811D01*
X143717677Y-108193488D01*
X143840085Y-108107777D01*
X145285777Y-108107777D01*
X145295074Y-108119793D01*
X145338069Y-108149898D01*
X145347555Y-108155376D01*
X145538993Y-108244645D01*
X145549285Y-108248391D01*
X145753309Y-108303059D01*
X145764104Y-108304962D01*
X145974525Y-108323372D01*
X145985475Y-108323372D01*
X146195896Y-108304962D01*
X146206691Y-108303059D01*
X146410715Y-108248391D01*
X146421007Y-108244645D01*
X146612445Y-108155376D01*
X146621931Y-108149898D01*
X146665764Y-108119207D01*
X146674139Y-108108729D01*
X146667071Y-108095281D01*
X145992812Y-107421022D01*
X145978868Y-107413408D01*
X145977035Y-107413539D01*
X145970420Y-107417790D01*
X145292207Y-108096003D01*
X145285777Y-108107777D01*
X143840085Y-108107777D01*
X143857931Y-108095281D01*
X143895270Y-108069136D01*
X143895273Y-108069134D01*
X143899781Y-108065977D01*
X144056977Y-107908781D01*
X144176694Y-107737808D01*
X144181331Y-107731185D01*
X144181332Y-107731183D01*
X144184488Y-107726676D01*
X144186811Y-107721694D01*
X144186814Y-107721689D01*
X144276117Y-107530178D01*
X144276118Y-107530177D01*
X144278440Y-107525196D01*
X144335978Y-107310463D01*
X144355353Y-107089000D01*
X144352333Y-107054475D01*
X144705628Y-107054475D01*
X144724038Y-107264896D01*
X144725941Y-107275691D01*
X144780609Y-107479715D01*
X144784355Y-107490007D01*
X144873623Y-107681441D01*
X144879103Y-107690932D01*
X144909794Y-107734765D01*
X144920271Y-107743140D01*
X144933718Y-107736072D01*
X145607978Y-107061812D01*
X145614356Y-107050132D01*
X146344408Y-107050132D01*
X146344539Y-107051965D01*
X146348790Y-107058580D01*
X147027003Y-107736793D01*
X147038777Y-107743223D01*
X147050793Y-107733926D01*
X147080897Y-107690932D01*
X147086377Y-107681441D01*
X147175645Y-107490007D01*
X147179391Y-107479715D01*
X147234059Y-107275691D01*
X147235962Y-107264896D01*
X147254372Y-107054475D01*
X147254372Y-107043525D01*
X147235962Y-106833104D01*
X147234059Y-106822309D01*
X147179391Y-106618285D01*
X147175645Y-106607993D01*
X147086377Y-106416559D01*
X147080897Y-106407068D01*
X147050206Y-106363235D01*
X147039729Y-106354860D01*
X147026282Y-106361928D01*
X146352022Y-107036188D01*
X146344408Y-107050132D01*
X145614356Y-107050132D01*
X145615592Y-107047868D01*
X145615461Y-107046035D01*
X145611210Y-107039420D01*
X144932997Y-106361207D01*
X144921223Y-106354777D01*
X144909207Y-106364074D01*
X144879103Y-106407068D01*
X144873623Y-106416559D01*
X144784355Y-106607993D01*
X144780609Y-106618285D01*
X144725941Y-106822309D01*
X144724038Y-106833104D01*
X144705628Y-107043525D01*
X144705628Y-107054475D01*
X144352333Y-107054475D01*
X144335978Y-106867537D01*
X144286923Y-106684461D01*
X144279863Y-106658114D01*
X144279862Y-106658112D01*
X144278440Y-106652804D01*
X144276117Y-106647822D01*
X144186814Y-106456311D01*
X144186811Y-106456306D01*
X144184488Y-106451324D01*
X144161910Y-106419079D01*
X144060136Y-106273730D01*
X144060134Y-106273727D01*
X144056977Y-106269219D01*
X143899781Y-106112023D01*
X143895273Y-106108866D01*
X143895270Y-106108864D01*
X143807090Y-106047120D01*
X143717677Y-105984512D01*
X143712695Y-105982189D01*
X143712690Y-105982186D01*
X143607627Y-105933195D01*
X143554342Y-105886278D01*
X143534881Y-105818001D01*
X143555423Y-105750041D01*
X143607627Y-105704805D01*
X143712690Y-105655814D01*
X143712695Y-105655811D01*
X143717677Y-105653488D01*
X143835462Y-105571014D01*
X143895270Y-105529136D01*
X143895273Y-105529134D01*
X143899781Y-105525977D01*
X144056977Y-105368781D01*
X144173550Y-105202298D01*
X144181331Y-105191185D01*
X144181332Y-105191183D01*
X144184488Y-105186676D01*
X144186811Y-105181694D01*
X144186814Y-105181689D01*
X144276117Y-104990178D01*
X144276118Y-104990177D01*
X144278440Y-104985196D01*
X144335978Y-104770463D01*
X144355353Y-104549000D01*
X144704647Y-104549000D01*
X144724022Y-104770463D01*
X144781560Y-104985196D01*
X144783882Y-104990177D01*
X144783883Y-104990178D01*
X144873186Y-105181689D01*
X144873189Y-105181694D01*
X144875512Y-105186676D01*
X144878668Y-105191183D01*
X144878669Y-105191185D01*
X144886451Y-105202298D01*
X145003023Y-105368781D01*
X145160219Y-105525977D01*
X145164727Y-105529134D01*
X145164730Y-105529136D01*
X145224538Y-105571014D01*
X145342323Y-105653488D01*
X145410075Y-105685081D01*
X145463360Y-105731998D01*
X145482821Y-105800275D01*
X145462279Y-105868235D01*
X145410075Y-105913471D01*
X145347559Y-105942623D01*
X145338068Y-105948103D01*
X145294235Y-105978794D01*
X145285860Y-105989271D01*
X145292928Y-106002718D01*
X145967188Y-106676978D01*
X145981132Y-106684592D01*
X145982965Y-106684461D01*
X145989580Y-106680210D01*
X146667793Y-106001997D01*
X146674223Y-105990223D01*
X146664926Y-105978207D01*
X146621931Y-105948102D01*
X146612445Y-105942624D01*
X146549926Y-105913471D01*
X146496641Y-105866553D01*
X146477180Y-105798276D01*
X146497722Y-105730316D01*
X146549926Y-105685081D01*
X146612690Y-105655814D01*
X146612695Y-105655811D01*
X146617677Y-105653488D01*
X146735462Y-105571014D01*
X146795270Y-105529136D01*
X146795273Y-105529134D01*
X146799781Y-105525977D01*
X146956977Y-105368781D01*
X147073550Y-105202298D01*
X147081331Y-105191185D01*
X147081332Y-105191183D01*
X147084488Y-105186676D01*
X147086811Y-105181694D01*
X147086814Y-105181689D01*
X147176117Y-104990178D01*
X147176118Y-104990177D01*
X147178440Y-104985196D01*
X147235978Y-104770463D01*
X147255353Y-104549000D01*
X147235978Y-104327537D01*
X147178440Y-104112804D01*
X147096829Y-103937789D01*
X147086814Y-103916311D01*
X147086811Y-103916306D01*
X147084488Y-103911324D01*
X147081331Y-103906815D01*
X146960136Y-103733730D01*
X146960134Y-103733727D01*
X146956977Y-103729219D01*
X146799781Y-103572023D01*
X146795273Y-103568866D01*
X146795270Y-103568864D01*
X146719505Y-103515813D01*
X146617677Y-103444512D01*
X146612695Y-103442189D01*
X146612690Y-103442186D01*
X146431978Y-103357919D01*
X146378693Y-103311002D01*
X146359232Y-103242724D01*
X146379774Y-103174764D01*
X146431978Y-103129529D01*
X146612445Y-103045376D01*
X146621931Y-103039898D01*
X146665764Y-103009207D01*
X146674139Y-102998729D01*
X146667071Y-102985281D01*
X145992812Y-102311022D01*
X145978868Y-102303408D01*
X145977035Y-102303539D01*
X145970420Y-102307790D01*
X145292207Y-102986003D01*
X145285777Y-102997777D01*
X145295074Y-103009793D01*
X145338069Y-103039898D01*
X145347555Y-103045376D01*
X145528022Y-103129529D01*
X145581307Y-103176446D01*
X145600768Y-103244724D01*
X145580226Y-103312684D01*
X145528022Y-103357919D01*
X145347311Y-103442186D01*
X145347306Y-103442189D01*
X145342324Y-103444512D01*
X145337817Y-103447668D01*
X145337815Y-103447669D01*
X145164730Y-103568864D01*
X145164727Y-103568866D01*
X145160219Y-103572023D01*
X145003023Y-103729219D01*
X144999866Y-103733727D01*
X144999864Y-103733730D01*
X144878669Y-103906815D01*
X144875512Y-103911324D01*
X144873189Y-103916306D01*
X144873186Y-103916311D01*
X144863171Y-103937789D01*
X144781560Y-104112804D01*
X144724022Y-104327537D01*
X144704647Y-104549000D01*
X144355353Y-104549000D01*
X144335978Y-104327537D01*
X144278440Y-104112804D01*
X144196829Y-103937789D01*
X144186814Y-103916311D01*
X144186811Y-103916306D01*
X144184488Y-103911324D01*
X144181331Y-103906815D01*
X144060136Y-103733730D01*
X144060134Y-103733727D01*
X144056977Y-103729219D01*
X143899781Y-103572023D01*
X143895273Y-103568866D01*
X143895270Y-103568864D01*
X143819505Y-103515813D01*
X143717677Y-103444512D01*
X143712695Y-103442189D01*
X143712690Y-103442186D01*
X143521182Y-103352885D01*
X143516196Y-103350560D01*
X143516492Y-103349926D01*
X143462683Y-103310308D01*
X143437344Y-103243987D01*
X143451884Y-103174495D01*
X143501686Y-103123896D01*
X143515291Y-103117683D01*
X143516196Y-103117440D01*
X143597486Y-103079534D01*
X143712690Y-103025814D01*
X143712695Y-103025811D01*
X143717677Y-103023488D01*
X143819505Y-102952187D01*
X143895270Y-102899136D01*
X143895273Y-102899134D01*
X143899781Y-102895977D01*
X144056977Y-102738781D01*
X144130890Y-102633223D01*
X144181331Y-102561185D01*
X144181332Y-102561183D01*
X144184488Y-102556676D01*
X144186811Y-102551694D01*
X144186814Y-102551689D01*
X144276117Y-102360178D01*
X144276118Y-102360177D01*
X144278440Y-102355196D01*
X144290277Y-102311022D01*
X144329218Y-102165691D01*
X144335978Y-102140463D01*
X144353124Y-101944475D01*
X144705628Y-101944475D01*
X144724038Y-102154896D01*
X144725941Y-102165691D01*
X144780609Y-102369715D01*
X144784355Y-102380007D01*
X144873623Y-102571441D01*
X144879103Y-102580932D01*
X144909794Y-102624765D01*
X144920271Y-102633140D01*
X144933718Y-102626072D01*
X145607978Y-101951812D01*
X145614356Y-101940132D01*
X146344408Y-101940132D01*
X146344539Y-101941965D01*
X146348790Y-101948580D01*
X147027003Y-102626793D01*
X147038777Y-102633223D01*
X147050793Y-102623926D01*
X147080897Y-102580932D01*
X147086377Y-102571441D01*
X147175645Y-102380007D01*
X147179391Y-102369715D01*
X147234059Y-102165691D01*
X147235962Y-102154896D01*
X147254372Y-101944475D01*
X147254372Y-101933525D01*
X147235962Y-101723104D01*
X147234059Y-101712309D01*
X147179391Y-101508285D01*
X147175645Y-101497993D01*
X147086377Y-101306559D01*
X147080897Y-101297068D01*
X147050206Y-101253235D01*
X147039729Y-101244860D01*
X147026282Y-101251928D01*
X146352022Y-101926188D01*
X146344408Y-101940132D01*
X145614356Y-101940132D01*
X145615592Y-101937868D01*
X145615461Y-101936035D01*
X145611210Y-101929420D01*
X144932997Y-101251207D01*
X144921223Y-101244777D01*
X144909207Y-101254074D01*
X144879103Y-101297068D01*
X144873623Y-101306559D01*
X144784355Y-101497993D01*
X144780609Y-101508285D01*
X144725941Y-101712309D01*
X144724038Y-101723104D01*
X144705628Y-101933525D01*
X144705628Y-101944475D01*
X144353124Y-101944475D01*
X144355353Y-101919000D01*
X144335978Y-101697537D01*
X144278440Y-101482804D01*
X144276117Y-101477822D01*
X144186814Y-101286311D01*
X144186811Y-101286306D01*
X144184488Y-101281324D01*
X144181331Y-101276815D01*
X144060136Y-101103730D01*
X144060134Y-101103727D01*
X144056977Y-101099219D01*
X143899781Y-100942023D01*
X143895273Y-100938866D01*
X143895270Y-100938864D01*
X143751368Y-100838103D01*
X143717677Y-100814512D01*
X143712692Y-100812187D01*
X143712686Y-100812184D01*
X143704131Y-100808195D01*
X143650845Y-100761278D01*
X143631384Y-100693001D01*
X143651926Y-100625041D01*
X143704131Y-100579805D01*
X143712686Y-100575816D01*
X143712692Y-100575813D01*
X143717677Y-100573488D01*
X143885878Y-100455712D01*
X143895270Y-100449136D01*
X143895273Y-100449134D01*
X143899781Y-100445977D01*
X144056977Y-100288781D01*
X144061251Y-100282678D01*
X144181331Y-100111185D01*
X144181332Y-100111183D01*
X144184488Y-100106676D01*
X144186811Y-100101694D01*
X144186814Y-100101689D01*
X144276117Y-99910178D01*
X144276118Y-99910177D01*
X144278440Y-99905196D01*
X144335978Y-99690463D01*
X144355353Y-99469000D01*
X144354478Y-99459000D01*
X144704647Y-99459000D01*
X144724022Y-99680463D01*
X144781560Y-99895196D01*
X144783882Y-99900177D01*
X144783883Y-99900178D01*
X144873186Y-100091689D01*
X144873189Y-100091694D01*
X144875512Y-100096676D01*
X144878668Y-100101183D01*
X144878669Y-100101185D01*
X144985603Y-100253902D01*
X145003023Y-100278781D01*
X145160219Y-100435977D01*
X145164727Y-100439134D01*
X145164730Y-100439136D01*
X145174500Y-100445977D01*
X145342323Y-100563488D01*
X145347308Y-100565813D01*
X145347314Y-100565816D01*
X145388629Y-100585081D01*
X145441915Y-100631998D01*
X145461376Y-100700275D01*
X145440835Y-100768235D01*
X145388630Y-100813471D01*
X145347559Y-100832623D01*
X145338068Y-100838103D01*
X145294235Y-100868794D01*
X145285860Y-100879271D01*
X145292928Y-100892718D01*
X145967188Y-101566978D01*
X145981132Y-101574592D01*
X145982965Y-101574461D01*
X145989580Y-101570210D01*
X146667793Y-100891997D01*
X146674223Y-100880223D01*
X146664926Y-100868207D01*
X146621931Y-100838102D01*
X146612445Y-100832624D01*
X146571371Y-100813471D01*
X146518086Y-100766553D01*
X146498625Y-100698276D01*
X146519167Y-100630316D01*
X146571371Y-100585081D01*
X146612690Y-100565814D01*
X146612695Y-100565811D01*
X146617677Y-100563488D01*
X146785500Y-100445977D01*
X146795270Y-100439136D01*
X146795273Y-100439134D01*
X146799781Y-100435977D01*
X146956977Y-100278781D01*
X146974398Y-100253902D01*
X147081331Y-100101185D01*
X147081332Y-100101183D01*
X147084488Y-100096676D01*
X147086811Y-100091694D01*
X147086814Y-100091689D01*
X147176117Y-99900178D01*
X147176118Y-99900177D01*
X147178440Y-99895196D01*
X147235978Y-99680463D01*
X147255353Y-99459000D01*
X147235978Y-99237537D01*
X147178440Y-99022804D01*
X147091477Y-98836311D01*
X147086814Y-98826311D01*
X147086811Y-98826306D01*
X147084488Y-98821324D01*
X146963979Y-98649219D01*
X146960136Y-98643730D01*
X146960134Y-98643727D01*
X146956977Y-98639219D01*
X146799781Y-98482023D01*
X146795273Y-98478866D01*
X146795270Y-98478864D01*
X146631958Y-98364512D01*
X146617677Y-98354512D01*
X146612695Y-98352189D01*
X146612690Y-98352186D01*
X146518350Y-98308195D01*
X146465065Y-98261278D01*
X146445604Y-98193000D01*
X146466146Y-98125040D01*
X146518350Y-98079805D01*
X146612690Y-98035814D01*
X146612695Y-98035811D01*
X146617677Y-98033488D01*
X146719505Y-97962187D01*
X146795270Y-97909136D01*
X146795273Y-97909134D01*
X146799781Y-97905977D01*
X146956977Y-97748781D01*
X147071894Y-97584663D01*
X147081331Y-97571185D01*
X147081332Y-97571183D01*
X147084488Y-97566676D01*
X147086811Y-97561694D01*
X147086814Y-97561689D01*
X147176117Y-97370178D01*
X147176118Y-97370177D01*
X147178440Y-97365196D01*
X147235978Y-97150463D01*
X147255353Y-96929000D01*
X147235978Y-96707537D01*
X147178440Y-96492804D01*
X147176117Y-96487822D01*
X147086814Y-96296311D01*
X147086811Y-96296306D01*
X147084488Y-96291324D01*
X146956977Y-96109219D01*
X146799781Y-95952023D01*
X146795273Y-95948866D01*
X146795270Y-95948864D01*
X146719505Y-95895813D01*
X146617677Y-95824512D01*
X146612695Y-95822189D01*
X146612690Y-95822186D01*
X146507627Y-95773195D01*
X146454342Y-95726278D01*
X146434881Y-95658001D01*
X146455423Y-95590041D01*
X146507627Y-95544805D01*
X146612690Y-95495814D01*
X146612695Y-95495811D01*
X146617677Y-95493488D01*
X146719505Y-95422187D01*
X146795270Y-95369136D01*
X146795273Y-95369134D01*
X146799781Y-95365977D01*
X146956977Y-95208781D01*
X147084488Y-95026676D01*
X147086811Y-95021694D01*
X147086814Y-95021689D01*
X147176117Y-94830178D01*
X147176118Y-94830177D01*
X147178440Y-94825196D01*
X147235978Y-94610463D01*
X147255353Y-94389000D01*
X147235978Y-94167537D01*
X147178440Y-93952804D01*
X147176117Y-93947822D01*
X147086814Y-93756311D01*
X147086811Y-93756306D01*
X147084488Y-93751324D01*
X146956977Y-93569219D01*
X146799781Y-93412023D01*
X146795273Y-93408866D01*
X146795270Y-93408864D01*
X146704067Y-93345003D01*
X146617677Y-93284512D01*
X146612695Y-93282189D01*
X146612690Y-93282186D01*
X146507627Y-93233195D01*
X146454342Y-93186278D01*
X146434881Y-93118001D01*
X146455423Y-93050041D01*
X146507627Y-93004805D01*
X146612690Y-92955814D01*
X146612695Y-92955811D01*
X146617677Y-92953488D01*
X146719505Y-92882187D01*
X146795270Y-92829136D01*
X146795273Y-92829134D01*
X146799781Y-92825977D01*
X146956977Y-92668781D01*
X147084488Y-92486676D01*
X147086811Y-92481694D01*
X147086814Y-92481689D01*
X147176117Y-92290178D01*
X147176118Y-92290177D01*
X147178440Y-92285196D01*
X147235978Y-92070463D01*
X147255353Y-91849000D01*
X147235978Y-91627537D01*
X147197503Y-91483949D01*
X147179863Y-91418114D01*
X147179862Y-91418112D01*
X147178440Y-91412804D01*
X147176117Y-91407822D01*
X147086814Y-91216311D01*
X147086811Y-91216306D01*
X147084488Y-91211324D01*
X147081331Y-91206815D01*
X146960136Y-91033730D01*
X146960134Y-91033727D01*
X146956977Y-91029219D01*
X146799781Y-90872023D01*
X146795273Y-90868866D01*
X146795270Y-90868864D01*
X146709715Y-90808958D01*
X146617677Y-90744512D01*
X146612695Y-90742189D01*
X146612690Y-90742186D01*
X146421178Y-90652883D01*
X146421177Y-90652882D01*
X146416196Y-90650560D01*
X146410888Y-90649138D01*
X146410886Y-90649137D01*
X146345051Y-90631497D01*
X146201463Y-90593022D01*
X145980000Y-90573647D01*
X145758537Y-90593022D01*
X145614949Y-90631497D01*
X145549114Y-90649137D01*
X145549112Y-90649138D01*
X145543804Y-90650560D01*
X145538823Y-90652882D01*
X145538822Y-90652883D01*
X145347311Y-90742186D01*
X145347306Y-90742189D01*
X145342324Y-90744512D01*
X145337817Y-90747668D01*
X145337815Y-90747669D01*
X145164730Y-90868864D01*
X145164727Y-90868866D01*
X145160219Y-90872023D01*
X145003023Y-91029219D01*
X144999866Y-91033727D01*
X144999864Y-91033730D01*
X144878669Y-91206815D01*
X144875512Y-91211324D01*
X144873189Y-91216306D01*
X144873186Y-91216311D01*
X144783883Y-91407822D01*
X144781560Y-91412804D01*
X144780138Y-91418112D01*
X144780137Y-91418114D01*
X144762497Y-91483949D01*
X144724022Y-91627537D01*
X144704647Y-91849000D01*
X144724022Y-92070463D01*
X144781560Y-92285196D01*
X144783882Y-92290177D01*
X144783883Y-92290178D01*
X144873186Y-92481689D01*
X144873189Y-92481694D01*
X144875512Y-92486676D01*
X145003023Y-92668781D01*
X145160219Y-92825977D01*
X145164727Y-92829134D01*
X145164730Y-92829136D01*
X145240495Y-92882187D01*
X145342323Y-92953488D01*
X145347305Y-92955811D01*
X145347310Y-92955814D01*
X145452373Y-93004805D01*
X145505658Y-93051722D01*
X145525119Y-93119999D01*
X145504577Y-93187959D01*
X145452373Y-93233195D01*
X145347311Y-93282186D01*
X145347306Y-93282189D01*
X145342324Y-93284512D01*
X145337817Y-93287668D01*
X145337815Y-93287669D01*
X145164730Y-93408864D01*
X145164727Y-93408866D01*
X145160219Y-93412023D01*
X145003023Y-93569219D01*
X144875512Y-93751324D01*
X144873189Y-93756306D01*
X144873186Y-93756311D01*
X144783883Y-93947822D01*
X144781560Y-93952804D01*
X144724022Y-94167537D01*
X144704647Y-94389000D01*
X144724022Y-94610463D01*
X144781560Y-94825196D01*
X144783882Y-94830177D01*
X144783883Y-94830178D01*
X144873186Y-95021689D01*
X144873189Y-95021694D01*
X144875512Y-95026676D01*
X145003023Y-95208781D01*
X145160219Y-95365977D01*
X145164727Y-95369134D01*
X145164730Y-95369136D01*
X145240495Y-95422187D01*
X145342323Y-95493488D01*
X145347305Y-95495811D01*
X145347310Y-95495814D01*
X145452373Y-95544805D01*
X145505658Y-95591722D01*
X145525119Y-95659999D01*
X145504577Y-95727959D01*
X145452373Y-95773195D01*
X145347311Y-95822186D01*
X145347306Y-95822189D01*
X145342324Y-95824512D01*
X145337817Y-95827668D01*
X145337815Y-95827669D01*
X145164730Y-95948864D01*
X145164727Y-95948866D01*
X145160219Y-95952023D01*
X145003023Y-96109219D01*
X144875512Y-96291324D01*
X144873189Y-96296306D01*
X144873186Y-96296311D01*
X144783883Y-96487822D01*
X144781560Y-96492804D01*
X144724022Y-96707537D01*
X144704647Y-96929000D01*
X144724022Y-97150463D01*
X144781560Y-97365196D01*
X144783882Y-97370177D01*
X144783883Y-97370178D01*
X144873186Y-97561689D01*
X144873189Y-97561694D01*
X144875512Y-97566676D01*
X144878668Y-97571183D01*
X144878669Y-97571185D01*
X144888107Y-97584663D01*
X145003023Y-97748781D01*
X145160219Y-97905977D01*
X145164727Y-97909134D01*
X145164730Y-97909136D01*
X145240495Y-97962187D01*
X145342323Y-98033488D01*
X145441652Y-98079806D01*
X145494936Y-98126722D01*
X145514397Y-98194999D01*
X145493855Y-98262959D01*
X145441651Y-98308195D01*
X145347311Y-98352186D01*
X145347306Y-98352189D01*
X145342324Y-98354512D01*
X145337817Y-98357668D01*
X145337815Y-98357669D01*
X145164730Y-98478864D01*
X145164727Y-98478866D01*
X145160219Y-98482023D01*
X145003023Y-98639219D01*
X144999866Y-98643727D01*
X144999864Y-98643730D01*
X144996021Y-98649219D01*
X144875512Y-98821324D01*
X144873189Y-98826306D01*
X144873186Y-98826311D01*
X144868523Y-98836311D01*
X144781560Y-99022804D01*
X144724022Y-99237537D01*
X144704647Y-99459000D01*
X144354478Y-99459000D01*
X144335978Y-99247537D01*
X144278440Y-99032804D01*
X144271454Y-99017822D01*
X144186814Y-98836311D01*
X144186811Y-98836306D01*
X144184488Y-98831324D01*
X144056977Y-98649219D01*
X143899781Y-98492023D01*
X143895273Y-98488866D01*
X143895270Y-98488864D01*
X143819505Y-98435813D01*
X143717677Y-98364512D01*
X143712695Y-98362189D01*
X143712690Y-98362186D01*
X143607627Y-98313195D01*
X143554342Y-98266278D01*
X143534881Y-98198001D01*
X143555423Y-98130041D01*
X143607627Y-98084805D01*
X143712690Y-98035814D01*
X143712695Y-98035811D01*
X143717677Y-98033488D01*
X143819505Y-97962187D01*
X143895270Y-97909136D01*
X143895273Y-97909134D01*
X143899781Y-97905977D01*
X144056977Y-97748781D01*
X144171894Y-97584663D01*
X144181331Y-97571185D01*
X144181332Y-97571183D01*
X144184488Y-97566676D01*
X144186811Y-97561694D01*
X144186814Y-97561689D01*
X144276117Y-97370178D01*
X144276118Y-97370177D01*
X144278440Y-97365196D01*
X144335978Y-97150463D01*
X144355353Y-96929000D01*
X144335978Y-96707537D01*
X144278440Y-96492804D01*
X144276117Y-96487822D01*
X144186814Y-96296311D01*
X144186811Y-96296306D01*
X144184488Y-96291324D01*
X144056977Y-96109219D01*
X143899781Y-95952023D01*
X143895273Y-95948866D01*
X143895270Y-95948864D01*
X143819505Y-95895813D01*
X143717677Y-95824512D01*
X143712695Y-95822189D01*
X143712690Y-95822186D01*
X143607627Y-95773195D01*
X143554342Y-95726278D01*
X143534881Y-95658001D01*
X143555423Y-95590041D01*
X143607627Y-95544805D01*
X143712690Y-95495814D01*
X143712695Y-95495811D01*
X143717677Y-95493488D01*
X143819505Y-95422187D01*
X143895270Y-95369136D01*
X143895273Y-95369134D01*
X143899781Y-95365977D01*
X144056977Y-95208781D01*
X144184488Y-95026676D01*
X144186811Y-95021694D01*
X144186814Y-95021689D01*
X144276117Y-94830178D01*
X144276118Y-94830177D01*
X144278440Y-94825196D01*
X144335978Y-94610463D01*
X144355353Y-94389000D01*
X144335978Y-94167537D01*
X144278440Y-93952804D01*
X144276117Y-93947822D01*
X144186814Y-93756311D01*
X144186811Y-93756306D01*
X144184488Y-93751324D01*
X144056977Y-93569219D01*
X143899781Y-93412023D01*
X143895273Y-93408866D01*
X143895270Y-93408864D01*
X143804067Y-93345003D01*
X143717677Y-93284512D01*
X143712695Y-93282189D01*
X143712690Y-93282186D01*
X143607627Y-93233195D01*
X143554342Y-93186278D01*
X143534881Y-93118001D01*
X143555423Y-93050041D01*
X143607627Y-93004805D01*
X143712690Y-92955814D01*
X143712695Y-92955811D01*
X143717677Y-92953488D01*
X143819505Y-92882187D01*
X143895270Y-92829136D01*
X143895273Y-92829134D01*
X143899781Y-92825977D01*
X144056977Y-92668781D01*
X144184488Y-92486676D01*
X144186811Y-92481694D01*
X144186814Y-92481689D01*
X144276117Y-92290178D01*
X144276118Y-92290177D01*
X144278440Y-92285196D01*
X144335978Y-92070463D01*
X144355353Y-91849000D01*
X144335978Y-91627537D01*
X144297503Y-91483949D01*
X144279863Y-91418114D01*
X144279862Y-91418112D01*
X144278440Y-91412804D01*
X144276117Y-91407822D01*
X144186814Y-91216311D01*
X144186811Y-91216306D01*
X144184488Y-91211324D01*
X144181331Y-91206815D01*
X144060136Y-91033730D01*
X144060134Y-91033727D01*
X144056977Y-91029219D01*
X143899781Y-90872023D01*
X143895273Y-90868866D01*
X143895270Y-90868864D01*
X143809715Y-90808958D01*
X143717677Y-90744512D01*
X143712695Y-90742189D01*
X143712690Y-90742186D01*
X143521178Y-90652883D01*
X143521177Y-90652882D01*
X143516196Y-90650560D01*
X143510888Y-90649138D01*
X143510886Y-90649137D01*
X143445051Y-90631497D01*
X143301463Y-90593022D01*
X143080000Y-90573647D01*
X142858537Y-90593022D01*
X142714949Y-90631497D01*
X142649114Y-90649137D01*
X142649112Y-90649138D01*
X142643804Y-90650560D01*
X142638823Y-90652882D01*
X142638822Y-90652883D01*
X142447311Y-90742186D01*
X142447306Y-90742189D01*
X142442324Y-90744512D01*
X142437817Y-90747668D01*
X142437815Y-90747669D01*
X142264730Y-90868864D01*
X142264727Y-90868866D01*
X142260219Y-90872023D01*
X142103023Y-91029219D01*
X142099866Y-91033727D01*
X142099864Y-91033730D01*
X141978669Y-91206815D01*
X141975512Y-91211324D01*
X141973189Y-91216306D01*
X141973186Y-91216311D01*
X141883883Y-91407822D01*
X141881560Y-91412804D01*
X141880138Y-91418112D01*
X141880137Y-91418114D01*
X141862497Y-91483949D01*
X141824022Y-91627537D01*
X141804647Y-91849000D01*
X141824022Y-92070463D01*
X141881560Y-92285196D01*
X141883882Y-92290177D01*
X141883883Y-92290178D01*
X141973186Y-92481689D01*
X141973189Y-92481694D01*
X141975512Y-92486676D01*
X142103023Y-92668781D01*
X142260219Y-92825977D01*
X142264727Y-92829134D01*
X142264730Y-92829136D01*
X142340495Y-92882187D01*
X142442323Y-92953488D01*
X142447305Y-92955811D01*
X142447310Y-92955814D01*
X142552373Y-93004805D01*
X142605658Y-93051722D01*
X142625119Y-93119999D01*
X142604577Y-93187959D01*
X142552373Y-93233195D01*
X142447311Y-93282186D01*
X142447306Y-93282189D01*
X142442324Y-93284512D01*
X142437817Y-93287668D01*
X142437815Y-93287669D01*
X142264730Y-93408864D01*
X142264727Y-93408866D01*
X142260219Y-93412023D01*
X142103023Y-93569219D01*
X141975512Y-93751324D01*
X141973189Y-93756306D01*
X141973186Y-93756311D01*
X141883883Y-93947822D01*
X141881560Y-93952804D01*
X141824022Y-94167537D01*
X141804647Y-94389000D01*
X141824022Y-94610463D01*
X141881560Y-94825196D01*
X141883882Y-94830177D01*
X141883883Y-94830178D01*
X141973186Y-95021689D01*
X141973189Y-95021694D01*
X141975512Y-95026676D01*
X142103023Y-95208781D01*
X142260219Y-95365977D01*
X142264727Y-95369134D01*
X142264730Y-95369136D01*
X142340495Y-95422187D01*
X142442323Y-95493488D01*
X142447305Y-95495811D01*
X142447310Y-95495814D01*
X142552373Y-95544805D01*
X142605658Y-95591722D01*
X142625119Y-95659999D01*
X142604577Y-95727959D01*
X142552373Y-95773195D01*
X142447311Y-95822186D01*
X142447306Y-95822189D01*
X142442324Y-95824512D01*
X142437817Y-95827668D01*
X142437815Y-95827669D01*
X142264730Y-95948864D01*
X142264727Y-95948866D01*
X142260219Y-95952023D01*
X142103023Y-96109219D01*
X141975512Y-96291324D01*
X141973189Y-96296306D01*
X141973186Y-96296311D01*
X141883883Y-96487822D01*
X141881560Y-96492804D01*
X141824022Y-96707537D01*
X141804647Y-96929000D01*
X141824022Y-97150463D01*
X141881560Y-97365196D01*
X141883882Y-97370177D01*
X141883883Y-97370178D01*
X141973186Y-97561689D01*
X141973189Y-97561694D01*
X141975512Y-97566676D01*
X141978668Y-97571183D01*
X141978669Y-97571185D01*
X141988107Y-97584663D01*
X142103023Y-97748781D01*
X142260219Y-97905977D01*
X142264727Y-97909134D01*
X142264730Y-97909136D01*
X142340495Y-97962187D01*
X142442323Y-98033488D01*
X142447305Y-98035811D01*
X142447310Y-98035814D01*
X142552373Y-98084805D01*
X142605658Y-98131722D01*
X142625119Y-98199999D01*
X142604577Y-98267959D01*
X142552373Y-98313195D01*
X142447311Y-98362186D01*
X142447306Y-98362189D01*
X142442324Y-98364512D01*
X142437817Y-98367668D01*
X142437815Y-98367669D01*
X142264730Y-98488864D01*
X142264727Y-98488866D01*
X142260219Y-98492023D01*
X142103023Y-98649219D01*
X141975512Y-98831324D01*
X141973189Y-98836306D01*
X141973186Y-98836311D01*
X141888546Y-99017822D01*
X141881560Y-99032804D01*
X141824022Y-99247537D01*
X141804647Y-99469000D01*
X141824022Y-99690463D01*
X141881560Y-99905196D01*
X141883882Y-99910177D01*
X141883883Y-99910178D01*
X141973186Y-100101689D01*
X141973189Y-100101694D01*
X141975512Y-100106676D01*
X141978668Y-100111183D01*
X141978669Y-100111185D01*
X142098750Y-100282678D01*
X142103023Y-100288781D01*
X142260219Y-100445977D01*
X142264727Y-100449134D01*
X142264730Y-100449136D01*
X142274122Y-100455712D01*
X142442323Y-100573488D01*
X142447308Y-100575813D01*
X142447314Y-100575816D01*
X142455869Y-100579805D01*
X142509155Y-100626722D01*
X142528616Y-100694999D01*
X142508074Y-100762959D01*
X142455873Y-100808194D01*
X142442324Y-100814512D01*
X142437817Y-100817668D01*
X142437815Y-100817669D01*
X142264730Y-100938864D01*
X142264727Y-100938866D01*
X142260219Y-100942023D01*
X142103023Y-101099219D01*
X142099866Y-101103727D01*
X142099864Y-101103730D01*
X141978669Y-101276815D01*
X141975512Y-101281324D01*
X141973189Y-101286306D01*
X141973186Y-101286311D01*
X141883883Y-101477822D01*
X141881560Y-101482804D01*
X141824022Y-101697537D01*
X141804647Y-101919000D01*
X141824022Y-102140463D01*
X141830782Y-102165691D01*
X141869724Y-102311022D01*
X141881560Y-102355196D01*
X141883882Y-102360177D01*
X141883883Y-102360178D01*
X141973186Y-102551689D01*
X141973189Y-102551694D01*
X141975512Y-102556676D01*
X141978668Y-102561183D01*
X141978669Y-102561185D01*
X142029111Y-102633223D01*
X142103023Y-102738781D01*
X142260219Y-102895977D01*
X142264727Y-102899134D01*
X142264730Y-102899136D01*
X142340495Y-102952187D01*
X142442323Y-103023488D01*
X142447305Y-103025811D01*
X142447310Y-103025814D01*
X142562514Y-103079534D01*
X142643804Y-103117440D01*
X142643508Y-103118074D01*
X142697317Y-103157692D01*
X142722656Y-103224013D01*
X142708116Y-103293505D01*
X142658314Y-103344104D01*
X142644709Y-103350317D01*
X142643804Y-103350560D01*
X142638818Y-103352885D01*
X142447311Y-103442186D01*
X142447306Y-103442189D01*
X142442324Y-103444512D01*
X142437817Y-103447668D01*
X142437815Y-103447669D01*
X142264730Y-103568864D01*
X142264727Y-103568866D01*
X142260219Y-103572023D01*
X142103023Y-103729219D01*
X142099866Y-103733727D01*
X142099864Y-103733730D01*
X141978669Y-103906815D01*
X141975512Y-103911324D01*
X141973189Y-103916306D01*
X141973186Y-103916311D01*
X141963171Y-103937789D01*
X141881560Y-104112804D01*
X141824022Y-104327537D01*
X141804647Y-104549000D01*
X141824022Y-104770463D01*
X141881560Y-104985196D01*
X141883882Y-104990177D01*
X141883883Y-104990178D01*
X141973186Y-105181689D01*
X141973189Y-105181694D01*
X141975512Y-105186676D01*
X141978668Y-105191183D01*
X141978669Y-105191185D01*
X141986451Y-105202298D01*
X142103023Y-105368781D01*
X142260219Y-105525977D01*
X142264727Y-105529134D01*
X142264730Y-105529136D01*
X142324538Y-105571014D01*
X142442323Y-105653488D01*
X142447305Y-105655811D01*
X142447310Y-105655814D01*
X142552373Y-105704805D01*
X142605658Y-105751722D01*
X142625119Y-105819999D01*
X142604577Y-105887959D01*
X142552373Y-105933195D01*
X142447311Y-105982186D01*
X142447306Y-105982189D01*
X142442324Y-105984512D01*
X142437817Y-105987668D01*
X142437815Y-105987669D01*
X142264730Y-106108864D01*
X142264727Y-106108866D01*
X142260219Y-106112023D01*
X142103023Y-106269219D01*
X142099866Y-106273727D01*
X142099864Y-106273730D01*
X141998090Y-106419079D01*
X141975512Y-106451324D01*
X141973189Y-106456306D01*
X141973186Y-106456311D01*
X141883883Y-106647822D01*
X141881560Y-106652804D01*
X141880138Y-106658112D01*
X141880137Y-106658114D01*
X141873077Y-106684461D01*
X141824022Y-106867537D01*
X141804647Y-107089000D01*
X122185818Y-107089000D01*
X122182242Y-107048123D01*
X122180339Y-107037328D01*
X122122818Y-106822656D01*
X122119072Y-106812364D01*
X122025148Y-106610941D01*
X122019665Y-106601446D01*
X121979441Y-106544000D01*
X121968964Y-106535625D01*
X121955517Y-106542693D01*
X121236022Y-107262188D01*
X121228408Y-107276132D01*
X120498356Y-107276132D01*
X120499592Y-107273868D01*
X120499461Y-107272035D01*
X120495210Y-107265420D01*
X119771762Y-106541972D01*
X119759987Y-106535542D01*
X119747972Y-106544838D01*
X119708335Y-106601446D01*
X119702852Y-106610941D01*
X119608928Y-106812364D01*
X119605182Y-106822656D01*
X119547661Y-107037328D01*
X119545758Y-107048123D01*
X119526387Y-107269525D01*
X119526387Y-107280475D01*
X117202115Y-107280475D01*
X117202594Y-107275000D01*
X117182258Y-107042556D01*
X117180552Y-107036188D01*
X117123290Y-106822484D01*
X117123289Y-106822482D01*
X117121867Y-106817174D01*
X117109540Y-106790738D01*
X117025582Y-106610690D01*
X117025579Y-106610685D01*
X117023256Y-106605703D01*
X117008153Y-106584133D01*
X116892581Y-106419079D01*
X116892579Y-106419076D01*
X116889422Y-106414568D01*
X116724432Y-106249578D01*
X116719924Y-106246421D01*
X116719921Y-106246419D01*
X116537806Y-106118901D01*
X116537804Y-106118900D01*
X116533297Y-106115744D01*
X116528315Y-106113421D01*
X116528310Y-106113418D01*
X116326808Y-106019456D01*
X116326806Y-106019455D01*
X116321826Y-106017133D01*
X116316518Y-106015711D01*
X116316516Y-106015710D01*
X116101759Y-105958166D01*
X116101757Y-105958166D01*
X116096444Y-105956742D01*
X115864000Y-105936406D01*
X115631556Y-105956742D01*
X115626243Y-105958166D01*
X115626241Y-105958166D01*
X115411484Y-106015710D01*
X115411482Y-106015711D01*
X115406174Y-106017133D01*
X115401194Y-106019455D01*
X115401192Y-106019456D01*
X115199690Y-106113418D01*
X115199685Y-106113421D01*
X115194703Y-106115744D01*
X115190196Y-106118900D01*
X115190194Y-106118901D01*
X115008079Y-106246419D01*
X115008076Y-106246421D01*
X115003568Y-106249578D01*
X114838578Y-106414568D01*
X114835421Y-106419076D01*
X114835419Y-106419079D01*
X114719847Y-106584133D01*
X114704744Y-106605703D01*
X114702421Y-106610685D01*
X114702418Y-106610690D01*
X114618460Y-106790738D01*
X114606133Y-106817174D01*
X114604711Y-106822482D01*
X114604710Y-106822484D01*
X114547448Y-107036188D01*
X114545742Y-107042556D01*
X114525406Y-107275000D01*
X112014000Y-107275000D01*
X112014000Y-102275000D01*
X116800681Y-102275000D01*
X116819928Y-102519557D01*
X116821082Y-102524364D01*
X116821083Y-102524370D01*
X116844985Y-102623926D01*
X116877195Y-102758092D01*
X116971073Y-102984732D01*
X117050971Y-103115115D01*
X117088555Y-103176446D01*
X117099248Y-103193896D01*
X117102463Y-103197660D01*
X117102465Y-103197663D01*
X117239338Y-103357919D01*
X117258567Y-103380433D01*
X117262323Y-103383641D01*
X117354444Y-103462321D01*
X117393253Y-103521772D01*
X117393759Y-103592767D01*
X117355938Y-103652646D01*
X117279142Y-103720350D01*
X117279139Y-103720353D01*
X117275345Y-103723698D01*
X117121266Y-103911278D01*
X117109283Y-103931867D01*
X117003975Y-104112804D01*
X116999159Y-104121078D01*
X116997346Y-104125801D01*
X116919908Y-104327537D01*
X116912167Y-104347702D01*
X116911133Y-104352652D01*
X116911132Y-104352655D01*
X116865126Y-104572876D01*
X116862526Y-104585320D01*
X116851514Y-104827817D01*
X116852095Y-104832837D01*
X116852095Y-104832841D01*
X116869724Y-104985196D01*
X116879415Y-105068956D01*
X116880791Y-105073820D01*
X116880792Y-105073823D01*
X116926476Y-105235266D01*
X116945510Y-105302532D01*
X116947644Y-105307108D01*
X116947646Y-105307114D01*
X117004446Y-105428922D01*
X117048099Y-105522536D01*
X117184544Y-105723307D01*
X117351332Y-105899681D01*
X117355358Y-105902759D01*
X117355359Y-105902760D01*
X117540154Y-106044047D01*
X117540158Y-106044050D01*
X117544174Y-106047120D01*
X117548632Y-106049510D01*
X117548633Y-106049511D01*
X117667819Y-106113418D01*
X117758109Y-106161831D01*
X117987631Y-106240862D01*
X118060654Y-106253475D01*
X118222926Y-106281504D01*
X118222932Y-106281505D01*
X118226836Y-106282179D01*
X118230797Y-106282359D01*
X118230798Y-106282359D01*
X118254506Y-106283436D01*
X118254525Y-106283436D01*
X118255925Y-106283500D01*
X118425001Y-106283500D01*
X118427509Y-106283298D01*
X118427514Y-106283298D01*
X118600924Y-106269346D01*
X118600929Y-106269345D01*
X118605965Y-106268940D01*
X118610873Y-106267734D01*
X118610876Y-106267734D01*
X118836792Y-106212244D01*
X118841706Y-106211037D01*
X118846358Y-106209062D01*
X118846362Y-106209061D01*
X118938299Y-106170036D01*
X120124625Y-106170036D01*
X120131693Y-106183483D01*
X120851188Y-106902978D01*
X120865132Y-106910592D01*
X120866965Y-106910461D01*
X120873580Y-106906210D01*
X121597028Y-106182762D01*
X121603458Y-106170987D01*
X121594162Y-106158972D01*
X121537554Y-106119335D01*
X121528059Y-106113852D01*
X121326636Y-106019928D01*
X121316344Y-106016182D01*
X121101672Y-105958661D01*
X121090877Y-105956758D01*
X120869475Y-105937387D01*
X120858525Y-105937387D01*
X120637123Y-105956758D01*
X120626328Y-105958661D01*
X120411656Y-106016182D01*
X120401364Y-106019928D01*
X120199941Y-106113852D01*
X120190446Y-106119335D01*
X120133000Y-106159559D01*
X120124625Y-106170036D01*
X118938299Y-106170036D01*
X119057742Y-106119335D01*
X119065156Y-106116188D01*
X119171037Y-106049511D01*
X119266288Y-105989528D01*
X119266291Y-105989526D01*
X119270567Y-105986833D01*
X119331408Y-105933195D01*
X119448858Y-105829650D01*
X119448861Y-105829647D01*
X119452655Y-105826302D01*
X119458653Y-105819000D01*
X119603526Y-105642628D01*
X119603528Y-105642625D01*
X119606734Y-105638722D01*
X119728841Y-105428922D01*
X119815833Y-105202298D01*
X119819097Y-105186676D01*
X119864440Y-104969631D01*
X119864440Y-104969627D01*
X119865474Y-104964680D01*
X119876486Y-104722183D01*
X119875817Y-104716401D01*
X119849167Y-104486071D01*
X119849166Y-104486067D01*
X119848585Y-104481044D01*
X119840609Y-104452855D01*
X119783866Y-104252331D01*
X119782490Y-104247468D01*
X119780356Y-104242892D01*
X119780354Y-104242886D01*
X119682038Y-104032046D01*
X119682036Y-104032042D01*
X119679901Y-104027464D01*
X119543456Y-103826693D01*
X119376668Y-103650319D01*
X119374176Y-103648414D01*
X119337221Y-103588433D01*
X119338572Y-103517449D01*
X119376940Y-103459430D01*
X119465677Y-103383641D01*
X119469433Y-103380433D01*
X119488662Y-103357919D01*
X119625535Y-103197663D01*
X119625537Y-103197660D01*
X119628752Y-103193896D01*
X119639446Y-103176446D01*
X119677029Y-103115115D01*
X119756927Y-102984732D01*
X119850805Y-102758092D01*
X119883015Y-102623926D01*
X119906917Y-102524370D01*
X119906918Y-102524364D01*
X119908072Y-102519557D01*
X119927319Y-102275000D01*
X119908072Y-102030443D01*
X119889195Y-101951812D01*
X119851960Y-101796720D01*
X119850805Y-101791908D01*
X119756927Y-101565268D01*
X119628752Y-101356104D01*
X119564884Y-101281324D01*
X119472641Y-101173323D01*
X119469433Y-101169567D01*
X119465677Y-101166359D01*
X119286663Y-101013465D01*
X119286660Y-101013463D01*
X119282896Y-101010248D01*
X119278673Y-101007660D01*
X119278670Y-101007658D01*
X119209485Y-100965262D01*
X119073732Y-100882073D01*
X118918248Y-100817669D01*
X118851665Y-100790089D01*
X118851663Y-100790088D01*
X118847092Y-100788195D01*
X118741976Y-100762959D01*
X118613370Y-100732083D01*
X118613364Y-100732082D01*
X118608557Y-100730928D01*
X118364000Y-100711681D01*
X118119443Y-100730928D01*
X118114636Y-100732082D01*
X118114630Y-100732083D01*
X117986024Y-100762959D01*
X117880908Y-100788195D01*
X117876337Y-100790088D01*
X117876335Y-100790089D01*
X117809752Y-100817669D01*
X117654268Y-100882073D01*
X117518515Y-100965262D01*
X117449330Y-101007658D01*
X117449327Y-101007660D01*
X117445104Y-101010248D01*
X117441340Y-101013463D01*
X117441337Y-101013465D01*
X117262323Y-101166359D01*
X117258567Y-101169567D01*
X117255359Y-101173323D01*
X117163117Y-101281324D01*
X117099248Y-101356104D01*
X116971073Y-101565268D01*
X116877195Y-101791908D01*
X116876040Y-101796720D01*
X116838806Y-101951812D01*
X116819928Y-102030443D01*
X116800681Y-102275000D01*
X112014000Y-102275000D01*
X112014000Y-74167000D01*
X112034002Y-74098879D01*
X112087658Y-74052386D01*
X112140000Y-74041000D01*
X123967065Y-74041000D01*
X124035186Y-74061002D01*
G37*
G04 #@! TD.AperFunction*
G04 #@! TD*
G04 #@! TA.AperFunction,Conductor*
G04 #@! TO.N,GND*
G36*
X210737260Y-74061002D02*
G01*
X210783753Y-74114658D01*
X210793857Y-74184932D01*
X210764363Y-74249512D01*
X210744705Y-74267825D01*
X210632739Y-74351739D01*
X210545385Y-74468295D01*
X210494255Y-74604684D01*
X210487500Y-74666866D01*
X210487500Y-76463134D01*
X210494255Y-76525316D01*
X210545385Y-76661705D01*
X210632739Y-76778261D01*
X210749295Y-76865615D01*
X210885684Y-76916745D01*
X210947866Y-76923500D01*
X212744134Y-76923500D01*
X212806316Y-76916745D01*
X212942705Y-76865615D01*
X213059261Y-76778261D01*
X213146615Y-76661705D01*
X213190798Y-76543848D01*
X213233440Y-76487084D01*
X213300001Y-76462384D01*
X213369350Y-76477592D01*
X213404017Y-76505580D01*
X213429218Y-76534673D01*
X213436580Y-76541883D01*
X213600434Y-76677916D01*
X213608881Y-76683831D01*
X213792756Y-76791279D01*
X213802042Y-76795729D01*
X214001001Y-76871703D01*
X214010899Y-76874579D01*
X214114250Y-76895606D01*
X214128299Y-76894410D01*
X214132000Y-76884065D01*
X214132000Y-76883517D01*
X214640000Y-76883517D01*
X214644064Y-76897359D01*
X214657478Y-76899393D01*
X214664184Y-76898534D01*
X214674262Y-76896392D01*
X214878255Y-76835191D01*
X214887842Y-76831433D01*
X215079095Y-76737739D01*
X215087945Y-76732464D01*
X215261328Y-76608792D01*
X215269200Y-76602139D01*
X215420052Y-76451812D01*
X215426730Y-76443965D01*
X215554022Y-76266819D01*
X215555147Y-76267627D01*
X215602669Y-76223876D01*
X215672607Y-76211661D01*
X215738046Y-76239197D01*
X215765870Y-76271028D01*
X215823690Y-76365383D01*
X215829777Y-76373699D01*
X215969213Y-76534667D01*
X215976580Y-76541883D01*
X216140434Y-76677916D01*
X216148881Y-76683831D01*
X216332756Y-76791279D01*
X216342042Y-76795729D01*
X216541001Y-76871703D01*
X216550899Y-76874579D01*
X216654250Y-76895606D01*
X216668299Y-76894410D01*
X216672000Y-76884065D01*
X216672000Y-75837115D01*
X216667525Y-75821876D01*
X216666135Y-75820671D01*
X216658452Y-75819000D01*
X214658115Y-75819000D01*
X214642876Y-75823475D01*
X214641671Y-75824865D01*
X214640000Y-75832548D01*
X214640000Y-76883517D01*
X214132000Y-76883517D01*
X214132000Y-75437000D01*
X214152002Y-75368879D01*
X214205658Y-75322386D01*
X214258000Y-75311000D01*
X217054000Y-75311000D01*
X217122121Y-75331002D01*
X217168614Y-75384658D01*
X217180000Y-75437000D01*
X217180000Y-76883517D01*
X217184064Y-76897359D01*
X217197478Y-76899393D01*
X217204184Y-76898534D01*
X217214262Y-76896392D01*
X217418255Y-76835191D01*
X217427842Y-76831433D01*
X217619095Y-76737739D01*
X217627945Y-76732464D01*
X217801328Y-76608792D01*
X217809200Y-76602139D01*
X217960052Y-76451812D01*
X217966730Y-76443965D01*
X218094022Y-76266819D01*
X218095279Y-76267722D01*
X218142373Y-76224362D01*
X218212311Y-76212145D01*
X218277751Y-76239678D01*
X218305579Y-76271511D01*
X218365987Y-76370088D01*
X218512250Y-76538938D01*
X218684126Y-76681632D01*
X218877000Y-76794338D01*
X219085692Y-76874030D01*
X219090760Y-76875061D01*
X219090763Y-76875062D01*
X219185862Y-76894410D01*
X219304597Y-76918567D01*
X219309772Y-76918757D01*
X219309774Y-76918757D01*
X219522673Y-76926564D01*
X219522677Y-76926564D01*
X219527837Y-76926753D01*
X219532957Y-76926097D01*
X219532959Y-76926097D01*
X219744288Y-76899025D01*
X219744289Y-76899025D01*
X219749416Y-76898368D01*
X219754366Y-76896883D01*
X219958429Y-76835661D01*
X219958434Y-76835659D01*
X219963384Y-76834174D01*
X220163994Y-76735896D01*
X220345860Y-76606173D01*
X220504096Y-76448489D01*
X220634453Y-76267077D01*
X220647995Y-76239678D01*
X220731136Y-76071453D01*
X220731137Y-76071451D01*
X220733430Y-76066811D01*
X220798370Y-75853069D01*
X220827529Y-75631590D01*
X220829156Y-75565000D01*
X220810852Y-75342361D01*
X220756431Y-75125702D01*
X220667354Y-74920840D01*
X220546014Y-74733277D01*
X220395670Y-74568051D01*
X220391619Y-74564852D01*
X220391615Y-74564848D01*
X220224414Y-74432800D01*
X220224410Y-74432798D01*
X220220359Y-74429598D01*
X220184028Y-74409542D01*
X220168136Y-74400769D01*
X220024789Y-74321638D01*
X220019920Y-74319914D01*
X220019916Y-74319912D01*
X219923509Y-74285773D01*
X219865973Y-74244179D01*
X219840057Y-74178081D01*
X219853991Y-74108465D01*
X219903350Y-74057434D01*
X219965569Y-74041000D01*
X227712000Y-74041000D01*
X227780121Y-74061002D01*
X227826614Y-74114658D01*
X227838000Y-74167000D01*
X227838000Y-125223000D01*
X227817998Y-125291121D01*
X227764342Y-125337614D01*
X227712000Y-125349000D01*
X202565000Y-125349000D01*
X202565000Y-74041000D01*
X210669139Y-74041000D01*
X210737260Y-74061002D01*
G37*
G04 #@! TD.AperFunction*
G04 #@! TD*
G04 #@! TA.AperFunction,Conductor*
G04 #@! TO.N,GND*
G36*
X202692000Y-86360000D02*
G01*
X178816000Y-86360000D01*
X178816000Y-77936375D01*
X180743581Y-77936375D01*
X180760499Y-78229787D01*
X180817082Y-78518188D01*
X180818469Y-78522239D01*
X180818470Y-78522243D01*
X180910892Y-78792187D01*
X180910896Y-78792196D01*
X180912281Y-78796242D01*
X181044335Y-79058803D01*
X181210801Y-79301013D01*
X181408599Y-79518390D01*
X181411888Y-79521140D01*
X181630776Y-79704159D01*
X181630781Y-79704163D01*
X181634068Y-79706911D01*
X181758553Y-79785000D01*
X181879397Y-79860806D01*
X181879401Y-79860808D01*
X181883037Y-79863089D01*
X182150897Y-79984032D01*
X182155016Y-79985252D01*
X182428580Y-80066286D01*
X182428585Y-80066287D01*
X182432693Y-80067504D01*
X182436930Y-80068152D01*
X182436933Y-80068153D01*
X182680677Y-80105451D01*
X182723211Y-80111960D01*
X182872870Y-80114311D01*
X183012783Y-80116509D01*
X183012789Y-80116509D01*
X183017074Y-80116576D01*
X183308844Y-80081268D01*
X183593123Y-80006689D01*
X183597083Y-80005049D01*
X183597088Y-80005047D01*
X183743197Y-79944526D01*
X183864651Y-79894218D01*
X184118402Y-79745938D01*
X184349681Y-79564592D01*
X184554210Y-79353535D01*
X184556743Y-79350087D01*
X184556747Y-79350082D01*
X184725664Y-79120129D01*
X184728202Y-79116674D01*
X184868438Y-78858390D01*
X184972324Y-78583464D01*
X185037937Y-78296982D01*
X185064063Y-78004247D01*
X185064537Y-77959000D01*
X185062995Y-77936375D01*
X196443581Y-77936375D01*
X196460499Y-78229787D01*
X196517082Y-78518188D01*
X196518469Y-78522239D01*
X196518470Y-78522243D01*
X196610892Y-78792187D01*
X196610896Y-78792196D01*
X196612281Y-78796242D01*
X196744335Y-79058803D01*
X196910801Y-79301013D01*
X197108599Y-79518390D01*
X197111888Y-79521140D01*
X197330776Y-79704159D01*
X197330781Y-79704163D01*
X197334068Y-79706911D01*
X197458553Y-79785000D01*
X197579397Y-79860806D01*
X197579401Y-79860808D01*
X197583037Y-79863089D01*
X197850897Y-79984032D01*
X197855016Y-79985252D01*
X198128580Y-80066286D01*
X198128585Y-80066287D01*
X198132693Y-80067504D01*
X198136930Y-80068152D01*
X198136933Y-80068153D01*
X198380677Y-80105451D01*
X198423211Y-80111960D01*
X198572870Y-80114311D01*
X198712783Y-80116509D01*
X198712789Y-80116509D01*
X198717074Y-80116576D01*
X199008844Y-80081268D01*
X199293123Y-80006689D01*
X199297083Y-80005049D01*
X199297088Y-80005047D01*
X199443197Y-79944526D01*
X199564651Y-79894218D01*
X199818402Y-79745938D01*
X200049681Y-79564592D01*
X200254210Y-79353535D01*
X200256743Y-79350087D01*
X200256747Y-79350082D01*
X200425664Y-79120129D01*
X200428202Y-79116674D01*
X200568438Y-78858390D01*
X200672324Y-78583464D01*
X200737937Y-78296982D01*
X200764063Y-78004247D01*
X200764537Y-77959000D01*
X200762995Y-77936375D01*
X200744839Y-77670058D01*
X200744838Y-77670052D01*
X200744547Y-77665781D01*
X200739909Y-77643382D01*
X200685819Y-77382195D01*
X200684948Y-77377989D01*
X200586843Y-77100947D01*
X200452046Y-76839783D01*
X200283053Y-76599330D01*
X200082989Y-76384036D01*
X199855558Y-76197886D01*
X199604968Y-76044324D01*
X199335856Y-75926192D01*
X199309345Y-75918640D01*
X199284200Y-75911477D01*
X199053201Y-75845676D01*
X199048959Y-75845072D01*
X199048953Y-75845071D01*
X198766485Y-75804870D01*
X198762234Y-75804265D01*
X198607336Y-75803454D01*
X198472625Y-75802748D01*
X198472618Y-75802748D01*
X198468339Y-75802726D01*
X198464095Y-75803285D01*
X198464091Y-75803285D01*
X198335508Y-75820214D01*
X198176954Y-75841088D01*
X198172814Y-75842221D01*
X198172812Y-75842221D01*
X197897616Y-75917506D01*
X197893471Y-75918640D01*
X197623137Y-76033947D01*
X197370952Y-76184877D01*
X197367601Y-76187561D01*
X197367599Y-76187563D01*
X197144941Y-76365945D01*
X197144936Y-76365949D01*
X197141584Y-76368635D01*
X196939278Y-76581822D01*
X196767775Y-76820493D01*
X196630251Y-77080230D01*
X196529250Y-77356229D01*
X196466641Y-77643382D01*
X196443581Y-77936375D01*
X185062995Y-77936375D01*
X185044839Y-77670058D01*
X185044838Y-77670052D01*
X185044547Y-77665781D01*
X185039909Y-77643382D01*
X184985819Y-77382195D01*
X184984948Y-77377989D01*
X184886843Y-77100947D01*
X184752046Y-76839783D01*
X184583053Y-76599330D01*
X184382989Y-76384036D01*
X184155558Y-76197886D01*
X183904968Y-76044324D01*
X183635856Y-75926192D01*
X183609345Y-75918640D01*
X183584200Y-75911477D01*
X183353201Y-75845676D01*
X183348959Y-75845072D01*
X183348953Y-75845071D01*
X183066485Y-75804870D01*
X183062234Y-75804265D01*
X182907336Y-75803454D01*
X182772625Y-75802748D01*
X182772618Y-75802748D01*
X182768339Y-75802726D01*
X182764095Y-75803285D01*
X182764091Y-75803285D01*
X182635508Y-75820214D01*
X182476954Y-75841088D01*
X182472814Y-75842221D01*
X182472812Y-75842221D01*
X182197616Y-75917506D01*
X182193471Y-75918640D01*
X181923137Y-76033947D01*
X181670952Y-76184877D01*
X181667601Y-76187561D01*
X181667599Y-76187563D01*
X181444941Y-76365945D01*
X181444936Y-76365949D01*
X181441584Y-76368635D01*
X181239278Y-76581822D01*
X181067775Y-76820493D01*
X180930251Y-77080230D01*
X180829250Y-77356229D01*
X180766641Y-77643382D01*
X180743581Y-77936375D01*
X178816000Y-77936375D01*
X178816000Y-74041000D01*
X202692000Y-74041000D01*
X202692000Y-86360000D01*
G37*
G04 #@! TD.AperFunction*
G04 #@! TD*
G04 #@! TA.AperFunction,Conductor*
G04 #@! TO.N,GND*
G36*
X202692000Y-125349000D02*
G01*
X178816000Y-125349000D01*
X178816000Y-120560407D01*
X178890715Y-120490245D01*
X178890716Y-120490244D01*
X178893606Y-120487530D01*
X179097371Y-120241221D01*
X179268659Y-119971315D01*
X179270343Y-119967736D01*
X179270347Y-119967729D01*
X179403078Y-119685660D01*
X179403080Y-119685656D01*
X179404767Y-119682070D01*
X179503551Y-119378046D01*
X179563451Y-119064039D01*
X179583523Y-118745000D01*
X179563451Y-118425961D01*
X179503551Y-118111954D01*
X179404767Y-117807930D01*
X179403078Y-117804340D01*
X179270347Y-117522271D01*
X179270343Y-117522264D01*
X179268659Y-117518685D01*
X179097371Y-117248779D01*
X178893606Y-117002470D01*
X178816000Y-116929593D01*
X178816000Y-97155000D01*
X202692000Y-97155000D01*
X202692000Y-125349000D01*
G37*
G04 #@! TD.AperFunction*
G04 #@! TD*
M02*
