G04 #@! TF.GenerationSoftware,KiCad,Pcbnew,(6.0.6)*
G04 #@! TF.CreationDate,2022-07-18T13:46:11+09:00*
G04 #@! TF.ProjectId,mt_reflowcnt,6d745f72-6566-46c6-9f77-636e742e6b69,rev?*
G04 #@! TF.SameCoordinates,Original*
G04 #@! TF.FileFunction,Soldermask,Top*
G04 #@! TF.FilePolarity,Negative*
%FSLAX46Y46*%
G04 Gerber Fmt 4.6, Leading zero omitted, Abs format (unit mm)*
G04 Created by KiCad (PCBNEW (6.0.6)) date 2022-07-18 13:46:11*
%MOMM*%
%LPD*%
G01*
G04 APERTURE LIST*
G04 Aperture macros list*
%AMRoundRect*
0 Rectangle with rounded corners*
0 $1 Rounding radius*
0 $2 $3 $4 $5 $6 $7 $8 $9 X,Y pos of 4 corners*
0 Add a 4 corners polygon primitive as box body*
4,1,4,$2,$3,$4,$5,$6,$7,$8,$9,$2,$3,0*
0 Add four circle primitives for the rounded corners*
1,1,$1+$1,$2,$3*
1,1,$1+$1,$4,$5*
1,1,$1+$1,$6,$7*
1,1,$1+$1,$8,$9*
0 Add four rect primitives between the rounded corners*
20,1,$1+$1,$2,$3,$4,$5,0*
20,1,$1+$1,$4,$5,$6,$7,0*
20,1,$1+$1,$6,$7,$8,$9,0*
20,1,$1+$1,$8,$9,$2,$3,0*%
G04 Aperture macros list end*
%ADD10RoundRect,0.250000X-0.337500X-0.475000X0.337500X-0.475000X0.337500X0.475000X-0.337500X0.475000X0*%
%ADD11RoundRect,0.250000X0.337500X0.475000X-0.337500X0.475000X-0.337500X-0.475000X0.337500X-0.475000X0*%
%ADD12R,1.200000X0.600000*%
%ADD13C,3.200000*%
%ADD14R,1.700000X1.700000*%
%ADD15O,1.700000X1.700000*%
%ADD16RoundRect,0.237500X0.237500X-0.287500X0.237500X0.287500X-0.237500X0.287500X-0.237500X-0.287500X0*%
%ADD17RoundRect,0.250000X-0.450000X0.325000X-0.450000X-0.325000X0.450000X-0.325000X0.450000X0.325000X0*%
%ADD18R,2.000000X1.400000*%
%ADD19C,1.650000*%
%ADD20C,2.100000*%
%ADD21C,2.000000*%
%ADD22R,0.650000X1.525000*%
%ADD23R,0.600000X1.250000*%
%ADD24RoundRect,0.250000X0.350000X0.450000X-0.350000X0.450000X-0.350000X-0.450000X0.350000X-0.450000X0*%
%ADD25RoundRect,0.250000X-0.350000X-0.450000X0.350000X-0.450000X0.350000X0.450000X-0.350000X0.450000X0*%
%ADD26RoundRect,0.250000X0.450000X-0.350000X0.450000X0.350000X-0.450000X0.350000X-0.450000X-0.350000X0*%
%ADD27C,3.294000*%
%ADD28C,1.524000*%
%ADD29C,3.500000*%
%ADD30O,1.727200X2.032000*%
%ADD31C,4.064000*%
G04 APERTURE END LIST*
D10*
G04 #@! TO.C,C8*
X168910000Y-110363000D03*
X170985000Y-110363000D03*
G04 #@! TD*
D11*
G04 #@! TO.C,C7*
X161587000Y-110363000D03*
X159512000Y-110363000D03*
G04 #@! TD*
D12*
G04 #@! TO.C,IC5*
X166350000Y-110937000D03*
X166350000Y-111887000D03*
X166350000Y-112837000D03*
X163850000Y-112837000D03*
X163850000Y-111887000D03*
X163850000Y-110937000D03*
G04 #@! TD*
G04 #@! TO.C,IC2*
X163828500Y-105857000D03*
X163828500Y-106807000D03*
X163828500Y-107757000D03*
X166328500Y-107757000D03*
X166328500Y-106807000D03*
X166328500Y-105857000D03*
G04 #@! TD*
G04 #@! TO.C,IC1*
X163828500Y-100777000D03*
X163828500Y-101727000D03*
X163828500Y-102677000D03*
X166328500Y-102677000D03*
X166328500Y-101727000D03*
X166328500Y-100777000D03*
G04 #@! TD*
D13*
G04 #@! TO.C,H2*
X252603000Y-121031000D03*
G04 #@! TD*
G04 #@! TO.C,H1*
X252603000Y-77978000D03*
G04 #@! TD*
D11*
G04 #@! TO.C,C1*
X161544000Y-100203000D03*
X159469000Y-100203000D03*
G04 #@! TD*
G04 #@! TO.C,C2*
X161522500Y-105283000D03*
X159447500Y-105283000D03*
G04 #@! TD*
G04 #@! TO.C,C6*
X185971000Y-105283000D03*
X183896000Y-105283000D03*
G04 #@! TD*
D10*
G04 #@! TO.C,C5*
X189187000Y-97155000D03*
X191262000Y-97155000D03*
G04 #@! TD*
G04 #@! TO.C,C4*
X168867000Y-105283000D03*
X170942000Y-105283000D03*
G04 #@! TD*
G04 #@! TO.C,C3*
X170942000Y-100203000D03*
X168867000Y-100203000D03*
G04 #@! TD*
D14*
G04 #@! TO.C,J1*
X211846000Y-75565000D03*
D15*
X214386000Y-75565000D03*
X216926000Y-75565000D03*
X219466000Y-75565000D03*
G04 #@! TD*
D16*
G04 #@! TO.C,L1*
X183896000Y-97014000D03*
X183896000Y-95264000D03*
G04 #@! TD*
G04 #@! TO.C,L2*
X197612000Y-97155000D03*
X197612000Y-95405000D03*
G04 #@! TD*
D17*
G04 #@! TO.C,D2*
X223774000Y-74785000D03*
X223774000Y-76835000D03*
G04 #@! TD*
G04 #@! TO.C,D1*
X207518000Y-74785000D03*
X207518000Y-76835000D03*
G04 #@! TD*
D18*
G04 #@! TO.C,S2*
X126040000Y-84233000D03*
X133040000Y-84233000D03*
X126040000Y-88233000D03*
X133040000Y-88233000D03*
G04 #@! TD*
G04 #@! TO.C,S1*
X127056000Y-112427000D03*
X134056000Y-112427000D03*
X127056000Y-116427000D03*
X134056000Y-116427000D03*
G04 #@! TD*
D19*
G04 #@! TO.C,R2*
X115864000Y-107275000D03*
X120864000Y-107275000D03*
D20*
X118364000Y-102275000D03*
D21*
X118364000Y-104775000D03*
G04 #@! TD*
D22*
G04 #@! TO.C,IC3*
X192151000Y-105365000D03*
X190881000Y-105365000D03*
X189611000Y-105365000D03*
X188341000Y-105365000D03*
X188341000Y-110789000D03*
X189611000Y-110789000D03*
X190881000Y-110789000D03*
X192151000Y-110789000D03*
G04 #@! TD*
D23*
G04 #@! TO.C,IC4*
X191201000Y-99695000D03*
X189291000Y-99695000D03*
X190246000Y-101795000D03*
G04 #@! TD*
D24*
G04 #@! TO.C,R12*
X139414000Y-84201000D03*
X137414000Y-84201000D03*
G04 #@! TD*
G04 #@! TO.C,R11*
X139414000Y-112395000D03*
X137414000Y-112395000D03*
G04 #@! TD*
G04 #@! TO.C,R10*
X139430000Y-91821000D03*
X137430000Y-91821000D03*
G04 #@! TD*
D25*
G04 #@! TO.C,R9*
X149876000Y-91821000D03*
X151876000Y-91821000D03*
G04 #@! TD*
D24*
G04 #@! TO.C,R8*
X139430000Y-94361000D03*
X137430000Y-94361000D03*
G04 #@! TD*
D25*
G04 #@! TO.C,R7*
X149876000Y-94361000D03*
X151876000Y-94361000D03*
G04 #@! TD*
D24*
G04 #@! TO.C,R6*
X139414000Y-101981000D03*
X137414000Y-101981000D03*
G04 #@! TD*
G04 #@! TO.C,R5*
X139414000Y-105029000D03*
X137414000Y-105029000D03*
G04 #@! TD*
D26*
G04 #@! TO.C,R4*
X223774000Y-81121000D03*
X223774000Y-79121000D03*
G04 #@! TD*
G04 #@! TO.C,R3*
X207518000Y-81121000D03*
X207518000Y-79121000D03*
G04 #@! TD*
D24*
G04 #@! TO.C,R1*
X127222000Y-104267000D03*
X125222000Y-104267000D03*
G04 #@! TD*
D27*
G04 #@! TO.C,J2*
X198604000Y-77959000D03*
X182904000Y-77959000D03*
X197604000Y-91459000D03*
X183904000Y-91459000D03*
G04 #@! TD*
D28*
G04 #@! TO.C,U1*
X143080000Y-91849000D03*
X145980000Y-91849000D03*
X143080000Y-94389000D03*
X145980000Y-94389000D03*
X143080000Y-96929000D03*
X145980000Y-96929000D03*
X143080000Y-99469000D03*
X145980000Y-99459000D03*
X143080000Y-101919000D03*
X145980000Y-101939000D03*
X143080000Y-104549000D03*
X145980000Y-104549000D03*
X143080000Y-107089000D03*
X145980000Y-107049000D03*
D29*
X252580000Y-113969000D03*
X252580000Y-84969000D03*
X144580000Y-113969000D03*
X144580000Y-84969000D03*
G04 #@! TD*
D30*
G04 #@! TO.C,P1*
X138938000Y-123825000D03*
X141478000Y-123825000D03*
X144018000Y-123825000D03*
X146558000Y-123825000D03*
X149098000Y-123825000D03*
X151638000Y-123825000D03*
X154178000Y-123825000D03*
X156718000Y-123825000D03*
G04 #@! TD*
G04 #@! TO.C,P2*
X161798000Y-123825000D03*
X164338000Y-123825000D03*
X166878000Y-123825000D03*
X169418000Y-123825000D03*
X171958000Y-123825000D03*
X174498000Y-123825000D03*
G04 #@! TD*
G04 #@! TO.C,P3*
X129794000Y-75565000D03*
X132334000Y-75565000D03*
X134874000Y-75565000D03*
X137414000Y-75565000D03*
X139954000Y-75565000D03*
X142494000Y-75565000D03*
X145034000Y-75565000D03*
X147574000Y-75565000D03*
X150114000Y-75565000D03*
X152654000Y-75565000D03*
G04 #@! TD*
G04 #@! TO.C,P4*
X156718000Y-75565000D03*
X159258000Y-75565000D03*
X161798000Y-75565000D03*
X164338000Y-75565000D03*
X166878000Y-75565000D03*
X169418000Y-75565000D03*
X171958000Y-75565000D03*
X174498000Y-75565000D03*
G04 #@! TD*
D31*
G04 #@! TO.C,P5*
X124968000Y-123825000D03*
G04 #@! TD*
G04 #@! TO.C,P6*
X177038000Y-118745000D03*
G04 #@! TD*
G04 #@! TO.C,P7*
X126238000Y-75565000D03*
G04 #@! TD*
G04 #@! TO.C,P8*
X177038000Y-90805000D03*
G04 #@! TD*
M02*
