M48
; DRILL file {KiCad (6.0.6)} date Mon Jul 18 13:46:40 2022
; FORMAT={-:-/ absolute / metric / decimal}
; #@! TF.CreationDate,2022-07-18T13:46:40+09:00
; #@! TF.GenerationSoftware,Kicad,Pcbnew,(6.0.6)
; #@! TF.FileFunction,MixedPlating,1,2
FMAT,2
METRIC
; #@! TA.AperFunction,Plated,PTH,ViaDrill
T1C0.635
; #@! TA.AperFunction,Plated,PTH,ComponentDrill
T2C0.762
; #@! TA.AperFunction,Plated,PTH,ComponentDrill
T3C1.000
; #@! TA.AperFunction,Plated,PTH,ComponentDrill
T4C1.016
; #@! TA.AperFunction,Plated,PTH,ComponentDrill
T5C1.100
; #@! TA.AperFunction,Plated,PTH,ComponentDrill
T6C1.400
; #@! TA.AperFunction,Plated,PTH,ComponentDrill
T7C1.770
; #@! TA.AperFunction,Plated,PTH,ComponentDrill
T8C3.048
; #@! TA.AperFunction,NonPlated,NPTH,ComponentDrill
T9C2.000
; #@! TA.AperFunction,NonPlated,NPTH,ComponentDrill
T10C3.200
; #@! TA.AperFunction,NonPlated,NPTH,ComponentDrill
T11C3.500
%
G90
G05
T1
X125.984Y-89.789
X126.746Y-114.681
X141.859Y-110.998
X152.908Y-118.491
X157.988Y-100.203
X157.988Y-105.283
X157.988Y-110.363
X162.56Y-101.981
X162.56Y-107.061
X162.56Y-112.141
X163.83Y-103.759
X163.85Y-113.899
X166.37Y-109.347
X168.021Y-97.028
X168.867Y-106.764
X168.91Y-108.839
X172.466Y-100.203
X172.466Y-105.283
X172.466Y-110.363
X182.372Y-105.283
X190.246Y-103.251
X193.294Y-105.283
X205.74Y-74.803
X226.06Y-74.803
T2
X143.08Y-91.849
X143.08Y-94.389
X143.08Y-96.929
X143.08Y-99.469
X143.08Y-101.919
X143.08Y-104.549
X143.08Y-107.089
X145.98Y-91.849
X145.98Y-94.389
X145.98Y-96.929
X145.98Y-99.459
X145.98Y-101.939
X145.98Y-104.549
X145.98Y-107.049
T3
X211.846Y-75.565
X214.386Y-75.565
X216.926Y-75.565
X219.466Y-75.565
T4
X129.794Y-75.565
X132.334Y-75.565
X134.874Y-75.565
X137.414Y-75.565
X138.938Y-123.825
X139.954Y-75.565
X141.478Y-123.825
X142.494Y-75.565
X144.018Y-123.825
X145.034Y-75.565
X146.558Y-123.825
X147.574Y-75.565
X149.098Y-123.825
X150.114Y-75.565
X151.638Y-123.825
X152.654Y-75.565
X154.178Y-123.825
X156.718Y-75.565
X156.718Y-123.825
X159.258Y-75.565
X161.798Y-75.565
X161.798Y-123.825
X164.338Y-75.565
X164.338Y-123.825
X166.878Y-75.565
X166.878Y-123.825
X169.418Y-75.565
X169.418Y-123.825
X171.958Y-75.565
X171.958Y-123.825
X174.498Y-75.565
X174.498Y-123.825
T5
X115.864Y-107.275
X120.864Y-107.275
T6
X118.364Y-102.275
T7
X182.904Y-77.959
X183.904Y-91.459
X197.604Y-91.459
X198.604Y-77.959
T8
X124.968Y-123.825
X126.238Y-75.565
X177.038Y-90.805
X177.038Y-118.745
T9
X118.364Y-104.775
T10
X252.603Y-77.978
X252.603Y-121.031
T11
X144.58Y-84.969
X144.58Y-113.969
X252.58Y-84.969
X252.58Y-113.969
T0
M30
