G04 #@! TF.GenerationSoftware,KiCad,Pcbnew,(6.0.6)*
G04 #@! TF.CreationDate,2022-07-18T13:46:11+09:00*
G04 #@! TF.ProjectId,mt_reflowcnt,6d745f72-6566-46c6-9f77-636e742e6b69,rev?*
G04 #@! TF.SameCoordinates,Original*
G04 #@! TF.FileFunction,Copper,L1,Top*
G04 #@! TF.FilePolarity,Positive*
%FSLAX46Y46*%
G04 Gerber Fmt 4.6, Leading zero omitted, Abs format (unit mm)*
G04 Created by KiCad (PCBNEW (6.0.6)) date 2022-07-18 13:46:11*
%MOMM*%
%LPD*%
G01*
G04 APERTURE LIST*
G04 Aperture macros list*
%AMRoundRect*
0 Rectangle with rounded corners*
0 $1 Rounding radius*
0 $2 $3 $4 $5 $6 $7 $8 $9 X,Y pos of 4 corners*
0 Add a 4 corners polygon primitive as box body*
4,1,4,$2,$3,$4,$5,$6,$7,$8,$9,$2,$3,0*
0 Add four circle primitives for the rounded corners*
1,1,$1+$1,$2,$3*
1,1,$1+$1,$4,$5*
1,1,$1+$1,$6,$7*
1,1,$1+$1,$8,$9*
0 Add four rect primitives between the rounded corners*
20,1,$1+$1,$2,$3,$4,$5,0*
20,1,$1+$1,$4,$5,$6,$7,0*
20,1,$1+$1,$6,$7,$8,$9,0*
20,1,$1+$1,$8,$9,$2,$3,0*%
G04 Aperture macros list end*
G04 #@! TA.AperFunction,SMDPad,CuDef*
%ADD10RoundRect,0.250000X-0.337500X-0.475000X0.337500X-0.475000X0.337500X0.475000X-0.337500X0.475000X0*%
G04 #@! TD*
G04 #@! TA.AperFunction,SMDPad,CuDef*
%ADD11RoundRect,0.250000X0.337500X0.475000X-0.337500X0.475000X-0.337500X-0.475000X0.337500X-0.475000X0*%
G04 #@! TD*
G04 #@! TA.AperFunction,SMDPad,CuDef*
%ADD12R,1.200000X0.600000*%
G04 #@! TD*
G04 #@! TA.AperFunction,ComponentPad*
%ADD13R,1.700000X1.700000*%
G04 #@! TD*
G04 #@! TA.AperFunction,ComponentPad*
%ADD14O,1.700000X1.700000*%
G04 #@! TD*
G04 #@! TA.AperFunction,SMDPad,CuDef*
%ADD15RoundRect,0.237500X0.237500X-0.287500X0.237500X0.287500X-0.237500X0.287500X-0.237500X-0.287500X0*%
G04 #@! TD*
G04 #@! TA.AperFunction,SMDPad,CuDef*
%ADD16RoundRect,0.250000X-0.450000X0.325000X-0.450000X-0.325000X0.450000X-0.325000X0.450000X0.325000X0*%
G04 #@! TD*
G04 #@! TA.AperFunction,SMDPad,CuDef*
%ADD17R,2.000000X1.400000*%
G04 #@! TD*
G04 #@! TA.AperFunction,ComponentPad*
%ADD18C,1.650000*%
G04 #@! TD*
G04 #@! TA.AperFunction,ComponentPad*
%ADD19C,2.100000*%
G04 #@! TD*
G04 #@! TA.AperFunction,SMDPad,CuDef*
%ADD20R,0.650000X1.525000*%
G04 #@! TD*
G04 #@! TA.AperFunction,SMDPad,CuDef*
%ADD21R,0.600000X1.250000*%
G04 #@! TD*
G04 #@! TA.AperFunction,SMDPad,CuDef*
%ADD22RoundRect,0.250000X0.350000X0.450000X-0.350000X0.450000X-0.350000X-0.450000X0.350000X-0.450000X0*%
G04 #@! TD*
G04 #@! TA.AperFunction,SMDPad,CuDef*
%ADD23RoundRect,0.250000X-0.350000X-0.450000X0.350000X-0.450000X0.350000X0.450000X-0.350000X0.450000X0*%
G04 #@! TD*
G04 #@! TA.AperFunction,SMDPad,CuDef*
%ADD24RoundRect,0.250000X0.450000X-0.350000X0.450000X0.350000X-0.450000X0.350000X-0.450000X-0.350000X0*%
G04 #@! TD*
G04 #@! TA.AperFunction,ComponentPad*
%ADD25C,3.294000*%
G04 #@! TD*
G04 #@! TA.AperFunction,ComponentPad*
%ADD26C,1.524000*%
G04 #@! TD*
G04 #@! TA.AperFunction,ComponentPad*
%ADD27O,1.727200X2.032000*%
G04 #@! TD*
G04 #@! TA.AperFunction,ComponentPad*
%ADD28C,4.064000*%
G04 #@! TD*
G04 #@! TA.AperFunction,ViaPad*
%ADD29C,0.889000*%
G04 #@! TD*
G04 #@! TA.AperFunction,Conductor*
%ADD30C,0.406400*%
G04 #@! TD*
G04 #@! TA.AperFunction,Conductor*
%ADD31C,0.203200*%
G04 #@! TD*
G04 APERTURE END LIST*
D10*
G04 #@! TO.P,C8,1*
G04 #@! TO.N,+3V3*
X168910000Y-110363000D03*
G04 #@! TO.P,C8,2*
G04 #@! TO.N,GND*
X170985000Y-110363000D03*
G04 #@! TD*
D11*
G04 #@! TO.P,C7,1*
G04 #@! TO.N,+5V*
X161587000Y-110363000D03*
G04 #@! TO.P,C7,2*
G04 #@! TO.N,GND*
X159512000Y-110363000D03*
G04 #@! TD*
D12*
G04 #@! TO.P,IC5,6,VCCB*
G04 #@! TO.N,+3V3*
X166350000Y-110937000D03*
G04 #@! TO.P,IC5,5,OE*
G04 #@! TO.N,+5V*
X166350000Y-111887000D03*
G04 #@! TO.P,IC5,4,B*
G04 #@! TO.N,Net-(IC3-Pad7)*
X166350000Y-112837000D03*
G04 #@! TO.P,IC5,3,A*
G04 #@! TO.N,/12(MISO)*
X163850000Y-112837000D03*
G04 #@! TO.P,IC5,2,GND*
G04 #@! TO.N,GND*
X163850000Y-111887000D03*
G04 #@! TO.P,IC5,1,VCCA*
G04 #@! TO.N,+5V*
X163850000Y-110937000D03*
G04 #@! TD*
G04 #@! TO.P,IC2,1,VCCA*
G04 #@! TO.N,+5V*
X163828500Y-105857000D03*
G04 #@! TO.P,IC2,2,GND*
G04 #@! TO.N,GND*
X163828500Y-106807000D03*
G04 #@! TO.P,IC2,3,A*
G04 #@! TO.N,/10(\u002A\u002A{slash}SS)*
X163828500Y-107757000D03*
G04 #@! TO.P,IC2,4,B*
G04 #@! TO.N,Net-(IC3-Pad6)*
X166328500Y-107757000D03*
G04 #@! TO.P,IC2,5,OE*
G04 #@! TO.N,+5V*
X166328500Y-106807000D03*
G04 #@! TO.P,IC2,6,VCCB*
G04 #@! TO.N,+3V3*
X166328500Y-105857000D03*
G04 #@! TD*
G04 #@! TO.P,IC1,1,VCCA*
G04 #@! TO.N,+5V*
X163828500Y-100777000D03*
G04 #@! TO.P,IC1,2,GND*
G04 #@! TO.N,GND*
X163828500Y-101727000D03*
G04 #@! TO.P,IC1,3,A*
G04 #@! TO.N,/13(SCK)*
X163828500Y-102677000D03*
G04 #@! TO.P,IC1,4,B*
G04 #@! TO.N,Net-(IC3-Pad5)*
X166328500Y-102677000D03*
G04 #@! TO.P,IC1,5,OE*
G04 #@! TO.N,+5V*
X166328500Y-101727000D03*
G04 #@! TO.P,IC1,6,VCCB*
G04 #@! TO.N,+3V3*
X166328500Y-100777000D03*
G04 #@! TD*
D11*
G04 #@! TO.P,C1,1*
G04 #@! TO.N,+5V*
X161544000Y-100203000D03*
G04 #@! TO.P,C1,2*
G04 #@! TO.N,GND*
X159469000Y-100203000D03*
G04 #@! TD*
G04 #@! TO.P,C2,1*
G04 #@! TO.N,+5V*
X161522500Y-105283000D03*
G04 #@! TO.P,C2,2*
G04 #@! TO.N,GND*
X159447500Y-105283000D03*
G04 #@! TD*
G04 #@! TO.P,C6,1*
G04 #@! TO.N,+3V3*
X185971000Y-105283000D03*
G04 #@! TO.P,C6,2*
G04 #@! TO.N,GND*
X183896000Y-105283000D03*
G04 #@! TD*
D10*
G04 #@! TO.P,C5,1*
G04 #@! TO.N,Net-(C5-Pad1)*
X189187000Y-97155000D03*
G04 #@! TO.P,C5,2*
G04 #@! TO.N,Net-(C5-Pad2)*
X191262000Y-97155000D03*
G04 #@! TD*
G04 #@! TO.P,C4,1*
G04 #@! TO.N,+3V3*
X168867000Y-105283000D03*
G04 #@! TO.P,C4,2*
G04 #@! TO.N,GND*
X170942000Y-105283000D03*
G04 #@! TD*
G04 #@! TO.P,C3,2*
G04 #@! TO.N,GND*
X170942000Y-100203000D03*
G04 #@! TO.P,C3,1*
G04 #@! TO.N,+3V3*
X168867000Y-100203000D03*
G04 #@! TD*
D13*
G04 #@! TO.P,J1,1,Pin_1*
G04 #@! TO.N,/A0*
X211846000Y-75565000D03*
D14*
G04 #@! TO.P,J1,2,Pin_2*
G04 #@! TO.N,GND*
X214386000Y-75565000D03*
G04 #@! TO.P,J1,3,Pin_3*
X216926000Y-75565000D03*
G04 #@! TO.P,J1,4,Pin_4*
G04 #@! TO.N,/A1*
X219466000Y-75565000D03*
G04 #@! TD*
D15*
G04 #@! TO.P,L1,1*
G04 #@! TO.N,Net-(C5-Pad1)*
X183896000Y-97014000D03*
G04 #@! TO.P,L1,2*
G04 #@! TO.N,Net-(J2-Pad1)*
X183896000Y-95264000D03*
G04 #@! TD*
G04 #@! TO.P,L2,1*
G04 #@! TO.N,Net-(C5-Pad2)*
X197612000Y-97155000D03*
G04 #@! TO.P,L2,2*
G04 #@! TO.N,Net-(J2-Pad2)*
X197612000Y-95405000D03*
G04 #@! TD*
D16*
G04 #@! TO.P,D2,1,K*
G04 #@! TO.N,GND*
X223774000Y-74785000D03*
G04 #@! TO.P,D2,2,A*
G04 #@! TO.N,Net-(D2-Pad2)*
X223774000Y-76835000D03*
G04 #@! TD*
G04 #@! TO.P,D1,1,K*
G04 #@! TO.N,GND*
X207518000Y-74785000D03*
G04 #@! TO.P,D1,2,A*
G04 #@! TO.N,Net-(D1-Pad2)*
X207518000Y-76835000D03*
G04 #@! TD*
D17*
G04 #@! TO.P,S2,1,N.O._1*
G04 #@! TO.N,unconnected-(S2-Pad1)*
X126040000Y-84233000D03*
G04 #@! TO.P,S2,2,N.O._2*
G04 #@! TO.N,/Reset*
X133040000Y-84233000D03*
G04 #@! TO.P,S2,3,COM_1*
G04 #@! TO.N,GND*
X126040000Y-88233000D03*
G04 #@! TO.P,S2,4,COM_2*
G04 #@! TO.N,unconnected-(S2-Pad4)*
X133040000Y-88233000D03*
G04 #@! TD*
G04 #@! TO.P,S1,1,N.O._1*
G04 #@! TO.N,unconnected-(S1-Pad1)*
X127056000Y-112427000D03*
G04 #@! TO.P,S1,2,N.O._2*
G04 #@! TO.N,/8*
X134056000Y-112427000D03*
G04 #@! TO.P,S1,3,COM_1*
G04 #@! TO.N,GND*
X127056000Y-116427000D03*
G04 #@! TO.P,S1,4,COM_2*
G04 #@! TO.N,unconnected-(S1-Pad4)*
X134056000Y-116427000D03*
G04 #@! TD*
D18*
G04 #@! TO.P,R2,1,1*
G04 #@! TO.N,Net-(R1-Pad2)*
X115864000Y-107275000D03*
G04 #@! TO.P,R2,2,2*
G04 #@! TO.N,GND*
X120864000Y-107275000D03*
D19*
G04 #@! TO.P,R2,3,3*
G04 #@! TO.N,Net-(R2-Pad3)*
X118364000Y-102275000D03*
G04 #@! TD*
D20*
G04 #@! TO.P,IC3,1,GND*
G04 #@! TO.N,GND*
X192151000Y-105365000D03*
G04 #@! TO.P,IC3,2,T-*
G04 #@! TO.N,Net-(C5-Pad2)*
X190881000Y-105365000D03*
G04 #@! TO.P,IC3,3,T+*
G04 #@! TO.N,Net-(C5-Pad1)*
X189611000Y-105365000D03*
G04 #@! TO.P,IC3,4,VCC*
G04 #@! TO.N,+3V3*
X188341000Y-105365000D03*
G04 #@! TO.P,IC3,5,SCK*
G04 #@! TO.N,Net-(IC3-Pad5)*
X188341000Y-110789000D03*
G04 #@! TO.P,IC3,6,~{CS}*
G04 #@! TO.N,Net-(IC3-Pad6)*
X189611000Y-110789000D03*
G04 #@! TO.P,IC3,7,SO*
G04 #@! TO.N,Net-(IC3-Pad7)*
X190881000Y-110789000D03*
G04 #@! TO.P,IC3,8,DNC*
G04 #@! TO.N,unconnected-(IC3-Pad8)*
X192151000Y-110789000D03*
G04 #@! TD*
D21*
G04 #@! TO.P,IC4,1,A_1*
G04 #@! TO.N,Net-(C5-Pad2)*
X191201000Y-99695000D03*
G04 #@! TO.P,IC4,2,A_2*
G04 #@! TO.N,Net-(C5-Pad1)*
X189291000Y-99695000D03*
G04 #@! TO.P,IC4,3,A_3*
G04 #@! TO.N,GND*
X190246000Y-101795000D03*
G04 #@! TD*
D22*
G04 #@! TO.P,R12,1*
G04 #@! TO.N,+5V*
X139414000Y-84201000D03*
G04 #@! TO.P,R12,2*
G04 #@! TO.N,/Reset*
X137414000Y-84201000D03*
G04 #@! TD*
G04 #@! TO.P,R11,1*
G04 #@! TO.N,+5V*
X139414000Y-112395000D03*
G04 #@! TO.P,R11,2*
G04 #@! TO.N,/8*
X137414000Y-112395000D03*
G04 #@! TD*
G04 #@! TO.P,R10,1*
G04 #@! TO.N,Net-(R10-Pad1)*
X139430000Y-91821000D03*
G04 #@! TO.P,R10,2*
G04 #@! TO.N,/7*
X137430000Y-91821000D03*
G04 #@! TD*
D23*
G04 #@! TO.P,R9,1*
G04 #@! TO.N,Net-(R9-Pad1)*
X149876000Y-91821000D03*
G04 #@! TO.P,R9,2*
G04 #@! TO.N,/6(\u002A\u002A)*
X151876000Y-91821000D03*
G04 #@! TD*
D22*
G04 #@! TO.P,R8,1*
G04 #@! TO.N,Net-(R8-Pad1)*
X139430000Y-94361000D03*
G04 #@! TO.P,R8,2*
G04 #@! TO.N,/5(\u002A\u002A)*
X137430000Y-94361000D03*
G04 #@! TD*
D23*
G04 #@! TO.P,R7,1*
G04 #@! TO.N,Net-(R7-Pad1)*
X149876000Y-94361000D03*
G04 #@! TO.P,R7,2*
G04 #@! TO.N,/4*
X151876000Y-94361000D03*
G04 #@! TD*
D22*
G04 #@! TO.P,R6,1*
G04 #@! TO.N,Net-(R6-Pad1)*
X139414000Y-101981000D03*
G04 #@! TO.P,R6,2*
G04 #@! TO.N,/3(\u002A\u002A)*
X137414000Y-101981000D03*
G04 #@! TD*
G04 #@! TO.P,R5,1*
G04 #@! TO.N,Net-(R5-Pad1)*
X139414000Y-105029000D03*
G04 #@! TO.P,R5,2*
G04 #@! TO.N,/2*
X137414000Y-105029000D03*
G04 #@! TD*
D24*
G04 #@! TO.P,R4,1*
G04 #@! TO.N,/A1*
X223774000Y-81121000D03*
G04 #@! TO.P,R4,2*
G04 #@! TO.N,Net-(D2-Pad2)*
X223774000Y-79121000D03*
G04 #@! TD*
G04 #@! TO.P,R3,1*
G04 #@! TO.N,/A0*
X207518000Y-81121000D03*
G04 #@! TO.P,R3,2*
G04 #@! TO.N,Net-(D1-Pad2)*
X207518000Y-79121000D03*
G04 #@! TD*
D22*
G04 #@! TO.P,R1,1*
G04 #@! TO.N,+5V*
X127222000Y-104267000D03*
G04 #@! TO.P,R1,2*
G04 #@! TO.N,Net-(R1-Pad2)*
X125222000Y-104267000D03*
G04 #@! TD*
D25*
G04 #@! TO.P,J2,4,NC*
G04 #@! TO.N,unconnected-(J2-Pad4)*
X198604000Y-77959000D03*
G04 #@! TO.P,J2,3,NC*
G04 #@! TO.N,unconnected-(J2-Pad3)*
X182904000Y-77959000D03*
G04 #@! TO.P,J2,2,N*
G04 #@! TO.N,Net-(J2-Pad2)*
X197604000Y-91459000D03*
G04 #@! TO.P,J2,1,P*
G04 #@! TO.N,Net-(J2-Pad1)*
X183904000Y-91459000D03*
G04 #@! TD*
D26*
G04 #@! TO.P,U1,14,DB7*
G04 #@! TO.N,Net-(R10-Pad1)*
X143080000Y-91849000D03*
G04 #@! TO.P,U1,13,DB6*
G04 #@! TO.N,Net-(R9-Pad1)*
X145980000Y-91849000D03*
G04 #@! TO.P,U1,12,DB5*
G04 #@! TO.N,Net-(R8-Pad1)*
X143080000Y-94389000D03*
G04 #@! TO.P,U1,11,DB4*
G04 #@! TO.N,Net-(R7-Pad1)*
X145980000Y-94389000D03*
G04 #@! TO.P,U1,10,DB3*
G04 #@! TO.N,unconnected-(U1-Pad10)*
X143080000Y-96929000D03*
G04 #@! TO.P,U1,9,DB2*
G04 #@! TO.N,unconnected-(U1-Pad9)*
X145980000Y-96929000D03*
G04 #@! TO.P,U1,8,DB1*
G04 #@! TO.N,unconnected-(U1-Pad8)*
X143080000Y-99469000D03*
G04 #@! TO.P,U1,7,DB0*
G04 #@! TO.N,unconnected-(U1-Pad7)*
X145980000Y-99459000D03*
G04 #@! TO.P,U1,6,E*
G04 #@! TO.N,Net-(R6-Pad1)*
X143080000Y-101919000D03*
G04 #@! TO.P,U1,5,RW*
G04 #@! TO.N,GND*
X145980000Y-101939000D03*
G04 #@! TO.P,U1,4,RS*
G04 #@! TO.N,Net-(R5-Pad1)*
X143080000Y-104549000D03*
G04 #@! TO.P,U1,3,Vo*
G04 #@! TO.N,Net-(R2-Pad3)*
X145980000Y-104549000D03*
G04 #@! TO.P,U1,2,VDD*
G04 #@! TO.N,+5V*
X143080000Y-107089000D03*
G04 #@! TO.P,U1,1,VSS*
G04 #@! TO.N,GND*
X145980000Y-107049000D03*
G04 #@! TD*
D27*
G04 #@! TO.P,P1,1,Pin_1*
G04 #@! TO.N,unconnected-(P1-Pad1)*
X138938000Y-123825000D03*
G04 #@! TO.P,P1,2,Pin_2*
G04 #@! TO.N,/IOREF*
X141478000Y-123825000D03*
G04 #@! TO.P,P1,3,Pin_3*
G04 #@! TO.N,/Reset*
X144018000Y-123825000D03*
G04 #@! TO.P,P1,4,Pin_4*
G04 #@! TO.N,+3V3*
X146558000Y-123825000D03*
G04 #@! TO.P,P1,5,Pin_5*
G04 #@! TO.N,+5V*
X149098000Y-123825000D03*
G04 #@! TO.P,P1,6,Pin_6*
G04 #@! TO.N,GND*
X151638000Y-123825000D03*
G04 #@! TO.P,P1,7,Pin_7*
X154178000Y-123825000D03*
G04 #@! TO.P,P1,8,Pin_8*
G04 #@! TO.N,/Vin*
X156718000Y-123825000D03*
G04 #@! TD*
G04 #@! TO.P,P2,1,Pin_1*
G04 #@! TO.N,/A0*
X161798000Y-123825000D03*
G04 #@! TO.P,P2,2,Pin_2*
G04 #@! TO.N,/A1*
X164338000Y-123825000D03*
G04 #@! TO.P,P2,3,Pin_3*
G04 #@! TO.N,/A2*
X166878000Y-123825000D03*
G04 #@! TO.P,P2,4,Pin_4*
G04 #@! TO.N,/A3*
X169418000Y-123825000D03*
G04 #@! TO.P,P2,5,Pin_5*
G04 #@! TO.N,/A4(SDA)*
X171958000Y-123825000D03*
G04 #@! TO.P,P2,6,Pin_6*
G04 #@! TO.N,/A5(SCL)*
X174498000Y-123825000D03*
G04 #@! TD*
G04 #@! TO.P,P3,1,Pin_1*
G04 #@! TO.N,unconnected-(P3-Pad1)*
X129794000Y-75565000D03*
G04 #@! TO.P,P3,2,Pin_2*
G04 #@! TO.N,unconnected-(P3-Pad2)*
X132334000Y-75565000D03*
G04 #@! TO.P,P3,3,Pin_3*
G04 #@! TO.N,/AREF*
X134874000Y-75565000D03*
G04 #@! TO.P,P3,4,Pin_4*
G04 #@! TO.N,GND*
X137414000Y-75565000D03*
G04 #@! TO.P,P3,5,Pin_5*
G04 #@! TO.N,/13(SCK)*
X139954000Y-75565000D03*
G04 #@! TO.P,P3,6,Pin_6*
G04 #@! TO.N,/12(MISO)*
X142494000Y-75565000D03*
G04 #@! TO.P,P3,7,Pin_7*
G04 #@! TO.N,/11(\u002A\u002A{slash}MOSI)*
X145034000Y-75565000D03*
G04 #@! TO.P,P3,8,Pin_8*
G04 #@! TO.N,/10(\u002A\u002A{slash}SS)*
X147574000Y-75565000D03*
G04 #@! TO.P,P3,9,Pin_9*
G04 #@! TO.N,/9(\u002A\u002A)*
X150114000Y-75565000D03*
G04 #@! TO.P,P3,10,Pin_10*
G04 #@! TO.N,/8*
X152654000Y-75565000D03*
G04 #@! TD*
G04 #@! TO.P,P4,1,Pin_1*
G04 #@! TO.N,/7*
X156718000Y-75565000D03*
G04 #@! TO.P,P4,2,Pin_2*
G04 #@! TO.N,/6(\u002A\u002A)*
X159258000Y-75565000D03*
G04 #@! TO.P,P4,3,Pin_3*
G04 #@! TO.N,/5(\u002A\u002A)*
X161798000Y-75565000D03*
G04 #@! TO.P,P4,4,Pin_4*
G04 #@! TO.N,/4*
X164338000Y-75565000D03*
G04 #@! TO.P,P4,5,Pin_5*
G04 #@! TO.N,/3(\u002A\u002A)*
X166878000Y-75565000D03*
G04 #@! TO.P,P4,6,Pin_6*
G04 #@! TO.N,/2*
X169418000Y-75565000D03*
G04 #@! TO.P,P4,7,Pin_7*
G04 #@! TO.N,/1(Tx)*
X171958000Y-75565000D03*
G04 #@! TO.P,P4,8,Pin_8*
G04 #@! TO.N,/0(Rx)*
X174498000Y-75565000D03*
G04 #@! TD*
D28*
G04 #@! TO.P,P5,1,Pin_1*
G04 #@! TO.N,unconnected-(P5-Pad1)*
X124968000Y-123825000D03*
G04 #@! TD*
G04 #@! TO.P,P6,1,Pin_1*
G04 #@! TO.N,unconnected-(P6-Pad1)*
X177038000Y-118745000D03*
G04 #@! TD*
G04 #@! TO.P,P7,1,Pin_1*
G04 #@! TO.N,unconnected-(P7-Pad1)*
X126238000Y-75565000D03*
G04 #@! TD*
G04 #@! TO.P,P8,1,Pin_1*
G04 #@! TO.N,unconnected-(P8-Pad1)*
X177038000Y-90805000D03*
G04 #@! TD*
D29*
G04 #@! TO.N,GND*
X193294000Y-105283000D03*
G04 #@! TO.N,+5V*
X141859000Y-110998000D03*
X152908000Y-118491000D03*
G04 #@! TO.N,GND*
X126746000Y-114681000D03*
X125984000Y-89789000D03*
X226060000Y-74803000D03*
X205740000Y-74803000D03*
G04 #@! TO.N,+3V3*
X168910000Y-108839000D03*
X168021000Y-97028000D03*
G04 #@! TO.N,GND*
X182372000Y-105283000D03*
X190246000Y-103251000D03*
G04 #@! TO.N,+3V3*
X168867000Y-106764000D03*
G04 #@! TO.N,GND*
X172466000Y-110363000D03*
X172466000Y-105283000D03*
X172466000Y-100203000D03*
X157988000Y-110363000D03*
X157988000Y-105283000D03*
X157988000Y-100203000D03*
X162560000Y-112141000D03*
X162560000Y-107061000D03*
X162560000Y-101981000D03*
G04 #@! TO.N,/10(\u002A\u002A{slash}SS)*
X166370000Y-109347000D03*
G04 #@! TO.N,/12(MISO)*
X163850000Y-113899000D03*
G04 #@! TO.N,/13(SCK)*
X163830000Y-103759000D03*
G04 #@! TD*
D30*
G04 #@! TO.N,Net-(C5-Pad2)*
X191262000Y-97155000D02*
X197612000Y-97155000D01*
G04 #@! TO.N,Net-(J2-Pad2)*
X197604000Y-91459000D02*
X197604000Y-95397000D01*
G04 #@! TO.N,+3V3*
X168867000Y-105283000D02*
X168867000Y-106764000D01*
G04 #@! TO.N,+5V*
X163276000Y-110363000D02*
X161587000Y-110363000D01*
X161587000Y-110363000D02*
X161587000Y-112352000D01*
D31*
G04 #@! TO.N,/12(MISO)*
X163850000Y-112837000D02*
X163850000Y-113899000D01*
D30*
G04 #@! TO.N,+5V*
X163254500Y-105283000D02*
X161522500Y-105283000D01*
X161587000Y-105347500D02*
X161522500Y-105283000D01*
X161587000Y-110363000D02*
X161587000Y-105347500D01*
X161544000Y-105261500D02*
X161522500Y-105283000D01*
X161544000Y-100203000D02*
X161544000Y-105261500D01*
G04 #@! TO.N,GND*
X193212000Y-105365000D02*
X193294000Y-105283000D01*
X192151000Y-105365000D02*
X193212000Y-105365000D01*
G04 #@! TO.N,+5V*
X141859000Y-110998000D02*
X143080000Y-109777000D01*
X152908000Y-118491000D02*
X157734000Y-113665000D01*
G04 #@! TO.N,GND*
X127056000Y-114991000D02*
X126746000Y-114681000D01*
X127056000Y-116427000D02*
X127056000Y-114991000D01*
X126040000Y-89733000D02*
X125984000Y-89789000D01*
X126040000Y-88233000D02*
X126040000Y-89733000D01*
X226042000Y-74785000D02*
X226060000Y-74803000D01*
X223774000Y-74785000D02*
X226042000Y-74785000D01*
X205758000Y-74785000D02*
X205740000Y-74803000D01*
X207518000Y-74785000D02*
X205758000Y-74785000D01*
G04 #@! TO.N,+3V3*
X168910000Y-110363000D02*
X168910000Y-108839000D01*
X168021000Y-97028000D02*
X168867000Y-97874000D01*
G04 #@! TO.N,GND*
X183896000Y-105283000D02*
X182372000Y-105283000D01*
X190246000Y-101795000D02*
X190246000Y-103251000D01*
X170985000Y-110363000D02*
X172466000Y-110363000D01*
X170942000Y-105283000D02*
X172466000Y-105283000D01*
X170942000Y-100203000D02*
X172466000Y-100203000D01*
X159512000Y-110363000D02*
X157988000Y-110363000D01*
X159447500Y-105283000D02*
X157988000Y-105283000D01*
X159469000Y-100203000D02*
X157988000Y-100203000D01*
X162814000Y-111887000D02*
X162560000Y-112141000D01*
X163850000Y-111887000D02*
X162814000Y-111887000D01*
X162814000Y-106807000D02*
X162560000Y-107061000D01*
X163828500Y-106807000D02*
X162814000Y-106807000D01*
X162814000Y-101727000D02*
X162560000Y-101981000D01*
X163828500Y-101727000D02*
X162814000Y-101727000D01*
G04 #@! TO.N,+3V3*
X179789000Y-97874000D02*
X168867000Y-97874000D01*
X185971000Y-104056000D02*
X179789000Y-97874000D01*
X185971000Y-105283000D02*
X185971000Y-104056000D01*
X167132000Y-96139000D02*
X168021000Y-97028000D01*
X146558000Y-120523000D02*
X154940000Y-112141000D01*
X154940000Y-112141000D02*
X154940000Y-100457000D01*
X154940000Y-100457000D02*
X159258000Y-96139000D01*
X159258000Y-96139000D02*
X167132000Y-96139000D01*
X168867000Y-97874000D02*
X168867000Y-100203000D01*
X146558000Y-123825000D02*
X146558000Y-120523000D01*
D31*
G04 #@! TO.N,/2*
X148844000Y-103251000D02*
X169418000Y-82677000D01*
X138176000Y-103251000D02*
X148844000Y-103251000D01*
X169418000Y-82677000D02*
X169418000Y-75565000D01*
X137414000Y-104013000D02*
X138176000Y-103251000D01*
X137414000Y-105029000D02*
X137414000Y-104013000D01*
G04 #@! TO.N,/3(\u002A\u002A)*
X166878000Y-83185000D02*
X166878000Y-75565000D01*
X151892000Y-98171000D02*
X166878000Y-83185000D01*
X137414000Y-101981000D02*
X137414000Y-101219000D01*
X137414000Y-101219000D02*
X140462000Y-98171000D01*
X140462000Y-98171000D02*
X151892000Y-98171000D01*
G04 #@! TO.N,/4*
X164338000Y-83947000D02*
X164338000Y-75565000D01*
X153924000Y-94361000D02*
X164338000Y-83947000D01*
X151876000Y-94361000D02*
X153924000Y-94361000D01*
G04 #@! TO.N,/5(\u002A\u002A)*
X161798000Y-84963000D02*
X161798000Y-75565000D01*
X153699662Y-93061338D02*
X161798000Y-84963000D01*
X145063662Y-93061338D02*
X153699662Y-93061338D01*
X144018000Y-95631000D02*
X144526000Y-95123000D01*
X144526000Y-93599000D02*
X145063662Y-93061338D01*
X141478000Y-95631000D02*
X144018000Y-95631000D01*
X141224000Y-95885000D02*
X141478000Y-95631000D01*
X137430000Y-94361000D02*
X137430000Y-95393000D01*
X137430000Y-95393000D02*
X137922000Y-95885000D01*
X137922000Y-95885000D02*
X141224000Y-95885000D01*
X144526000Y-95123000D02*
X144526000Y-93599000D01*
D30*
G04 #@! TO.N,+5V*
X160274000Y-113665000D02*
X161587000Y-112352000D01*
X157734000Y-113665000D02*
X160274000Y-113665000D01*
X149098000Y-122301000D02*
X152908000Y-118491000D01*
X149098000Y-123825000D02*
X149098000Y-122301000D01*
X127222000Y-97441000D02*
X127222000Y-104267000D01*
X139414000Y-85249000D02*
X127222000Y-97441000D01*
X139414000Y-84201000D02*
X139414000Y-85249000D01*
X143080000Y-109777000D02*
X143080000Y-107089000D01*
X140462000Y-112395000D02*
X141859000Y-110998000D01*
X139414000Y-112395000D02*
X140462000Y-112395000D01*
X139414000Y-113697000D02*
X139414000Y-112395000D01*
X138684000Y-114427000D02*
X139414000Y-113697000D01*
X132588000Y-114427000D02*
X138684000Y-114427000D01*
X131572000Y-113411000D02*
X132588000Y-114427000D01*
X131572000Y-107061000D02*
X131572000Y-113411000D01*
X128778000Y-104267000D02*
X131572000Y-107061000D01*
X127222000Y-104267000D02*
X128778000Y-104267000D01*
D31*
G04 #@! TO.N,/10(\u002A\u002A{slash}SS)*
X164846000Y-109347000D02*
X166370000Y-109347000D01*
X163828500Y-108329500D02*
X164846000Y-109347000D01*
X163828500Y-107757000D02*
X163828500Y-108329500D01*
G04 #@! TO.N,/13(SCK)*
X163828500Y-103757500D02*
X163830000Y-103759000D01*
X163828500Y-102677000D02*
X163828500Y-103757500D01*
G04 #@! TO.N,Net-(IC3-Pad7)*
X189992000Y-113157000D02*
X190881000Y-112268000D01*
X190881000Y-112268000D02*
X190881000Y-110789000D01*
X180594000Y-113157000D02*
X189992000Y-113157000D01*
X180274000Y-112837000D02*
X180594000Y-113157000D01*
X166350000Y-112837000D02*
X180274000Y-112837000D01*
G04 #@! TO.N,Net-(IC3-Pad6)*
X189230000Y-112395000D02*
X189611000Y-112014000D01*
X181102000Y-112395000D02*
X189230000Y-112395000D01*
X189611000Y-112014000D02*
X189611000Y-110789000D01*
X166328500Y-107757000D02*
X176464000Y-107757000D01*
X176464000Y-107757000D02*
X181102000Y-112395000D01*
G04 #@! TO.N,Net-(IC3-Pad5)*
X180512000Y-110789000D02*
X188341000Y-110789000D01*
X172400000Y-102677000D02*
X180512000Y-110789000D01*
X166328500Y-102677000D02*
X172400000Y-102677000D01*
D30*
G04 #@! TO.N,+5V*
X165100000Y-111399800D02*
X165587200Y-111887000D01*
X165587200Y-111887000D02*
X166350000Y-111887000D01*
X165100000Y-111125000D02*
X165100000Y-111399800D01*
X164912000Y-110937000D02*
X165100000Y-111125000D01*
X163850000Y-110937000D02*
X164912000Y-110937000D01*
X165100000Y-106553000D02*
X165354000Y-106807000D01*
X164658000Y-105857000D02*
X165100000Y-106299000D01*
X165100000Y-106299000D02*
X165100000Y-106553000D01*
X163828500Y-105857000D02*
X164658000Y-105857000D01*
X165354000Y-106807000D02*
X166328500Y-106807000D01*
X165354000Y-101727000D02*
X166328500Y-101727000D01*
X165100000Y-101473000D02*
X165354000Y-101727000D01*
X165100000Y-101219000D02*
X165100000Y-101473000D01*
X164658000Y-100777000D02*
X165100000Y-101219000D01*
X163828500Y-100777000D02*
X164658000Y-100777000D01*
X163254500Y-100203000D02*
X163828500Y-100777000D01*
X161544000Y-100203000D02*
X163254500Y-100203000D01*
G04 #@! TO.N,+3V3*
X166902500Y-100203000D02*
X166328500Y-100777000D01*
X168867000Y-100203000D02*
X166902500Y-100203000D01*
G04 #@! TO.N,+5V*
X163254500Y-105283000D02*
X163828500Y-105857000D01*
G04 #@! TO.N,+3V3*
X168867000Y-105283000D02*
X166902500Y-105283000D01*
X166902500Y-105283000D02*
X166328500Y-105857000D01*
G04 #@! TO.N,+5V*
X163276000Y-110363000D02*
X163850000Y-110937000D01*
G04 #@! TO.N,+3V3*
X166924000Y-110363000D02*
X166350000Y-110937000D01*
X168910000Y-110363000D02*
X166924000Y-110363000D01*
D31*
G04 #@! TO.N,Net-(R2-Pad3)*
X147348000Y-104549000D02*
X145980000Y-104549000D01*
X145034000Y-118745000D02*
X148590000Y-115189000D01*
X126492000Y-118745000D02*
X145034000Y-118745000D01*
X124460000Y-116713000D02*
X126492000Y-118745000D01*
X124460000Y-113411000D02*
X124460000Y-116713000D01*
X122174000Y-111125000D02*
X124460000Y-113411000D01*
X116078000Y-111125000D02*
X122174000Y-111125000D01*
X148590000Y-115189000D02*
X148590000Y-105791000D01*
X114300000Y-109347000D02*
X116078000Y-111125000D01*
X114300000Y-103759000D02*
X114300000Y-109347000D01*
X115784000Y-102275000D02*
X114300000Y-103759000D01*
X148590000Y-105791000D02*
X147348000Y-104549000D01*
X118364000Y-102275000D02*
X115784000Y-102275000D01*
G04 #@! TO.N,Net-(R5-Pad1)*
X139894000Y-104549000D02*
X139414000Y-105029000D01*
X143080000Y-104549000D02*
X139894000Y-104549000D01*
G04 #@! TO.N,/8*
X150622000Y-89027000D02*
X152654000Y-86995000D01*
X134056000Y-92385000D02*
X137414000Y-89027000D01*
X137414000Y-89027000D02*
X150622000Y-89027000D01*
X134056000Y-112427000D02*
X134056000Y-92385000D01*
X152654000Y-86995000D02*
X152654000Y-75565000D01*
D30*
G04 #@! TO.N,/A0*
X207518000Y-111633000D02*
X207518000Y-81121000D01*
X161798000Y-122047000D02*
X169418000Y-114427000D01*
X204724000Y-114427000D02*
X207518000Y-111633000D01*
X161798000Y-123825000D02*
X161798000Y-122047000D01*
X169418000Y-114427000D02*
X204724000Y-114427000D01*
G04 #@! TO.N,/A1*
X223774000Y-112903000D02*
X223774000Y-81121000D01*
X221234000Y-115443000D02*
X223774000Y-112903000D01*
X164338000Y-122301000D02*
X171196000Y-115443000D01*
X171196000Y-115443000D02*
X221234000Y-115443000D01*
X164338000Y-123825000D02*
X164338000Y-122301000D01*
D31*
G04 #@! TO.N,/Reset*
X131604000Y-84233000D02*
X133040000Y-84233000D01*
X128016000Y-80645000D02*
X131604000Y-84233000D01*
X123698000Y-80645000D02*
X128016000Y-80645000D01*
X122682000Y-81661000D02*
X123698000Y-80645000D01*
X122682000Y-93599000D02*
X122682000Y-81661000D01*
X120904000Y-95377000D02*
X122682000Y-93599000D01*
X116078000Y-95377000D02*
X120904000Y-95377000D01*
X113284000Y-98171000D02*
X116078000Y-95377000D01*
X113284000Y-110109000D02*
X113284000Y-98171000D01*
X115316000Y-112141000D02*
X113284000Y-110109000D01*
X123444000Y-113919000D02*
X121666000Y-112141000D01*
X123444000Y-117221000D02*
X123444000Y-113919000D01*
X125730000Y-119507000D02*
X123444000Y-117221000D01*
X141224000Y-119507000D02*
X125730000Y-119507000D01*
X144018000Y-122301000D02*
X141224000Y-119507000D01*
X144018000Y-123825000D02*
X144018000Y-122301000D01*
X121666000Y-112141000D02*
X115316000Y-112141000D01*
G04 #@! TO.N,/6(\u002A\u002A)*
X159258000Y-85979000D02*
X159258000Y-75565000D01*
X153416000Y-91821000D02*
X159258000Y-85979000D01*
X151876000Y-91821000D02*
X153416000Y-91821000D01*
G04 #@! TO.N,/7*
X138430000Y-89789000D02*
X154178000Y-89789000D01*
X154178000Y-89789000D02*
X156718000Y-87249000D01*
X137430000Y-90789000D02*
X138430000Y-89789000D01*
X137430000Y-91821000D02*
X137430000Y-90789000D01*
X156718000Y-87249000D02*
X156718000Y-75565000D01*
D30*
G04 #@! TO.N,/A1*
X221742000Y-81153000D02*
X223742000Y-81153000D01*
X219466000Y-78877000D02*
X221742000Y-81153000D01*
X219466000Y-75565000D02*
X219466000Y-78877000D01*
X223742000Y-81153000D02*
X223774000Y-81121000D01*
G04 #@! TO.N,/A0*
X209836000Y-81121000D02*
X207518000Y-81121000D01*
X211846000Y-79111000D02*
X209836000Y-81121000D01*
X211846000Y-75565000D02*
X211846000Y-79111000D01*
D31*
G04 #@! TO.N,Net-(D2-Pad2)*
X223774000Y-76835000D02*
X223774000Y-79121000D01*
G04 #@! TO.N,Net-(D1-Pad2)*
X207518000Y-76835000D02*
X207518000Y-79121000D01*
D30*
G04 #@! TO.N,Net-(C5-Pad1)*
X188722000Y-100264000D02*
X189291000Y-99695000D01*
X188722000Y-103251000D02*
X188722000Y-100264000D01*
X189611000Y-104140000D02*
X188722000Y-103251000D01*
X189611000Y-105365000D02*
X189611000Y-104140000D01*
G04 #@! TO.N,Net-(C5-Pad2)*
X191770000Y-100264000D02*
X191201000Y-99695000D01*
X191770000Y-103505000D02*
X191770000Y-100264000D01*
X190881000Y-104394000D02*
X191770000Y-103505000D01*
X190881000Y-105365000D02*
X190881000Y-104394000D01*
X191262000Y-97155000D02*
X191262000Y-99634000D01*
X191262000Y-99634000D02*
X191201000Y-99695000D01*
G04 #@! TO.N,Net-(C5-Pad1)*
X189187000Y-97155000D02*
X189187000Y-99591000D01*
X189187000Y-99591000D02*
X189291000Y-99695000D01*
X189046000Y-97014000D02*
X189187000Y-97155000D01*
X183896000Y-97014000D02*
X189046000Y-97014000D01*
G04 #@! TO.N,Net-(J2-Pad1)*
X183904000Y-95256000D02*
X183896000Y-95264000D01*
X183904000Y-91459000D02*
X183904000Y-95256000D01*
G04 #@! TO.N,+3V3*
X188259000Y-105283000D02*
X188341000Y-105365000D01*
X185971000Y-105283000D02*
X188259000Y-105283000D01*
G04 #@! TO.N,Net-(R1-Pad2)*
X125222000Y-107823000D02*
X123190000Y-109855000D01*
X123190000Y-109855000D02*
X116840000Y-109855000D01*
X115864000Y-108879000D02*
X115864000Y-107275000D01*
X125222000Y-104267000D02*
X125222000Y-107823000D01*
X116840000Y-109855000D02*
X115864000Y-108879000D01*
D31*
G04 #@! TO.N,/8*
X137382000Y-112427000D02*
X137414000Y-112395000D01*
X134056000Y-112427000D02*
X137382000Y-112427000D01*
G04 #@! TO.N,Net-(R6-Pad1)*
X139476000Y-101919000D02*
X143080000Y-101919000D01*
X139414000Y-101981000D02*
X139476000Y-101919000D01*
G04 #@! TO.N,Net-(R7-Pad1)*
X149848000Y-94389000D02*
X149876000Y-94361000D01*
X145980000Y-94389000D02*
X149848000Y-94389000D01*
G04 #@! TO.N,Net-(R9-Pad1)*
X149848000Y-91849000D02*
X149876000Y-91821000D01*
X145980000Y-91849000D02*
X149848000Y-91849000D01*
G04 #@! TO.N,Net-(R8-Pad1)*
X139458000Y-94389000D02*
X143080000Y-94389000D01*
X139430000Y-94361000D02*
X139458000Y-94389000D01*
G04 #@! TO.N,Net-(R10-Pad1)*
X139458000Y-91849000D02*
X143080000Y-91849000D01*
X139430000Y-91821000D02*
X139458000Y-91849000D01*
G04 #@! TO.N,/Reset*
X133040000Y-84233000D02*
X137382000Y-84233000D01*
X137382000Y-84233000D02*
X137414000Y-84201000D01*
G04 #@! TD*
G04 #@! TA.AperFunction,Conductor*
G04 #@! TO.N,Net-(J2-Pad1)*
G36*
X187648121Y-87523002D02*
G01*
X187694614Y-87576658D01*
X187706000Y-87629000D01*
X187706000Y-95759000D01*
X187685998Y-95827121D01*
X187632342Y-95873614D01*
X187580000Y-95885000D01*
X184982890Y-95885000D01*
X184914769Y-95864998D01*
X184868276Y-95811342D01*
X184858172Y-95741068D01*
X184863297Y-95719332D01*
X184866316Y-95710231D01*
X184869181Y-95696868D01*
X184878672Y-95604230D01*
X184879000Y-95597815D01*
X184879000Y-95536115D01*
X184874525Y-95520876D01*
X184873135Y-95519671D01*
X184865452Y-95518000D01*
X182931115Y-95518000D01*
X182915876Y-95522475D01*
X182914671Y-95523865D01*
X182913000Y-95531548D01*
X182913000Y-95597766D01*
X182913337Y-95604282D01*
X182923075Y-95698132D01*
X182925969Y-95711530D01*
X182928503Y-95719127D01*
X182931085Y-95790077D01*
X182894900Y-95851160D01*
X182831435Y-95882983D01*
X182808978Y-95885000D01*
X180212000Y-95885000D01*
X180143879Y-95864998D01*
X180097386Y-95811342D01*
X180086000Y-95759000D01*
X180086000Y-94991885D01*
X182913000Y-94991885D01*
X182917475Y-95007124D01*
X182918865Y-95008329D01*
X182926548Y-95010000D01*
X183623885Y-95010000D01*
X183639124Y-95005525D01*
X183640329Y-95004135D01*
X183642000Y-94996452D01*
X183642000Y-94991885D01*
X184150000Y-94991885D01*
X184154475Y-95007124D01*
X184155865Y-95008329D01*
X184163548Y-95010000D01*
X184860885Y-95010000D01*
X184876124Y-95005525D01*
X184877329Y-95004135D01*
X184879000Y-94996452D01*
X184879000Y-94930234D01*
X184878663Y-94923718D01*
X184868925Y-94829868D01*
X184866032Y-94816472D01*
X184815512Y-94665047D01*
X184809347Y-94651885D01*
X184725574Y-94516508D01*
X184716540Y-94505110D01*
X184603871Y-94392637D01*
X184592460Y-94383625D01*
X184456937Y-94300088D01*
X184443759Y-94293944D01*
X184292234Y-94243685D01*
X184278868Y-94240819D01*
X184186230Y-94231328D01*
X184179815Y-94231000D01*
X184168115Y-94231000D01*
X184152876Y-94235475D01*
X184151671Y-94236865D01*
X184150000Y-94244548D01*
X184150000Y-94991885D01*
X183642000Y-94991885D01*
X183642000Y-94249115D01*
X183637525Y-94233876D01*
X183636135Y-94232671D01*
X183628452Y-94231000D01*
X183612234Y-94231000D01*
X183605718Y-94231337D01*
X183511868Y-94241075D01*
X183498472Y-94243968D01*
X183347047Y-94294488D01*
X183333885Y-94300653D01*
X183198508Y-94384426D01*
X183187110Y-94393460D01*
X183074637Y-94506129D01*
X183065625Y-94517540D01*
X182982088Y-94653063D01*
X182975944Y-94666241D01*
X182925685Y-94817766D01*
X182922819Y-94831132D01*
X182913328Y-94923770D01*
X182913000Y-94930185D01*
X182913000Y-94991885D01*
X180086000Y-94991885D01*
X180086000Y-93153014D01*
X182575259Y-93153014D01*
X182582312Y-93162985D01*
X182631071Y-93203754D01*
X182638003Y-93208789D01*
X182879633Y-93360364D01*
X182887184Y-93364413D01*
X183147160Y-93481797D01*
X183155191Y-93484783D01*
X183428690Y-93565797D01*
X183437042Y-93567664D01*
X183719012Y-93610811D01*
X183727545Y-93611527D01*
X184012757Y-93616009D01*
X184021308Y-93615560D01*
X184304486Y-93581292D01*
X184312900Y-93579687D01*
X184588813Y-93507303D01*
X184596929Y-93504572D01*
X184860463Y-93395412D01*
X184868131Y-93391606D01*
X185114420Y-93247686D01*
X185121493Y-93242879D01*
X185223361Y-93163004D01*
X185231830Y-93151147D01*
X185225314Y-93139525D01*
X183916810Y-91831020D01*
X183902869Y-91823408D01*
X183901034Y-91823539D01*
X183894420Y-91827790D01*
X182582551Y-93139660D01*
X182575259Y-93153014D01*
X180086000Y-93153014D01*
X180086000Y-91440661D01*
X181744329Y-91440661D01*
X181760750Y-91725434D01*
X181761824Y-91733940D01*
X181816739Y-92013848D01*
X181818955Y-92022116D01*
X181911353Y-92291992D01*
X181914668Y-92299877D01*
X182042839Y-92554717D01*
X182047195Y-92562083D01*
X182197630Y-92780966D01*
X182207885Y-92789310D01*
X182221625Y-92782164D01*
X183531980Y-91471810D01*
X183538357Y-91460131D01*
X184268408Y-91460131D01*
X184268539Y-91461966D01*
X184272790Y-91468580D01*
X185584887Y-92780676D01*
X185597097Y-92787344D01*
X185608595Y-92778655D01*
X185725241Y-92619860D01*
X185729825Y-92612637D01*
X185865933Y-92361957D01*
X185869501Y-92354163D01*
X185970327Y-92087337D01*
X185972804Y-92079131D01*
X186036484Y-91801088D01*
X186037824Y-91792628D01*
X186063342Y-91506701D01*
X186063588Y-91501762D01*
X186064010Y-91461484D01*
X186063867Y-91456520D01*
X186044343Y-91170126D01*
X186043182Y-91161652D01*
X185985335Y-90882321D01*
X185983036Y-90874086D01*
X185887814Y-90605187D01*
X185884417Y-90597337D01*
X185753583Y-90343850D01*
X185749155Y-90336538D01*
X185609548Y-90137899D01*
X185599027Y-90129520D01*
X185585639Y-90136572D01*
X184276020Y-91446190D01*
X184268408Y-91460131D01*
X183538357Y-91460131D01*
X183539592Y-91457869D01*
X183539461Y-91456034D01*
X183535210Y-91449420D01*
X182222482Y-90136693D01*
X182210471Y-90130134D01*
X182198733Y-90139101D01*
X182070709Y-90317267D01*
X182066187Y-90324561D01*
X181932720Y-90576637D01*
X181929234Y-90584465D01*
X181831206Y-90852338D01*
X181828817Y-90860561D01*
X181768049Y-91139269D01*
X181766800Y-91147725D01*
X181744418Y-91432111D01*
X181744329Y-91440661D01*
X180086000Y-91440661D01*
X180086000Y-89766923D01*
X182576006Y-89766923D01*
X182582401Y-89778190D01*
X183891190Y-91086980D01*
X183905131Y-91094592D01*
X183906966Y-91094461D01*
X183913580Y-91090210D01*
X185225066Y-89778723D01*
X185232258Y-89765553D01*
X185224936Y-89755318D01*
X185158586Y-89701010D01*
X185151614Y-89696056D01*
X184908386Y-89547004D01*
X184900816Y-89543047D01*
X184639615Y-89428389D01*
X184631555Y-89425487D01*
X184357225Y-89347342D01*
X184348850Y-89345562D01*
X184066449Y-89305370D01*
X184057901Y-89304742D01*
X183772656Y-89303248D01*
X183764122Y-89303785D01*
X183481309Y-89341019D01*
X183472911Y-89342712D01*
X183197775Y-89417981D01*
X183189688Y-89420797D01*
X182927316Y-89532708D01*
X182919677Y-89536601D01*
X182674920Y-89683084D01*
X182667891Y-89687969D01*
X182584475Y-89754799D01*
X182576006Y-89766923D01*
X180086000Y-89766923D01*
X180086000Y-87629000D01*
X180106002Y-87560879D01*
X180159658Y-87514386D01*
X180212000Y-87503000D01*
X187580000Y-87503000D01*
X187648121Y-87523002D01*
G37*
G04 #@! TD.AperFunction*
G04 #@! TD*
G04 #@! TA.AperFunction,Conductor*
G04 #@! TO.N,Net-(J2-Pad2)*
G36*
X201364121Y-87523002D02*
G01*
X201410614Y-87576658D01*
X201422000Y-87629000D01*
X201422000Y-95759000D01*
X201401998Y-95827121D01*
X201348342Y-95873614D01*
X201296000Y-95885000D01*
X198719921Y-95885000D01*
X198651800Y-95864998D01*
X198605307Y-95811342D01*
X198594960Y-95748470D01*
X198594508Y-95748447D01*
X198594614Y-95746367D01*
X198594578Y-95746147D01*
X198594673Y-95745224D01*
X198595000Y-95738815D01*
X198595000Y-95677115D01*
X198590525Y-95661876D01*
X198589135Y-95660671D01*
X198581452Y-95659000D01*
X196647115Y-95659000D01*
X196631876Y-95663475D01*
X196630671Y-95664865D01*
X196629000Y-95672548D01*
X196629000Y-95738766D01*
X196629337Y-95745287D01*
X196629412Y-95746006D01*
X196629383Y-95746164D01*
X196629505Y-95748524D01*
X196628942Y-95748553D01*
X196616542Y-95815826D01*
X196567967Y-95867604D01*
X196504084Y-95885000D01*
X194182000Y-95885000D01*
X194113879Y-95864998D01*
X194067386Y-95811342D01*
X194056000Y-95759000D01*
X194056000Y-95132885D01*
X196629000Y-95132885D01*
X196633475Y-95148124D01*
X196634865Y-95149329D01*
X196642548Y-95151000D01*
X197339885Y-95151000D01*
X197355124Y-95146525D01*
X197356329Y-95145135D01*
X197358000Y-95137452D01*
X197358000Y-95132885D01*
X197866000Y-95132885D01*
X197870475Y-95148124D01*
X197871865Y-95149329D01*
X197879548Y-95151000D01*
X198576885Y-95151000D01*
X198592124Y-95146525D01*
X198593329Y-95145135D01*
X198595000Y-95137452D01*
X198595000Y-95071234D01*
X198594663Y-95064718D01*
X198584925Y-94970868D01*
X198582032Y-94957472D01*
X198531512Y-94806047D01*
X198525347Y-94792885D01*
X198441574Y-94657508D01*
X198432540Y-94646110D01*
X198319871Y-94533637D01*
X198308460Y-94524625D01*
X198172937Y-94441088D01*
X198159759Y-94434944D01*
X198008234Y-94384685D01*
X197994868Y-94381819D01*
X197902230Y-94372328D01*
X197895815Y-94372000D01*
X197884115Y-94372000D01*
X197868876Y-94376475D01*
X197867671Y-94377865D01*
X197866000Y-94385548D01*
X197866000Y-95132885D01*
X197358000Y-95132885D01*
X197358000Y-94390115D01*
X197353525Y-94374876D01*
X197352135Y-94373671D01*
X197344452Y-94372000D01*
X197328234Y-94372000D01*
X197321718Y-94372337D01*
X197227868Y-94382075D01*
X197214472Y-94384968D01*
X197063047Y-94435488D01*
X197049885Y-94441653D01*
X196914508Y-94525426D01*
X196903110Y-94534460D01*
X196790637Y-94647129D01*
X196781625Y-94658540D01*
X196698088Y-94794063D01*
X196691944Y-94807241D01*
X196641685Y-94958766D01*
X196638819Y-94972132D01*
X196629328Y-95064770D01*
X196629000Y-95071185D01*
X196629000Y-95132885D01*
X194056000Y-95132885D01*
X194056000Y-93153014D01*
X196275259Y-93153014D01*
X196282312Y-93162985D01*
X196331071Y-93203754D01*
X196338003Y-93208789D01*
X196579633Y-93360364D01*
X196587184Y-93364413D01*
X196847160Y-93481797D01*
X196855191Y-93484783D01*
X197128690Y-93565797D01*
X197137042Y-93567664D01*
X197419012Y-93610811D01*
X197427545Y-93611527D01*
X197712757Y-93616009D01*
X197721308Y-93615560D01*
X198004486Y-93581292D01*
X198012900Y-93579687D01*
X198288813Y-93507303D01*
X198296929Y-93504572D01*
X198560463Y-93395412D01*
X198568131Y-93391606D01*
X198814420Y-93247686D01*
X198821493Y-93242879D01*
X198923361Y-93163004D01*
X198931830Y-93151147D01*
X198925314Y-93139525D01*
X197616810Y-91831020D01*
X197602869Y-91823408D01*
X197601034Y-91823539D01*
X197594420Y-91827790D01*
X196282551Y-93139660D01*
X196275259Y-93153014D01*
X194056000Y-93153014D01*
X194056000Y-91440661D01*
X195444329Y-91440661D01*
X195460750Y-91725434D01*
X195461824Y-91733940D01*
X195516739Y-92013848D01*
X195518955Y-92022116D01*
X195611353Y-92291992D01*
X195614668Y-92299877D01*
X195742839Y-92554717D01*
X195747195Y-92562083D01*
X195897630Y-92780966D01*
X195907885Y-92789310D01*
X195921625Y-92782164D01*
X197231980Y-91471810D01*
X197238357Y-91460131D01*
X197968408Y-91460131D01*
X197968539Y-91461966D01*
X197972790Y-91468580D01*
X199284887Y-92780676D01*
X199297097Y-92787344D01*
X199308595Y-92778655D01*
X199425241Y-92619860D01*
X199429825Y-92612637D01*
X199565933Y-92361957D01*
X199569501Y-92354163D01*
X199670327Y-92087337D01*
X199672804Y-92079131D01*
X199736484Y-91801088D01*
X199737824Y-91792628D01*
X199763342Y-91506701D01*
X199763588Y-91501762D01*
X199764010Y-91461484D01*
X199763867Y-91456520D01*
X199744343Y-91170126D01*
X199743182Y-91161652D01*
X199685335Y-90882321D01*
X199683036Y-90874086D01*
X199587814Y-90605187D01*
X199584417Y-90597337D01*
X199453583Y-90343850D01*
X199449155Y-90336538D01*
X199309548Y-90137899D01*
X199299027Y-90129520D01*
X199285639Y-90136572D01*
X197976020Y-91446190D01*
X197968408Y-91460131D01*
X197238357Y-91460131D01*
X197239592Y-91457869D01*
X197239461Y-91456034D01*
X197235210Y-91449420D01*
X195922482Y-90136693D01*
X195910471Y-90130134D01*
X195898733Y-90139101D01*
X195770709Y-90317267D01*
X195766187Y-90324561D01*
X195632720Y-90576637D01*
X195629234Y-90584465D01*
X195531206Y-90852338D01*
X195528817Y-90860561D01*
X195468049Y-91139269D01*
X195466800Y-91147725D01*
X195444418Y-91432111D01*
X195444329Y-91440661D01*
X194056000Y-91440661D01*
X194056000Y-89766923D01*
X196276006Y-89766923D01*
X196282401Y-89778190D01*
X197591190Y-91086980D01*
X197605131Y-91094592D01*
X197606966Y-91094461D01*
X197613580Y-91090210D01*
X198925066Y-89778723D01*
X198932258Y-89765553D01*
X198924936Y-89755318D01*
X198858586Y-89701010D01*
X198851614Y-89696056D01*
X198608386Y-89547004D01*
X198600816Y-89543047D01*
X198339615Y-89428389D01*
X198331555Y-89425487D01*
X198057225Y-89347342D01*
X198048850Y-89345562D01*
X197766449Y-89305370D01*
X197757901Y-89304742D01*
X197472656Y-89303248D01*
X197464122Y-89303785D01*
X197181309Y-89341019D01*
X197172911Y-89342712D01*
X196897775Y-89417981D01*
X196889688Y-89420797D01*
X196627316Y-89532708D01*
X196619677Y-89536601D01*
X196374920Y-89683084D01*
X196367891Y-89687969D01*
X196284475Y-89754799D01*
X196276006Y-89766923D01*
X194056000Y-89766923D01*
X194056000Y-87629000D01*
X194076002Y-87560879D01*
X194129658Y-87514386D01*
X194182000Y-87503000D01*
X201296000Y-87503000D01*
X201364121Y-87523002D01*
G37*
G04 #@! TD.AperFunction*
G04 #@! TD*
M02*
