G04 #@! TF.GenerationSoftware,KiCad,Pcbnew,(6.0.6)*
G04 #@! TF.CreationDate,2022-11-03T02:00:48+09:00*
G04 #@! TF.ProjectId,mt_reflowcnt,6d745f72-6566-46c6-9f77-636e742e6b69,rev?*
G04 #@! TF.SameCoordinates,Original*
G04 #@! TF.FileFunction,Soldermask,Top*
G04 #@! TF.FilePolarity,Negative*
%FSLAX46Y46*%
G04 Gerber Fmt 4.6, Leading zero omitted, Abs format (unit mm)*
G04 Created by KiCad (PCBNEW (6.0.6)) date 2022-11-03 02:00:48*
%MOMM*%
%LPD*%
G01*
G04 APERTURE LIST*
G04 Aperture macros list*
%AMRoundRect*
0 Rectangle with rounded corners*
0 $1 Rounding radius*
0 $2 $3 $4 $5 $6 $7 $8 $9 X,Y pos of 4 corners*
0 Add a 4 corners polygon primitive as box body*
4,1,4,$2,$3,$4,$5,$6,$7,$8,$9,$2,$3,0*
0 Add four circle primitives for the rounded corners*
1,1,$1+$1,$2,$3*
1,1,$1+$1,$4,$5*
1,1,$1+$1,$6,$7*
1,1,$1+$1,$8,$9*
0 Add four rect primitives between the rounded corners*
20,1,$1+$1,$2,$3,$4,$5,0*
20,1,$1+$1,$4,$5,$6,$7,0*
20,1,$1+$1,$6,$7,$8,$9,0*
20,1,$1+$1,$8,$9,$2,$3,0*%
G04 Aperture macros list end*
%ADD10R,1.700000X1.700000*%
%ADD11O,1.727200X2.032000*%
%ADD12C,4.064000*%
%ADD13R,2.000000X1.400000*%
%ADD14R,1.200000X0.600000*%
%ADD15R,0.650000X1.525000*%
%ADD16RoundRect,0.250000X-0.450000X0.350000X-0.450000X-0.350000X0.450000X-0.350000X0.450000X0.350000X0*%
%ADD17RoundRect,0.250000X0.325000X0.450000X-0.325000X0.450000X-0.325000X-0.450000X0.325000X-0.450000X0*%
%ADD18C,3.294000*%
%ADD19RoundRect,0.250000X0.337500X0.475000X-0.337500X0.475000X-0.337500X-0.475000X0.337500X-0.475000X0*%
%ADD20C,3.200000*%
%ADD21RoundRect,0.250000X0.350000X0.450000X-0.350000X0.450000X-0.350000X-0.450000X0.350000X-0.450000X0*%
%ADD22RoundRect,0.237500X0.237500X-0.287500X0.237500X0.287500X-0.237500X0.287500X-0.237500X-0.287500X0*%
%ADD23RoundRect,0.250000X0.450000X-0.350000X0.450000X0.350000X-0.450000X0.350000X-0.450000X-0.350000X0*%
%ADD24RoundRect,0.250000X-0.475000X0.337500X-0.475000X-0.337500X0.475000X-0.337500X0.475000X0.337500X0*%
%ADD25RoundRect,0.250000X-0.350000X-0.450000X0.350000X-0.450000X0.350000X0.450000X-0.350000X0.450000X0*%
%ADD26R,0.600000X1.250000*%
%ADD27R,1.525000X0.650000*%
%ADD28C,3.500000*%
%ADD29C,1.524000*%
%ADD30O,1.700000X1.700000*%
%ADD31C,2.000000*%
%ADD32C,1.650000*%
%ADD33C,2.100000*%
G04 APERTURE END LIST*
D10*
G04 #@! TO.C,J5*
X114046000Y-123571000D03*
G04 #@! TD*
G04 #@! TO.C,J6*
X114300000Y-76327000D03*
G04 #@! TD*
G04 #@! TO.C,J8*
X254508000Y-85217000D03*
G04 #@! TD*
G04 #@! TO.C,J7*
X256286000Y-115697000D03*
G04 #@! TD*
D11*
G04 #@! TO.C,P1*
X138938000Y-123825000D03*
X141478000Y-123825000D03*
X144018000Y-123825000D03*
X146558000Y-123825000D03*
X149098000Y-123825000D03*
X151638000Y-123825000D03*
X154178000Y-123825000D03*
X156718000Y-123825000D03*
G04 #@! TD*
G04 #@! TO.C,P2*
X161798000Y-123825000D03*
X164338000Y-123825000D03*
X166878000Y-123825000D03*
X169418000Y-123825000D03*
X171958000Y-123825000D03*
X174498000Y-123825000D03*
G04 #@! TD*
G04 #@! TO.C,P3*
X129794000Y-75565000D03*
X132334000Y-75565000D03*
X134874000Y-75565000D03*
X137414000Y-75565000D03*
X139954000Y-75565000D03*
X142494000Y-75565000D03*
X145034000Y-75565000D03*
X147574000Y-75565000D03*
X150114000Y-75565000D03*
X152654000Y-75565000D03*
G04 #@! TD*
G04 #@! TO.C,P4*
X156718000Y-75565000D03*
X159258000Y-75565000D03*
X161798000Y-75565000D03*
X164338000Y-75565000D03*
X166878000Y-75565000D03*
X169418000Y-75565000D03*
X171958000Y-75565000D03*
X174498000Y-75565000D03*
G04 #@! TD*
D12*
G04 #@! TO.C,P5*
X124968000Y-123825000D03*
G04 #@! TD*
G04 #@! TO.C,P6*
X177038000Y-118745000D03*
G04 #@! TD*
G04 #@! TO.C,P7*
X126238000Y-75565000D03*
G04 #@! TD*
G04 #@! TO.C,P8*
X177038000Y-90805000D03*
G04 #@! TD*
D13*
G04 #@! TO.C,S2*
X114711600Y-81083400D03*
X121711600Y-81083400D03*
X114711600Y-85083400D03*
X121711600Y-85083400D03*
G04 #@! TD*
D14*
G04 #@! TO.C,IC2*
X167874000Y-92263000D03*
X167874000Y-91313000D03*
X167874000Y-90363000D03*
X165374000Y-90363000D03*
X165374000Y-91313000D03*
X165374000Y-92263000D03*
G04 #@! TD*
D15*
G04 #@! TO.C,IC5*
X234315000Y-105365000D03*
X233045000Y-105365000D03*
X231775000Y-105365000D03*
X230505000Y-105365000D03*
X230505000Y-110789000D03*
X231775000Y-110789000D03*
X233045000Y-110789000D03*
X234315000Y-110789000D03*
G04 #@! TD*
D16*
G04 #@! TO.C,R16*
X154559000Y-100235000D03*
X154559000Y-102235000D03*
G04 #@! TD*
G04 #@! TO.C,R14*
X149606000Y-103521000D03*
X149606000Y-105521000D03*
G04 #@! TD*
D17*
G04 #@! TO.C,D3*
X255542000Y-105664000D03*
X253492000Y-105664000D03*
G04 #@! TD*
D15*
G04 #@! TO.C,IC4*
X213741000Y-105365000D03*
X212471000Y-105365000D03*
X211201000Y-105365000D03*
X209931000Y-105365000D03*
X209931000Y-110789000D03*
X211201000Y-110789000D03*
X212471000Y-110789000D03*
X213741000Y-110789000D03*
G04 #@! TD*
D18*
G04 #@! TO.C,J4*
X225661600Y-91439800D03*
X239361600Y-91439800D03*
X224661600Y-77939800D03*
X240361600Y-77939800D03*
G04 #@! TD*
D19*
G04 #@! TO.C,C6*
X207793500Y-105283000D03*
X205718500Y-105283000D03*
G04 #@! TD*
D20*
G04 #@! TO.C,H1*
X252603000Y-77978000D03*
G04 #@! TD*
D21*
G04 #@! TO.C,R18*
X173466000Y-93345000D03*
X171466000Y-93345000D03*
G04 #@! TD*
D18*
G04 #@! TO.C,J2*
X183904000Y-91459000D03*
X197604000Y-91459000D03*
X182904000Y-77959000D03*
X198604000Y-77959000D03*
G04 #@! TD*
D21*
G04 #@! TO.C,R5*
X255524000Y-103124000D03*
X253524000Y-103124000D03*
G04 #@! TD*
G04 #@! TO.C,R9*
X131556000Y-94361000D03*
X129556000Y-94361000D03*
G04 #@! TD*
G04 #@! TO.C,R2*
X255524000Y-92964000D03*
X253524000Y-92964000D03*
G04 #@! TD*
D16*
G04 #@! TO.C,R15*
X152146000Y-102267000D03*
X152146000Y-104267000D03*
G04 #@! TD*
D21*
G04 #@! TO.C,R6*
X131572000Y-104521000D03*
X129572000Y-104521000D03*
G04 #@! TD*
D16*
G04 #@! TO.C,R17*
X156972000Y-98711000D03*
X156972000Y-100711000D03*
G04 #@! TD*
D17*
G04 #@! TO.C,D2*
X255542000Y-100584000D03*
X253492000Y-100584000D03*
G04 #@! TD*
D22*
G04 #@! TO.C,L3*
X204724000Y-97155000D03*
X204724000Y-95405000D03*
G04 #@! TD*
D23*
G04 #@! TO.C,R13*
X125222000Y-83153000D03*
X125222000Y-81153000D03*
G04 #@! TD*
D24*
G04 #@! TO.C,C4*
X167894000Y-94361000D03*
X167894000Y-96436000D03*
G04 #@! TD*
D25*
G04 #@! TO.C,R10*
X142256000Y-91821000D03*
X144256000Y-91821000D03*
G04 #@! TD*
D26*
G04 #@! TO.C,IC8*
X233492000Y-99915000D03*
X231582000Y-99915000D03*
X232537000Y-102015000D03*
G04 #@! TD*
D22*
G04 #@! TO.C,L2*
X197612000Y-97155000D03*
X197612000Y-95405000D03*
G04 #@! TD*
D21*
G04 #@! TO.C,R7*
X131556000Y-101981000D03*
X129556000Y-101981000D03*
G04 #@! TD*
D27*
G04 #@! TO.C,IC1*
X165272000Y-106807000D03*
X165272000Y-105537000D03*
X165272000Y-104267000D03*
X165272000Y-102997000D03*
X165272000Y-101727000D03*
X165272000Y-100457000D03*
X165272000Y-99187000D03*
X159848000Y-99187000D03*
X159848000Y-100457000D03*
X159848000Y-101727000D03*
X159848000Y-102997000D03*
X159848000Y-104267000D03*
X159848000Y-105537000D03*
X159848000Y-106807000D03*
G04 #@! TD*
D22*
G04 #@! TO.C,L6*
X239395000Y-97141000D03*
X239395000Y-95391000D03*
G04 #@! TD*
D13*
G04 #@! TO.C,S1*
X114762400Y-113747800D03*
X121762400Y-113747800D03*
X114762400Y-117747800D03*
X121762400Y-117747800D03*
G04 #@! TD*
D28*
G04 #@! TO.C,U1*
X136770000Y-84941000D03*
X244770000Y-84941000D03*
X244770000Y-113941000D03*
X136770000Y-113941000D03*
D29*
X138170000Y-107021000D03*
X135270000Y-107061000D03*
X138170000Y-104521000D03*
X135270000Y-104521000D03*
X138170000Y-101911000D03*
X135270000Y-101891000D03*
X138170000Y-99431000D03*
X135270000Y-99441000D03*
X138170000Y-96901000D03*
X135270000Y-96901000D03*
X138170000Y-94361000D03*
X135270000Y-94361000D03*
X138170000Y-91821000D03*
X135270000Y-91821000D03*
G04 #@! TD*
D26*
G04 #@! TO.C,IC6*
X191455000Y-99915000D03*
X189545000Y-99915000D03*
X190500000Y-102015000D03*
G04 #@! TD*
D20*
G04 #@! TO.C,H2*
X252603000Y-121031000D03*
G04 #@! TD*
D21*
G04 #@! TO.C,R11*
X131556000Y-91821000D03*
X129556000Y-91821000D03*
G04 #@! TD*
D10*
G04 #@! TO.C,J1*
X258826000Y-93040200D03*
D30*
X258826000Y-95580200D03*
X258826000Y-98120200D03*
X258826000Y-100660200D03*
X258826000Y-103200200D03*
X258826000Y-105740200D03*
G04 #@! TD*
D24*
G04 #@! TO.C,C3*
X165354000Y-109050000D03*
X165354000Y-111125000D03*
G04 #@! TD*
D21*
G04 #@! TO.C,R4*
X255508000Y-98044000D03*
X253508000Y-98044000D03*
G04 #@! TD*
D17*
G04 #@! TO.C,D1*
X255524000Y-95504000D03*
X253474000Y-95504000D03*
G04 #@! TD*
D23*
G04 #@! TO.C,R12*
X125476000Y-115697000D03*
X125476000Y-113697000D03*
G04 #@! TD*
D19*
G04 #@! TO.C,C8*
X191516000Y-97155000D03*
X189441000Y-97155000D03*
G04 #@! TD*
G04 #@! TO.C,C7*
X228346000Y-105283000D03*
X226271000Y-105283000D03*
G04 #@! TD*
D25*
G04 #@! TO.C,R8*
X142240000Y-94361000D03*
X144240000Y-94361000D03*
G04 #@! TD*
D26*
G04 #@! TO.C,IC7*
X212791000Y-99915000D03*
X210881000Y-99915000D03*
X211836000Y-102015000D03*
G04 #@! TD*
D22*
G04 #@! TO.C,L4*
X218440000Y-97155000D03*
X218440000Y-95405000D03*
G04 #@! TD*
D18*
G04 #@! TO.C,J3*
X204732000Y-91439800D03*
X218432000Y-91439800D03*
X203732000Y-77939800D03*
X219432000Y-77939800D03*
G04 #@! TD*
D31*
G04 #@! TO.C,R3*
X116840000Y-99451400D03*
D32*
X119340000Y-96951400D03*
X114340000Y-96951400D03*
D33*
X116840000Y-101951400D03*
G04 #@! TD*
D19*
G04 #@! TO.C,C10*
X233596000Y-97155000D03*
X231521000Y-97155000D03*
G04 #@! TD*
D24*
G04 #@! TO.C,C1*
X159766000Y-109093000D03*
X159766000Y-111168000D03*
G04 #@! TD*
D19*
G04 #@! TO.C,C9*
X212873500Y-97155000D03*
X210798500Y-97155000D03*
G04 #@! TD*
D24*
G04 #@! TO.C,C2*
X165354000Y-94339500D03*
X165354000Y-96414500D03*
G04 #@! TD*
D19*
G04 #@! TO.C,C5*
X186203500Y-105283000D03*
X184128500Y-105283000D03*
G04 #@! TD*
D22*
G04 #@! TO.C,L5*
X225679000Y-97155000D03*
X225679000Y-95405000D03*
G04 #@! TD*
D16*
G04 #@! TO.C,R1*
X119380000Y-91329000D03*
X119380000Y-93329000D03*
G04 #@! TD*
D22*
G04 #@! TO.C,L1*
X183896000Y-97155000D03*
X183896000Y-95405000D03*
G04 #@! TD*
D15*
G04 #@! TO.C,IC3*
X192151000Y-105365000D03*
X190881000Y-105365000D03*
X189611000Y-105365000D03*
X188341000Y-105365000D03*
X188341000Y-110789000D03*
X189611000Y-110789000D03*
X190881000Y-110789000D03*
X192151000Y-110789000D03*
G04 #@! TD*
M02*
