G04 #@! TF.GenerationSoftware,KiCad,Pcbnew,(6.0.6)*
G04 #@! TF.CreationDate,2023-01-03T01:07:17+09:00*
G04 #@! TF.ProjectId,mt_reflowcnt,6d745f72-6566-46c6-9f77-636e742e6b69,rev?*
G04 #@! TF.SameCoordinates,Original*
G04 #@! TF.FileFunction,Legend,Top*
G04 #@! TF.FilePolarity,Positive*
%FSLAX46Y46*%
G04 Gerber Fmt 4.6, Leading zero omitted, Abs format (unit mm)*
G04 Created by KiCad (PCBNEW (6.0.6)) date 2023-01-03 01:07:17*
%MOMM*%
%LPD*%
G01*
G04 APERTURE LIST*
%ADD10C,0.150000*%
%ADD11C,0.200000*%
%ADD12C,0.300000*%
%ADD13C,0.254000*%
%ADD14C,0.100000*%
%ADD15C,0.120000*%
%ADD16O,1.727200X2.032000*%
%ADD17C,4.064000*%
G04 APERTURE END LIST*
D10*
X201463428Y-123293190D02*
X201463428Y-123769380D01*
X201130095Y-122769380D02*
X201463428Y-123293190D01*
X201796761Y-122769380D01*
X202511047Y-123721761D02*
X202415809Y-123769380D01*
X202225333Y-123769380D01*
X202130095Y-123721761D01*
X202082476Y-123626523D01*
X202082476Y-123245571D01*
X202130095Y-123150333D01*
X202225333Y-123102714D01*
X202415809Y-123102714D01*
X202511047Y-123150333D01*
X202558666Y-123245571D01*
X202558666Y-123340809D01*
X202082476Y-123436047D01*
X202844380Y-123102714D02*
X203225333Y-123102714D01*
X202987238Y-122769380D02*
X202987238Y-123626523D01*
X203034857Y-123721761D01*
X203130095Y-123769380D01*
X203225333Y-123769380D01*
X204272952Y-123483666D02*
X204749142Y-123483666D01*
X204177714Y-123769380D02*
X204511047Y-122769380D01*
X204844380Y-123769380D01*
X205177714Y-123102714D02*
X205177714Y-123769380D01*
X205177714Y-123197952D02*
X205225333Y-123150333D01*
X205320571Y-123102714D01*
X205463428Y-123102714D01*
X205558666Y-123150333D01*
X205606285Y-123245571D01*
X205606285Y-123769380D01*
X206225333Y-123769380D02*
X206130095Y-123721761D01*
X206082476Y-123674142D01*
X206034857Y-123578904D01*
X206034857Y-123293190D01*
X206082476Y-123197952D01*
X206130095Y-123150333D01*
X206225333Y-123102714D01*
X206368190Y-123102714D01*
X206463428Y-123150333D01*
X206511047Y-123197952D01*
X206558666Y-123293190D01*
X206558666Y-123578904D01*
X206511047Y-123674142D01*
X206463428Y-123721761D01*
X206368190Y-123769380D01*
X206225333Y-123769380D01*
X206844380Y-123102714D02*
X207225333Y-123102714D01*
X206987238Y-122769380D02*
X206987238Y-123626523D01*
X207034857Y-123721761D01*
X207130095Y-123769380D01*
X207225333Y-123769380D01*
X207558666Y-123769380D02*
X207558666Y-122769380D01*
X207987238Y-123769380D02*
X207987238Y-123245571D01*
X207939619Y-123150333D01*
X207844380Y-123102714D01*
X207701523Y-123102714D01*
X207606285Y-123150333D01*
X207558666Y-123197952D01*
X208844380Y-123721761D02*
X208749142Y-123769380D01*
X208558666Y-123769380D01*
X208463428Y-123721761D01*
X208415809Y-123626523D01*
X208415809Y-123245571D01*
X208463428Y-123150333D01*
X208558666Y-123102714D01*
X208749142Y-123102714D01*
X208844380Y-123150333D01*
X208892000Y-123245571D01*
X208892000Y-123340809D01*
X208415809Y-123436047D01*
X209320571Y-123769380D02*
X209320571Y-123102714D01*
X209320571Y-123293190D02*
X209368190Y-123197952D01*
X209415809Y-123150333D01*
X209511047Y-123102714D01*
X209606285Y-123102714D01*
X211272952Y-123769380D02*
X210939619Y-123293190D01*
X210701523Y-123769380D02*
X210701523Y-122769380D01*
X211082476Y-122769380D01*
X211177714Y-122817000D01*
X211225333Y-122864619D01*
X211272952Y-122959857D01*
X211272952Y-123102714D01*
X211225333Y-123197952D01*
X211177714Y-123245571D01*
X211082476Y-123293190D01*
X210701523Y-123293190D01*
X212082476Y-123721761D02*
X211987238Y-123769380D01*
X211796761Y-123769380D01*
X211701523Y-123721761D01*
X211653904Y-123626523D01*
X211653904Y-123245571D01*
X211701523Y-123150333D01*
X211796761Y-123102714D01*
X211987238Y-123102714D01*
X212082476Y-123150333D01*
X212130095Y-123245571D01*
X212130095Y-123340809D01*
X211653904Y-123436047D01*
X212415809Y-123102714D02*
X212796761Y-123102714D01*
X212558666Y-123769380D02*
X212558666Y-122912238D01*
X212606285Y-122817000D01*
X212701523Y-122769380D01*
X212796761Y-122769380D01*
X213272952Y-123769380D02*
X213177714Y-123721761D01*
X213130095Y-123626523D01*
X213130095Y-122769380D01*
X213796761Y-123769380D02*
X213701523Y-123721761D01*
X213653904Y-123674142D01*
X213606285Y-123578904D01*
X213606285Y-123293190D01*
X213653904Y-123197952D01*
X213701523Y-123150333D01*
X213796761Y-123102714D01*
X213939619Y-123102714D01*
X214034857Y-123150333D01*
X214082476Y-123197952D01*
X214130095Y-123293190D01*
X214130095Y-123578904D01*
X214082476Y-123674142D01*
X214034857Y-123721761D01*
X213939619Y-123769380D01*
X213796761Y-123769380D01*
X214463428Y-123102714D02*
X214653904Y-123769380D01*
X214844380Y-123293190D01*
X215034857Y-123769380D01*
X215225333Y-123102714D01*
X216225333Y-122769380D02*
X216796761Y-122769380D01*
X216511047Y-123769380D02*
X216511047Y-122769380D01*
X217272952Y-123769380D02*
X217177714Y-123721761D01*
X217130095Y-123674142D01*
X217082476Y-123578904D01*
X217082476Y-123293190D01*
X217130095Y-123197952D01*
X217177714Y-123150333D01*
X217272952Y-123102714D01*
X217415809Y-123102714D01*
X217511047Y-123150333D01*
X217558666Y-123197952D01*
X217606285Y-123293190D01*
X217606285Y-123578904D01*
X217558666Y-123674142D01*
X217511047Y-123721761D01*
X217415809Y-123769380D01*
X217272952Y-123769380D01*
X218463428Y-123769380D02*
X218463428Y-123245571D01*
X218415809Y-123150333D01*
X218320571Y-123102714D01*
X218130095Y-123102714D01*
X218034857Y-123150333D01*
X218463428Y-123721761D02*
X218368190Y-123769380D01*
X218130095Y-123769380D01*
X218034857Y-123721761D01*
X217987238Y-123626523D01*
X217987238Y-123531285D01*
X218034857Y-123436047D01*
X218130095Y-123388428D01*
X218368190Y-123388428D01*
X218463428Y-123340809D01*
X218892000Y-123721761D02*
X218987238Y-123769380D01*
X219177714Y-123769380D01*
X219272952Y-123721761D01*
X219320571Y-123626523D01*
X219320571Y-123578904D01*
X219272952Y-123483666D01*
X219177714Y-123436047D01*
X219034857Y-123436047D01*
X218939619Y-123388428D01*
X218892000Y-123293190D01*
X218892000Y-123245571D01*
X218939619Y-123150333D01*
X219034857Y-123102714D01*
X219177714Y-123102714D01*
X219272952Y-123150333D01*
X219606285Y-123102714D02*
X219987238Y-123102714D01*
X219749142Y-122769380D02*
X219749142Y-123626523D01*
X219796761Y-123721761D01*
X219892000Y-123769380D01*
X219987238Y-123769380D01*
X220701523Y-123721761D02*
X220606285Y-123769380D01*
X220415809Y-123769380D01*
X220320571Y-123721761D01*
X220272952Y-123626523D01*
X220272952Y-123245571D01*
X220320571Y-123150333D01*
X220415809Y-123102714D01*
X220606285Y-123102714D01*
X220701523Y-123150333D01*
X220749142Y-123245571D01*
X220749142Y-123340809D01*
X220272952Y-123436047D01*
X221177714Y-123769380D02*
X221177714Y-123102714D01*
X221177714Y-123293190D02*
X221225333Y-123197952D01*
X221272952Y-123150333D01*
X221368190Y-123102714D01*
X221463428Y-123102714D01*
X223130095Y-123674142D02*
X223082476Y-123721761D01*
X222939619Y-123769380D01*
X222844380Y-123769380D01*
X222701523Y-123721761D01*
X222606285Y-123626523D01*
X222558666Y-123531285D01*
X222511047Y-123340809D01*
X222511047Y-123197952D01*
X222558666Y-123007476D01*
X222606285Y-122912238D01*
X222701523Y-122817000D01*
X222844380Y-122769380D01*
X222939619Y-122769380D01*
X223082476Y-122817000D01*
X223130095Y-122864619D01*
X223701523Y-123769380D02*
X223606285Y-123721761D01*
X223558666Y-123674142D01*
X223511047Y-123578904D01*
X223511047Y-123293190D01*
X223558666Y-123197952D01*
X223606285Y-123150333D01*
X223701523Y-123102714D01*
X223844380Y-123102714D01*
X223939619Y-123150333D01*
X223987238Y-123197952D01*
X224034857Y-123293190D01*
X224034857Y-123578904D01*
X223987238Y-123674142D01*
X223939619Y-123721761D01*
X223844380Y-123769380D01*
X223701523Y-123769380D01*
X224463428Y-123102714D02*
X224463428Y-123769380D01*
X224463428Y-123197952D02*
X224511047Y-123150333D01*
X224606285Y-123102714D01*
X224749142Y-123102714D01*
X224844380Y-123150333D01*
X224892000Y-123245571D01*
X224892000Y-123769380D01*
X225225333Y-123102714D02*
X225606285Y-123102714D01*
X225368190Y-122769380D02*
X225368190Y-123626523D01*
X225415809Y-123721761D01*
X225511047Y-123769380D01*
X225606285Y-123769380D01*
X225939619Y-123769380D02*
X225939619Y-123102714D01*
X225939619Y-123293190D02*
X225987238Y-123197952D01*
X226034857Y-123150333D01*
X226130095Y-123102714D01*
X226225333Y-123102714D01*
X226701523Y-123769380D02*
X226606285Y-123721761D01*
X226558666Y-123674142D01*
X226511047Y-123578904D01*
X226511047Y-123293190D01*
X226558666Y-123197952D01*
X226606285Y-123150333D01*
X226701523Y-123102714D01*
X226844380Y-123102714D01*
X226939619Y-123150333D01*
X226987238Y-123197952D01*
X227034857Y-123293190D01*
X227034857Y-123578904D01*
X226987238Y-123674142D01*
X226939619Y-123721761D01*
X226844380Y-123769380D01*
X226701523Y-123769380D01*
X227606285Y-123769380D02*
X227511047Y-123721761D01*
X227463428Y-123626523D01*
X227463428Y-122769380D01*
X228130095Y-123769380D02*
X228034857Y-123721761D01*
X227987238Y-123626523D01*
X227987238Y-122769380D01*
X228891999Y-123721761D02*
X228796761Y-123769380D01*
X228606285Y-123769380D01*
X228511047Y-123721761D01*
X228463428Y-123626523D01*
X228463428Y-123245571D01*
X228511047Y-123150333D01*
X228606285Y-123102714D01*
X228796761Y-123102714D01*
X228891999Y-123150333D01*
X228939619Y-123245571D01*
X228939619Y-123340809D01*
X228463428Y-123436047D01*
X229368190Y-123769380D02*
X229368190Y-123102714D01*
X229368190Y-123293190D02*
X229415809Y-123197952D01*
X229463428Y-123150333D01*
X229558666Y-123102714D01*
X229653904Y-123102714D01*
D11*
X250753619Y-101044142D02*
X250706000Y-100996523D01*
X250658380Y-100901285D01*
X250658380Y-100663190D01*
X250706000Y-100567952D01*
X250753619Y-100520333D01*
X250848857Y-100472714D01*
X250944095Y-100472714D01*
X251086952Y-100520333D01*
X251658380Y-101091761D01*
X251658380Y-100472714D01*
X252039333Y-99758428D02*
X251991714Y-99806047D01*
X251848857Y-99901285D01*
X251753619Y-99948904D01*
X251610761Y-99996523D01*
X251372666Y-100044142D01*
X251182190Y-100044142D01*
X250944095Y-99996523D01*
X250801238Y-99948904D01*
X250706000Y-99901285D01*
X250563142Y-99806047D01*
X250515523Y-99758428D01*
X251372666Y-99425095D02*
X251372666Y-98948904D01*
X251658380Y-99520333D02*
X250658380Y-99187000D01*
X251658380Y-98853666D01*
X251658380Y-97996523D02*
X251658380Y-98567952D01*
X251658380Y-98282238D02*
X250658380Y-98282238D01*
X250801238Y-98377476D01*
X250896476Y-98472714D01*
X250944095Y-98567952D01*
X252039333Y-97663190D02*
X251991714Y-97615571D01*
X251848857Y-97520333D01*
X251753619Y-97472714D01*
X251610761Y-97425095D01*
X251372666Y-97377476D01*
X251182190Y-97377476D01*
X250944095Y-97425095D01*
X250801238Y-97472714D01*
X250706000Y-97520333D01*
X250563142Y-97615571D01*
X250515523Y-97663190D01*
D12*
X115399714Y-110462142D02*
X115614000Y-110533571D01*
X115971142Y-110533571D01*
X116114000Y-110462142D01*
X116185428Y-110390714D01*
X116256857Y-110247857D01*
X116256857Y-110105000D01*
X116185428Y-109962142D01*
X116114000Y-109890714D01*
X115971142Y-109819285D01*
X115685428Y-109747857D01*
X115542571Y-109676428D01*
X115471142Y-109605000D01*
X115399714Y-109462142D01*
X115399714Y-109319285D01*
X115471142Y-109176428D01*
X115542571Y-109105000D01*
X115685428Y-109033571D01*
X116042571Y-109033571D01*
X116256857Y-109105000D01*
X116685428Y-109033571D02*
X117542571Y-109033571D01*
X117114000Y-110533571D02*
X117114000Y-109033571D01*
X117971142Y-110105000D02*
X118685428Y-110105000D01*
X117828285Y-110533571D02*
X118328285Y-109033571D01*
X118828285Y-110533571D01*
X120185428Y-110533571D02*
X119685428Y-109819285D01*
X119328285Y-110533571D02*
X119328285Y-109033571D01*
X119899714Y-109033571D01*
X120042571Y-109105000D01*
X120114000Y-109176428D01*
X120185428Y-109319285D01*
X120185428Y-109533571D01*
X120114000Y-109676428D01*
X120042571Y-109747857D01*
X119899714Y-109819285D01*
X119328285Y-109819285D01*
X120614000Y-109033571D02*
X121471142Y-109033571D01*
X121042571Y-110533571D02*
X121042571Y-109033571D01*
D11*
X251658380Y-95138714D02*
X251658380Y-95710142D01*
X251658380Y-95424428D02*
X250658380Y-95424428D01*
X250801238Y-95519666D01*
X250896476Y-95614904D01*
X250944095Y-95710142D01*
X252039333Y-94424428D02*
X251991714Y-94472047D01*
X251848857Y-94567285D01*
X251753619Y-94614904D01*
X251610761Y-94662523D01*
X251372666Y-94710142D01*
X251182190Y-94710142D01*
X250944095Y-94662523D01*
X250801238Y-94614904D01*
X250706000Y-94567285D01*
X250563142Y-94472047D01*
X250515523Y-94424428D01*
X251372666Y-94091095D02*
X251372666Y-93614904D01*
X251658380Y-94186333D02*
X250658380Y-93853000D01*
X251658380Y-93519666D01*
X250658380Y-92995857D02*
X250658380Y-92900619D01*
X250706000Y-92805380D01*
X250753619Y-92757761D01*
X250848857Y-92710142D01*
X251039333Y-92662523D01*
X251277428Y-92662523D01*
X251467904Y-92710142D01*
X251563142Y-92757761D01*
X251610761Y-92805380D01*
X251658380Y-92900619D01*
X251658380Y-92995857D01*
X251610761Y-93091095D01*
X251563142Y-93138714D01*
X251467904Y-93186333D01*
X251277428Y-93233952D01*
X251039333Y-93233952D01*
X250848857Y-93186333D01*
X250753619Y-93138714D01*
X250706000Y-93091095D01*
X250658380Y-92995857D01*
X252039333Y-92329190D02*
X251991714Y-92281571D01*
X251848857Y-92186333D01*
X251753619Y-92138714D01*
X251610761Y-92091095D01*
X251372666Y-92043476D01*
X251182190Y-92043476D01*
X250944095Y-92091095D01*
X250801238Y-92138714D01*
X250706000Y-92186333D01*
X250563142Y-92281571D01*
X250515523Y-92329190D01*
X250658380Y-105489190D02*
X250658380Y-104870142D01*
X251039333Y-105203476D01*
X251039333Y-105060619D01*
X251086952Y-104965380D01*
X251134571Y-104917761D01*
X251229809Y-104870142D01*
X251467904Y-104870142D01*
X251563142Y-104917761D01*
X251610761Y-104965380D01*
X251658380Y-105060619D01*
X251658380Y-105346333D01*
X251610761Y-105441571D01*
X251563142Y-105489190D01*
X252039333Y-104155857D02*
X251991714Y-104203476D01*
X251848857Y-104298714D01*
X251753619Y-104346333D01*
X251610761Y-104393952D01*
X251372666Y-104441571D01*
X251182190Y-104441571D01*
X250944095Y-104393952D01*
X250801238Y-104346333D01*
X250706000Y-104298714D01*
X250563142Y-104203476D01*
X250515523Y-104155857D01*
X251658380Y-103727285D02*
X251658380Y-103536809D01*
X251610761Y-103441571D01*
X251563142Y-103393952D01*
X251420285Y-103298714D01*
X251229809Y-103251095D01*
X250848857Y-103251095D01*
X250753619Y-103298714D01*
X250706000Y-103346333D01*
X250658380Y-103441571D01*
X250658380Y-103632047D01*
X250706000Y-103727285D01*
X250753619Y-103774904D01*
X250848857Y-103822523D01*
X251086952Y-103822523D01*
X251182190Y-103774904D01*
X251229809Y-103727285D01*
X251277428Y-103632047D01*
X251277428Y-103441571D01*
X251229809Y-103346333D01*
X251182190Y-103298714D01*
X251086952Y-103251095D01*
X252039333Y-102917761D02*
X251991714Y-102870142D01*
X251848857Y-102774904D01*
X251753619Y-102727285D01*
X251610761Y-102679666D01*
X251372666Y-102632047D01*
X251182190Y-102632047D01*
X250944095Y-102679666D01*
X250801238Y-102727285D01*
X250706000Y-102774904D01*
X250563142Y-102870142D01*
X250515523Y-102917761D01*
X199018952Y-118943380D02*
X199018952Y-117943380D01*
X199447523Y-118943380D02*
X199447523Y-118419571D01*
X199399904Y-118324333D01*
X199304666Y-118276714D01*
X199161809Y-118276714D01*
X199066571Y-118324333D01*
X199018952Y-118371952D01*
X199780857Y-118276714D02*
X200161809Y-118276714D01*
X199923714Y-117943380D02*
X199923714Y-118800523D01*
X199971333Y-118895761D01*
X200066571Y-118943380D01*
X200161809Y-118943380D01*
X200352285Y-118276714D02*
X200733238Y-118276714D01*
X200495142Y-117943380D02*
X200495142Y-118800523D01*
X200542761Y-118895761D01*
X200638000Y-118943380D01*
X200733238Y-118943380D01*
X201066571Y-118276714D02*
X201066571Y-119276714D01*
X201066571Y-118324333D02*
X201161809Y-118276714D01*
X201352285Y-118276714D01*
X201447523Y-118324333D01*
X201495142Y-118371952D01*
X201542761Y-118467190D01*
X201542761Y-118752904D01*
X201495142Y-118848142D01*
X201447523Y-118895761D01*
X201352285Y-118943380D01*
X201161809Y-118943380D01*
X201066571Y-118895761D01*
X201923714Y-118895761D02*
X202018952Y-118943380D01*
X202209428Y-118943380D01*
X202304666Y-118895761D01*
X202352285Y-118800523D01*
X202352285Y-118752904D01*
X202304666Y-118657666D01*
X202209428Y-118610047D01*
X202066571Y-118610047D01*
X201971333Y-118562428D01*
X201923714Y-118467190D01*
X201923714Y-118419571D01*
X201971333Y-118324333D01*
X202066571Y-118276714D01*
X202209428Y-118276714D01*
X202304666Y-118324333D01*
X202780857Y-118848142D02*
X202828476Y-118895761D01*
X202780857Y-118943380D01*
X202733238Y-118895761D01*
X202780857Y-118848142D01*
X202780857Y-118943380D01*
X202780857Y-118324333D02*
X202828476Y-118371952D01*
X202780857Y-118419571D01*
X202733238Y-118371952D01*
X202780857Y-118324333D01*
X202780857Y-118419571D01*
X203971333Y-117895761D02*
X203114190Y-119181476D01*
X205018952Y-117895761D02*
X204161809Y-119181476D01*
X205780857Y-118276714D02*
X205780857Y-119086238D01*
X205733238Y-119181476D01*
X205685619Y-119229095D01*
X205590380Y-119276714D01*
X205447523Y-119276714D01*
X205352285Y-119229095D01*
X205780857Y-118895761D02*
X205685619Y-118943380D01*
X205495142Y-118943380D01*
X205399904Y-118895761D01*
X205352285Y-118848142D01*
X205304666Y-118752904D01*
X205304666Y-118467190D01*
X205352285Y-118371952D01*
X205399904Y-118324333D01*
X205495142Y-118276714D01*
X205685619Y-118276714D01*
X205780857Y-118324333D01*
X206257047Y-118943380D02*
X206257047Y-118276714D01*
X206257047Y-117943380D02*
X206209428Y-117991000D01*
X206257047Y-118038619D01*
X206304666Y-117991000D01*
X206257047Y-117943380D01*
X206257047Y-118038619D01*
X206590380Y-118276714D02*
X206971333Y-118276714D01*
X206733238Y-117943380D02*
X206733238Y-118800523D01*
X206780857Y-118895761D01*
X206876095Y-118943380D01*
X206971333Y-118943380D01*
X207304666Y-118943380D02*
X207304666Y-117943380D01*
X207733238Y-118943380D02*
X207733238Y-118419571D01*
X207685619Y-118324333D01*
X207590380Y-118276714D01*
X207447523Y-118276714D01*
X207352285Y-118324333D01*
X207304666Y-118371952D01*
X208638000Y-118276714D02*
X208638000Y-118943380D01*
X208209428Y-118276714D02*
X208209428Y-118800523D01*
X208257047Y-118895761D01*
X208352285Y-118943380D01*
X208495142Y-118943380D01*
X208590380Y-118895761D01*
X208638000Y-118848142D01*
X209114190Y-118943380D02*
X209114190Y-117943380D01*
X209114190Y-118324333D02*
X209209428Y-118276714D01*
X209399904Y-118276714D01*
X209495142Y-118324333D01*
X209542761Y-118371952D01*
X209590380Y-118467190D01*
X209590380Y-118752904D01*
X209542761Y-118848142D01*
X209495142Y-118895761D01*
X209399904Y-118943380D01*
X209209428Y-118943380D01*
X209114190Y-118895761D01*
X210018952Y-118848142D02*
X210066571Y-118895761D01*
X210018952Y-118943380D01*
X209971333Y-118895761D01*
X210018952Y-118848142D01*
X210018952Y-118943380D01*
X210923714Y-118895761D02*
X210828476Y-118943380D01*
X210638000Y-118943380D01*
X210542761Y-118895761D01*
X210495142Y-118848142D01*
X210447523Y-118752904D01*
X210447523Y-118467190D01*
X210495142Y-118371952D01*
X210542761Y-118324333D01*
X210638000Y-118276714D01*
X210828476Y-118276714D01*
X210923714Y-118324333D01*
X211495142Y-118943380D02*
X211399904Y-118895761D01*
X211352285Y-118848142D01*
X211304666Y-118752904D01*
X211304666Y-118467190D01*
X211352285Y-118371952D01*
X211399904Y-118324333D01*
X211495142Y-118276714D01*
X211638000Y-118276714D01*
X211733238Y-118324333D01*
X211780857Y-118371952D01*
X211828476Y-118467190D01*
X211828476Y-118752904D01*
X211780857Y-118848142D01*
X211733238Y-118895761D01*
X211638000Y-118943380D01*
X211495142Y-118943380D01*
X212257047Y-118943380D02*
X212257047Y-118276714D01*
X212257047Y-118371952D02*
X212304666Y-118324333D01*
X212399904Y-118276714D01*
X212542761Y-118276714D01*
X212638000Y-118324333D01*
X212685619Y-118419571D01*
X212685619Y-118943380D01*
X212685619Y-118419571D02*
X212733238Y-118324333D01*
X212828476Y-118276714D01*
X212971333Y-118276714D01*
X213066571Y-118324333D01*
X213114190Y-118419571D01*
X213114190Y-118943380D01*
X214304666Y-117895761D02*
X213447523Y-119181476D01*
X214495142Y-118276714D02*
X214876095Y-118276714D01*
X214638000Y-117943380D02*
X214638000Y-118800523D01*
X214685619Y-118895761D01*
X214780857Y-118943380D01*
X214876095Y-118943380D01*
X215638000Y-118943380D02*
X215638000Y-118419571D01*
X215590380Y-118324333D01*
X215495142Y-118276714D01*
X215304666Y-118276714D01*
X215209428Y-118324333D01*
X215638000Y-118895761D02*
X215542761Y-118943380D01*
X215304666Y-118943380D01*
X215209428Y-118895761D01*
X215161809Y-118800523D01*
X215161809Y-118705285D01*
X215209428Y-118610047D01*
X215304666Y-118562428D01*
X215542761Y-118562428D01*
X215638000Y-118514809D01*
X216114190Y-118943380D02*
X216114190Y-117943380D01*
X216209428Y-118562428D02*
X216495142Y-118943380D01*
X216495142Y-118276714D02*
X216114190Y-118657666D01*
X217352285Y-118943380D02*
X217352285Y-118419571D01*
X217304666Y-118324333D01*
X217209428Y-118276714D01*
X217018952Y-118276714D01*
X216923714Y-118324333D01*
X217352285Y-118895761D02*
X217257047Y-118943380D01*
X217018952Y-118943380D01*
X216923714Y-118895761D01*
X216876095Y-118800523D01*
X216876095Y-118705285D01*
X216923714Y-118610047D01*
X217018952Y-118562428D01*
X217257047Y-118562428D01*
X217352285Y-118514809D01*
X218257047Y-118276714D02*
X218257047Y-119086238D01*
X218209428Y-119181476D01*
X218161809Y-119229095D01*
X218066571Y-119276714D01*
X217923714Y-119276714D01*
X217828476Y-119229095D01*
X218257047Y-118895761D02*
X218161809Y-118943380D01*
X217971333Y-118943380D01*
X217876095Y-118895761D01*
X217828476Y-118848142D01*
X217780857Y-118752904D01*
X217780857Y-118467190D01*
X217828476Y-118371952D01*
X217876095Y-118324333D01*
X217971333Y-118276714D01*
X218161809Y-118276714D01*
X218257047Y-118324333D01*
X218733238Y-118943380D02*
X218733238Y-118276714D01*
X218733238Y-117943380D02*
X218685619Y-117991000D01*
X218733238Y-118038619D01*
X218780857Y-117991000D01*
X218733238Y-117943380D01*
X218733238Y-118038619D01*
X219114190Y-118276714D02*
X219304666Y-118943380D01*
X219495142Y-118467190D01*
X219685619Y-118943380D01*
X219876095Y-118276714D01*
X220685619Y-118943380D02*
X220685619Y-118419571D01*
X220638000Y-118324333D01*
X220542761Y-118276714D01*
X220352285Y-118276714D01*
X220257047Y-118324333D01*
X220685619Y-118895761D02*
X220590380Y-118943380D01*
X220352285Y-118943380D01*
X220257047Y-118895761D01*
X220209428Y-118800523D01*
X220209428Y-118705285D01*
X220257047Y-118610047D01*
X220352285Y-118562428D01*
X220590380Y-118562428D01*
X220685619Y-118514809D01*
X221876095Y-117895761D02*
X221018952Y-119181476D01*
X222209428Y-118943380D02*
X222209428Y-118276714D01*
X222209428Y-118371952D02*
X222257047Y-118324333D01*
X222352285Y-118276714D01*
X222495142Y-118276714D01*
X222590380Y-118324333D01*
X222638000Y-118419571D01*
X222638000Y-118943380D01*
X222638000Y-118419571D02*
X222685619Y-118324333D01*
X222780857Y-118276714D01*
X222923714Y-118276714D01*
X223018952Y-118324333D01*
X223066571Y-118419571D01*
X223066571Y-118943380D01*
X223399904Y-118276714D02*
X223780857Y-118276714D01*
X223542761Y-117943380D02*
X223542761Y-118800523D01*
X223590380Y-118895761D01*
X223685619Y-118943380D01*
X223780857Y-118943380D01*
X223876095Y-119038619D02*
X224638000Y-119038619D01*
X224876095Y-118943380D02*
X224876095Y-118276714D01*
X224876095Y-118467190D02*
X224923714Y-118371952D01*
X224971333Y-118324333D01*
X225066571Y-118276714D01*
X225161809Y-118276714D01*
X225876095Y-118895761D02*
X225780857Y-118943380D01*
X225590380Y-118943380D01*
X225495142Y-118895761D01*
X225447523Y-118800523D01*
X225447523Y-118419571D01*
X225495142Y-118324333D01*
X225590380Y-118276714D01*
X225780857Y-118276714D01*
X225876095Y-118324333D01*
X225923714Y-118419571D01*
X225923714Y-118514809D01*
X225447523Y-118610047D01*
X226209428Y-118276714D02*
X226590380Y-118276714D01*
X226352285Y-118943380D02*
X226352285Y-118086238D01*
X226399904Y-117991000D01*
X226495142Y-117943380D01*
X226590380Y-117943380D01*
X227066571Y-118943380D02*
X226971333Y-118895761D01*
X226923714Y-118800523D01*
X226923714Y-117943380D01*
X227590380Y-118943380D02*
X227495142Y-118895761D01*
X227447523Y-118848142D01*
X227399904Y-118752904D01*
X227399904Y-118467190D01*
X227447523Y-118371952D01*
X227495142Y-118324333D01*
X227590380Y-118276714D01*
X227733238Y-118276714D01*
X227828476Y-118324333D01*
X227876095Y-118371952D01*
X227923714Y-118467190D01*
X227923714Y-118752904D01*
X227876095Y-118848142D01*
X227828476Y-118895761D01*
X227733238Y-118943380D01*
X227590380Y-118943380D01*
X228257047Y-118276714D02*
X228447523Y-118943380D01*
X228637999Y-118467190D01*
X228828476Y-118943380D01*
X229018952Y-118276714D01*
X229828476Y-118895761D02*
X229733238Y-118943380D01*
X229542761Y-118943380D01*
X229447523Y-118895761D01*
X229399904Y-118848142D01*
X229352285Y-118752904D01*
X229352285Y-118467190D01*
X229399904Y-118371952D01*
X229447523Y-118324333D01*
X229542761Y-118276714D01*
X229733238Y-118276714D01*
X229828476Y-118324333D01*
X230257047Y-118276714D02*
X230257047Y-118943380D01*
X230257047Y-118371952D02*
X230304666Y-118324333D01*
X230399904Y-118276714D01*
X230542761Y-118276714D01*
X230638000Y-118324333D01*
X230685619Y-118419571D01*
X230685619Y-118943380D01*
X231018952Y-118276714D02*
X231399904Y-118276714D01*
X231161809Y-117943380D02*
X231161809Y-118800523D01*
X231209428Y-118895761D01*
X231304666Y-118943380D01*
X231399904Y-118943380D01*
X202085333Y-76104619D02*
X202037714Y-76152238D01*
X201894857Y-76247476D01*
X201799619Y-76295095D01*
X201656761Y-76342714D01*
X201418666Y-76390333D01*
X201228190Y-76390333D01*
X200990095Y-76342714D01*
X200847238Y-76295095D01*
X200752000Y-76247476D01*
X200609142Y-76152238D01*
X200561523Y-76104619D01*
X201418666Y-75771285D02*
X201418666Y-75295095D01*
X201704380Y-75866523D02*
X200704380Y-75533190D01*
X201704380Y-75199857D01*
X200799619Y-74914142D02*
X200752000Y-74866523D01*
X200704380Y-74771285D01*
X200704380Y-74533190D01*
X200752000Y-74437952D01*
X200799619Y-74390333D01*
X200894857Y-74342714D01*
X200990095Y-74342714D01*
X201132952Y-74390333D01*
X201704380Y-74961761D01*
X201704380Y-74342714D01*
X202085333Y-74009380D02*
X202037714Y-73961761D01*
X201894857Y-73866523D01*
X201799619Y-73818904D01*
X201656761Y-73771285D01*
X201418666Y-73723666D01*
X201228190Y-73723666D01*
X200990095Y-73771285D01*
X200847238Y-73818904D01*
X200752000Y-73866523D01*
X200609142Y-73961761D01*
X200561523Y-74009380D01*
X202409619Y-75342714D02*
X202362000Y-75295095D01*
X202314380Y-75199857D01*
X202314380Y-74961761D01*
X202362000Y-74866523D01*
X202409619Y-74818904D01*
X202504857Y-74771285D01*
X202600095Y-74771285D01*
X202742952Y-74818904D01*
X203314380Y-75390333D01*
X203314380Y-74771285D01*
D12*
X115677428Y-89959571D02*
X115177428Y-89245285D01*
X114820285Y-89959571D02*
X114820285Y-88459571D01*
X115391714Y-88459571D01*
X115534571Y-88531000D01*
X115606000Y-88602428D01*
X115677428Y-88745285D01*
X115677428Y-88959571D01*
X115606000Y-89102428D01*
X115534571Y-89173857D01*
X115391714Y-89245285D01*
X114820285Y-89245285D01*
X116320285Y-89173857D02*
X116820285Y-89173857D01*
X117034571Y-89959571D02*
X116320285Y-89959571D01*
X116320285Y-88459571D01*
X117034571Y-88459571D01*
X117606000Y-89888142D02*
X117820285Y-89959571D01*
X118177428Y-89959571D01*
X118320285Y-89888142D01*
X118391714Y-89816714D01*
X118463142Y-89673857D01*
X118463142Y-89531000D01*
X118391714Y-89388142D01*
X118320285Y-89316714D01*
X118177428Y-89245285D01*
X117891714Y-89173857D01*
X117748857Y-89102428D01*
X117677428Y-89031000D01*
X117606000Y-88888142D01*
X117606000Y-88745285D01*
X117677428Y-88602428D01*
X117748857Y-88531000D01*
X117891714Y-88459571D01*
X118248857Y-88459571D01*
X118463142Y-88531000D01*
X119106000Y-89173857D02*
X119606000Y-89173857D01*
X119820285Y-89959571D02*
X119106000Y-89959571D01*
X119106000Y-88459571D01*
X119820285Y-88459571D01*
X120248857Y-88459571D02*
X121106000Y-88459571D01*
X120677428Y-89959571D02*
X120677428Y-88459571D01*
D10*
X139390380Y-121126285D02*
X139390380Y-121697714D01*
X139390380Y-121412000D02*
X138390380Y-121412000D01*
X138533238Y-121507238D01*
X138628476Y-121602476D01*
X138676095Y-121697714D01*
D11*
X223040333Y-76104619D02*
X222992714Y-76152238D01*
X222849857Y-76247476D01*
X222754619Y-76295095D01*
X222611761Y-76342714D01*
X222373666Y-76390333D01*
X222183190Y-76390333D01*
X221945095Y-76342714D01*
X221802238Y-76295095D01*
X221707000Y-76247476D01*
X221564142Y-76152238D01*
X221516523Y-76104619D01*
X222373666Y-75771285D02*
X222373666Y-75295095D01*
X222659380Y-75866523D02*
X221659380Y-75533190D01*
X222659380Y-75199857D01*
X221659380Y-74961761D02*
X221659380Y-74342714D01*
X222040333Y-74676047D01*
X222040333Y-74533190D01*
X222087952Y-74437952D01*
X222135571Y-74390333D01*
X222230809Y-74342714D01*
X222468904Y-74342714D01*
X222564142Y-74390333D01*
X222611761Y-74437952D01*
X222659380Y-74533190D01*
X222659380Y-74818904D01*
X222611761Y-74914142D01*
X222564142Y-74961761D01*
X223040333Y-74009380D02*
X222992714Y-73961761D01*
X222849857Y-73866523D01*
X222754619Y-73818904D01*
X222611761Y-73771285D01*
X222373666Y-73723666D01*
X222183190Y-73723666D01*
X221945095Y-73771285D01*
X221802238Y-73818904D01*
X221707000Y-73866523D01*
X221564142Y-73961761D01*
X221516523Y-74009380D01*
X223269380Y-75390333D02*
X223269380Y-74771285D01*
X223650333Y-75104619D01*
X223650333Y-74961761D01*
X223697952Y-74866523D01*
X223745571Y-74818904D01*
X223840809Y-74771285D01*
X224078904Y-74771285D01*
X224174142Y-74818904D01*
X224221761Y-74866523D01*
X224269380Y-74961761D01*
X224269380Y-75247476D01*
X224221761Y-75342714D01*
X224174142Y-75390333D01*
X181003333Y-76152238D02*
X180955714Y-76199857D01*
X180812857Y-76295095D01*
X180717619Y-76342714D01*
X180574761Y-76390333D01*
X180336666Y-76437952D01*
X180146190Y-76437952D01*
X179908095Y-76390333D01*
X179765238Y-76342714D01*
X179670000Y-76295095D01*
X179527142Y-76199857D01*
X179479523Y-76152238D01*
X180622380Y-75247476D02*
X180622380Y-75818904D01*
X180622380Y-75533190D02*
X179622380Y-75533190D01*
X179765238Y-75628428D01*
X179860476Y-75723666D01*
X179908095Y-75818904D01*
X179622380Y-74628428D02*
X179622380Y-74533190D01*
X179670000Y-74437952D01*
X179717619Y-74390333D01*
X179812857Y-74342714D01*
X180003333Y-74295095D01*
X180241428Y-74295095D01*
X180431904Y-74342714D01*
X180527142Y-74390333D01*
X180574761Y-74437952D01*
X180622380Y-74533190D01*
X180622380Y-74628428D01*
X180574761Y-74723666D01*
X180527142Y-74771285D01*
X180431904Y-74818904D01*
X180241428Y-74866523D01*
X180003333Y-74866523D01*
X179812857Y-74818904D01*
X179717619Y-74771285D01*
X179670000Y-74723666D01*
X179622380Y-74628428D01*
X181003333Y-73961761D02*
X180955714Y-73914142D01*
X180812857Y-73818904D01*
X180717619Y-73771285D01*
X180574761Y-73723666D01*
X180336666Y-73676047D01*
X180146190Y-73676047D01*
X179908095Y-73723666D01*
X179765238Y-73771285D01*
X179670000Y-73818904D01*
X179527142Y-73914142D01*
X179479523Y-73961761D01*
X182232380Y-74771285D02*
X182232380Y-75342714D01*
X182232380Y-75057000D02*
X181232380Y-75057000D01*
X181375238Y-75152238D01*
X181470476Y-75247476D01*
X181518095Y-75342714D01*
D10*
G04 #@! TO.C,P1*
X134897904Y-123007380D02*
X134897904Y-122007380D01*
X135278857Y-122007380D01*
X135374095Y-122055000D01*
X135421714Y-122102619D01*
X135469333Y-122197857D01*
X135469333Y-122340714D01*
X135421714Y-122435952D01*
X135374095Y-122483571D01*
X135278857Y-122531190D01*
X134897904Y-122531190D01*
X136421714Y-123007380D02*
X135850285Y-123007380D01*
X136136000Y-123007380D02*
X136136000Y-122007380D01*
X136040761Y-122150238D01*
X135945523Y-122245476D01*
X135850285Y-122293095D01*
G04 #@! TO.C,P2*
X177061904Y-123261380D02*
X177061904Y-122261380D01*
X177442857Y-122261380D01*
X177538095Y-122309000D01*
X177585714Y-122356619D01*
X177633333Y-122451857D01*
X177633333Y-122594714D01*
X177585714Y-122689952D01*
X177538095Y-122737571D01*
X177442857Y-122785190D01*
X177061904Y-122785190D01*
X178014285Y-122356619D02*
X178061904Y-122309000D01*
X178157142Y-122261380D01*
X178395238Y-122261380D01*
X178490476Y-122309000D01*
X178538095Y-122356619D01*
X178585714Y-122451857D01*
X178585714Y-122547095D01*
X178538095Y-122689952D01*
X177966666Y-123261380D01*
X178585714Y-123261380D01*
G04 #@! TO.C,P3*
X136675904Y-79319380D02*
X136675904Y-78319380D01*
X137056857Y-78319380D01*
X137152095Y-78367000D01*
X137199714Y-78414619D01*
X137247333Y-78509857D01*
X137247333Y-78652714D01*
X137199714Y-78747952D01*
X137152095Y-78795571D01*
X137056857Y-78843190D01*
X136675904Y-78843190D01*
X137580666Y-78319380D02*
X138199714Y-78319380D01*
X137866380Y-78700333D01*
X138009238Y-78700333D01*
X138104476Y-78747952D01*
X138152095Y-78795571D01*
X138199714Y-78890809D01*
X138199714Y-79128904D01*
X138152095Y-79224142D01*
X138104476Y-79271761D01*
X138009238Y-79319380D01*
X137723523Y-79319380D01*
X137628285Y-79271761D01*
X137580666Y-79224142D01*
G04 #@! TO.C,P4*
X164869904Y-79319380D02*
X164869904Y-78319380D01*
X165250857Y-78319380D01*
X165346095Y-78367000D01*
X165393714Y-78414619D01*
X165441333Y-78509857D01*
X165441333Y-78652714D01*
X165393714Y-78747952D01*
X165346095Y-78795571D01*
X165250857Y-78843190D01*
X164869904Y-78843190D01*
X166298476Y-78652714D02*
X166298476Y-79319380D01*
X166060380Y-78271761D02*
X165822285Y-78986047D01*
X166441333Y-78986047D01*
D13*
G04 #@! TO.C,S2*
X124762380Y-87255047D02*
X124943809Y-87315523D01*
X125246190Y-87315523D01*
X125367142Y-87255047D01*
X125427619Y-87194571D01*
X125488095Y-87073619D01*
X125488095Y-86952666D01*
X125427619Y-86831714D01*
X125367142Y-86771238D01*
X125246190Y-86710761D01*
X125004285Y-86650285D01*
X124883333Y-86589809D01*
X124822857Y-86529333D01*
X124762380Y-86408380D01*
X124762380Y-86287428D01*
X124822857Y-86166476D01*
X124883333Y-86106000D01*
X125004285Y-86045523D01*
X125306666Y-86045523D01*
X125488095Y-86106000D01*
X125971904Y-86166476D02*
X126032380Y-86106000D01*
X126153333Y-86045523D01*
X126455714Y-86045523D01*
X126576666Y-86106000D01*
X126637142Y-86166476D01*
X126697619Y-86287428D01*
X126697619Y-86408380D01*
X126637142Y-86589809D01*
X125911428Y-87315523D01*
X126697619Y-87315523D01*
G04 #@! TO.C,IC2*
X169448238Y-89855523D02*
X169448238Y-88585523D01*
X170778714Y-89734571D02*
X170718238Y-89795047D01*
X170536809Y-89855523D01*
X170415857Y-89855523D01*
X170234428Y-89795047D01*
X170113476Y-89674095D01*
X170053000Y-89553142D01*
X169992523Y-89311238D01*
X169992523Y-89129809D01*
X170053000Y-88887904D01*
X170113476Y-88766952D01*
X170234428Y-88646000D01*
X170415857Y-88585523D01*
X170536809Y-88585523D01*
X170718238Y-88646000D01*
X170778714Y-88706476D01*
X171262523Y-88706476D02*
X171323000Y-88646000D01*
X171443952Y-88585523D01*
X171746333Y-88585523D01*
X171867285Y-88646000D01*
X171927761Y-88706476D01*
X171988238Y-88827428D01*
X171988238Y-88948380D01*
X171927761Y-89129809D01*
X171202047Y-89855523D01*
X171988238Y-89855523D01*
G04 #@! TO.C,IC5*
X235615238Y-110556523D02*
X235615238Y-109286523D01*
X236945714Y-110435571D02*
X236885238Y-110496047D01*
X236703809Y-110556523D01*
X236582857Y-110556523D01*
X236401428Y-110496047D01*
X236280476Y-110375095D01*
X236220000Y-110254142D01*
X236159523Y-110012238D01*
X236159523Y-109830809D01*
X236220000Y-109588904D01*
X236280476Y-109467952D01*
X236401428Y-109347000D01*
X236582857Y-109286523D01*
X236703809Y-109286523D01*
X236885238Y-109347000D01*
X236945714Y-109407476D01*
X238094761Y-109286523D02*
X237490000Y-109286523D01*
X237429523Y-109891285D01*
X237490000Y-109830809D01*
X237610952Y-109770333D01*
X237913333Y-109770333D01*
X238034285Y-109830809D01*
X238094761Y-109891285D01*
X238155238Y-110012238D01*
X238155238Y-110314619D01*
X238094761Y-110435571D01*
X238034285Y-110496047D01*
X237913333Y-110556523D01*
X237610952Y-110556523D01*
X237490000Y-110496047D01*
X237429523Y-110435571D01*
D10*
G04 #@! TO.C,R16*
X155138380Y-98321857D02*
X154662190Y-98655190D01*
X155138380Y-98893285D02*
X154138380Y-98893285D01*
X154138380Y-98512333D01*
X154186000Y-98417095D01*
X154233619Y-98369476D01*
X154328857Y-98321857D01*
X154471714Y-98321857D01*
X154566952Y-98369476D01*
X154614571Y-98417095D01*
X154662190Y-98512333D01*
X154662190Y-98893285D01*
X155138380Y-97369476D02*
X155138380Y-97940904D01*
X155138380Y-97655190D02*
X154138380Y-97655190D01*
X154281238Y-97750428D01*
X154376476Y-97845666D01*
X154424095Y-97940904D01*
X154138380Y-96512333D02*
X154138380Y-96702809D01*
X154186000Y-96798047D01*
X154233619Y-96845666D01*
X154376476Y-96940904D01*
X154566952Y-96988523D01*
X154947904Y-96988523D01*
X155043142Y-96940904D01*
X155090761Y-96893285D01*
X155138380Y-96798047D01*
X155138380Y-96607571D01*
X155090761Y-96512333D01*
X155043142Y-96464714D01*
X154947904Y-96417095D01*
X154709809Y-96417095D01*
X154614571Y-96464714D01*
X154566952Y-96512333D01*
X154519333Y-96607571D01*
X154519333Y-96798047D01*
X154566952Y-96893285D01*
X154614571Y-96940904D01*
X154709809Y-96988523D01*
G04 #@! TO.C,R14*
X150185380Y-101607857D02*
X149709190Y-101941190D01*
X150185380Y-102179285D02*
X149185380Y-102179285D01*
X149185380Y-101798333D01*
X149233000Y-101703095D01*
X149280619Y-101655476D01*
X149375857Y-101607857D01*
X149518714Y-101607857D01*
X149613952Y-101655476D01*
X149661571Y-101703095D01*
X149709190Y-101798333D01*
X149709190Y-102179285D01*
X150185380Y-100655476D02*
X150185380Y-101226904D01*
X150185380Y-100941190D02*
X149185380Y-100941190D01*
X149328238Y-101036428D01*
X149423476Y-101131666D01*
X149471095Y-101226904D01*
X149518714Y-99798333D02*
X150185380Y-99798333D01*
X149137761Y-100036428D02*
X149852047Y-100274523D01*
X149852047Y-99655476D01*
G04 #@! TO.C,D3*
X248181904Y-105989380D02*
X248181904Y-104989380D01*
X248420000Y-104989380D01*
X248562857Y-105037000D01*
X248658095Y-105132238D01*
X248705714Y-105227476D01*
X248753333Y-105417952D01*
X248753333Y-105560809D01*
X248705714Y-105751285D01*
X248658095Y-105846523D01*
X248562857Y-105941761D01*
X248420000Y-105989380D01*
X248181904Y-105989380D01*
X249086666Y-104989380D02*
X249705714Y-104989380D01*
X249372380Y-105370333D01*
X249515238Y-105370333D01*
X249610476Y-105417952D01*
X249658095Y-105465571D01*
X249705714Y-105560809D01*
X249705714Y-105798904D01*
X249658095Y-105894142D01*
X249610476Y-105941761D01*
X249515238Y-105989380D01*
X249229523Y-105989380D01*
X249134285Y-105941761D01*
X249086666Y-105894142D01*
D13*
G04 #@! TO.C,IC4*
X215041238Y-110429523D02*
X215041238Y-109159523D01*
X216371714Y-110308571D02*
X216311238Y-110369047D01*
X216129809Y-110429523D01*
X216008857Y-110429523D01*
X215827428Y-110369047D01*
X215706476Y-110248095D01*
X215646000Y-110127142D01*
X215585523Y-109885238D01*
X215585523Y-109703809D01*
X215646000Y-109461904D01*
X215706476Y-109340952D01*
X215827428Y-109220000D01*
X216008857Y-109159523D01*
X216129809Y-109159523D01*
X216311238Y-109220000D01*
X216371714Y-109280476D01*
X217460285Y-109582857D02*
X217460285Y-110429523D01*
X217157904Y-109099047D02*
X216855523Y-110006190D01*
X217641714Y-110006190D01*
D10*
G04 #@! TO.C,J4*
X223353380Y-81359333D02*
X224067666Y-81359333D01*
X224210523Y-81406952D01*
X224305761Y-81502190D01*
X224353380Y-81645047D01*
X224353380Y-81740285D01*
X223686714Y-80454571D02*
X224353380Y-80454571D01*
X223305761Y-80692666D02*
X224020047Y-80930761D01*
X224020047Y-80311714D01*
X222732647Y-91619228D02*
X223494552Y-91619228D01*
X223113600Y-92000180D02*
X223113600Y-91238276D01*
X241782647Y-91619228D02*
X242544552Y-91619228D01*
G04 #@! TO.C,J6*
X113966666Y-73009380D02*
X113966666Y-73723666D01*
X113919047Y-73866523D01*
X113823809Y-73961761D01*
X113680952Y-74009380D01*
X113585714Y-74009380D01*
X114871428Y-73009380D02*
X114680952Y-73009380D01*
X114585714Y-73057000D01*
X114538095Y-73104619D01*
X114442857Y-73247476D01*
X114395238Y-73437952D01*
X114395238Y-73818904D01*
X114442857Y-73914142D01*
X114490476Y-73961761D01*
X114585714Y-74009380D01*
X114776190Y-74009380D01*
X114871428Y-73961761D01*
X114919047Y-73914142D01*
X114966666Y-73818904D01*
X114966666Y-73580809D01*
X114919047Y-73485571D01*
X114871428Y-73437952D01*
X114776190Y-73390333D01*
X114585714Y-73390333D01*
X114490476Y-73437952D01*
X114442857Y-73485571D01*
X114395238Y-73580809D01*
G04 #@! TO.C,J8*
X254174666Y-81899380D02*
X254174666Y-82613666D01*
X254127047Y-82756523D01*
X254031809Y-82851761D01*
X253888952Y-82899380D01*
X253793714Y-82899380D01*
X254793714Y-82327952D02*
X254698476Y-82280333D01*
X254650857Y-82232714D01*
X254603238Y-82137476D01*
X254603238Y-82089857D01*
X254650857Y-81994619D01*
X254698476Y-81947000D01*
X254793714Y-81899380D01*
X254984190Y-81899380D01*
X255079428Y-81947000D01*
X255127047Y-81994619D01*
X255174666Y-82089857D01*
X255174666Y-82137476D01*
X255127047Y-82232714D01*
X255079428Y-82280333D01*
X254984190Y-82327952D01*
X254793714Y-82327952D01*
X254698476Y-82375571D01*
X254650857Y-82423190D01*
X254603238Y-82518428D01*
X254603238Y-82708904D01*
X254650857Y-82804142D01*
X254698476Y-82851761D01*
X254793714Y-82899380D01*
X254984190Y-82899380D01*
X255079428Y-82851761D01*
X255127047Y-82804142D01*
X255174666Y-82708904D01*
X255174666Y-82518428D01*
X255127047Y-82423190D01*
X255079428Y-82375571D01*
X254984190Y-82327952D01*
G04 #@! TO.C,C6*
X206589333Y-103862142D02*
X206541714Y-103909761D01*
X206398857Y-103957380D01*
X206303619Y-103957380D01*
X206160761Y-103909761D01*
X206065523Y-103814523D01*
X206017904Y-103719285D01*
X205970285Y-103528809D01*
X205970285Y-103385952D01*
X206017904Y-103195476D01*
X206065523Y-103100238D01*
X206160761Y-103005000D01*
X206303619Y-102957380D01*
X206398857Y-102957380D01*
X206541714Y-103005000D01*
X206589333Y-103052619D01*
X207446476Y-102957380D02*
X207256000Y-102957380D01*
X207160761Y-103005000D01*
X207113142Y-103052619D01*
X207017904Y-103195476D01*
X206970285Y-103385952D01*
X206970285Y-103766904D01*
X207017904Y-103862142D01*
X207065523Y-103909761D01*
X207160761Y-103957380D01*
X207351238Y-103957380D01*
X207446476Y-103909761D01*
X207494095Y-103862142D01*
X207541714Y-103766904D01*
X207541714Y-103528809D01*
X207494095Y-103433571D01*
X207446476Y-103385952D01*
X207351238Y-103338333D01*
X207160761Y-103338333D01*
X207065523Y-103385952D01*
X207017904Y-103433571D01*
X206970285Y-103528809D01*
G04 #@! TO.C,TP2*
X198382095Y-109087380D02*
X198953523Y-109087380D01*
X198667809Y-110087380D02*
X198667809Y-109087380D01*
X199286857Y-110087380D02*
X199286857Y-109087380D01*
X199667809Y-109087380D01*
X199763047Y-109135000D01*
X199810666Y-109182619D01*
X199858285Y-109277857D01*
X199858285Y-109420714D01*
X199810666Y-109515952D01*
X199763047Y-109563571D01*
X199667809Y-109611190D01*
X199286857Y-109611190D01*
X200239238Y-109182619D02*
X200286857Y-109135000D01*
X200382095Y-109087380D01*
X200620190Y-109087380D01*
X200715428Y-109135000D01*
X200763047Y-109182619D01*
X200810666Y-109277857D01*
X200810666Y-109373095D01*
X200763047Y-109515952D01*
X200191619Y-110087380D01*
X200810666Y-110087380D01*
G04 #@! TO.C,R18*
X171823142Y-95447380D02*
X171489809Y-94971190D01*
X171251714Y-95447380D02*
X171251714Y-94447380D01*
X171632666Y-94447380D01*
X171727904Y-94495000D01*
X171775523Y-94542619D01*
X171823142Y-94637857D01*
X171823142Y-94780714D01*
X171775523Y-94875952D01*
X171727904Y-94923571D01*
X171632666Y-94971190D01*
X171251714Y-94971190D01*
X172775523Y-95447380D02*
X172204095Y-95447380D01*
X172489809Y-95447380D02*
X172489809Y-94447380D01*
X172394571Y-94590238D01*
X172299333Y-94685476D01*
X172204095Y-94733095D01*
X173346952Y-94875952D02*
X173251714Y-94828333D01*
X173204095Y-94780714D01*
X173156476Y-94685476D01*
X173156476Y-94637857D01*
X173204095Y-94542619D01*
X173251714Y-94495000D01*
X173346952Y-94447380D01*
X173537428Y-94447380D01*
X173632666Y-94495000D01*
X173680285Y-94542619D01*
X173727904Y-94637857D01*
X173727904Y-94685476D01*
X173680285Y-94780714D01*
X173632666Y-94828333D01*
X173537428Y-94875952D01*
X173346952Y-94875952D01*
X173251714Y-94923571D01*
X173204095Y-94971190D01*
X173156476Y-95066428D01*
X173156476Y-95256904D01*
X173204095Y-95352142D01*
X173251714Y-95399761D01*
X173346952Y-95447380D01*
X173537428Y-95447380D01*
X173632666Y-95399761D01*
X173680285Y-95352142D01*
X173727904Y-95256904D01*
X173727904Y-95066428D01*
X173680285Y-94971190D01*
X173632666Y-94923571D01*
X173537428Y-94875952D01*
G04 #@! TO.C,J2*
X181443380Y-81359333D02*
X182157666Y-81359333D01*
X182300523Y-81406952D01*
X182395761Y-81502190D01*
X182443380Y-81645047D01*
X182443380Y-81740285D01*
X181538619Y-80930761D02*
X181491000Y-80883142D01*
X181443380Y-80787904D01*
X181443380Y-80549809D01*
X181491000Y-80454571D01*
X181538619Y-80406952D01*
X181633857Y-80359333D01*
X181729095Y-80359333D01*
X181871952Y-80406952D01*
X182443380Y-80978380D01*
X182443380Y-80359333D01*
X200025047Y-91638428D02*
X200786952Y-91638428D01*
X180975047Y-91638428D02*
X181736952Y-91638428D01*
X181356000Y-92019380D02*
X181356000Y-91257476D01*
G04 #@! TO.C,R5*
X248721333Y-103576380D02*
X248388000Y-103100190D01*
X248149904Y-103576380D02*
X248149904Y-102576380D01*
X248530857Y-102576380D01*
X248626095Y-102624000D01*
X248673714Y-102671619D01*
X248721333Y-102766857D01*
X248721333Y-102909714D01*
X248673714Y-103004952D01*
X248626095Y-103052571D01*
X248530857Y-103100190D01*
X248149904Y-103100190D01*
X249626095Y-102576380D02*
X249149904Y-102576380D01*
X249102285Y-103052571D01*
X249149904Y-103004952D01*
X249245142Y-102957333D01*
X249483238Y-102957333D01*
X249578476Y-103004952D01*
X249626095Y-103052571D01*
X249673714Y-103147809D01*
X249673714Y-103385904D01*
X249626095Y-103481142D01*
X249578476Y-103528761D01*
X249483238Y-103576380D01*
X249245142Y-103576380D01*
X249149904Y-103528761D01*
X249102285Y-103481142D01*
G04 #@! TO.C,R9*
X127087333Y-94813380D02*
X126754000Y-94337190D01*
X126515904Y-94813380D02*
X126515904Y-93813380D01*
X126896857Y-93813380D01*
X126992095Y-93861000D01*
X127039714Y-93908619D01*
X127087333Y-94003857D01*
X127087333Y-94146714D01*
X127039714Y-94241952D01*
X126992095Y-94289571D01*
X126896857Y-94337190D01*
X126515904Y-94337190D01*
X127563523Y-94813380D02*
X127754000Y-94813380D01*
X127849238Y-94765761D01*
X127896857Y-94718142D01*
X127992095Y-94575285D01*
X128039714Y-94384809D01*
X128039714Y-94003857D01*
X127992095Y-93908619D01*
X127944476Y-93861000D01*
X127849238Y-93813380D01*
X127658761Y-93813380D01*
X127563523Y-93861000D01*
X127515904Y-93908619D01*
X127468285Y-94003857D01*
X127468285Y-94241952D01*
X127515904Y-94337190D01*
X127563523Y-94384809D01*
X127658761Y-94432428D01*
X127849238Y-94432428D01*
X127944476Y-94384809D01*
X127992095Y-94337190D01*
X128039714Y-94241952D01*
G04 #@! TO.C,R2*
X248721333Y-93289380D02*
X248388000Y-92813190D01*
X248149904Y-93289380D02*
X248149904Y-92289380D01*
X248530857Y-92289380D01*
X248626095Y-92337000D01*
X248673714Y-92384619D01*
X248721333Y-92479857D01*
X248721333Y-92622714D01*
X248673714Y-92717952D01*
X248626095Y-92765571D01*
X248530857Y-92813190D01*
X248149904Y-92813190D01*
X249102285Y-92384619D02*
X249149904Y-92337000D01*
X249245142Y-92289380D01*
X249483238Y-92289380D01*
X249578476Y-92337000D01*
X249626095Y-92384619D01*
X249673714Y-92479857D01*
X249673714Y-92575095D01*
X249626095Y-92717952D01*
X249054666Y-93289380D01*
X249673714Y-93289380D01*
G04 #@! TO.C,R15*
X152598380Y-100480857D02*
X152122190Y-100814190D01*
X152598380Y-101052285D02*
X151598380Y-101052285D01*
X151598380Y-100671333D01*
X151646000Y-100576095D01*
X151693619Y-100528476D01*
X151788857Y-100480857D01*
X151931714Y-100480857D01*
X152026952Y-100528476D01*
X152074571Y-100576095D01*
X152122190Y-100671333D01*
X152122190Y-101052285D01*
X152598380Y-99528476D02*
X152598380Y-100099904D01*
X152598380Y-99814190D02*
X151598380Y-99814190D01*
X151741238Y-99909428D01*
X151836476Y-100004666D01*
X151884095Y-100099904D01*
X151598380Y-98623714D02*
X151598380Y-99099904D01*
X152074571Y-99147523D01*
X152026952Y-99099904D01*
X151979333Y-99004666D01*
X151979333Y-98766571D01*
X152026952Y-98671333D01*
X152074571Y-98623714D01*
X152169809Y-98576095D01*
X152407904Y-98576095D01*
X152503142Y-98623714D01*
X152550761Y-98671333D01*
X152598380Y-98766571D01*
X152598380Y-99004666D01*
X152550761Y-99099904D01*
X152503142Y-99147523D01*
G04 #@! TO.C,R6*
X127119333Y-104973380D02*
X126786000Y-104497190D01*
X126547904Y-104973380D02*
X126547904Y-103973380D01*
X126928857Y-103973380D01*
X127024095Y-104021000D01*
X127071714Y-104068619D01*
X127119333Y-104163857D01*
X127119333Y-104306714D01*
X127071714Y-104401952D01*
X127024095Y-104449571D01*
X126928857Y-104497190D01*
X126547904Y-104497190D01*
X127976476Y-103973380D02*
X127786000Y-103973380D01*
X127690761Y-104021000D01*
X127643142Y-104068619D01*
X127547904Y-104211476D01*
X127500285Y-104401952D01*
X127500285Y-104782904D01*
X127547904Y-104878142D01*
X127595523Y-104925761D01*
X127690761Y-104973380D01*
X127881238Y-104973380D01*
X127976476Y-104925761D01*
X128024095Y-104878142D01*
X128071714Y-104782904D01*
X128071714Y-104544809D01*
X128024095Y-104449571D01*
X127976476Y-104401952D01*
X127881238Y-104354333D01*
X127690761Y-104354333D01*
X127595523Y-104401952D01*
X127547904Y-104449571D01*
X127500285Y-104544809D01*
G04 #@! TO.C,R17*
X157424380Y-96908857D02*
X156948190Y-97242190D01*
X157424380Y-97480285D02*
X156424380Y-97480285D01*
X156424380Y-97099333D01*
X156472000Y-97004095D01*
X156519619Y-96956476D01*
X156614857Y-96908857D01*
X156757714Y-96908857D01*
X156852952Y-96956476D01*
X156900571Y-97004095D01*
X156948190Y-97099333D01*
X156948190Y-97480285D01*
X157424380Y-95956476D02*
X157424380Y-96527904D01*
X157424380Y-96242190D02*
X156424380Y-96242190D01*
X156567238Y-96337428D01*
X156662476Y-96432666D01*
X156710095Y-96527904D01*
X156424380Y-95623142D02*
X156424380Y-94956476D01*
X157424380Y-95385047D01*
G04 #@! TO.C,D2*
X248181904Y-100909380D02*
X248181904Y-99909380D01*
X248420000Y-99909380D01*
X248562857Y-99957000D01*
X248658095Y-100052238D01*
X248705714Y-100147476D01*
X248753333Y-100337952D01*
X248753333Y-100480809D01*
X248705714Y-100671285D01*
X248658095Y-100766523D01*
X248562857Y-100861761D01*
X248420000Y-100909380D01*
X248181904Y-100909380D01*
X249134285Y-100004619D02*
X249181904Y-99957000D01*
X249277142Y-99909380D01*
X249515238Y-99909380D01*
X249610476Y-99957000D01*
X249658095Y-100004619D01*
X249705714Y-100099857D01*
X249705714Y-100195095D01*
X249658095Y-100337952D01*
X249086666Y-100909380D01*
X249705714Y-100909380D01*
G04 #@! TO.C,L3*
X205176380Y-99099666D02*
X205176380Y-99575857D01*
X204176380Y-99575857D01*
X204176380Y-98861571D02*
X204176380Y-98242523D01*
X204557333Y-98575857D01*
X204557333Y-98433000D01*
X204604952Y-98337761D01*
X204652571Y-98290142D01*
X204747809Y-98242523D01*
X204985904Y-98242523D01*
X205081142Y-98290142D01*
X205128761Y-98337761D01*
X205176380Y-98433000D01*
X205176380Y-98718714D01*
X205128761Y-98813952D01*
X205081142Y-98861571D01*
G04 #@! TO.C,R13*
X127706380Y-82795857D02*
X127230190Y-83129190D01*
X127706380Y-83367285D02*
X126706380Y-83367285D01*
X126706380Y-82986333D01*
X126754000Y-82891095D01*
X126801619Y-82843476D01*
X126896857Y-82795857D01*
X127039714Y-82795857D01*
X127134952Y-82843476D01*
X127182571Y-82891095D01*
X127230190Y-82986333D01*
X127230190Y-83367285D01*
X127706380Y-81843476D02*
X127706380Y-82414904D01*
X127706380Y-82129190D02*
X126706380Y-82129190D01*
X126849238Y-82224428D01*
X126944476Y-82319666D01*
X126992095Y-82414904D01*
X126706380Y-81510142D02*
X126706380Y-80891095D01*
X127087333Y-81224428D01*
X127087333Y-81081571D01*
X127134952Y-80986333D01*
X127182571Y-80938714D01*
X127277809Y-80891095D01*
X127515904Y-80891095D01*
X127611142Y-80938714D01*
X127658761Y-80986333D01*
X127706380Y-81081571D01*
X127706380Y-81367285D01*
X127658761Y-81462523D01*
X127611142Y-81510142D01*
G04 #@! TO.C,C4*
X170029142Y-95035666D02*
X170076761Y-95083285D01*
X170124380Y-95226142D01*
X170124380Y-95321380D01*
X170076761Y-95464238D01*
X169981523Y-95559476D01*
X169886285Y-95607095D01*
X169695809Y-95654714D01*
X169552952Y-95654714D01*
X169362476Y-95607095D01*
X169267238Y-95559476D01*
X169172000Y-95464238D01*
X169124380Y-95321380D01*
X169124380Y-95226142D01*
X169172000Y-95083285D01*
X169219619Y-95035666D01*
X169457714Y-94178523D02*
X170124380Y-94178523D01*
X169076761Y-94416619D02*
X169791047Y-94654714D01*
X169791047Y-94035666D01*
G04 #@! TO.C,R10*
X146169142Y-92273380D02*
X145835809Y-91797190D01*
X145597714Y-92273380D02*
X145597714Y-91273380D01*
X145978666Y-91273380D01*
X146073904Y-91321000D01*
X146121523Y-91368619D01*
X146169142Y-91463857D01*
X146169142Y-91606714D01*
X146121523Y-91701952D01*
X146073904Y-91749571D01*
X145978666Y-91797190D01*
X145597714Y-91797190D01*
X147121523Y-92273380D02*
X146550095Y-92273380D01*
X146835809Y-92273380D02*
X146835809Y-91273380D01*
X146740571Y-91416238D01*
X146645333Y-91511476D01*
X146550095Y-91559095D01*
X147740571Y-91273380D02*
X147835809Y-91273380D01*
X147931047Y-91321000D01*
X147978666Y-91368619D01*
X148026285Y-91463857D01*
X148073904Y-91654333D01*
X148073904Y-91892428D01*
X148026285Y-92082904D01*
X147978666Y-92178142D01*
X147931047Y-92225761D01*
X147835809Y-92273380D01*
X147740571Y-92273380D01*
X147645333Y-92225761D01*
X147597714Y-92178142D01*
X147550095Y-92082904D01*
X147502476Y-91892428D01*
X147502476Y-91654333D01*
X147550095Y-91463857D01*
X147597714Y-91368619D01*
X147645333Y-91321000D01*
X147740571Y-91273380D01*
D13*
G04 #@! TO.C,IC8*
X236032523Y-102204761D02*
X234762523Y-102204761D01*
X235911571Y-100874285D02*
X235972047Y-100934761D01*
X236032523Y-101116190D01*
X236032523Y-101237142D01*
X235972047Y-101418571D01*
X235851095Y-101539523D01*
X235730142Y-101600000D01*
X235488238Y-101660476D01*
X235306809Y-101660476D01*
X235064904Y-101600000D01*
X234943952Y-101539523D01*
X234823000Y-101418571D01*
X234762523Y-101237142D01*
X234762523Y-101116190D01*
X234823000Y-100934761D01*
X234883476Y-100874285D01*
X235306809Y-100148571D02*
X235246333Y-100269523D01*
X235185857Y-100330000D01*
X235064904Y-100390476D01*
X235004428Y-100390476D01*
X234883476Y-100330000D01*
X234823000Y-100269523D01*
X234762523Y-100148571D01*
X234762523Y-99906666D01*
X234823000Y-99785714D01*
X234883476Y-99725238D01*
X235004428Y-99664761D01*
X235064904Y-99664761D01*
X235185857Y-99725238D01*
X235246333Y-99785714D01*
X235306809Y-99906666D01*
X235306809Y-100148571D01*
X235367285Y-100269523D01*
X235427761Y-100330000D01*
X235548714Y-100390476D01*
X235790619Y-100390476D01*
X235911571Y-100330000D01*
X235972047Y-100269523D01*
X236032523Y-100148571D01*
X236032523Y-99906666D01*
X235972047Y-99785714D01*
X235911571Y-99725238D01*
X235790619Y-99664761D01*
X235548714Y-99664761D01*
X235427761Y-99725238D01*
X235367285Y-99785714D01*
X235306809Y-99906666D01*
D10*
G04 #@! TO.C,L2*
X198064380Y-99099666D02*
X198064380Y-99575857D01*
X197064380Y-99575857D01*
X197159619Y-98813952D02*
X197112000Y-98766333D01*
X197064380Y-98671095D01*
X197064380Y-98433000D01*
X197112000Y-98337761D01*
X197159619Y-98290142D01*
X197254857Y-98242523D01*
X197350095Y-98242523D01*
X197492952Y-98290142D01*
X198064380Y-98861571D01*
X198064380Y-98242523D01*
G04 #@! TO.C,TP3*
X182634095Y-108833380D02*
X183205523Y-108833380D01*
X182919809Y-109833380D02*
X182919809Y-108833380D01*
X183538857Y-109833380D02*
X183538857Y-108833380D01*
X183919809Y-108833380D01*
X184015047Y-108881000D01*
X184062666Y-108928619D01*
X184110285Y-109023857D01*
X184110285Y-109166714D01*
X184062666Y-109261952D01*
X184015047Y-109309571D01*
X183919809Y-109357190D01*
X183538857Y-109357190D01*
X184443619Y-108833380D02*
X185062666Y-108833380D01*
X184729333Y-109214333D01*
X184872190Y-109214333D01*
X184967428Y-109261952D01*
X185015047Y-109309571D01*
X185062666Y-109404809D01*
X185062666Y-109642904D01*
X185015047Y-109738142D01*
X184967428Y-109785761D01*
X184872190Y-109833380D01*
X184586476Y-109833380D01*
X184491238Y-109785761D01*
X184443619Y-109738142D01*
G04 #@! TO.C,R7*
X127087333Y-102433380D02*
X126754000Y-101957190D01*
X126515904Y-102433380D02*
X126515904Y-101433380D01*
X126896857Y-101433380D01*
X126992095Y-101481000D01*
X127039714Y-101528619D01*
X127087333Y-101623857D01*
X127087333Y-101766714D01*
X127039714Y-101861952D01*
X126992095Y-101909571D01*
X126896857Y-101957190D01*
X126515904Y-101957190D01*
X127420666Y-101433380D02*
X128087333Y-101433380D01*
X127658761Y-102433380D01*
G04 #@! TO.C,J5*
X113712666Y-120253380D02*
X113712666Y-120967666D01*
X113665047Y-121110523D01*
X113569809Y-121205761D01*
X113426952Y-121253380D01*
X113331714Y-121253380D01*
X114665047Y-120253380D02*
X114188857Y-120253380D01*
X114141238Y-120729571D01*
X114188857Y-120681952D01*
X114284095Y-120634333D01*
X114522190Y-120634333D01*
X114617428Y-120681952D01*
X114665047Y-120729571D01*
X114712666Y-120824809D01*
X114712666Y-121062904D01*
X114665047Y-121158142D01*
X114617428Y-121205761D01*
X114522190Y-121253380D01*
X114284095Y-121253380D01*
X114188857Y-121205761D01*
X114141238Y-121158142D01*
D13*
G04 #@! TO.C,IC1*
X160050238Y-97983523D02*
X160050238Y-96713523D01*
X161380714Y-97862571D02*
X161320238Y-97923047D01*
X161138809Y-97983523D01*
X161017857Y-97983523D01*
X160836428Y-97923047D01*
X160715476Y-97802095D01*
X160655000Y-97681142D01*
X160594523Y-97439238D01*
X160594523Y-97257809D01*
X160655000Y-97015904D01*
X160715476Y-96894952D01*
X160836428Y-96774000D01*
X161017857Y-96713523D01*
X161138809Y-96713523D01*
X161320238Y-96774000D01*
X161380714Y-96834476D01*
X162590238Y-97983523D02*
X161864523Y-97983523D01*
X162227380Y-97983523D02*
X162227380Y-96713523D01*
X162106428Y-96894952D01*
X161985476Y-97015904D01*
X161864523Y-97076380D01*
D10*
G04 #@! TO.C,L6*
X239720380Y-99099666D02*
X239720380Y-99575857D01*
X238720380Y-99575857D01*
X238720380Y-98337761D02*
X238720380Y-98528238D01*
X238768000Y-98623476D01*
X238815619Y-98671095D01*
X238958476Y-98766333D01*
X239148952Y-98813952D01*
X239529904Y-98813952D01*
X239625142Y-98766333D01*
X239672761Y-98718714D01*
X239720380Y-98623476D01*
X239720380Y-98433000D01*
X239672761Y-98337761D01*
X239625142Y-98290142D01*
X239529904Y-98242523D01*
X239291809Y-98242523D01*
X239196571Y-98290142D01*
X239148952Y-98337761D01*
X239101333Y-98433000D01*
X239101333Y-98623476D01*
X239148952Y-98718714D01*
X239196571Y-98766333D01*
X239291809Y-98813952D01*
D13*
G04 #@! TO.C,S1*
X124762380Y-119767047D02*
X124943809Y-119827523D01*
X125246190Y-119827523D01*
X125367142Y-119767047D01*
X125427619Y-119706571D01*
X125488095Y-119585619D01*
X125488095Y-119464666D01*
X125427619Y-119343714D01*
X125367142Y-119283238D01*
X125246190Y-119222761D01*
X125004285Y-119162285D01*
X124883333Y-119101809D01*
X124822857Y-119041333D01*
X124762380Y-118920380D01*
X124762380Y-118799428D01*
X124822857Y-118678476D01*
X124883333Y-118618000D01*
X125004285Y-118557523D01*
X125306666Y-118557523D01*
X125488095Y-118618000D01*
X126697619Y-119827523D02*
X125971904Y-119827523D01*
X126334761Y-119827523D02*
X126334761Y-118557523D01*
X126213809Y-118738952D01*
X126092857Y-118859904D01*
X125971904Y-118920380D01*
D10*
G04 #@! TO.C,U1*
X140018095Y-98865380D02*
X140018095Y-99674904D01*
X140065714Y-99770142D01*
X140113333Y-99817761D01*
X140208571Y-99865380D01*
X140399047Y-99865380D01*
X140494285Y-99817761D01*
X140541904Y-99770142D01*
X140589523Y-99674904D01*
X140589523Y-98865380D01*
X141589523Y-99865380D02*
X141018095Y-99865380D01*
X141303809Y-99865380D02*
X141303809Y-98865380D01*
X141208571Y-99008238D01*
X141113333Y-99103476D01*
X141018095Y-99151095D01*
D13*
G04 #@! TO.C,IC6*
X193868523Y-102279761D02*
X192598523Y-102279761D01*
X193747571Y-100949285D02*
X193808047Y-101009761D01*
X193868523Y-101191190D01*
X193868523Y-101312142D01*
X193808047Y-101493571D01*
X193687095Y-101614523D01*
X193566142Y-101675000D01*
X193324238Y-101735476D01*
X193142809Y-101735476D01*
X192900904Y-101675000D01*
X192779952Y-101614523D01*
X192659000Y-101493571D01*
X192598523Y-101312142D01*
X192598523Y-101191190D01*
X192659000Y-101009761D01*
X192719476Y-100949285D01*
X192598523Y-99860714D02*
X192598523Y-100102619D01*
X192659000Y-100223571D01*
X192719476Y-100284047D01*
X192900904Y-100405000D01*
X193142809Y-100465476D01*
X193626619Y-100465476D01*
X193747571Y-100405000D01*
X193808047Y-100344523D01*
X193868523Y-100223571D01*
X193868523Y-99981666D01*
X193808047Y-99860714D01*
X193747571Y-99800238D01*
X193626619Y-99739761D01*
X193324238Y-99739761D01*
X193203285Y-99800238D01*
X193142809Y-99860714D01*
X193082333Y-99981666D01*
X193082333Y-100223571D01*
X193142809Y-100344523D01*
X193203285Y-100405000D01*
X193324238Y-100465476D01*
D10*
G04 #@! TO.C,R11*
X126357142Y-92273380D02*
X126023809Y-91797190D01*
X125785714Y-92273380D02*
X125785714Y-91273380D01*
X126166666Y-91273380D01*
X126261904Y-91321000D01*
X126309523Y-91368619D01*
X126357142Y-91463857D01*
X126357142Y-91606714D01*
X126309523Y-91701952D01*
X126261904Y-91749571D01*
X126166666Y-91797190D01*
X125785714Y-91797190D01*
X127309523Y-92273380D02*
X126738095Y-92273380D01*
X127023809Y-92273380D02*
X127023809Y-91273380D01*
X126928571Y-91416238D01*
X126833333Y-91511476D01*
X126738095Y-91559095D01*
X128261904Y-92273380D02*
X127690476Y-92273380D01*
X127976190Y-92273380D02*
X127976190Y-91273380D01*
X127880952Y-91416238D01*
X127785714Y-91511476D01*
X127690476Y-91559095D01*
G04 #@! TO.C,TP1*
X143772095Y-78607380D02*
X144343523Y-78607380D01*
X144057809Y-79607380D02*
X144057809Y-78607380D01*
X144676857Y-79607380D02*
X144676857Y-78607380D01*
X145057809Y-78607380D01*
X145153047Y-78655000D01*
X145200666Y-78702619D01*
X145248285Y-78797857D01*
X145248285Y-78940714D01*
X145200666Y-79035952D01*
X145153047Y-79083571D01*
X145057809Y-79131190D01*
X144676857Y-79131190D01*
X146200666Y-79607380D02*
X145629238Y-79607380D01*
X145914952Y-79607380D02*
X145914952Y-78607380D01*
X145819714Y-78750238D01*
X145724476Y-78845476D01*
X145629238Y-78893095D01*
G04 #@! TO.C,J1*
X258492666Y-90162580D02*
X258492666Y-90876866D01*
X258445047Y-91019723D01*
X258349809Y-91114961D01*
X258206952Y-91162580D01*
X258111714Y-91162580D01*
X259492666Y-91162580D02*
X258921238Y-91162580D01*
X259206952Y-91162580D02*
X259206952Y-90162580D01*
X259111714Y-90305438D01*
X259016476Y-90400676D01*
X258921238Y-90448295D01*
G04 #@! TO.C,C3*
X167391142Y-110254166D02*
X167438761Y-110301785D01*
X167486380Y-110444642D01*
X167486380Y-110539880D01*
X167438761Y-110682738D01*
X167343523Y-110777976D01*
X167248285Y-110825595D01*
X167057809Y-110873214D01*
X166914952Y-110873214D01*
X166724476Y-110825595D01*
X166629238Y-110777976D01*
X166534000Y-110682738D01*
X166486380Y-110539880D01*
X166486380Y-110444642D01*
X166534000Y-110301785D01*
X166581619Y-110254166D01*
X166486380Y-109920833D02*
X166486380Y-109301785D01*
X166867333Y-109635119D01*
X166867333Y-109492261D01*
X166914952Y-109397023D01*
X166962571Y-109349404D01*
X167057809Y-109301785D01*
X167295904Y-109301785D01*
X167391142Y-109349404D01*
X167438761Y-109397023D01*
X167486380Y-109492261D01*
X167486380Y-109777976D01*
X167438761Y-109873214D01*
X167391142Y-109920833D01*
G04 #@! TO.C,R4*
X248737333Y-98369380D02*
X248404000Y-97893190D01*
X248165904Y-98369380D02*
X248165904Y-97369380D01*
X248546857Y-97369380D01*
X248642095Y-97417000D01*
X248689714Y-97464619D01*
X248737333Y-97559857D01*
X248737333Y-97702714D01*
X248689714Y-97797952D01*
X248642095Y-97845571D01*
X248546857Y-97893190D01*
X248165904Y-97893190D01*
X249594476Y-97702714D02*
X249594476Y-98369380D01*
X249356380Y-97321761D02*
X249118285Y-98036047D01*
X249737333Y-98036047D01*
G04 #@! TO.C,D1*
X248199904Y-95829380D02*
X248199904Y-94829380D01*
X248438000Y-94829380D01*
X248580857Y-94877000D01*
X248676095Y-94972238D01*
X248723714Y-95067476D01*
X248771333Y-95257952D01*
X248771333Y-95400809D01*
X248723714Y-95591285D01*
X248676095Y-95686523D01*
X248580857Y-95781761D01*
X248438000Y-95829380D01*
X248199904Y-95829380D01*
X249723714Y-95829380D02*
X249152285Y-95829380D01*
X249438000Y-95829380D02*
X249438000Y-94829380D01*
X249342761Y-94972238D01*
X249247523Y-95067476D01*
X249152285Y-95115095D01*
G04 #@! TO.C,R12*
X125928380Y-111767857D02*
X125452190Y-112101190D01*
X125928380Y-112339285D02*
X124928380Y-112339285D01*
X124928380Y-111958333D01*
X124976000Y-111863095D01*
X125023619Y-111815476D01*
X125118857Y-111767857D01*
X125261714Y-111767857D01*
X125356952Y-111815476D01*
X125404571Y-111863095D01*
X125452190Y-111958333D01*
X125452190Y-112339285D01*
X125928380Y-110815476D02*
X125928380Y-111386904D01*
X125928380Y-111101190D02*
X124928380Y-111101190D01*
X125071238Y-111196428D01*
X125166476Y-111291666D01*
X125214095Y-111386904D01*
X125023619Y-110434523D02*
X124976000Y-110386904D01*
X124928380Y-110291666D01*
X124928380Y-110053571D01*
X124976000Y-109958333D01*
X125023619Y-109910714D01*
X125118857Y-109863095D01*
X125214095Y-109863095D01*
X125356952Y-109910714D01*
X125928380Y-110482142D01*
X125928380Y-109863095D01*
G04 #@! TO.C,C8*
X187285333Y-98528142D02*
X187237714Y-98575761D01*
X187094857Y-98623380D01*
X186999619Y-98623380D01*
X186856761Y-98575761D01*
X186761523Y-98480523D01*
X186713904Y-98385285D01*
X186666285Y-98194809D01*
X186666285Y-98051952D01*
X186713904Y-97861476D01*
X186761523Y-97766238D01*
X186856761Y-97671000D01*
X186999619Y-97623380D01*
X187094857Y-97623380D01*
X187237714Y-97671000D01*
X187285333Y-97718619D01*
X187856761Y-98051952D02*
X187761523Y-98004333D01*
X187713904Y-97956714D01*
X187666285Y-97861476D01*
X187666285Y-97813857D01*
X187713904Y-97718619D01*
X187761523Y-97671000D01*
X187856761Y-97623380D01*
X188047238Y-97623380D01*
X188142476Y-97671000D01*
X188190095Y-97718619D01*
X188237714Y-97813857D01*
X188237714Y-97861476D01*
X188190095Y-97956714D01*
X188142476Y-98004333D01*
X188047238Y-98051952D01*
X187856761Y-98051952D01*
X187761523Y-98099571D01*
X187713904Y-98147190D01*
X187666285Y-98242428D01*
X187666285Y-98432904D01*
X187713904Y-98528142D01*
X187761523Y-98575761D01*
X187856761Y-98623380D01*
X188047238Y-98623380D01*
X188142476Y-98575761D01*
X188190095Y-98528142D01*
X188237714Y-98432904D01*
X188237714Y-98242428D01*
X188190095Y-98147190D01*
X188142476Y-98099571D01*
X188047238Y-98051952D01*
G04 #@! TO.C,C7*
X227141833Y-103862142D02*
X227094214Y-103909761D01*
X226951357Y-103957380D01*
X226856119Y-103957380D01*
X226713261Y-103909761D01*
X226618023Y-103814523D01*
X226570404Y-103719285D01*
X226522785Y-103528809D01*
X226522785Y-103385952D01*
X226570404Y-103195476D01*
X226618023Y-103100238D01*
X226713261Y-103005000D01*
X226856119Y-102957380D01*
X226951357Y-102957380D01*
X227094214Y-103005000D01*
X227141833Y-103052619D01*
X227475166Y-102957380D02*
X228141833Y-102957380D01*
X227713261Y-103957380D01*
G04 #@! TO.C,R8*
X146121333Y-94813380D02*
X145788000Y-94337190D01*
X145549904Y-94813380D02*
X145549904Y-93813380D01*
X145930857Y-93813380D01*
X146026095Y-93861000D01*
X146073714Y-93908619D01*
X146121333Y-94003857D01*
X146121333Y-94146714D01*
X146073714Y-94241952D01*
X146026095Y-94289571D01*
X145930857Y-94337190D01*
X145549904Y-94337190D01*
X146692761Y-94241952D02*
X146597523Y-94194333D01*
X146549904Y-94146714D01*
X146502285Y-94051476D01*
X146502285Y-94003857D01*
X146549904Y-93908619D01*
X146597523Y-93861000D01*
X146692761Y-93813380D01*
X146883238Y-93813380D01*
X146978476Y-93861000D01*
X147026095Y-93908619D01*
X147073714Y-94003857D01*
X147073714Y-94051476D01*
X147026095Y-94146714D01*
X146978476Y-94194333D01*
X146883238Y-94241952D01*
X146692761Y-94241952D01*
X146597523Y-94289571D01*
X146549904Y-94337190D01*
X146502285Y-94432428D01*
X146502285Y-94622904D01*
X146549904Y-94718142D01*
X146597523Y-94765761D01*
X146692761Y-94813380D01*
X146883238Y-94813380D01*
X146978476Y-94765761D01*
X147026095Y-94718142D01*
X147073714Y-94622904D01*
X147073714Y-94432428D01*
X147026095Y-94337190D01*
X146978476Y-94289571D01*
X146883238Y-94241952D01*
D13*
G04 #@! TO.C,IC7*
X215458523Y-102279761D02*
X214188523Y-102279761D01*
X215337571Y-100949285D02*
X215398047Y-101009761D01*
X215458523Y-101191190D01*
X215458523Y-101312142D01*
X215398047Y-101493571D01*
X215277095Y-101614523D01*
X215156142Y-101675000D01*
X214914238Y-101735476D01*
X214732809Y-101735476D01*
X214490904Y-101675000D01*
X214369952Y-101614523D01*
X214249000Y-101493571D01*
X214188523Y-101312142D01*
X214188523Y-101191190D01*
X214249000Y-101009761D01*
X214309476Y-100949285D01*
X214188523Y-100525952D02*
X214188523Y-99679285D01*
X215458523Y-100223571D01*
D10*
G04 #@! TO.C,J7*
X255952666Y-112379380D02*
X255952666Y-113093666D01*
X255905047Y-113236523D01*
X255809809Y-113331761D01*
X255666952Y-113379380D01*
X255571714Y-113379380D01*
X256333619Y-112379380D02*
X257000285Y-112379380D01*
X256571714Y-113379380D01*
G04 #@! TO.C,L4*
X218892380Y-99099666D02*
X218892380Y-99575857D01*
X217892380Y-99575857D01*
X218225714Y-98337761D02*
X218892380Y-98337761D01*
X217844761Y-98575857D02*
X218559047Y-98813952D01*
X218559047Y-98194904D01*
G04 #@! TO.C,J3*
X202398380Y-81359333D02*
X203112666Y-81359333D01*
X203255523Y-81406952D01*
X203350761Y-81502190D01*
X203398380Y-81645047D01*
X203398380Y-81740285D01*
X202398380Y-80978380D02*
X202398380Y-80359333D01*
X202779333Y-80692666D01*
X202779333Y-80549809D01*
X202826952Y-80454571D01*
X202874571Y-80406952D01*
X202969809Y-80359333D01*
X203207904Y-80359333D01*
X203303142Y-80406952D01*
X203350761Y-80454571D01*
X203398380Y-80549809D01*
X203398380Y-80835523D01*
X203350761Y-80930761D01*
X203303142Y-80978380D01*
X220853047Y-91619228D02*
X221614952Y-91619228D01*
X201803047Y-91619228D02*
X202564952Y-91619228D01*
X202184000Y-92000180D02*
X202184000Y-91238276D01*
D13*
G04 #@! TO.C,R3*
X122470333Y-100015523D02*
X122047000Y-99410761D01*
X121744619Y-100015523D02*
X121744619Y-98745523D01*
X122228428Y-98745523D01*
X122349380Y-98806000D01*
X122409857Y-98866476D01*
X122470333Y-98987428D01*
X122470333Y-99168857D01*
X122409857Y-99289809D01*
X122349380Y-99350285D01*
X122228428Y-99410761D01*
X121744619Y-99410761D01*
X122893666Y-98745523D02*
X123679857Y-98745523D01*
X123256523Y-99229333D01*
X123437952Y-99229333D01*
X123558904Y-99289809D01*
X123619380Y-99350285D01*
X123679857Y-99471238D01*
X123679857Y-99773619D01*
X123619380Y-99894571D01*
X123558904Y-99955047D01*
X123437952Y-100015523D01*
X123075095Y-100015523D01*
X122954142Y-99955047D01*
X122893666Y-99894571D01*
D10*
G04 #@! TO.C,C10*
X228465142Y-98528142D02*
X228417523Y-98575761D01*
X228274666Y-98623380D01*
X228179428Y-98623380D01*
X228036571Y-98575761D01*
X227941333Y-98480523D01*
X227893714Y-98385285D01*
X227846095Y-98194809D01*
X227846095Y-98051952D01*
X227893714Y-97861476D01*
X227941333Y-97766238D01*
X228036571Y-97671000D01*
X228179428Y-97623380D01*
X228274666Y-97623380D01*
X228417523Y-97671000D01*
X228465142Y-97718619D01*
X229417523Y-98623380D02*
X228846095Y-98623380D01*
X229131809Y-98623380D02*
X229131809Y-97623380D01*
X229036571Y-97766238D01*
X228941333Y-97861476D01*
X228846095Y-97909095D01*
X230036571Y-97623380D02*
X230131809Y-97623380D01*
X230227047Y-97671000D01*
X230274666Y-97718619D01*
X230322285Y-97813857D01*
X230369904Y-98004333D01*
X230369904Y-98242428D01*
X230322285Y-98432904D01*
X230274666Y-98528142D01*
X230227047Y-98575761D01*
X230131809Y-98623380D01*
X230036571Y-98623380D01*
X229941333Y-98575761D01*
X229893714Y-98528142D01*
X229846095Y-98432904D01*
X229798476Y-98242428D01*
X229798476Y-98004333D01*
X229846095Y-97813857D01*
X229893714Y-97718619D01*
X229941333Y-97671000D01*
X230036571Y-97623380D01*
G04 #@! TO.C,C1*
X158345142Y-110318666D02*
X158392761Y-110366285D01*
X158440380Y-110509142D01*
X158440380Y-110604380D01*
X158392761Y-110747238D01*
X158297523Y-110842476D01*
X158202285Y-110890095D01*
X158011809Y-110937714D01*
X157868952Y-110937714D01*
X157678476Y-110890095D01*
X157583238Y-110842476D01*
X157488000Y-110747238D01*
X157440380Y-110604380D01*
X157440380Y-110509142D01*
X157488000Y-110366285D01*
X157535619Y-110318666D01*
X158440380Y-109366285D02*
X158440380Y-109937714D01*
X158440380Y-109652000D02*
X157440380Y-109652000D01*
X157583238Y-109747238D01*
X157678476Y-109842476D01*
X157726095Y-109937714D01*
G04 #@! TO.C,C9*
X208621333Y-98528142D02*
X208573714Y-98575761D01*
X208430857Y-98623380D01*
X208335619Y-98623380D01*
X208192761Y-98575761D01*
X208097523Y-98480523D01*
X208049904Y-98385285D01*
X208002285Y-98194809D01*
X208002285Y-98051952D01*
X208049904Y-97861476D01*
X208097523Y-97766238D01*
X208192761Y-97671000D01*
X208335619Y-97623380D01*
X208430857Y-97623380D01*
X208573714Y-97671000D01*
X208621333Y-97718619D01*
X209097523Y-98623380D02*
X209288000Y-98623380D01*
X209383238Y-98575761D01*
X209430857Y-98528142D01*
X209526095Y-98385285D01*
X209573714Y-98194809D01*
X209573714Y-97813857D01*
X209526095Y-97718619D01*
X209478476Y-97671000D01*
X209383238Y-97623380D01*
X209192761Y-97623380D01*
X209097523Y-97671000D01*
X209049904Y-97718619D01*
X209002285Y-97813857D01*
X209002285Y-98051952D01*
X209049904Y-98147190D01*
X209097523Y-98194809D01*
X209192761Y-98242428D01*
X209383238Y-98242428D01*
X209478476Y-98194809D01*
X209526095Y-98147190D01*
X209573714Y-98051952D01*
G04 #@! TO.C,C2*
X163679142Y-94781666D02*
X163726761Y-94829285D01*
X163774380Y-94972142D01*
X163774380Y-95067380D01*
X163726761Y-95210238D01*
X163631523Y-95305476D01*
X163536285Y-95353095D01*
X163345809Y-95400714D01*
X163202952Y-95400714D01*
X163012476Y-95353095D01*
X162917238Y-95305476D01*
X162822000Y-95210238D01*
X162774380Y-95067380D01*
X162774380Y-94972142D01*
X162822000Y-94829285D01*
X162869619Y-94781666D01*
X162869619Y-94400714D02*
X162822000Y-94353095D01*
X162774380Y-94257857D01*
X162774380Y-94019761D01*
X162822000Y-93924523D01*
X162869619Y-93876904D01*
X162964857Y-93829285D01*
X163060095Y-93829285D01*
X163202952Y-93876904D01*
X163774380Y-94448333D01*
X163774380Y-93829285D01*
G04 #@! TO.C,C5*
X184999333Y-103862142D02*
X184951714Y-103909761D01*
X184808857Y-103957380D01*
X184713619Y-103957380D01*
X184570761Y-103909761D01*
X184475523Y-103814523D01*
X184427904Y-103719285D01*
X184380285Y-103528809D01*
X184380285Y-103385952D01*
X184427904Y-103195476D01*
X184475523Y-103100238D01*
X184570761Y-103005000D01*
X184713619Y-102957380D01*
X184808857Y-102957380D01*
X184951714Y-103005000D01*
X184999333Y-103052619D01*
X185904095Y-102957380D02*
X185427904Y-102957380D01*
X185380285Y-103433571D01*
X185427904Y-103385952D01*
X185523142Y-103338333D01*
X185761238Y-103338333D01*
X185856476Y-103385952D01*
X185904095Y-103433571D01*
X185951714Y-103528809D01*
X185951714Y-103766904D01*
X185904095Y-103862142D01*
X185856476Y-103909761D01*
X185761238Y-103957380D01*
X185523142Y-103957380D01*
X185427904Y-103909761D01*
X185380285Y-103862142D01*
G04 #@! TO.C,L5*
X226004380Y-99099666D02*
X226004380Y-99575857D01*
X225004380Y-99575857D01*
X225004380Y-98290142D02*
X225004380Y-98766333D01*
X225480571Y-98813952D01*
X225432952Y-98766333D01*
X225385333Y-98671095D01*
X225385333Y-98433000D01*
X225432952Y-98337761D01*
X225480571Y-98290142D01*
X225575809Y-98242523D01*
X225813904Y-98242523D01*
X225909142Y-98290142D01*
X225956761Y-98337761D01*
X226004380Y-98433000D01*
X226004380Y-98671095D01*
X225956761Y-98766333D01*
X225909142Y-98813952D01*
G04 #@! TO.C,R1*
X121482380Y-92495666D02*
X121006190Y-92829000D01*
X121482380Y-93067095D02*
X120482380Y-93067095D01*
X120482380Y-92686142D01*
X120530000Y-92590904D01*
X120577619Y-92543285D01*
X120672857Y-92495666D01*
X120815714Y-92495666D01*
X120910952Y-92543285D01*
X120958571Y-92590904D01*
X121006190Y-92686142D01*
X121006190Y-93067095D01*
X121482380Y-91543285D02*
X121482380Y-92114714D01*
X121482380Y-91829000D02*
X120482380Y-91829000D01*
X120625238Y-91924238D01*
X120720476Y-92019476D01*
X120768095Y-92114714D01*
G04 #@! TO.C,L1*
X184348380Y-99099666D02*
X184348380Y-99575857D01*
X183348380Y-99575857D01*
X184348380Y-98242523D02*
X184348380Y-98813952D01*
X184348380Y-98528238D02*
X183348380Y-98528238D01*
X183491238Y-98623476D01*
X183586476Y-98718714D01*
X183634095Y-98813952D01*
D13*
G04 #@! TO.C,IC3*
X193451238Y-110556523D02*
X193451238Y-109286523D01*
X194781714Y-110435571D02*
X194721238Y-110496047D01*
X194539809Y-110556523D01*
X194418857Y-110556523D01*
X194237428Y-110496047D01*
X194116476Y-110375095D01*
X194056000Y-110254142D01*
X193995523Y-110012238D01*
X193995523Y-109830809D01*
X194056000Y-109588904D01*
X194116476Y-109467952D01*
X194237428Y-109347000D01*
X194418857Y-109286523D01*
X194539809Y-109286523D01*
X194721238Y-109347000D01*
X194781714Y-109407476D01*
X195205047Y-109286523D02*
X195991238Y-109286523D01*
X195567904Y-109770333D01*
X195749333Y-109770333D01*
X195870285Y-109830809D01*
X195930761Y-109891285D01*
X195991238Y-110012238D01*
X195991238Y-110314619D01*
X195930761Y-110435571D01*
X195870285Y-110496047D01*
X195749333Y-110556523D01*
X195386476Y-110556523D01*
X195265523Y-110496047D01*
X195205047Y-110435571D01*
D10*
G04 #@! TO.C,P1*
X157988000Y-125095000D02*
X157988000Y-122555000D01*
X140208000Y-125095000D02*
X157988000Y-125095000D01*
X157988000Y-122555000D02*
X140208000Y-122555000D01*
X138938000Y-122275000D02*
X137388000Y-122275000D01*
X137388000Y-122275000D02*
X137388000Y-125375000D01*
X137388000Y-125375000D02*
X138938000Y-125375000D01*
X140208000Y-125095000D02*
X140208000Y-122555000D01*
G04 #@! TO.C,P2*
X163068000Y-125095000D02*
X163068000Y-122555000D01*
X161798000Y-122275000D02*
X160248000Y-122275000D01*
X175768000Y-122555000D02*
X163068000Y-122555000D01*
X163068000Y-125095000D02*
X175768000Y-125095000D01*
X175768000Y-125095000D02*
X175768000Y-122555000D01*
X160248000Y-122275000D02*
X160248000Y-125375000D01*
X160248000Y-125375000D02*
X161798000Y-125375000D01*
G04 #@! TO.C,P3*
X128244000Y-74015000D02*
X128244000Y-77115000D01*
X131064000Y-76835000D02*
X153924000Y-76835000D01*
X153924000Y-76835000D02*
X153924000Y-74295000D01*
X153924000Y-74295000D02*
X131064000Y-74295000D01*
X129794000Y-74015000D02*
X128244000Y-74015000D01*
X128244000Y-77115000D02*
X129794000Y-77115000D01*
X131064000Y-76835000D02*
X131064000Y-74295000D01*
G04 #@! TO.C,P4*
X175768000Y-74295000D02*
X157988000Y-74295000D01*
X155168000Y-77115000D02*
X156718000Y-77115000D01*
X157988000Y-76835000D02*
X175768000Y-76835000D01*
X157988000Y-76835000D02*
X157988000Y-74295000D01*
X156718000Y-74015000D02*
X155168000Y-74015000D01*
X175768000Y-76835000D02*
X175768000Y-74295000D01*
X155168000Y-74015000D02*
X155168000Y-77115000D01*
G04 #@! TO.C,P5*
X127254000Y-123825000D02*
G75*
G03*
X127254000Y-123825000I-2286000J0D01*
G01*
G04 #@! TO.C,P6*
X179324000Y-118745000D02*
G75*
G03*
X179324000Y-118745000I-2286000J0D01*
G01*
G04 #@! TO.C,P7*
X128524000Y-75565000D02*
G75*
G03*
X128524000Y-75565000I-2286000J0D01*
G01*
G04 #@! TO.C,P8*
X179324000Y-90805000D02*
G75*
G03*
X179324000Y-90805000I-2286000J0D01*
G01*
D11*
G04 #@! TO.C,S2*
X113211600Y-80983400D02*
X113211600Y-81183400D01*
X113211600Y-81183400D02*
X113211600Y-80983400D01*
D14*
X115111600Y-79983400D02*
X121311600Y-79983400D01*
X121311600Y-82083400D02*
X121311600Y-84083400D01*
X115111600Y-86183400D02*
X121311600Y-86183400D01*
X115111600Y-82083400D02*
X115111600Y-84083400D01*
D11*
G04 #@! TO.C,IC2*
X166324000Y-89609000D02*
X166924000Y-89609000D01*
X168474000Y-92659000D02*
X167274000Y-92659000D01*
X166924000Y-89609000D02*
X166924000Y-92509000D01*
X166324000Y-92509000D02*
X166324000Y-89609000D01*
X166924000Y-92509000D02*
X166324000Y-92509000D01*
G04 #@! TO.C,IC5*
X234860000Y-106477000D02*
X234860000Y-109677000D01*
X229960000Y-109677000D02*
X229960000Y-106477000D01*
X234990000Y-104602000D02*
X234990000Y-106127000D01*
X234860000Y-109677000D02*
X229960000Y-109677000D01*
X229960000Y-106477000D02*
X234860000Y-106477000D01*
D15*
G04 #@! TO.C,R16*
X155294000Y-101007936D02*
X155294000Y-101462064D01*
X153824000Y-101007936D02*
X153824000Y-101462064D01*
G04 #@! TO.C,R14*
X150341000Y-104293936D02*
X150341000Y-104748064D01*
X148871000Y-104293936D02*
X148871000Y-104748064D01*
G04 #@! TO.C,D3*
X255869000Y-106624000D02*
X255869000Y-104704000D01*
X253009000Y-106624000D02*
X255869000Y-106624000D01*
X255869000Y-104704000D02*
X253009000Y-104704000D01*
D11*
G04 #@! TO.C,IC4*
X209386000Y-106477000D02*
X214286000Y-106477000D01*
X209386000Y-109677000D02*
X209386000Y-106477000D01*
X214286000Y-106477000D02*
X214286000Y-109677000D01*
X214286000Y-109677000D02*
X209386000Y-109677000D01*
X214416000Y-104602000D02*
X214416000Y-106127000D01*
D15*
G04 #@! TO.C,J4*
X240261600Y-89139800D02*
X224761600Y-89139800D01*
X224761600Y-73139800D02*
X240261600Y-73139800D01*
X224761600Y-89139800D02*
X224761600Y-79839800D01*
X240261600Y-73139800D02*
X240261600Y-76139800D01*
X240261600Y-89139800D02*
X240261600Y-79739800D01*
X224761600Y-73139800D02*
X224761600Y-76139800D01*
G04 #@! TO.C,J6*
X115630000Y-77537000D02*
X115630000Y-77657000D01*
X114300000Y-74997000D02*
X115630000Y-74997000D01*
X112970000Y-77657000D02*
X115630000Y-77657000D01*
X112970000Y-77537000D02*
X112970000Y-77657000D01*
X115630000Y-74997000D02*
X115630000Y-76327000D01*
G04 #@! TO.C,J8*
X253178000Y-86427000D02*
X253178000Y-86547000D01*
X254508000Y-83887000D02*
X255838000Y-83887000D01*
X253178000Y-86547000D02*
X255838000Y-86547000D01*
X255838000Y-86427000D02*
X255838000Y-86547000D01*
X255838000Y-83887000D02*
X255838000Y-85217000D01*
G04 #@! TO.C,C6*
X207017252Y-106018000D02*
X206494748Y-106018000D01*
X207017252Y-104548000D02*
X206494748Y-104548000D01*
G04 #@! TO.C,TP2*
X200844000Y-111633000D02*
G75*
G03*
X200844000Y-111633000I-1200000J0D01*
G01*
G04 #@! TO.C,R18*
X172693064Y-94080000D02*
X172238936Y-94080000D01*
X172693064Y-92610000D02*
X172238936Y-92610000D01*
G04 #@! TO.C,J2*
X183004000Y-73159000D02*
X183004000Y-76159000D01*
X198504000Y-73159000D02*
X198504000Y-76159000D01*
X183004000Y-73159000D02*
X198504000Y-73159000D01*
X198504000Y-89159000D02*
X198504000Y-79759000D01*
X198504000Y-89159000D02*
X183004000Y-89159000D01*
X183004000Y-89159000D02*
X183004000Y-79859000D01*
G04 #@! TO.C,R5*
X254211064Y-103859000D02*
X253756936Y-103859000D01*
X254211064Y-102389000D02*
X253756936Y-102389000D01*
G04 #@! TO.C,R9*
X130783064Y-93626000D02*
X130328936Y-93626000D01*
X130783064Y-95096000D02*
X130328936Y-95096000D01*
G04 #@! TO.C,R2*
X254211064Y-93699000D02*
X253756936Y-93699000D01*
X254211064Y-92229000D02*
X253756936Y-92229000D01*
G04 #@! TO.C,R15*
X152881000Y-103039936D02*
X152881000Y-103494064D01*
X151411000Y-103039936D02*
X151411000Y-103494064D01*
G04 #@! TO.C,R6*
X130799064Y-103786000D02*
X130344936Y-103786000D01*
X130799064Y-105256000D02*
X130344936Y-105256000D01*
G04 #@! TO.C,R17*
X156237000Y-99483936D02*
X156237000Y-99938064D01*
X157707000Y-99483936D02*
X157707000Y-99938064D01*
G04 #@! TO.C,D2*
X255869000Y-99624000D02*
X253009000Y-99624000D01*
X253009000Y-101544000D02*
X255869000Y-101544000D01*
X255869000Y-101544000D02*
X255869000Y-99624000D01*
G04 #@! TO.C,L3*
X205234000Y-96451267D02*
X205234000Y-96108733D01*
X204214000Y-96451267D02*
X204214000Y-96108733D01*
G04 #@! TO.C,R13*
X124487000Y-82380064D02*
X124487000Y-81925936D01*
X125957000Y-82380064D02*
X125957000Y-81925936D01*
G04 #@! TO.C,C4*
X167159000Y-95137248D02*
X167159000Y-95659752D01*
X168629000Y-95137248D02*
X168629000Y-95659752D01*
G04 #@! TO.C,R10*
X143028936Y-91086000D02*
X143483064Y-91086000D01*
X143028936Y-92556000D02*
X143483064Y-92556000D01*
D11*
G04 #@! TO.C,IC8*
X231077000Y-100890000D02*
X233997000Y-100890000D01*
X233997000Y-101040000D02*
X231077000Y-101040000D01*
X233997000Y-100890000D02*
X233997000Y-101040000D01*
X234042000Y-99290000D02*
X234042000Y-100540000D01*
X231077000Y-101040000D02*
X231077000Y-100890000D01*
D15*
G04 #@! TO.C,L2*
X198122000Y-96451267D02*
X198122000Y-96108733D01*
X197102000Y-96451267D02*
X197102000Y-96108733D01*
G04 #@! TO.C,TP3*
X185096000Y-111379000D02*
G75*
G03*
X185096000Y-111379000I-1200000J0D01*
G01*
G04 #@! TO.C,R7*
X130783064Y-101246000D02*
X130328936Y-101246000D01*
X130783064Y-102716000D02*
X130328936Y-102716000D01*
G04 #@! TO.C,J5*
X115376000Y-124781000D02*
X115376000Y-124901000D01*
X114046000Y-122241000D02*
X115376000Y-122241000D01*
X112716000Y-124901000D02*
X115376000Y-124901000D01*
X115376000Y-122241000D02*
X115376000Y-123571000D01*
X112716000Y-124781000D02*
X112716000Y-124901000D01*
D11*
G04 #@! TO.C,IC1*
X164160000Y-107322000D02*
X160960000Y-107322000D01*
X160960000Y-98672000D02*
X164160000Y-98672000D01*
X160960000Y-107322000D02*
X160960000Y-98672000D01*
X166035000Y-107482000D02*
X164510000Y-107482000D01*
X164160000Y-98672000D02*
X164160000Y-107322000D01*
D15*
G04 #@! TO.C,L6*
X238885000Y-96437267D02*
X238885000Y-96094733D01*
X239905000Y-96437267D02*
X239905000Y-96094733D01*
D14*
G04 #@! TO.C,S1*
X115162400Y-114747800D02*
X115162400Y-116747800D01*
D11*
X113262400Y-113847800D02*
X113262400Y-113647800D01*
X113262400Y-113647800D02*
X113262400Y-113847800D01*
D14*
X115162400Y-118847800D02*
X121362400Y-118847800D01*
X115162400Y-112647800D02*
X121362400Y-112647800D01*
X121362400Y-114747800D02*
X121362400Y-116747800D01*
D15*
G04 #@! TO.C,U1*
X250770000Y-77941000D02*
X250770000Y-120941000D01*
X132770000Y-77941000D02*
X250770000Y-77941000D01*
X250770000Y-120941000D02*
X132770000Y-120941000D01*
X132770000Y-120941000D02*
X132770000Y-77941000D01*
D11*
G04 #@! TO.C,IC6*
X191960000Y-100890000D02*
X191960000Y-101040000D01*
X192005000Y-99290000D02*
X192005000Y-100540000D01*
X189040000Y-100890000D02*
X191960000Y-100890000D01*
X189040000Y-101040000D02*
X189040000Y-100890000D01*
X191960000Y-101040000D02*
X189040000Y-101040000D01*
D15*
G04 #@! TO.C,R11*
X130783064Y-92556000D02*
X130328936Y-92556000D01*
X130783064Y-91086000D02*
X130328936Y-91086000D01*
G04 #@! TO.C,TP1*
X146234000Y-81153000D02*
G75*
G03*
X146234000Y-81153000I-1200000J0D01*
G01*
G04 #@! TO.C,J1*
X257496000Y-94310200D02*
X257496000Y-107070200D01*
X260156000Y-94310200D02*
X260156000Y-107070200D01*
X257496000Y-91710200D02*
X258826000Y-91710200D01*
X257496000Y-93040200D02*
X257496000Y-91710200D01*
X257496000Y-94310200D02*
X260156000Y-94310200D01*
X257496000Y-107070200D02*
X260156000Y-107070200D01*
G04 #@! TO.C,C3*
X164619000Y-109826248D02*
X164619000Y-110348752D01*
X166089000Y-109826248D02*
X166089000Y-110348752D01*
G04 #@! TO.C,R4*
X254211064Y-98779000D02*
X253756936Y-98779000D01*
X254211064Y-97309000D02*
X253756936Y-97309000D01*
G04 #@! TO.C,D1*
X253009000Y-96464000D02*
X255869000Y-96464000D01*
X255869000Y-96464000D02*
X255869000Y-94544000D01*
X255869000Y-94544000D02*
X253009000Y-94544000D01*
G04 #@! TO.C,R12*
X126211000Y-114924064D02*
X126211000Y-114469936D01*
X124741000Y-114924064D02*
X124741000Y-114469936D01*
G04 #@! TO.C,C8*
X190739752Y-97890000D02*
X190217248Y-97890000D01*
X190739752Y-96420000D02*
X190217248Y-96420000D01*
G04 #@! TO.C,C7*
X227569752Y-104548000D02*
X227047248Y-104548000D01*
X227569752Y-106018000D02*
X227047248Y-106018000D01*
G04 #@! TO.C,R8*
X143012936Y-95096000D02*
X143467064Y-95096000D01*
X143012936Y-93626000D02*
X143467064Y-93626000D01*
D11*
G04 #@! TO.C,IC7*
X213296000Y-100890000D02*
X213296000Y-101040000D01*
X210376000Y-100890000D02*
X213296000Y-100890000D01*
X213341000Y-99290000D02*
X213341000Y-100540000D01*
X213296000Y-101040000D02*
X210376000Y-101040000D01*
X210376000Y-101040000D02*
X210376000Y-100890000D01*
D15*
G04 #@! TO.C,J7*
X254956000Y-117027000D02*
X257616000Y-117027000D01*
X254956000Y-116907000D02*
X254956000Y-117027000D01*
X256286000Y-114367000D02*
X257616000Y-114367000D01*
X257616000Y-116907000D02*
X257616000Y-117027000D01*
X257616000Y-114367000D02*
X257616000Y-115697000D01*
G04 #@! TO.C,L4*
X217930000Y-96451267D02*
X217930000Y-96108733D01*
X218950000Y-96451267D02*
X218950000Y-96108733D01*
G04 #@! TO.C,J3*
X219332000Y-73139800D02*
X219332000Y-76139800D01*
X203832000Y-73139800D02*
X219332000Y-73139800D01*
X203832000Y-89139800D02*
X203832000Y-79839800D01*
X219332000Y-89139800D02*
X219332000Y-79739800D01*
X203832000Y-73139800D02*
X203832000Y-76139800D01*
X219332000Y-89139800D02*
X203832000Y-89139800D01*
D14*
G04 #@! TO.C,R3*
X120040000Y-95751400D02*
X113640000Y-95751400D01*
X120040000Y-97951400D02*
X120040000Y-104451400D01*
X120040000Y-104451400D02*
X113640000Y-104451400D01*
X113640000Y-104451400D02*
X113640000Y-97951400D01*
D15*
G04 #@! TO.C,C10*
X232819752Y-97890000D02*
X232297248Y-97890000D01*
X232819752Y-96420000D02*
X232297248Y-96420000D01*
G04 #@! TO.C,C1*
X160501000Y-109869248D02*
X160501000Y-110391752D01*
X159031000Y-109869248D02*
X159031000Y-110391752D01*
G04 #@! TO.C,C9*
X212097252Y-97890000D02*
X211574748Y-97890000D01*
X212097252Y-96420000D02*
X211574748Y-96420000D01*
G04 #@! TO.C,C2*
X164619000Y-95115748D02*
X164619000Y-95638252D01*
X166089000Y-95115748D02*
X166089000Y-95638252D01*
G04 #@! TO.C,C5*
X185427252Y-104548000D02*
X184904748Y-104548000D01*
X185427252Y-106018000D02*
X184904748Y-106018000D01*
G04 #@! TO.C,L5*
X225169000Y-96451267D02*
X225169000Y-96108733D01*
X226189000Y-96451267D02*
X226189000Y-96108733D01*
G04 #@! TO.C,R1*
X118645000Y-92101936D02*
X118645000Y-92556064D01*
X120115000Y-92101936D02*
X120115000Y-92556064D01*
G04 #@! TO.C,L1*
X183386000Y-96451267D02*
X183386000Y-96108733D01*
X184406000Y-96451267D02*
X184406000Y-96108733D01*
D11*
G04 #@! TO.C,IC3*
X192826000Y-104602000D02*
X192826000Y-106127000D01*
X192696000Y-109677000D02*
X187796000Y-109677000D01*
X187796000Y-106477000D02*
X192696000Y-106477000D01*
X187796000Y-109677000D02*
X187796000Y-106477000D01*
X192696000Y-106477000D02*
X192696000Y-109677000D01*
G04 #@! TD*
D16*
G04 #@! TO.C,P1*
X138938000Y-123825000D03*
X141478000Y-123825000D03*
X144018000Y-123825000D03*
X146558000Y-123825000D03*
X149098000Y-123825000D03*
X151638000Y-123825000D03*
X154178000Y-123825000D03*
X156718000Y-123825000D03*
G04 #@! TD*
G04 #@! TO.C,P2*
X161798000Y-123825000D03*
X164338000Y-123825000D03*
X166878000Y-123825000D03*
X169418000Y-123825000D03*
X171958000Y-123825000D03*
X174498000Y-123825000D03*
G04 #@! TD*
G04 #@! TO.C,P3*
X129794000Y-75565000D03*
X132334000Y-75565000D03*
X134874000Y-75565000D03*
X137414000Y-75565000D03*
X139954000Y-75565000D03*
X142494000Y-75565000D03*
X145034000Y-75565000D03*
X147574000Y-75565000D03*
X150114000Y-75565000D03*
X152654000Y-75565000D03*
G04 #@! TD*
G04 #@! TO.C,P4*
X156718000Y-75565000D03*
X159258000Y-75565000D03*
X161798000Y-75565000D03*
X164338000Y-75565000D03*
X166878000Y-75565000D03*
X169418000Y-75565000D03*
X171958000Y-75565000D03*
X174498000Y-75565000D03*
G04 #@! TD*
D17*
G04 #@! TO.C,P5*
X124968000Y-123825000D03*
G04 #@! TD*
G04 #@! TO.C,P6*
X177038000Y-118745000D03*
G04 #@! TD*
G04 #@! TO.C,P7*
X126238000Y-75565000D03*
G04 #@! TD*
G04 #@! TO.C,P8*
X177038000Y-90805000D03*
G04 #@! TD*
M02*
