G04 #@! TF.GenerationSoftware,KiCad,Pcbnew,(6.0.6)*
G04 #@! TF.CreationDate,2023-01-03T01:07:17+09:00*
G04 #@! TF.ProjectId,mt_reflowcnt,6d745f72-6566-46c6-9f77-636e742e6b69,rev?*
G04 #@! TF.SameCoordinates,Original*
G04 #@! TF.FileFunction,Soldermask,Bot*
G04 #@! TF.FilePolarity,Negative*
%FSLAX46Y46*%
G04 Gerber Fmt 4.6, Leading zero omitted, Abs format (unit mm)*
G04 Created by KiCad (PCBNEW (6.0.6)) date 2023-01-03 01:07:17*
%MOMM*%
%LPD*%
G01*
G04 APERTURE LIST*
%ADD10O,1.727200X2.032000*%
%ADD11C,4.064000*%
%ADD12C,3.294000*%
%ADD13R,1.700000X1.700000*%
%ADD14C,3.200000*%
%ADD15C,3.500000*%
%ADD16C,1.524000*%
%ADD17O,1.700000X1.700000*%
%ADD18C,2.000000*%
%ADD19C,1.650000*%
%ADD20C,2.100000*%
G04 APERTURE END LIST*
D10*
G04 #@! TO.C,P1*
X138938000Y-123825000D03*
X141478000Y-123825000D03*
X144018000Y-123825000D03*
X146558000Y-123825000D03*
X149098000Y-123825000D03*
X151638000Y-123825000D03*
X154178000Y-123825000D03*
X156718000Y-123825000D03*
G04 #@! TD*
G04 #@! TO.C,P2*
X161798000Y-123825000D03*
X164338000Y-123825000D03*
X166878000Y-123825000D03*
X169418000Y-123825000D03*
X171958000Y-123825000D03*
X174498000Y-123825000D03*
G04 #@! TD*
G04 #@! TO.C,P3*
X129794000Y-75565000D03*
X132334000Y-75565000D03*
X134874000Y-75565000D03*
X137414000Y-75565000D03*
X139954000Y-75565000D03*
X142494000Y-75565000D03*
X145034000Y-75565000D03*
X147574000Y-75565000D03*
X150114000Y-75565000D03*
X152654000Y-75565000D03*
G04 #@! TD*
G04 #@! TO.C,P4*
X156718000Y-75565000D03*
X159258000Y-75565000D03*
X161798000Y-75565000D03*
X164338000Y-75565000D03*
X166878000Y-75565000D03*
X169418000Y-75565000D03*
X171958000Y-75565000D03*
X174498000Y-75565000D03*
G04 #@! TD*
D11*
G04 #@! TO.C,P5*
X124968000Y-123825000D03*
G04 #@! TD*
G04 #@! TO.C,P6*
X177038000Y-118745000D03*
G04 #@! TD*
G04 #@! TO.C,P7*
X126238000Y-75565000D03*
G04 #@! TD*
G04 #@! TO.C,P8*
X177038000Y-90805000D03*
G04 #@! TD*
D12*
G04 #@! TO.C,J4*
X225661600Y-91439800D03*
X239361600Y-91439800D03*
X224661600Y-77939800D03*
X240361600Y-77939800D03*
G04 #@! TD*
D13*
G04 #@! TO.C,J6*
X114300000Y-76327000D03*
G04 #@! TD*
G04 #@! TO.C,J8*
X254508000Y-85217000D03*
G04 #@! TD*
D14*
G04 #@! TO.C,H1*
X252603000Y-77978000D03*
G04 #@! TD*
D12*
G04 #@! TO.C,J2*
X183904000Y-91459000D03*
X197604000Y-91459000D03*
X182904000Y-77959000D03*
X198604000Y-77959000D03*
G04 #@! TD*
D13*
G04 #@! TO.C,J5*
X114046000Y-123571000D03*
G04 #@! TD*
D15*
G04 #@! TO.C,U1*
X136770000Y-84941000D03*
X244770000Y-84941000D03*
X244770000Y-113941000D03*
X136770000Y-113941000D03*
D16*
X138170000Y-107021000D03*
X135270000Y-107061000D03*
X138170000Y-104521000D03*
X135270000Y-104521000D03*
X138170000Y-101911000D03*
X135270000Y-101891000D03*
X138170000Y-99431000D03*
X135270000Y-99441000D03*
X138170000Y-96901000D03*
X135270000Y-96901000D03*
X138170000Y-94361000D03*
X135270000Y-94361000D03*
X138170000Y-91821000D03*
X135270000Y-91821000D03*
G04 #@! TD*
D14*
G04 #@! TO.C,H2*
X252603000Y-121031000D03*
G04 #@! TD*
D13*
G04 #@! TO.C,J1*
X258826000Y-93040200D03*
D17*
X258826000Y-95580200D03*
X258826000Y-98120200D03*
X258826000Y-100660200D03*
X258826000Y-103200200D03*
X258826000Y-105740200D03*
G04 #@! TD*
D13*
G04 #@! TO.C,J7*
X256286000Y-115697000D03*
G04 #@! TD*
D12*
G04 #@! TO.C,J3*
X204732000Y-91439800D03*
X218432000Y-91439800D03*
X203732000Y-77939800D03*
X219432000Y-77939800D03*
G04 #@! TD*
D18*
G04 #@! TO.C,R3*
X116840000Y-99451400D03*
D19*
X119340000Y-96951400D03*
X114340000Y-96951400D03*
D20*
X116840000Y-101951400D03*
G04 #@! TD*
M02*
