M48
; DRILL file {KiCad (6.0.6)} date Tue Jan  3 01:07:26 2023
; FORMAT={-:-/ absolute / metric / decimal}
; #@! TF.CreationDate,2023-01-03T01:07:26+09:00
; #@! TF.GenerationSoftware,Kicad,Pcbnew,(6.0.6)
; #@! TF.FileFunction,MixedPlating,1,2
FMAT,2
METRIC
; #@! TA.AperFunction,Plated,PTH,ViaDrill
T1C0.635
; #@! TA.AperFunction,Plated,PTH,ComponentDrill
T2C0.762
; #@! TA.AperFunction,Plated,PTH,ComponentDrill
T3C1.000
; #@! TA.AperFunction,Plated,PTH,ComponentDrill
T4C1.016
; #@! TA.AperFunction,Plated,PTH,ComponentDrill
T5C1.100
; #@! TA.AperFunction,Plated,PTH,ComponentDrill
T6C1.400
; #@! TA.AperFunction,Plated,PTH,ComponentDrill
T7C1.770
; #@! TA.AperFunction,Plated,PTH,ComponentDrill
T8C3.048
; #@! TA.AperFunction,NonPlated,NPTH,ComponentDrill
T9C2.000
; #@! TA.AperFunction,NonPlated,NPTH,ComponentDrill
T10C3.200
; #@! TA.AperFunction,NonPlated,NPTH,ComponentDrill
T11C3.500
%
G90
G05
T1
X113.538Y-115.951
X113.792Y-83.439
X146.304Y-86.233
X146.304Y-88.265
X147.574Y-88.265
X148.336Y-101.981
X150.114Y-87.249
X150.876Y-100.711
X151.638Y-116.967
X152.654Y-112.141
X154.178Y-116.967
X156.464Y-103.251
X156.972Y-119.507
X157.734Y-102.235
X159.766Y-112.649
X163.597Y-96.414
X163.642Y-90.109
X165.354Y-112.649
X167.64Y-99.187
X169.418Y-92.075
X169.418Y-96.647
X169.418Y-112.395
X169.672Y-90.551
X172.466Y-99.949
X172.974Y-91.567
X173.99Y-104.775
X178.435Y-112.395
X179.451Y-111.252
X180.721Y-110.109
X180.848Y-108.331
X182.372Y-115.824
X182.626Y-105.283
X186.055Y-119.38
X186.69Y-108.331
X189.611Y-112.395
X189.611Y-115.824
X190.5Y-103.505
X193.548Y-108.331
X193.802Y-105.283
X196.469Y-115.824
X202.311Y-115.824
X203.962Y-105.283
X208.28Y-115.824
X208.534Y-108.331
X211.201Y-112.395
X211.836Y-103.505
X213.614Y-115.824
X215.056Y-105.365
X215.138Y-108.331
X218.44Y-110.871
X218.821Y-115.824
X224.663Y-115.824
X224.79Y-105.283
X228.6Y-110.871
X228.854Y-108.331
X229.743Y-115.824
X231.775Y-112.395
X232.41Y-103.505
X234.823Y-115.824
X235.712Y-105.283
X235.966Y-108.331
X235.966Y-112.649
X239.014Y-112.649
X239.776Y-115.697
X242.57Y-119.38
X246.634Y-105.537
X250.698Y-110.363
T2
X135.27Y-91.821
X135.27Y-94.361
X135.27Y-96.901
X135.27Y-99.441
X135.27Y-101.891
X135.27Y-104.521
X135.27Y-107.061
X138.17Y-91.821
X138.17Y-94.361
X138.17Y-96.901
X138.17Y-99.431
X138.17Y-101.911
X138.17Y-104.521
X138.17Y-107.021
T3
X114.046Y-123.571
X114.3Y-76.327
X254.508Y-85.217
X256.286Y-115.697
X258.826Y-93.04
X258.826Y-95.58
X258.826Y-98.12
X258.826Y-100.66
X258.826Y-103.2
X258.826Y-105.74
T4
X129.794Y-75.565
X132.334Y-75.565
X134.874Y-75.565
X137.414Y-75.565
X138.938Y-123.825
X139.954Y-75.565
X141.478Y-123.825
X142.494Y-75.565
X144.018Y-123.825
X145.034Y-75.565
X146.558Y-123.825
X147.574Y-75.565
X149.098Y-123.825
X150.114Y-75.565
X151.638Y-123.825
X152.654Y-75.565
X154.178Y-123.825
X156.718Y-75.565
X156.718Y-123.825
X159.258Y-75.565
X161.798Y-75.565
X161.798Y-123.825
X164.338Y-75.565
X164.338Y-123.825
X166.878Y-75.565
X166.878Y-123.825
X169.418Y-75.565
X169.418Y-123.825
X171.958Y-75.565
X171.958Y-123.825
X174.498Y-75.565
X174.498Y-123.825
T5
X114.34Y-96.951
X119.34Y-96.951
T6
X116.84Y-101.951
T7
X182.904Y-77.959
X183.904Y-91.459
X197.604Y-91.459
X198.604Y-77.959
X203.732Y-77.94
X204.732Y-91.44
X218.432Y-91.44
X219.432Y-77.94
X224.662Y-77.94
X225.662Y-91.44
X239.362Y-91.44
X240.362Y-77.94
T8
X124.968Y-123.825
X126.238Y-75.565
X177.038Y-90.805
X177.038Y-118.745
T9
X116.84Y-99.451
T10
X252.603Y-77.978
X252.603Y-121.031
T11
X136.77Y-84.941
X136.77Y-113.941
X244.77Y-84.941
X244.77Y-113.941
T0
M30
