G04 #@! TF.GenerationSoftware,KiCad,Pcbnew,(6.0.6)*
G04 #@! TF.CreationDate,2023-01-03T01:07:17+09:00*
G04 #@! TF.ProjectId,mt_reflowcnt,6d745f72-6566-46c6-9f77-636e742e6b69,rev?*
G04 #@! TF.SameCoordinates,Original*
G04 #@! TF.FileFunction,Copper,L1,Top*
G04 #@! TF.FilePolarity,Positive*
%FSLAX46Y46*%
G04 Gerber Fmt 4.6, Leading zero omitted, Abs format (unit mm)*
G04 Created by KiCad (PCBNEW (6.0.6)) date 2023-01-03 01:07:17*
%MOMM*%
%LPD*%
G01*
G04 APERTURE LIST*
G04 Aperture macros list*
%AMRoundRect*
0 Rectangle with rounded corners*
0 $1 Rounding radius*
0 $2 $3 $4 $5 $6 $7 $8 $9 X,Y pos of 4 corners*
0 Add a 4 corners polygon primitive as box body*
4,1,4,$2,$3,$4,$5,$6,$7,$8,$9,$2,$3,0*
0 Add four circle primitives for the rounded corners*
1,1,$1+$1,$2,$3*
1,1,$1+$1,$4,$5*
1,1,$1+$1,$6,$7*
1,1,$1+$1,$8,$9*
0 Add four rect primitives between the rounded corners*
20,1,$1+$1,$2,$3,$4,$5,0*
20,1,$1+$1,$4,$5,$6,$7,0*
20,1,$1+$1,$6,$7,$8,$9,0*
20,1,$1+$1,$8,$9,$2,$3,0*%
G04 Aperture macros list end*
G04 #@! TA.AperFunction,ComponentPad*
%ADD10O,1.727200X2.032000*%
G04 #@! TD*
G04 #@! TA.AperFunction,ComponentPad*
%ADD11C,4.064000*%
G04 #@! TD*
G04 #@! TA.AperFunction,SMDPad,CuDef*
%ADD12R,2.000000X1.400000*%
G04 #@! TD*
G04 #@! TA.AperFunction,SMDPad,CuDef*
%ADD13R,1.200000X0.600000*%
G04 #@! TD*
G04 #@! TA.AperFunction,SMDPad,CuDef*
%ADD14R,0.650000X1.525000*%
G04 #@! TD*
G04 #@! TA.AperFunction,SMDPad,CuDef*
%ADD15RoundRect,0.250000X-0.450000X0.350000X-0.450000X-0.350000X0.450000X-0.350000X0.450000X0.350000X0*%
G04 #@! TD*
G04 #@! TA.AperFunction,SMDPad,CuDef*
%ADD16RoundRect,0.250000X0.325000X0.450000X-0.325000X0.450000X-0.325000X-0.450000X0.325000X-0.450000X0*%
G04 #@! TD*
G04 #@! TA.AperFunction,ComponentPad*
%ADD17C,3.294000*%
G04 #@! TD*
G04 #@! TA.AperFunction,ComponentPad*
%ADD18R,1.700000X1.700000*%
G04 #@! TD*
G04 #@! TA.AperFunction,SMDPad,CuDef*
%ADD19RoundRect,0.250000X0.337500X0.475000X-0.337500X0.475000X-0.337500X-0.475000X0.337500X-0.475000X0*%
G04 #@! TD*
G04 #@! TA.AperFunction,SMDPad,CuDef*
%ADD20C,2.000000*%
G04 #@! TD*
G04 #@! TA.AperFunction,SMDPad,CuDef*
%ADD21RoundRect,0.250000X0.350000X0.450000X-0.350000X0.450000X-0.350000X-0.450000X0.350000X-0.450000X0*%
G04 #@! TD*
G04 #@! TA.AperFunction,SMDPad,CuDef*
%ADD22RoundRect,0.237500X0.237500X-0.287500X0.237500X0.287500X-0.237500X0.287500X-0.237500X-0.287500X0*%
G04 #@! TD*
G04 #@! TA.AperFunction,SMDPad,CuDef*
%ADD23RoundRect,0.250000X0.450000X-0.350000X0.450000X0.350000X-0.450000X0.350000X-0.450000X-0.350000X0*%
G04 #@! TD*
G04 #@! TA.AperFunction,SMDPad,CuDef*
%ADD24RoundRect,0.250000X-0.475000X0.337500X-0.475000X-0.337500X0.475000X-0.337500X0.475000X0.337500X0*%
G04 #@! TD*
G04 #@! TA.AperFunction,SMDPad,CuDef*
%ADD25RoundRect,0.250000X-0.350000X-0.450000X0.350000X-0.450000X0.350000X0.450000X-0.350000X0.450000X0*%
G04 #@! TD*
G04 #@! TA.AperFunction,SMDPad,CuDef*
%ADD26R,0.600000X1.250000*%
G04 #@! TD*
G04 #@! TA.AperFunction,SMDPad,CuDef*
%ADD27R,1.525000X0.650000*%
G04 #@! TD*
G04 #@! TA.AperFunction,ComponentPad*
%ADD28C,1.524000*%
G04 #@! TD*
G04 #@! TA.AperFunction,ComponentPad*
%ADD29O,1.700000X1.700000*%
G04 #@! TD*
G04 #@! TA.AperFunction,ComponentPad*
%ADD30C,1.650000*%
G04 #@! TD*
G04 #@! TA.AperFunction,ComponentPad*
%ADD31C,2.100000*%
G04 #@! TD*
G04 #@! TA.AperFunction,ViaPad*
%ADD32C,0.889000*%
G04 #@! TD*
G04 #@! TA.AperFunction,Conductor*
%ADD33C,0.203200*%
G04 #@! TD*
G04 #@! TA.AperFunction,Conductor*
%ADD34C,0.609600*%
G04 #@! TD*
G04 #@! TA.AperFunction,Conductor*
%ADD35C,0.406400*%
G04 #@! TD*
G04 APERTURE END LIST*
D10*
G04 #@! TO.P,P1,1,Pin_1*
G04 #@! TO.N,unconnected-(P1-Pad1)*
X138938000Y-123825000D03*
G04 #@! TO.P,P1,2,Pin_2*
G04 #@! TO.N,/IOREF*
X141478000Y-123825000D03*
G04 #@! TO.P,P1,3,Pin_3*
G04 #@! TO.N,/Reset*
X144018000Y-123825000D03*
G04 #@! TO.P,P1,4,Pin_4*
G04 #@! TO.N,+3.3V*
X146558000Y-123825000D03*
G04 #@! TO.P,P1,5,Pin_5*
G04 #@! TO.N,+5V*
X149098000Y-123825000D03*
G04 #@! TO.P,P1,6,Pin_6*
G04 #@! TO.N,GND*
X151638000Y-123825000D03*
G04 #@! TO.P,P1,7,Pin_7*
X154178000Y-123825000D03*
G04 #@! TO.P,P1,8,Pin_8*
G04 #@! TO.N,/Vin*
X156718000Y-123825000D03*
G04 #@! TD*
G04 #@! TO.P,P2,1,Pin_1*
G04 #@! TO.N,/A0*
X161798000Y-123825000D03*
G04 #@! TO.P,P2,2,Pin_2*
G04 #@! TO.N,/A1*
X164338000Y-123825000D03*
G04 #@! TO.P,P2,3,Pin_3*
G04 #@! TO.N,/A2*
X166878000Y-123825000D03*
G04 #@! TO.P,P2,4,Pin_4*
G04 #@! TO.N,/A3*
X169418000Y-123825000D03*
G04 #@! TO.P,P2,5,Pin_5*
G04 #@! TO.N,/A4(SDA)*
X171958000Y-123825000D03*
G04 #@! TO.P,P2,6,Pin_6*
G04 #@! TO.N,/A5(SCL)*
X174498000Y-123825000D03*
G04 #@! TD*
G04 #@! TO.P,P3,1,Pin_1*
G04 #@! TO.N,unconnected-(P3-Pad1)*
X129794000Y-75565000D03*
G04 #@! TO.P,P3,2,Pin_2*
G04 #@! TO.N,unconnected-(P3-Pad2)*
X132334000Y-75565000D03*
G04 #@! TO.P,P3,3,Pin_3*
G04 #@! TO.N,/AREF*
X134874000Y-75565000D03*
G04 #@! TO.P,P3,4,Pin_4*
G04 #@! TO.N,GND*
X137414000Y-75565000D03*
G04 #@! TO.P,P3,5,Pin_5*
G04 #@! TO.N,/13(SCK)*
X139954000Y-75565000D03*
G04 #@! TO.P,P3,6,Pin_6*
G04 #@! TO.N,/12(MISO)*
X142494000Y-75565000D03*
G04 #@! TO.P,P3,7,Pin_7*
G04 #@! TO.N,/11(\u002A\u002A{slash}MOSI)*
X145034000Y-75565000D03*
G04 #@! TO.P,P3,8,Pin_8*
G04 #@! TO.N,/10(\u002A\u002A{slash}SS)*
X147574000Y-75565000D03*
G04 #@! TO.P,P3,9,Pin_9*
G04 #@! TO.N,/9(\u002A\u002A)*
X150114000Y-75565000D03*
G04 #@! TO.P,P3,10,Pin_10*
G04 #@! TO.N,/8*
X152654000Y-75565000D03*
G04 #@! TD*
G04 #@! TO.P,P4,1,Pin_1*
G04 #@! TO.N,/7*
X156718000Y-75565000D03*
G04 #@! TO.P,P4,2,Pin_2*
G04 #@! TO.N,/6(\u002A\u002A)*
X159258000Y-75565000D03*
G04 #@! TO.P,P4,3,Pin_3*
G04 #@! TO.N,/5(\u002A\u002A)*
X161798000Y-75565000D03*
G04 #@! TO.P,P4,4,Pin_4*
G04 #@! TO.N,/4*
X164338000Y-75565000D03*
G04 #@! TO.P,P4,5,Pin_5*
G04 #@! TO.N,/3(\u002A\u002A)*
X166878000Y-75565000D03*
G04 #@! TO.P,P4,6,Pin_6*
G04 #@! TO.N,/2*
X169418000Y-75565000D03*
G04 #@! TO.P,P4,7,Pin_7*
G04 #@! TO.N,/1(Tx)*
X171958000Y-75565000D03*
G04 #@! TO.P,P4,8,Pin_8*
G04 #@! TO.N,/0(Rx)*
X174498000Y-75565000D03*
G04 #@! TD*
D11*
G04 #@! TO.P,P5,1,Pin_1*
G04 #@! TO.N,unconnected-(P5-Pad1)*
X124968000Y-123825000D03*
G04 #@! TD*
G04 #@! TO.P,P6,1,Pin_1*
G04 #@! TO.N,unconnected-(P6-Pad1)*
X177038000Y-118745000D03*
G04 #@! TD*
G04 #@! TO.P,P7,1,Pin_1*
G04 #@! TO.N,unconnected-(P7-Pad1)*
X126238000Y-75565000D03*
G04 #@! TD*
G04 #@! TO.P,P8,1,Pin_1*
G04 #@! TO.N,unconnected-(P8-Pad1)*
X177038000Y-90805000D03*
G04 #@! TD*
D12*
G04 #@! TO.P,S2,1,N.O._1*
G04 #@! TO.N,unconnected-(S2-Pad1)*
X114711600Y-81083400D03*
G04 #@! TO.P,S2,2,N.O._2*
G04 #@! TO.N,/Reset*
X121711600Y-81083400D03*
G04 #@! TO.P,S2,3,COM_1*
G04 #@! TO.N,GND*
X114711600Y-85083400D03*
G04 #@! TO.P,S2,4,COM_2*
G04 #@! TO.N,unconnected-(S2-Pad4)*
X121711600Y-85083400D03*
G04 #@! TD*
D13*
G04 #@! TO.P,IC2,1,VCCA*
G04 #@! TO.N,+3.3V*
X167874000Y-92009000D03*
G04 #@! TO.P,IC2,2,GND*
G04 #@! TO.N,GND*
X167874000Y-91059000D03*
G04 #@! TO.P,IC2,3,A*
G04 #@! TO.N,Net-(IC3-Pad7)*
X167874000Y-90109000D03*
G04 #@! TO.P,IC2,4,B*
G04 #@! TO.N,/12(MISO)*
X165374000Y-90109000D03*
G04 #@! TO.P,IC2,5,OE*
G04 #@! TO.N,+3.3V*
X165374000Y-91059000D03*
G04 #@! TO.P,IC2,6,VCCB*
G04 #@! TO.N,+5V*
X165374000Y-92009000D03*
G04 #@! TD*
D14*
G04 #@! TO.P,IC5,1,GND*
G04 #@! TO.N,GND*
X234315000Y-105365000D03*
G04 #@! TO.P,IC5,2,T-*
G04 #@! TO.N,Net-(C10-Pad1)*
X233045000Y-105365000D03*
G04 #@! TO.P,IC5,3,T+*
G04 #@! TO.N,Net-(C10-Pad2)*
X231775000Y-105365000D03*
G04 #@! TO.P,IC5,4,VCC*
G04 #@! TO.N,+3.3V*
X230505000Y-105365000D03*
G04 #@! TO.P,IC5,5,SCK*
G04 #@! TO.N,Net-(IC1-Pad2)*
X230505000Y-110789000D03*
G04 #@! TO.P,IC5,6,~{CS}*
G04 #@! TO.N,Net-(IC1-Pad5)*
X231775000Y-110789000D03*
G04 #@! TO.P,IC5,7,SO*
G04 #@! TO.N,Net-(IC3-Pad7)*
X233045000Y-110789000D03*
G04 #@! TO.P,IC5,8,DNC*
G04 #@! TO.N,unconnected-(IC5-Pad8)*
X234315000Y-110789000D03*
G04 #@! TD*
D15*
G04 #@! TO.P,R16,1*
G04 #@! TO.N,+5V*
X154559000Y-100235000D03*
G04 #@! TO.P,R16,2*
G04 #@! TO.N,/A2*
X154559000Y-102235000D03*
G04 #@! TD*
G04 #@! TO.P,R14,1*
G04 #@! TO.N,+5V*
X149606000Y-103521000D03*
G04 #@! TO.P,R14,2*
G04 #@! TO.N,/13(SCK)*
X149606000Y-105521000D03*
G04 #@! TD*
D16*
G04 #@! TO.P,D3,1,K*
G04 #@! TO.N,GND*
X255034000Y-105664000D03*
G04 #@! TO.P,D3,2,A*
G04 #@! TO.N,Net-(D3-Pad2)*
X252984000Y-105664000D03*
G04 #@! TD*
D14*
G04 #@! TO.P,IC4,1,GND*
G04 #@! TO.N,GND*
X213741000Y-105365000D03*
G04 #@! TO.P,IC4,2,T-*
G04 #@! TO.N,Net-(C9-Pad1)*
X212471000Y-105365000D03*
G04 #@! TO.P,IC4,3,T+*
G04 #@! TO.N,Net-(C9-Pad2)*
X211201000Y-105365000D03*
G04 #@! TO.P,IC4,4,VCC*
G04 #@! TO.N,+3.3V*
X209931000Y-105365000D03*
G04 #@! TO.P,IC4,5,SCK*
G04 #@! TO.N,Net-(IC1-Pad2)*
X209931000Y-110789000D03*
G04 #@! TO.P,IC4,6,~{CS}*
G04 #@! TO.N,Net-(IC1-Pad4)*
X211201000Y-110789000D03*
G04 #@! TO.P,IC4,7,SO*
G04 #@! TO.N,Net-(IC3-Pad7)*
X212471000Y-110789000D03*
G04 #@! TO.P,IC4,8,DNC*
G04 #@! TO.N,unconnected-(IC4-Pad8)*
X213741000Y-110789000D03*
G04 #@! TD*
D17*
G04 #@! TO.P,J4,1,P*
G04 #@! TO.N,Net-(J4-Pad1)*
X225661600Y-91439800D03*
G04 #@! TO.P,J4,2,N*
G04 #@! TO.N,Net-(J4-Pad2)*
X239361600Y-91439800D03*
G04 #@! TO.P,J4,3,NC*
G04 #@! TO.N,unconnected-(J4-Pad3)*
X224661600Y-77939800D03*
G04 #@! TO.P,J4,4,NC*
G04 #@! TO.N,unconnected-(J4-Pad4)*
X240361600Y-77939800D03*
G04 #@! TD*
D18*
G04 #@! TO.P,J6,1,Pin_1*
G04 #@! TO.N,GND*
X114300000Y-76327000D03*
G04 #@! TD*
G04 #@! TO.P,J8,1,Pin_1*
G04 #@! TO.N,GND*
X254508000Y-85217000D03*
G04 #@! TD*
D19*
G04 #@! TO.P,C6,1*
G04 #@! TO.N,+3.3V*
X207793500Y-105283000D03*
G04 #@! TO.P,C6,2*
G04 #@! TO.N,GND*
X205718500Y-105283000D03*
G04 #@! TD*
D20*
G04 #@! TO.P,TP2,1,1*
G04 #@! TO.N,Net-(IC1-Pad2)*
X199644000Y-111633000D03*
G04 #@! TD*
D21*
G04 #@! TO.P,R18,1*
G04 #@! TO.N,+3.3V*
X173466000Y-93345000D03*
G04 #@! TO.P,R18,2*
G04 #@! TO.N,Net-(IC3-Pad7)*
X171466000Y-93345000D03*
G04 #@! TD*
D17*
G04 #@! TO.P,J2,1,P*
G04 #@! TO.N,Net-(J2-Pad1)*
X183904000Y-91459000D03*
G04 #@! TO.P,J2,2,N*
G04 #@! TO.N,Net-(J2-Pad2)*
X197604000Y-91459000D03*
G04 #@! TO.P,J2,3,NC*
G04 #@! TO.N,unconnected-(J2-Pad3)*
X182904000Y-77959000D03*
G04 #@! TO.P,J2,4,NC*
G04 #@! TO.N,unconnected-(J2-Pad4)*
X198604000Y-77959000D03*
G04 #@! TD*
D21*
G04 #@! TO.P,R5,1*
G04 #@! TO.N,/9(\u002A\u002A)*
X254984000Y-103124000D03*
G04 #@! TO.P,R5,2*
G04 #@! TO.N,Net-(D3-Pad2)*
X252984000Y-103124000D03*
G04 #@! TD*
G04 #@! TO.P,R9,1*
G04 #@! TO.N,Net-(R9-Pad1)*
X131556000Y-94361000D03*
G04 #@! TO.P,R9,2*
G04 #@! TO.N,/5(\u002A\u002A)*
X129556000Y-94361000D03*
G04 #@! TD*
G04 #@! TO.P,R2,1*
G04 #@! TO.N,/A0*
X254984000Y-92964000D03*
G04 #@! TO.P,R2,2*
G04 #@! TO.N,Net-(D1-Pad2)*
X252984000Y-92964000D03*
G04 #@! TD*
D15*
G04 #@! TO.P,R15,1*
G04 #@! TO.N,+5V*
X152146000Y-102267000D03*
G04 #@! TO.P,R15,2*
G04 #@! TO.N,/10(\u002A\u002A{slash}SS)*
X152146000Y-104267000D03*
G04 #@! TD*
D21*
G04 #@! TO.P,R6,1*
G04 #@! TO.N,Net-(R6-Pad1)*
X131572000Y-104521000D03*
G04 #@! TO.P,R6,2*
G04 #@! TO.N,/2*
X129572000Y-104521000D03*
G04 #@! TD*
D15*
G04 #@! TO.P,R17,1*
G04 #@! TO.N,+5V*
X156972000Y-98711000D03*
G04 #@! TO.P,R17,2*
G04 #@! TO.N,/A3*
X156972000Y-100711000D03*
G04 #@! TD*
D16*
G04 #@! TO.P,D2,1,K*
G04 #@! TO.N,GND*
X255034000Y-100584000D03*
G04 #@! TO.P,D2,2,A*
G04 #@! TO.N,Net-(D2-Pad2)*
X252984000Y-100584000D03*
G04 #@! TD*
D22*
G04 #@! TO.P,L3,1*
G04 #@! TO.N,Net-(C9-Pad2)*
X204724000Y-97155000D03*
G04 #@! TO.P,L3,2*
G04 #@! TO.N,Net-(J3-Pad1)*
X204724000Y-95405000D03*
G04 #@! TD*
D23*
G04 #@! TO.P,R13,1*
G04 #@! TO.N,+5V*
X125222000Y-83153000D03*
G04 #@! TO.P,R13,2*
G04 #@! TO.N,/Reset*
X125222000Y-81153000D03*
G04 #@! TD*
D24*
G04 #@! TO.P,C4,1*
G04 #@! TO.N,+3.3V*
X167894000Y-94361000D03*
G04 #@! TO.P,C4,2*
G04 #@! TO.N,GND*
X167894000Y-96436000D03*
G04 #@! TD*
D25*
G04 #@! TO.P,R10,1*
G04 #@! TO.N,Net-(R10-Pad1)*
X142256000Y-91821000D03*
G04 #@! TO.P,R10,2*
G04 #@! TO.N,/6(\u002A\u002A)*
X144256000Y-91821000D03*
G04 #@! TD*
D26*
G04 #@! TO.P,IC8,1,A_1*
G04 #@! TO.N,Net-(C10-Pad1)*
X233492000Y-99915000D03*
G04 #@! TO.P,IC8,2,A_2*
G04 #@! TO.N,Net-(C10-Pad2)*
X231582000Y-99915000D03*
G04 #@! TO.P,IC8,3,A_3*
G04 #@! TO.N,GND*
X232537000Y-102015000D03*
G04 #@! TD*
D22*
G04 #@! TO.P,L2,1*
G04 #@! TO.N,Net-(C8-Pad1)*
X197612000Y-97155000D03*
G04 #@! TO.P,L2,2*
G04 #@! TO.N,Net-(J2-Pad2)*
X197612000Y-95405000D03*
G04 #@! TD*
D20*
G04 #@! TO.P,TP3,1,1*
G04 #@! TO.N,Net-(IC1-Pad3)*
X183896000Y-111379000D03*
G04 #@! TD*
D21*
G04 #@! TO.P,R7,1*
G04 #@! TO.N,Net-(R7-Pad1)*
X131556000Y-101981000D03*
G04 #@! TO.P,R7,2*
G04 #@! TO.N,/3(\u002A\u002A)*
X129556000Y-101981000D03*
G04 #@! TD*
D18*
G04 #@! TO.P,J5,1,Pin_1*
G04 #@! TO.N,GND*
X114046000Y-123571000D03*
G04 #@! TD*
D27*
G04 #@! TO.P,IC1,1,VCCA*
G04 #@! TO.N,+3.3V*
X165272000Y-106807000D03*
G04 #@! TO.P,IC1,2,A1*
G04 #@! TO.N,Net-(IC1-Pad2)*
X165272000Y-105537000D03*
G04 #@! TO.P,IC1,3,A2*
G04 #@! TO.N,Net-(IC1-Pad3)*
X165272000Y-104267000D03*
G04 #@! TO.P,IC1,4,A3*
G04 #@! TO.N,Net-(IC1-Pad4)*
X165272000Y-102997000D03*
G04 #@! TO.P,IC1,5,A4*
G04 #@! TO.N,Net-(IC1-Pad5)*
X165272000Y-101727000D03*
G04 #@! TO.P,IC1,6,NC_1*
G04 #@! TO.N,unconnected-(IC1-Pad6)*
X165272000Y-100457000D03*
G04 #@! TO.P,IC1,7,GND*
G04 #@! TO.N,GND*
X165272000Y-99187000D03*
G04 #@! TO.P,IC1,8,OE*
G04 #@! TO.N,+3.3V*
X159848000Y-99187000D03*
G04 #@! TO.P,IC1,9,NC_2*
G04 #@! TO.N,unconnected-(IC1-Pad9)*
X159848000Y-100457000D03*
G04 #@! TO.P,IC1,10,B4*
G04 #@! TO.N,/A3*
X159848000Y-101727000D03*
G04 #@! TO.P,IC1,11,B3*
G04 #@! TO.N,/A2*
X159848000Y-102997000D03*
G04 #@! TO.P,IC1,12,B2*
G04 #@! TO.N,/10(\u002A\u002A{slash}SS)*
X159848000Y-104267000D03*
G04 #@! TO.P,IC1,13,B1*
G04 #@! TO.N,/13(SCK)*
X159848000Y-105537000D03*
G04 #@! TO.P,IC1,14,VCCB*
G04 #@! TO.N,+5V*
X159848000Y-106807000D03*
G04 #@! TD*
D22*
G04 #@! TO.P,L6,1*
G04 #@! TO.N,Net-(C10-Pad1)*
X239395000Y-97141000D03*
G04 #@! TO.P,L6,2*
G04 #@! TO.N,Net-(J4-Pad2)*
X239395000Y-95391000D03*
G04 #@! TD*
D12*
G04 #@! TO.P,S1,1,N.O._1*
G04 #@! TO.N,unconnected-(S1-Pad1)*
X114762400Y-113747800D03*
G04 #@! TO.P,S1,2,N.O._2*
G04 #@! TO.N,/8*
X121762400Y-113747800D03*
G04 #@! TO.P,S1,3,COM_1*
G04 #@! TO.N,GND*
X114762400Y-117747800D03*
G04 #@! TO.P,S1,4,COM_2*
G04 #@! TO.N,unconnected-(S1-Pad4)*
X121762400Y-117747800D03*
G04 #@! TD*
D28*
G04 #@! TO.P,U1,1,VSS*
G04 #@! TO.N,GND*
X138170000Y-107021000D03*
G04 #@! TO.P,U1,2,VDD*
G04 #@! TO.N,+5V*
X135270000Y-107061000D03*
G04 #@! TO.P,U1,3,Vo*
G04 #@! TO.N,Net-(R3-Pad3)*
X138170000Y-104521000D03*
G04 #@! TO.P,U1,4,RS*
G04 #@! TO.N,Net-(R6-Pad1)*
X135270000Y-104521000D03*
G04 #@! TO.P,U1,5,RW*
G04 #@! TO.N,GND*
X138170000Y-101911000D03*
G04 #@! TO.P,U1,6,E*
G04 #@! TO.N,Net-(R7-Pad1)*
X135270000Y-101891000D03*
G04 #@! TO.P,U1,7,DB0*
G04 #@! TO.N,unconnected-(U1-Pad7)*
X138170000Y-99431000D03*
G04 #@! TO.P,U1,8,DB1*
G04 #@! TO.N,unconnected-(U1-Pad8)*
X135270000Y-99441000D03*
G04 #@! TO.P,U1,9,DB2*
G04 #@! TO.N,unconnected-(U1-Pad9)*
X138170000Y-96901000D03*
G04 #@! TO.P,U1,10,DB3*
G04 #@! TO.N,unconnected-(U1-Pad10)*
X135270000Y-96901000D03*
G04 #@! TO.P,U1,11,DB4*
G04 #@! TO.N,Net-(R8-Pad1)*
X138170000Y-94361000D03*
G04 #@! TO.P,U1,12,DB5*
G04 #@! TO.N,Net-(R9-Pad1)*
X135270000Y-94361000D03*
G04 #@! TO.P,U1,13,DB6*
G04 #@! TO.N,Net-(R10-Pad1)*
X138170000Y-91821000D03*
G04 #@! TO.P,U1,14,DB7*
G04 #@! TO.N,Net-(R11-Pad1)*
X135270000Y-91821000D03*
G04 #@! TD*
D26*
G04 #@! TO.P,IC6,1,A_1*
G04 #@! TO.N,Net-(C8-Pad1)*
X191455000Y-99915000D03*
G04 #@! TO.P,IC6,2,A_2*
G04 #@! TO.N,Net-(C8-Pad2)*
X189545000Y-99915000D03*
G04 #@! TO.P,IC6,3,A_3*
G04 #@! TO.N,GND*
X190500000Y-102015000D03*
G04 #@! TD*
D21*
G04 #@! TO.P,R11,1*
G04 #@! TO.N,Net-(R11-Pad1)*
X131556000Y-91821000D03*
G04 #@! TO.P,R11,2*
G04 #@! TO.N,/7*
X129556000Y-91821000D03*
G04 #@! TD*
D20*
G04 #@! TO.P,TP1,1,1*
G04 #@! TO.N,/12(MISO)*
X145034000Y-81153000D03*
G04 #@! TD*
D18*
G04 #@! TO.P,J1,1,Pin_1*
G04 #@! TO.N,/A0*
X258826000Y-93040200D03*
D29*
G04 #@! TO.P,J1,2,Pin_2*
G04 #@! TO.N,GND*
X258826000Y-95580200D03*
G04 #@! TO.P,J1,3,Pin_3*
G04 #@! TO.N,/A1*
X258826000Y-98120200D03*
G04 #@! TO.P,J1,4,Pin_4*
G04 #@! TO.N,GND*
X258826000Y-100660200D03*
G04 #@! TO.P,J1,5,Pin_5*
G04 #@! TO.N,/9(\u002A\u002A)*
X258826000Y-103200200D03*
G04 #@! TO.P,J1,6,Pin_6*
G04 #@! TO.N,GND*
X258826000Y-105740200D03*
G04 #@! TD*
D24*
G04 #@! TO.P,C3,1*
G04 #@! TO.N,+3.3V*
X165354000Y-109050000D03*
G04 #@! TO.P,C3,2*
G04 #@! TO.N,GND*
X165354000Y-111125000D03*
G04 #@! TD*
D21*
G04 #@! TO.P,R4,1*
G04 #@! TO.N,/A1*
X254984000Y-98044000D03*
G04 #@! TO.P,R4,2*
G04 #@! TO.N,Net-(D2-Pad2)*
X252984000Y-98044000D03*
G04 #@! TD*
D16*
G04 #@! TO.P,D1,1,K*
G04 #@! TO.N,GND*
X255034000Y-95504000D03*
G04 #@! TO.P,D1,2,A*
G04 #@! TO.N,Net-(D1-Pad2)*
X252984000Y-95504000D03*
G04 #@! TD*
D23*
G04 #@! TO.P,R12,1*
G04 #@! TO.N,+5V*
X125476000Y-115697000D03*
G04 #@! TO.P,R12,2*
G04 #@! TO.N,/8*
X125476000Y-113697000D03*
G04 #@! TD*
D19*
G04 #@! TO.P,C8,1*
G04 #@! TO.N,Net-(C8-Pad1)*
X191516000Y-97155000D03*
G04 #@! TO.P,C8,2*
G04 #@! TO.N,Net-(C8-Pad2)*
X189441000Y-97155000D03*
G04 #@! TD*
G04 #@! TO.P,C7,1*
G04 #@! TO.N,+3.3V*
X228346000Y-105283000D03*
G04 #@! TO.P,C7,2*
G04 #@! TO.N,GND*
X226271000Y-105283000D03*
G04 #@! TD*
D25*
G04 #@! TO.P,R8,1*
G04 #@! TO.N,Net-(R8-Pad1)*
X142240000Y-94361000D03*
G04 #@! TO.P,R8,2*
G04 #@! TO.N,/4*
X144240000Y-94361000D03*
G04 #@! TD*
D26*
G04 #@! TO.P,IC7,1,A_1*
G04 #@! TO.N,Net-(C9-Pad1)*
X212791000Y-99915000D03*
G04 #@! TO.P,IC7,2,A_2*
G04 #@! TO.N,Net-(C9-Pad2)*
X210881000Y-99915000D03*
G04 #@! TO.P,IC7,3,A_3*
G04 #@! TO.N,GND*
X211836000Y-102015000D03*
G04 #@! TD*
D18*
G04 #@! TO.P,J7,1,Pin_1*
G04 #@! TO.N,GND*
X256286000Y-115697000D03*
G04 #@! TD*
D22*
G04 #@! TO.P,L4,1*
G04 #@! TO.N,Net-(C9-Pad1)*
X218440000Y-97155000D03*
G04 #@! TO.P,L4,2*
G04 #@! TO.N,Net-(J3-Pad2)*
X218440000Y-95405000D03*
G04 #@! TD*
D17*
G04 #@! TO.P,J3,1,P*
G04 #@! TO.N,Net-(J3-Pad1)*
X204732000Y-91439800D03*
G04 #@! TO.P,J3,2,N*
G04 #@! TO.N,Net-(J3-Pad2)*
X218432000Y-91439800D03*
G04 #@! TO.P,J3,3,NC*
G04 #@! TO.N,unconnected-(J3-Pad3)*
X203732000Y-77939800D03*
G04 #@! TO.P,J3,4,NC*
G04 #@! TO.N,unconnected-(J3-Pad4)*
X219432000Y-77939800D03*
G04 #@! TD*
D30*
G04 #@! TO.P,R3,1,1*
G04 #@! TO.N,Net-(R1-Pad2)*
X119340000Y-96951400D03*
G04 #@! TO.P,R3,2,2*
G04 #@! TO.N,GND*
X114340000Y-96951400D03*
D31*
G04 #@! TO.P,R3,3,3*
G04 #@! TO.N,Net-(R3-Pad3)*
X116840000Y-101951400D03*
G04 #@! TD*
D19*
G04 #@! TO.P,C10,1*
G04 #@! TO.N,Net-(C10-Pad1)*
X233596000Y-97155000D03*
G04 #@! TO.P,C10,2*
G04 #@! TO.N,Net-(C10-Pad2)*
X231521000Y-97155000D03*
G04 #@! TD*
D24*
G04 #@! TO.P,C1,1*
G04 #@! TO.N,+5V*
X159766000Y-109093000D03*
G04 #@! TO.P,C1,2*
G04 #@! TO.N,GND*
X159766000Y-111168000D03*
G04 #@! TD*
D19*
G04 #@! TO.P,C9,1*
G04 #@! TO.N,Net-(C9-Pad1)*
X212873500Y-97155000D03*
G04 #@! TO.P,C9,2*
G04 #@! TO.N,Net-(C9-Pad2)*
X210798500Y-97155000D03*
G04 #@! TD*
D24*
G04 #@! TO.P,C2,1*
G04 #@! TO.N,+5V*
X165354000Y-94339500D03*
G04 #@! TO.P,C2,2*
G04 #@! TO.N,GND*
X165354000Y-96414500D03*
G04 #@! TD*
D19*
G04 #@! TO.P,C5,1*
G04 #@! TO.N,+3.3V*
X186203500Y-105283000D03*
G04 #@! TO.P,C5,2*
G04 #@! TO.N,GND*
X184128500Y-105283000D03*
G04 #@! TD*
D22*
G04 #@! TO.P,L5,1*
G04 #@! TO.N,Net-(C10-Pad2)*
X225679000Y-97155000D03*
G04 #@! TO.P,L5,2*
G04 #@! TO.N,Net-(J4-Pad1)*
X225679000Y-95405000D03*
G04 #@! TD*
D15*
G04 #@! TO.P,R1,1*
G04 #@! TO.N,+5V*
X119380000Y-91329000D03*
G04 #@! TO.P,R1,2*
G04 #@! TO.N,Net-(R1-Pad2)*
X119380000Y-93329000D03*
G04 #@! TD*
D22*
G04 #@! TO.P,L1,1*
G04 #@! TO.N,Net-(C8-Pad2)*
X183896000Y-97155000D03*
G04 #@! TO.P,L1,2*
G04 #@! TO.N,Net-(J2-Pad1)*
X183896000Y-95405000D03*
G04 #@! TD*
D14*
G04 #@! TO.P,IC3,1,GND*
G04 #@! TO.N,GND*
X192151000Y-105365000D03*
G04 #@! TO.P,IC3,2,T-*
G04 #@! TO.N,Net-(C8-Pad1)*
X190881000Y-105365000D03*
G04 #@! TO.P,IC3,3,T+*
G04 #@! TO.N,Net-(C8-Pad2)*
X189611000Y-105365000D03*
G04 #@! TO.P,IC3,4,VCC*
G04 #@! TO.N,+3.3V*
X188341000Y-105365000D03*
G04 #@! TO.P,IC3,5,SCK*
G04 #@! TO.N,Net-(IC1-Pad2)*
X188341000Y-110789000D03*
G04 #@! TO.P,IC3,6,~{CS}*
G04 #@! TO.N,Net-(IC1-Pad3)*
X189611000Y-110789000D03*
G04 #@! TO.P,IC3,7,SO*
G04 #@! TO.N,Net-(IC3-Pad7)*
X190881000Y-110789000D03*
G04 #@! TO.P,IC3,8,DNC*
G04 #@! TO.N,unconnected-(IC3-Pad8)*
X192151000Y-110789000D03*
G04 #@! TD*
D32*
G04 #@! TO.N,GND*
X215138000Y-108331000D03*
X186055000Y-119380000D03*
X202311000Y-115824000D03*
X235712000Y-105283000D03*
X218440000Y-110871000D03*
X208534000Y-108331000D03*
X235966000Y-112649000D03*
X151638000Y-116967000D03*
X246634000Y-105537000D03*
X229743000Y-115824000D03*
X224663000Y-115824000D03*
X218821000Y-115824000D03*
X196469000Y-115824000D03*
X235966000Y-108331000D03*
X182372000Y-115824000D03*
X152654000Y-112141000D03*
X228600000Y-110871000D03*
X165354000Y-112649000D03*
X208280000Y-115824000D03*
X190500000Y-103505000D03*
X186690000Y-108331000D03*
X180848000Y-108331000D03*
X173990000Y-104775000D03*
X169418000Y-112395000D03*
X211836000Y-103505000D03*
X159766000Y-112649000D03*
X224790000Y-105283000D03*
X113792000Y-83439000D03*
X228854000Y-108331000D03*
X193548000Y-108331000D03*
X239014000Y-112649000D03*
X215056000Y-105365000D03*
X182626000Y-105283000D03*
X232410000Y-103505000D03*
X167640000Y-99187000D03*
X154178000Y-116967000D03*
X169672000Y-90551000D03*
X203962000Y-105283000D03*
X234823000Y-115824000D03*
X189611000Y-115824000D03*
X242570000Y-119380000D03*
X169418000Y-96647000D03*
X113538000Y-115951000D03*
X163597500Y-96414500D03*
X172466000Y-99949000D03*
X193802000Y-105283000D03*
X213614000Y-115824000D03*
X239776000Y-115697000D03*
G04 #@! TO.N,/A2*
X156464000Y-103251000D03*
G04 #@! TO.N,/A3*
X157734000Y-102235000D03*
G04 #@! TO.N,/9(\u002A\u002A)*
X150114000Y-87249000D03*
X250698000Y-110363000D03*
G04 #@! TO.N,/13(SCK)*
X148336000Y-101981000D03*
X146304000Y-88265000D03*
G04 #@! TO.N,/12(MISO)*
X163642000Y-90109000D03*
X146304000Y-86233000D03*
G04 #@! TO.N,/10(\u002A\u002A{slash}SS)*
X150876000Y-100711000D03*
X147574000Y-88265000D03*
G04 #@! TO.N,+3.3V*
X156972000Y-119507000D03*
X169418000Y-92075000D03*
X172974000Y-91567000D03*
G04 #@! TO.N,Net-(IC1-Pad3)*
X178435000Y-112395000D03*
X189611000Y-112395000D03*
G04 #@! TO.N,Net-(IC1-Pad4)*
X211201000Y-112395000D03*
X179451000Y-111252000D03*
G04 #@! TO.N,Net-(IC1-Pad5)*
X231775000Y-112395000D03*
X180721000Y-110109000D03*
G04 #@! TD*
D33*
G04 #@! TO.N,/Reset*
X118364000Y-82931000D02*
X118364000Y-85217000D01*
X140970000Y-120777000D02*
X144018000Y-123825000D01*
X120211600Y-81083400D02*
X118364000Y-82931000D01*
X113538000Y-120777000D02*
X140970000Y-120777000D01*
X111760000Y-118999000D02*
X113538000Y-120777000D01*
X118364000Y-85217000D02*
X111760000Y-91821000D01*
X111760000Y-91821000D02*
X111760000Y-118999000D01*
X121711600Y-81083400D02*
X120211600Y-81083400D01*
X121711600Y-81083400D02*
X125152400Y-81083400D01*
X125152400Y-81083400D02*
X125222000Y-81153000D01*
D34*
G04 #@! TO.N,+5V*
X154559000Y-98044000D02*
X155448000Y-97155000D01*
X165374000Y-92009000D02*
X165374000Y-94319500D01*
X135270000Y-107061000D02*
X135270000Y-108981000D01*
X149606000Y-100711000D02*
X149606000Y-99949000D01*
X119380000Y-91329000D02*
X119872000Y-91329000D01*
X127508000Y-114681000D02*
X126492000Y-115697000D01*
X125222000Y-85979000D02*
X125222000Y-83153000D01*
X149606000Y-99949000D02*
X150114000Y-99441000D01*
X112522000Y-95123000D02*
X112522000Y-108331000D01*
X147574000Y-100711000D02*
X146812000Y-101473000D01*
X116316000Y-91329000D02*
X112522000Y-95123000D01*
X149606000Y-100711000D02*
X147574000Y-100711000D01*
X149098000Y-123825000D02*
X149098000Y-109093000D01*
X165354000Y-94339500D02*
X158517500Y-94339500D01*
X112522000Y-108331000D02*
X119888000Y-115697000D01*
X152908000Y-98425000D02*
X154432000Y-98425000D01*
X149606000Y-103521000D02*
X149606000Y-100711000D01*
X146812000Y-109093000D02*
X135382000Y-109093000D01*
X152146000Y-102267000D02*
X152146000Y-99187000D01*
X149098000Y-109093000D02*
X146812000Y-109093000D01*
X159848000Y-106807000D02*
X159848000Y-109011000D01*
X159766000Y-109093000D02*
X149098000Y-109093000D01*
X129286000Y-109093000D02*
X135382000Y-109093000D01*
X152146000Y-99187000D02*
X152908000Y-98425000D01*
X146812000Y-101473000D02*
X146812000Y-109093000D01*
X165374000Y-94319500D02*
X165354000Y-94339500D01*
X119872000Y-91329000D02*
X125222000Y-85979000D01*
X135270000Y-108981000D02*
X135382000Y-109093000D01*
X156972000Y-95885000D02*
X156972000Y-98711000D01*
X154559000Y-100235000D02*
X154559000Y-98044000D01*
X119380000Y-91329000D02*
X116316000Y-91329000D01*
X127508000Y-110871000D02*
X127508000Y-114681000D01*
X159848000Y-109011000D02*
X159766000Y-109093000D01*
X155448000Y-97155000D02*
X156972000Y-97155000D01*
X158517500Y-94339500D02*
X156972000Y-95885000D01*
X126492000Y-115697000D02*
X125476000Y-115697000D01*
X150114000Y-99441000D02*
X151892000Y-99441000D01*
X129286000Y-109093000D02*
X127508000Y-110871000D01*
X119888000Y-115697000D02*
X125476000Y-115697000D01*
D35*
G04 #@! TO.N,GND*
X255034000Y-105664000D02*
X258749800Y-105664000D01*
X242570000Y-119380000D02*
X241300000Y-118110000D01*
X255034000Y-95504000D02*
X258749800Y-95504000D01*
X258749800Y-95504000D02*
X258826000Y-95580200D01*
X184128500Y-105283000D02*
X182626000Y-105283000D01*
X213741000Y-105365000D02*
X215056000Y-105365000D01*
X193720000Y-105365000D02*
X193802000Y-105283000D01*
X232410000Y-103251000D02*
X232410000Y-103505000D01*
X165272000Y-99187000D02*
X167640000Y-99187000D01*
X258749800Y-100584000D02*
X258826000Y-100660200D01*
X205718500Y-105283000D02*
X203962000Y-105283000D01*
X241300000Y-118110000D02*
X241300000Y-107569000D01*
X154178000Y-123825000D02*
X154178000Y-116967000D01*
X232537000Y-103124000D02*
X232410000Y-103251000D01*
X169164000Y-91059000D02*
X169672000Y-90551000D01*
X114762400Y-117747800D02*
X114762400Y-117175400D01*
X241300000Y-107569000D02*
X239014000Y-105283000D01*
X211836000Y-102015000D02*
X211836000Y-103505000D01*
X235630000Y-105365000D02*
X235712000Y-105283000D01*
X226271000Y-105283000D02*
X224790000Y-105283000D01*
X258749800Y-105664000D02*
X258826000Y-105740200D01*
X190500000Y-102015000D02*
X190500000Y-103505000D01*
X169207000Y-96436000D02*
X169418000Y-96647000D01*
X232537000Y-102015000D02*
X232537000Y-103124000D01*
X167894000Y-96436000D02*
X169207000Y-96436000D01*
X167872500Y-96414500D02*
X167894000Y-96436000D01*
X255034000Y-100584000D02*
X258749800Y-100584000D01*
X114711600Y-85083400D02*
X114711600Y-84358600D01*
X234315000Y-105365000D02*
X235630000Y-105365000D01*
X159766000Y-111168000D02*
X159766000Y-112649000D01*
X165354000Y-96414500D02*
X167872500Y-96414500D01*
X114711600Y-84358600D02*
X113792000Y-83439000D01*
X165354000Y-96414500D02*
X163597500Y-96414500D01*
X165354000Y-111125000D02*
X165354000Y-112649000D01*
X239014000Y-105283000D02*
X235712000Y-105283000D01*
X151638000Y-123825000D02*
X151638000Y-116967000D01*
X114762400Y-117175400D02*
X113538000Y-115951000D01*
X192151000Y-105365000D02*
X193720000Y-105365000D01*
X167874000Y-91059000D02*
X169164000Y-91059000D01*
G04 #@! TO.N,/A0*
X258749800Y-92964000D02*
X258826000Y-93040200D01*
X248666000Y-115697000D02*
X248666000Y-94615000D01*
X178816000Y-114935000D02*
X184912000Y-121031000D01*
X254127000Y-91694000D02*
X254984000Y-92551000D01*
X254984000Y-92964000D02*
X258749800Y-92964000D01*
X184912000Y-121031000D02*
X243332000Y-121031000D01*
X161798000Y-122301000D02*
X169164000Y-114935000D01*
X243332000Y-121031000D02*
X248666000Y-115697000D01*
X169164000Y-114935000D02*
X178816000Y-114935000D01*
X254984000Y-92551000D02*
X254984000Y-92964000D01*
X251587000Y-91694000D02*
X254127000Y-91694000D01*
X248666000Y-94615000D02*
X251587000Y-91694000D01*
X161798000Y-123825000D02*
X161798000Y-122301000D01*
G04 #@! TO.N,/A1*
X243432104Y-121793000D02*
X249428000Y-115797104D01*
X251333000Y-96774000D02*
X254381000Y-96774000D01*
X184658000Y-121793000D02*
X243432104Y-121793000D01*
X164338000Y-122555000D02*
X171196000Y-115697000D01*
X178562000Y-115697000D02*
X184658000Y-121793000D01*
X164338000Y-123825000D02*
X164338000Y-122555000D01*
X258749800Y-98044000D02*
X258826000Y-98120200D01*
X254984000Y-97377000D02*
X254984000Y-98044000D01*
X171196000Y-115697000D02*
X178562000Y-115697000D01*
X249428000Y-98679000D02*
X251333000Y-96774000D01*
X254984000Y-98044000D02*
X258749800Y-98044000D01*
X254381000Y-96774000D02*
X254984000Y-97377000D01*
X249428000Y-115797104D02*
X249428000Y-98679000D01*
D33*
G04 #@! TO.N,/A2*
X156464000Y-103251000D02*
X155194000Y-103251000D01*
X158496000Y-102997000D02*
X158242000Y-103251000D01*
X159848000Y-102997000D02*
X158496000Y-102997000D01*
X158242000Y-103251000D02*
X156464000Y-103251000D01*
X155194000Y-103251000D02*
X154559000Y-102616000D01*
X154559000Y-102616000D02*
X154559000Y-102235000D01*
G04 #@! TO.N,/A3*
X156972000Y-101473000D02*
X157734000Y-102235000D01*
X159848000Y-101727000D02*
X158242000Y-101727000D01*
X158242000Y-101727000D02*
X157734000Y-102235000D01*
X156972000Y-100711000D02*
X156972000Y-101473000D01*
D35*
G04 #@! TO.N,/9(\u002A\u002A)*
X251206000Y-101981000D02*
X250698000Y-102489000D01*
X254984000Y-103124000D02*
X258749800Y-103124000D01*
X254508000Y-101981000D02*
X251206000Y-101981000D01*
X254984000Y-102457000D02*
X254508000Y-101981000D01*
X250698000Y-102489000D02*
X250698000Y-110363000D01*
X258749800Y-103124000D02*
X258826000Y-103200200D01*
X254984000Y-103124000D02*
X254984000Y-102457000D01*
X150114000Y-75565000D02*
X150114000Y-87249000D01*
D33*
G04 #@! TO.N,/8*
X125730000Y-89535000D02*
X150876000Y-89535000D01*
X117602000Y-97663000D02*
X118618000Y-98679000D01*
X114808000Y-103029000D02*
X114808000Y-98933000D01*
X118618000Y-98679000D02*
X120142000Y-98679000D01*
X121762400Y-113747800D02*
X125425200Y-113747800D01*
X125476000Y-113697000D02*
X114808000Y-103029000D01*
X120142000Y-98679000D02*
X121920000Y-96901000D01*
X121920000Y-93345000D02*
X125730000Y-89535000D01*
X114808000Y-98933000D02*
X116078000Y-97663000D01*
X150876000Y-89535000D02*
X152654000Y-87757000D01*
X116078000Y-97663000D02*
X117602000Y-97663000D01*
X152654000Y-87757000D02*
X152654000Y-75565000D01*
X125425200Y-113747800D02*
X125476000Y-113697000D01*
X121920000Y-96901000D02*
X121920000Y-93345000D01*
G04 #@! TO.N,/7*
X156718000Y-88265000D02*
X156718000Y-75565000D01*
X129556000Y-91821000D02*
X129556000Y-90789000D01*
X154940000Y-90043000D02*
X156718000Y-88265000D01*
X130302000Y-90043000D02*
X154940000Y-90043000D01*
X129556000Y-90789000D02*
X130302000Y-90043000D01*
G04 #@! TO.N,/6(\u002A\u002A)*
X153924000Y-91821000D02*
X159258000Y-86487000D01*
X159258000Y-86487000D02*
X159258000Y-75565000D01*
X144256000Y-91821000D02*
X153924000Y-91821000D01*
G04 #@! TO.N,/5(\u002A\u002A)*
X136144000Y-95631000D02*
X136652000Y-95123000D01*
X129556000Y-95139000D02*
X130302000Y-95885000D01*
X133096000Y-95885000D02*
X133350000Y-95631000D01*
X161798000Y-75565000D02*
X161798000Y-84709000D01*
X136652000Y-95123000D02*
X136652000Y-93853000D01*
X129556000Y-94361000D02*
X129556000Y-95139000D01*
X130302000Y-95885000D02*
X133096000Y-95885000D01*
X137414000Y-93091000D02*
X153416000Y-93091000D01*
X161798000Y-84709000D02*
X153416000Y-93091000D01*
X136652000Y-93853000D02*
X137414000Y-93091000D01*
X133350000Y-95631000D02*
X136144000Y-95631000D01*
G04 #@! TO.N,/4*
X164338000Y-82931000D02*
X152908000Y-94361000D01*
X164338000Y-75565000D02*
X164338000Y-82931000D01*
X144240000Y-94361000D02*
X152908000Y-94361000D01*
G04 #@! TO.N,/3(\u002A\u002A)*
X143764000Y-100711000D02*
X149606000Y-94869000D01*
X129556000Y-101981000D02*
X129556000Y-100949000D01*
X133350000Y-100457000D02*
X133604000Y-100711000D01*
X130048000Y-100457000D02*
X133350000Y-100457000D01*
X166878000Y-81153000D02*
X166878000Y-75565000D01*
X133604000Y-100711000D02*
X143764000Y-100711000D01*
X129556000Y-100949000D02*
X130048000Y-100457000D01*
X149606000Y-94869000D02*
X153162000Y-94869000D01*
X153162000Y-94869000D02*
X166878000Y-81153000D01*
G04 #@! TO.N,/2*
X169418000Y-79375000D02*
X153416000Y-95377000D01*
X153416000Y-95377000D02*
X149860000Y-95377000D01*
X133096000Y-106045000D02*
X130556000Y-106045000D01*
X130556000Y-106045000D02*
X129572000Y-105061000D01*
X133350000Y-105791000D02*
X133096000Y-106045000D01*
X149860000Y-95377000D02*
X139446000Y-105791000D01*
X169418000Y-75565000D02*
X169418000Y-79375000D01*
X129572000Y-105061000D02*
X129572000Y-104521000D01*
X139446000Y-105791000D02*
X133350000Y-105791000D01*
G04 #@! TO.N,Net-(R3-Pad3)*
X136900000Y-103251000D02*
X118139600Y-103251000D01*
X118139600Y-103251000D02*
X116840000Y-101951400D01*
X138170000Y-104521000D02*
X136900000Y-103251000D01*
G04 #@! TO.N,Net-(R6-Pad1)*
X131572000Y-104521000D02*
X135270000Y-104521000D01*
G04 #@! TO.N,/13(SCK)*
X139954000Y-81915000D02*
X146304000Y-88265000D01*
X139954000Y-75565000D02*
X139954000Y-81915000D01*
X159848000Y-105537000D02*
X149622000Y-105537000D01*
X148828000Y-105521000D02*
X148336000Y-105029000D01*
X148336000Y-105029000D02*
X148336000Y-101981000D01*
X149622000Y-105537000D02*
X149606000Y-105521000D01*
X149606000Y-105521000D02*
X148828000Y-105521000D01*
G04 #@! TO.N,/12(MISO)*
X165374000Y-90109000D02*
X163642000Y-90109000D01*
X146304000Y-86233000D02*
X145034000Y-84963000D01*
X142494000Y-75565000D02*
X142494000Y-78613000D01*
X142494000Y-78613000D02*
X145034000Y-81153000D01*
X145034000Y-84963000D02*
X145034000Y-81153000D01*
G04 #@! TO.N,Net-(R7-Pad1)*
X131646000Y-101891000D02*
X131556000Y-101981000D01*
X135270000Y-101891000D02*
X131646000Y-101891000D01*
G04 #@! TO.N,Net-(R8-Pad1)*
X138170000Y-94361000D02*
X142240000Y-94361000D01*
G04 #@! TO.N,Net-(R9-Pad1)*
X131556000Y-94361000D02*
X135270000Y-94361000D01*
G04 #@! TO.N,Net-(R10-Pad1)*
X142256000Y-91821000D02*
X138170000Y-91821000D01*
D35*
G04 #@! TO.N,Net-(J2-Pad1)*
X183904000Y-91459000D02*
X183904000Y-95397000D01*
X183904000Y-95397000D02*
X183896000Y-95405000D01*
G04 #@! TO.N,Net-(J2-Pad2)*
X197604000Y-95397000D02*
X197612000Y-95405000D01*
X197604000Y-91459000D02*
X197604000Y-95397000D01*
D33*
G04 #@! TO.N,/10(\u002A\u002A{slash}SS)*
X159848000Y-104267000D02*
X152146000Y-104267000D01*
X150876000Y-103759000D02*
X150876000Y-100711000D01*
X151384000Y-104267000D02*
X150876000Y-103759000D01*
X152146000Y-104267000D02*
X151384000Y-104267000D01*
X147574000Y-75565000D02*
X147574000Y-88265000D01*
D35*
G04 #@! TO.N,Net-(R1-Pad2)*
X119380000Y-93329000D02*
X119380000Y-96911400D01*
X119380000Y-96911400D02*
X119340000Y-96951400D01*
D33*
G04 #@! TO.N,Net-(D1-Pad2)*
X252984000Y-92964000D02*
X252984000Y-95504000D01*
G04 #@! TO.N,Net-(D2-Pad2)*
X252984000Y-98044000D02*
X252984000Y-100584000D01*
G04 #@! TO.N,Net-(R11-Pad1)*
X131556000Y-91821000D02*
X135270000Y-91821000D01*
G04 #@! TO.N,Net-(J4-Pad1)*
X225661600Y-95387600D02*
X225679000Y-95405000D01*
X225661600Y-91439800D02*
X225661600Y-95387600D01*
G04 #@! TO.N,Net-(J4-Pad2)*
X239361600Y-95357600D02*
X239395000Y-95391000D01*
X239361600Y-91439800D02*
X239361600Y-95357600D01*
G04 #@! TO.N,Net-(J3-Pad1)*
X204732000Y-95397000D02*
X204732000Y-91439800D01*
X204724000Y-95405000D02*
X204732000Y-95397000D01*
G04 #@! TO.N,Net-(J3-Pad2)*
X218432000Y-91439800D02*
X218432000Y-95397000D01*
X218432000Y-95397000D02*
X218440000Y-95405000D01*
D34*
G04 #@! TO.N,+3.3V*
X169926000Y-97917000D02*
X170434000Y-97409000D01*
X162560000Y-99695000D02*
X162560000Y-106299000D01*
X228346000Y-106553000D02*
X227838000Y-107061000D01*
X228346000Y-105283000D02*
X228346000Y-106553000D01*
X230423000Y-105283000D02*
X230505000Y-105365000D01*
X170434000Y-95377000D02*
X169418000Y-94361000D01*
X207772000Y-107061000D02*
X185928000Y-107061000D01*
X186203500Y-105283000D02*
X188259000Y-105283000D01*
X173466000Y-97901000D02*
X173466000Y-93345000D01*
X209849000Y-105283000D02*
X209931000Y-105365000D01*
X163830000Y-97917000D02*
X169926000Y-97917000D01*
X163111000Y-109050000D02*
X162560000Y-109601000D01*
X173466000Y-92059000D02*
X172974000Y-91567000D01*
X156972000Y-119507000D02*
X161290000Y-119507000D01*
X165374000Y-91059000D02*
X166116000Y-91059000D01*
X207793500Y-105283000D02*
X207793500Y-107039500D01*
X162560000Y-106299000D02*
X163068000Y-106807000D01*
X165354000Y-109050000D02*
X163111000Y-109050000D01*
X207793500Y-107039500D02*
X207772000Y-107061000D01*
X207793500Y-105283000D02*
X209849000Y-105283000D01*
X186203500Y-105283000D02*
X186203500Y-106785500D01*
X165272000Y-106807000D02*
X165272000Y-108968000D01*
X159848000Y-99187000D02*
X162052000Y-99187000D01*
X227838000Y-107061000D02*
X207772000Y-107061000D01*
X182626000Y-107061000D02*
X173466000Y-97901000D01*
X167874000Y-92009000D02*
X167874000Y-94341000D01*
X162306000Y-99441000D02*
X163830000Y-97917000D01*
X162306000Y-99441000D02*
X162560000Y-99695000D01*
X162560000Y-109601000D02*
X162560000Y-118237000D01*
X170434000Y-97409000D02*
X170434000Y-95377000D01*
X163068000Y-106807000D02*
X165272000Y-106807000D01*
X169418000Y-94361000D02*
X167894000Y-94361000D01*
X166116000Y-91059000D02*
X167066000Y-92009000D01*
X162052000Y-99187000D02*
X162306000Y-99441000D01*
X173466000Y-93345000D02*
X173466000Y-92059000D01*
X167066000Y-92009000D02*
X167874000Y-92009000D01*
X165272000Y-108968000D02*
X165354000Y-109050000D01*
X185928000Y-107061000D02*
X182626000Y-107061000D01*
X167874000Y-94341000D02*
X167894000Y-94361000D01*
X228346000Y-105283000D02*
X230423000Y-105283000D01*
X167874000Y-92009000D02*
X169352000Y-92009000D01*
X188259000Y-105283000D02*
X188341000Y-105365000D01*
X169352000Y-92009000D02*
X169418000Y-92075000D01*
X186203500Y-106785500D02*
X185928000Y-107061000D01*
X162560000Y-118237000D02*
X161290000Y-119507000D01*
D33*
G04 #@! TO.N,Net-(D3-Pad2)*
X252984000Y-103124000D02*
X252984000Y-105664000D01*
G04 #@! TO.N,Net-(IC1-Pad3)*
X189611000Y-110789000D02*
X189611000Y-112395000D01*
X165272000Y-104267000D02*
X167513000Y-104267000D01*
X175641000Y-112395000D02*
X178435000Y-112395000D01*
X182880000Y-112395000D02*
X183896000Y-111379000D01*
X178435000Y-112395000D02*
X182880000Y-112395000D01*
X167513000Y-104267000D02*
X175641000Y-112395000D01*
G04 #@! TO.N,Net-(C10-Pad1)*
X233492000Y-103693000D02*
X233492000Y-99915000D01*
X233492000Y-97259000D02*
X233492000Y-99915000D01*
X233596000Y-97155000D02*
X233492000Y-97259000D01*
X233045000Y-105365000D02*
X233045000Y-104140000D01*
X239381000Y-97155000D02*
X239395000Y-97141000D01*
X233045000Y-104140000D02*
X233492000Y-103693000D01*
X233596000Y-97155000D02*
X239381000Y-97155000D01*
G04 #@! TO.N,Net-(C10-Pad2)*
X231582000Y-103947000D02*
X231582000Y-99915000D01*
X225679000Y-97155000D02*
X231521000Y-97155000D01*
X231582000Y-97216000D02*
X231582000Y-99915000D01*
X231775000Y-104140000D02*
X231582000Y-103947000D01*
X231775000Y-105365000D02*
X231775000Y-104140000D01*
X231521000Y-97155000D02*
X231582000Y-97216000D01*
G04 #@! TO.N,Net-(C8-Pad1)*
X191455000Y-103820000D02*
X191455000Y-99915000D01*
X191455000Y-97216000D02*
X191516000Y-97155000D01*
X191516000Y-97155000D02*
X197612000Y-97155000D01*
X190881000Y-105365000D02*
X190881000Y-104394000D01*
X191455000Y-99915000D02*
X191455000Y-97216000D01*
X190881000Y-104394000D02*
X191455000Y-103820000D01*
G04 #@! TO.N,Net-(C8-Pad2)*
X183896000Y-97155000D02*
X189441000Y-97155000D01*
X189545000Y-105299000D02*
X189611000Y-105365000D01*
X189545000Y-97259000D02*
X189545000Y-99915000D01*
X189441000Y-97155000D02*
X189545000Y-97259000D01*
X189545000Y-99915000D02*
X189545000Y-105299000D01*
G04 #@! TO.N,Net-(C9-Pad1)*
X212471000Y-104394000D02*
X212791000Y-104074000D01*
X212791000Y-104074000D02*
X212791000Y-99915000D01*
X212791000Y-99915000D02*
X212791000Y-97237500D01*
X212791000Y-97237500D02*
X212873500Y-97155000D01*
X218440000Y-97155000D02*
X212873500Y-97155000D01*
X212471000Y-105365000D02*
X212471000Y-104394000D01*
G04 #@! TO.N,Net-(C9-Pad2)*
X210881000Y-99915000D02*
X210881000Y-104074000D01*
X210881000Y-97237500D02*
X210881000Y-99915000D01*
X210798500Y-97155000D02*
X204724000Y-97155000D01*
X210798500Y-97155000D02*
X210881000Y-97237500D01*
X211201000Y-104394000D02*
X211201000Y-105365000D01*
X210881000Y-104074000D02*
X211201000Y-104394000D01*
G04 #@! TO.N,Net-(IC1-Pad2)*
X229997000Y-113284000D02*
X230505000Y-112776000D01*
X196215000Y-113284000D02*
X188214000Y-113284000D01*
X209804000Y-113284000D02*
X203073000Y-113284000D01*
X209804000Y-113284000D02*
X229997000Y-113284000D01*
X209931000Y-113157000D02*
X209804000Y-113284000D01*
X209931000Y-110789000D02*
X209931000Y-113157000D01*
X197866000Y-111633000D02*
X199644000Y-111633000D01*
X166751000Y-105537000D02*
X174498000Y-113284000D01*
X201422000Y-111633000D02*
X199644000Y-111633000D01*
X188341000Y-110789000D02*
X188341000Y-113157000D01*
X203073000Y-113284000D02*
X201422000Y-111633000D01*
X174498000Y-113284000D02*
X188214000Y-113284000D01*
X165272000Y-105537000D02*
X166751000Y-105537000D01*
X188341000Y-113157000D02*
X188214000Y-113284000D01*
X196215000Y-113284000D02*
X197866000Y-111633000D01*
X230505000Y-110789000D02*
X230505000Y-112776000D01*
G04 #@! TO.N,Net-(IC1-Pad4)*
X165272000Y-102997000D02*
X167894000Y-102997000D01*
X176149000Y-111252000D02*
X179451000Y-111252000D01*
X211201000Y-110789000D02*
X211201000Y-112395000D01*
X167894000Y-102997000D02*
X176149000Y-111252000D01*
G04 #@! TO.N,Net-(IC3-Pad7)*
X190754000Y-109347000D02*
X183769000Y-109347000D01*
X168448000Y-89535000D02*
X167874000Y-90109000D01*
X171466000Y-97044000D02*
X171466000Y-93345000D01*
X190881000Y-110789000D02*
X190881000Y-109474000D01*
X171466000Y-91075000D02*
X169926000Y-89535000D01*
X190881000Y-109474000D02*
X190754000Y-109347000D01*
X212471000Y-110789000D02*
X212471000Y-109347000D01*
X171466000Y-93345000D02*
X171466000Y-91075000D01*
X212471000Y-109347000D02*
X232664000Y-109347000D01*
X169926000Y-89535000D02*
X168448000Y-89535000D01*
X183769000Y-109347000D02*
X171466000Y-97044000D01*
X212471000Y-109347000D02*
X190754000Y-109347000D01*
X232664000Y-109347000D02*
X233045000Y-109728000D01*
X233045000Y-110789000D02*
X233045000Y-109728000D01*
G04 #@! TO.N,Net-(IC1-Pad5)*
X231775000Y-110789000D02*
X231775000Y-112395000D01*
X168783000Y-101727000D02*
X177165000Y-110109000D01*
X165272000Y-101727000D02*
X168783000Y-101727000D01*
X177165000Y-110109000D02*
X180721000Y-110109000D01*
G04 #@! TD*
G04 #@! TA.AperFunction,Conductor*
G04 #@! TO.N,+3.3V*
G36*
X166751011Y-106426465D02*
G01*
X166757594Y-106432594D01*
X167603095Y-107278095D01*
X167637121Y-107340407D01*
X167640000Y-107367190D01*
X167640000Y-114628810D01*
X167619998Y-114696931D01*
X167603095Y-114717905D01*
X166370000Y-115951000D01*
X166370000Y-111994210D01*
X166423134Y-111940983D01*
X166428305Y-111935803D01*
X166470934Y-111866646D01*
X166517275Y-111791468D01*
X166517276Y-111791466D01*
X166521115Y-111785238D01*
X166576797Y-111617361D01*
X166587500Y-111512900D01*
X166587500Y-110737100D01*
X166576526Y-110631334D01*
X166520550Y-110463554D01*
X166427478Y-110313152D01*
X166370000Y-110255774D01*
X166370000Y-109918502D01*
X166422739Y-109865671D01*
X166431751Y-109854260D01*
X166516816Y-109716257D01*
X166522963Y-109703076D01*
X166574138Y-109548790D01*
X166577005Y-109535414D01*
X166586672Y-109441062D01*
X166587000Y-109434646D01*
X166587000Y-109322115D01*
X166582525Y-109306876D01*
X166581135Y-109305671D01*
X166573452Y-109304000D01*
X166370000Y-109304000D01*
X166370000Y-108796000D01*
X166568884Y-108796000D01*
X166584123Y-108791525D01*
X166585328Y-108790135D01*
X166586999Y-108782452D01*
X166586999Y-108665405D01*
X166586662Y-108658886D01*
X166576743Y-108563294D01*
X166573851Y-108549900D01*
X166522412Y-108395716D01*
X166516239Y-108382538D01*
X166430937Y-108244693D01*
X166421901Y-108233292D01*
X166370000Y-108181481D01*
X166370000Y-107515442D01*
X166390224Y-107500285D01*
X166402785Y-107487724D01*
X166479286Y-107385649D01*
X166487824Y-107370054D01*
X166532978Y-107249606D01*
X166536605Y-107234351D01*
X166542131Y-107183486D01*
X166542500Y-107176672D01*
X166542500Y-107079115D01*
X166538025Y-107063876D01*
X166536635Y-107062671D01*
X166528952Y-107061000D01*
X166370000Y-107061000D01*
X166370000Y-106553000D01*
X166524384Y-106553000D01*
X166539623Y-106548525D01*
X166540828Y-106547135D01*
X166542499Y-106539452D01*
X166542499Y-106521689D01*
X166562501Y-106453568D01*
X166616157Y-106407075D01*
X166686431Y-106396971D01*
X166751011Y-106426465D01*
G37*
G04 #@! TD.AperFunction*
G04 #@! TD*
G04 #@! TA.AperFunction,Conductor*
G04 #@! TO.N,+5V*
G36*
X158554804Y-106167102D02*
G01*
X158601297Y-106220758D01*
X158611401Y-106291032D01*
X158604665Y-106317329D01*
X158587022Y-106364391D01*
X158583395Y-106379649D01*
X158577869Y-106430514D01*
X158577500Y-106437328D01*
X158577500Y-106534885D01*
X158581975Y-106550124D01*
X158583365Y-106551329D01*
X158591048Y-106553000D01*
X159976000Y-106553000D01*
X160044121Y-106573002D01*
X160090614Y-106626658D01*
X160102000Y-106679000D01*
X160102000Y-107621884D01*
X160106475Y-107637123D01*
X160107865Y-107638328D01*
X160115548Y-107639999D01*
X160656000Y-107639999D01*
X160724121Y-107660001D01*
X160770614Y-107713657D01*
X160782000Y-107765999D01*
X160782000Y-107972830D01*
X160761998Y-108040951D01*
X160708342Y-108087444D01*
X160638068Y-108097548D01*
X160589884Y-108080090D01*
X160569757Y-108067684D01*
X160556576Y-108061537D01*
X160402290Y-108010362D01*
X160388914Y-108007495D01*
X160294562Y-107997828D01*
X160288145Y-107997500D01*
X160038115Y-107997500D01*
X160022876Y-108001975D01*
X160021671Y-108003365D01*
X160020000Y-108011048D01*
X160020000Y-109221000D01*
X159999998Y-109289121D01*
X159946342Y-109335614D01*
X159894000Y-109347000D01*
X158551116Y-109347000D01*
X158535877Y-109351475D01*
X158534672Y-109352865D01*
X158533001Y-109360548D01*
X158533001Y-109477595D01*
X158533338Y-109484114D01*
X158543257Y-109579706D01*
X158546149Y-109593100D01*
X158597588Y-109747284D01*
X158603761Y-109760462D01*
X158689063Y-109898307D01*
X158698099Y-109909708D01*
X158812828Y-110024238D01*
X158821762Y-110031294D01*
X158862823Y-110089212D01*
X158866053Y-110160135D01*
X158830426Y-110221546D01*
X158822593Y-110228346D01*
X158816652Y-110232022D01*
X158691695Y-110357197D01*
X158598885Y-110507762D01*
X158543203Y-110675639D01*
X158542502Y-110682477D01*
X158542502Y-110682479D01*
X158534780Y-110757843D01*
X158507938Y-110823570D01*
X158449823Y-110864352D01*
X158409436Y-110871000D01*
X149860000Y-110871000D01*
X149860000Y-108820885D01*
X158533000Y-108820885D01*
X158537475Y-108836124D01*
X158538865Y-108837329D01*
X158546548Y-108839000D01*
X159493885Y-108839000D01*
X159509124Y-108834525D01*
X159510329Y-108833135D01*
X159512000Y-108825452D01*
X159512000Y-108015616D01*
X159507525Y-108000377D01*
X159506135Y-107999172D01*
X159498452Y-107997501D01*
X159243905Y-107997501D01*
X159237386Y-107997838D01*
X159141794Y-108007757D01*
X159128400Y-108010649D01*
X158974216Y-108062088D01*
X158961038Y-108068261D01*
X158823193Y-108153563D01*
X158811792Y-108162599D01*
X158697261Y-108277329D01*
X158688249Y-108288740D01*
X158603184Y-108426743D01*
X158597037Y-108439924D01*
X158545862Y-108594210D01*
X158542995Y-108607586D01*
X158533328Y-108701938D01*
X158533000Y-108708355D01*
X158533000Y-108820885D01*
X149860000Y-108820885D01*
X149860000Y-107176669D01*
X158577501Y-107176669D01*
X158577871Y-107183490D01*
X158583395Y-107234352D01*
X158587021Y-107249604D01*
X158632176Y-107370054D01*
X158640714Y-107385649D01*
X158717215Y-107487724D01*
X158729776Y-107500285D01*
X158831851Y-107576786D01*
X158847446Y-107585324D01*
X158967894Y-107630478D01*
X158983149Y-107634105D01*
X159034014Y-107639631D01*
X159040828Y-107640000D01*
X159575885Y-107640000D01*
X159591124Y-107635525D01*
X159592329Y-107634135D01*
X159594000Y-107626452D01*
X159594000Y-107079115D01*
X159589525Y-107063876D01*
X159588135Y-107062671D01*
X159580452Y-107061000D01*
X158595616Y-107061000D01*
X158580377Y-107065475D01*
X158579172Y-107066865D01*
X158577501Y-107074548D01*
X158577501Y-107176669D01*
X149860000Y-107176669D01*
X149860000Y-106629500D01*
X150106400Y-106629500D01*
X150109646Y-106629163D01*
X150109650Y-106629163D01*
X150205308Y-106619238D01*
X150205312Y-106619237D01*
X150212166Y-106618526D01*
X150218702Y-106616345D01*
X150218704Y-106616345D01*
X150372998Y-106564868D01*
X150379946Y-106562550D01*
X150530348Y-106469478D01*
X150655305Y-106344303D01*
X150682853Y-106299613D01*
X150739950Y-106206984D01*
X150792722Y-106159491D01*
X150847210Y-106147100D01*
X158486683Y-106147100D01*
X158554804Y-106167102D01*
G37*
G04 #@! TD.AperFunction*
G04 #@! TD*
G04 #@! TA.AperFunction,Conductor*
G04 #@! TO.N,GND*
G36*
X158475122Y-111399002D02*
G01*
X158521615Y-111452658D01*
X158533001Y-111505000D01*
X158533001Y-111552595D01*
X158533338Y-111559114D01*
X158543257Y-111654706D01*
X158546149Y-111668100D01*
X158597588Y-111822284D01*
X158603761Y-111835462D01*
X158689063Y-111973307D01*
X158698099Y-111984708D01*
X158812829Y-112099239D01*
X158824240Y-112108251D01*
X158962243Y-112193316D01*
X158975424Y-112199463D01*
X159129710Y-112250638D01*
X159143086Y-112253505D01*
X159237438Y-112263172D01*
X159243854Y-112263500D01*
X159493885Y-112263500D01*
X159509124Y-112259025D01*
X159510329Y-112257635D01*
X159512000Y-112249952D01*
X159512000Y-111379000D01*
X160020000Y-111379000D01*
X160020000Y-112245384D01*
X160024475Y-112260623D01*
X160025865Y-112261828D01*
X160033548Y-112263499D01*
X160288095Y-112263499D01*
X160294614Y-112263162D01*
X160390206Y-112253243D01*
X160403600Y-112250351D01*
X160557784Y-112198912D01*
X160570958Y-112192740D01*
X160589696Y-112181145D01*
X160658148Y-112162307D01*
X160725918Y-112183468D01*
X160771489Y-112237909D01*
X160782000Y-112288289D01*
X160782000Y-116660810D01*
X160761998Y-116728931D01*
X160745095Y-116749905D01*
X160056905Y-117438095D01*
X159994593Y-117472121D01*
X159967810Y-117475000D01*
X156972000Y-117475000D01*
X155448000Y-118999000D01*
X155448000Y-111379000D01*
X158407001Y-111379000D01*
X158475122Y-111399002D01*
G37*
G04 #@! TD.AperFunction*
G04 #@! TD*
G04 #@! TA.AperFunction,Conductor*
G04 #@! TO.N,GND*
G36*
X242506941Y-113988404D02*
G01*
X242533091Y-114287292D01*
X242534001Y-114291364D01*
X242534002Y-114291369D01*
X242597628Y-114576016D01*
X242598540Y-114580095D01*
X242702140Y-114861671D01*
X242704084Y-114865359D01*
X242704088Y-114865367D01*
X242800805Y-115048807D01*
X242842069Y-115127071D01*
X243015871Y-115371633D01*
X243220490Y-115591061D01*
X243452333Y-115781498D01*
X243707325Y-115939600D01*
X243980988Y-116062589D01*
X244106390Y-116099973D01*
X244264514Y-116147112D01*
X244264516Y-116147112D01*
X244268513Y-116148304D01*
X244272633Y-116148957D01*
X244272635Y-116148957D01*
X244391509Y-116167785D01*
X244564848Y-116195239D01*
X244607577Y-116197179D01*
X244657262Y-116199436D01*
X244657281Y-116199436D01*
X244658681Y-116199500D01*
X244846107Y-116199500D01*
X245069370Y-116184671D01*
X245073464Y-116183846D01*
X245073468Y-116183845D01*
X245214513Y-116155405D01*
X245363480Y-116125368D01*
X245647163Y-116027688D01*
X245650896Y-116025819D01*
X245650900Y-116025817D01*
X245911691Y-115895222D01*
X245911693Y-115895221D01*
X245915435Y-115893347D01*
X246163584Y-115724706D01*
X246387248Y-115524726D01*
X246417518Y-115489410D01*
X246579779Y-115300097D01*
X246579782Y-115300093D01*
X246582499Y-115296923D01*
X246584773Y-115293421D01*
X246584777Y-115293416D01*
X246743628Y-115048807D01*
X246743631Y-115048802D01*
X246745907Y-115045297D01*
X246874600Y-114774270D01*
X246966318Y-114488604D01*
X246998695Y-114308659D01*
X247018709Y-114197425D01*
X247018710Y-114197420D01*
X247019448Y-114193316D01*
X247020064Y-114179753D01*
X247031906Y-113919000D01*
X247904000Y-113919000D01*
X247904000Y-115400315D01*
X247883998Y-115468436D01*
X247867095Y-115489410D01*
X245244550Y-118111954D01*
X243074109Y-120282395D01*
X243011797Y-120316421D01*
X242985014Y-120319300D01*
X185258985Y-120319300D01*
X185190864Y-120299298D01*
X185169890Y-120282395D01*
X179339780Y-114452284D01*
X179333926Y-114446018D01*
X179300710Y-114407941D01*
X179300708Y-114407939D01*
X179295718Y-114402219D01*
X179243199Y-114365309D01*
X179237902Y-114361375D01*
X179193366Y-114326454D01*
X179193360Y-114326450D01*
X179187387Y-114321767D01*
X179180466Y-114318642D01*
X179178461Y-114317428D01*
X179163088Y-114308659D01*
X179161004Y-114307541D01*
X179154784Y-114303170D01*
X179147705Y-114300410D01*
X179147703Y-114300409D01*
X179094976Y-114279852D01*
X179088903Y-114277300D01*
X179030391Y-114250880D01*
X179022923Y-114249496D01*
X179020664Y-114248788D01*
X179003682Y-114243951D01*
X179001373Y-114243358D01*
X178994292Y-114240597D01*
X178986763Y-114239606D01*
X178986760Y-114239605D01*
X178930644Y-114232217D01*
X178924130Y-114231185D01*
X178868485Y-114220872D01*
X178868484Y-114220872D01*
X178861017Y-114219488D01*
X178853437Y-114219925D01*
X178853436Y-114219925D01*
X178798530Y-114223091D01*
X178791277Y-114223300D01*
X178405251Y-114223300D01*
X178337130Y-114203298D01*
X178322738Y-114192524D01*
X178308000Y-114179753D01*
X178308000Y-113919000D01*
X242510093Y-113919000D01*
X242506941Y-113988404D01*
G37*
G04 #@! TD.AperFunction*
G04 #@! TD*
G04 #@! TA.AperFunction,Conductor*
G04 #@! TO.N,Net-(J3-Pad2)*
G36*
X220922121Y-88793002D02*
G01*
X220968614Y-88846658D01*
X220980000Y-88899000D01*
X220980000Y-95759000D01*
X220959998Y-95827121D01*
X220906342Y-95873614D01*
X220854000Y-95885000D01*
X219547921Y-95885000D01*
X219479800Y-95864998D01*
X219433307Y-95811342D01*
X219422960Y-95748470D01*
X219422508Y-95748447D01*
X219422614Y-95746367D01*
X219422578Y-95746147D01*
X219422673Y-95745224D01*
X219423000Y-95738815D01*
X219423000Y-95677115D01*
X219418525Y-95661876D01*
X219417135Y-95660671D01*
X219409452Y-95659000D01*
X217475115Y-95659000D01*
X217459876Y-95663475D01*
X217458671Y-95664865D01*
X217457000Y-95672548D01*
X217457000Y-95738766D01*
X217457337Y-95745287D01*
X217457412Y-95746006D01*
X217457383Y-95746164D01*
X217457505Y-95748524D01*
X217456942Y-95748553D01*
X217444542Y-95815826D01*
X217395967Y-95867604D01*
X217332084Y-95885000D01*
X216026000Y-95885000D01*
X215957879Y-95864998D01*
X215911386Y-95811342D01*
X215900000Y-95759000D01*
X215900000Y-95132885D01*
X217457000Y-95132885D01*
X217461475Y-95148124D01*
X217462865Y-95149329D01*
X217470548Y-95151000D01*
X218167885Y-95151000D01*
X218183124Y-95146525D01*
X218184329Y-95145135D01*
X218186000Y-95137452D01*
X218186000Y-95132885D01*
X218694000Y-95132885D01*
X218698475Y-95148124D01*
X218699865Y-95149329D01*
X218707548Y-95151000D01*
X219404885Y-95151000D01*
X219420124Y-95146525D01*
X219421329Y-95145135D01*
X219423000Y-95137452D01*
X219423000Y-95071234D01*
X219422663Y-95064718D01*
X219412925Y-94970868D01*
X219410032Y-94957472D01*
X219359512Y-94806047D01*
X219353347Y-94792885D01*
X219269574Y-94657508D01*
X219260540Y-94646110D01*
X219147871Y-94533637D01*
X219136460Y-94524625D01*
X219000937Y-94441088D01*
X218987759Y-94434944D01*
X218836234Y-94384685D01*
X218822868Y-94381819D01*
X218730230Y-94372328D01*
X218723815Y-94372000D01*
X218712115Y-94372000D01*
X218696876Y-94376475D01*
X218695671Y-94377865D01*
X218694000Y-94385548D01*
X218694000Y-95132885D01*
X218186000Y-95132885D01*
X218186000Y-94390115D01*
X218181525Y-94374876D01*
X218180135Y-94373671D01*
X218172452Y-94372000D01*
X218156234Y-94372000D01*
X218149718Y-94372337D01*
X218055868Y-94382075D01*
X218042472Y-94384968D01*
X217891047Y-94435488D01*
X217877885Y-94441653D01*
X217742508Y-94525426D01*
X217731110Y-94534460D01*
X217618637Y-94647129D01*
X217609625Y-94658540D01*
X217526088Y-94794063D01*
X217519944Y-94807241D01*
X217469685Y-94958766D01*
X217466819Y-94972132D01*
X217457328Y-95064770D01*
X217457000Y-95071185D01*
X217457000Y-95132885D01*
X215900000Y-95132885D01*
X215900000Y-93133814D01*
X217103259Y-93133814D01*
X217110312Y-93143785D01*
X217159071Y-93184554D01*
X217166003Y-93189589D01*
X217407633Y-93341164D01*
X217415184Y-93345213D01*
X217675160Y-93462597D01*
X217683191Y-93465583D01*
X217956690Y-93546597D01*
X217965042Y-93548464D01*
X218247012Y-93591611D01*
X218255545Y-93592327D01*
X218540757Y-93596809D01*
X218549308Y-93596360D01*
X218832486Y-93562092D01*
X218840900Y-93560487D01*
X219116813Y-93488103D01*
X219124929Y-93485372D01*
X219388463Y-93376212D01*
X219396131Y-93372406D01*
X219642420Y-93228486D01*
X219649493Y-93223679D01*
X219751361Y-93143804D01*
X219759830Y-93131947D01*
X219753314Y-93120325D01*
X218444810Y-91811820D01*
X218430869Y-91804208D01*
X218429034Y-91804339D01*
X218422420Y-91808590D01*
X217110551Y-93120460D01*
X217103259Y-93133814D01*
X215900000Y-93133814D01*
X215900000Y-91421461D01*
X216272329Y-91421461D01*
X216288750Y-91706234D01*
X216289824Y-91714740D01*
X216344739Y-91994648D01*
X216346955Y-92002916D01*
X216439353Y-92272792D01*
X216442668Y-92280677D01*
X216570839Y-92535517D01*
X216575195Y-92542883D01*
X216725630Y-92761766D01*
X216735885Y-92770110D01*
X216749625Y-92762964D01*
X218059980Y-91452610D01*
X218066357Y-91440931D01*
X218796408Y-91440931D01*
X218796539Y-91442766D01*
X218800790Y-91449380D01*
X220112887Y-92761476D01*
X220125097Y-92768144D01*
X220136595Y-92759455D01*
X220253241Y-92600660D01*
X220257825Y-92593437D01*
X220393933Y-92342757D01*
X220397501Y-92334963D01*
X220498327Y-92068137D01*
X220500804Y-92059931D01*
X220564484Y-91781888D01*
X220565824Y-91773428D01*
X220591342Y-91487501D01*
X220591588Y-91482562D01*
X220592010Y-91442284D01*
X220591867Y-91437320D01*
X220572343Y-91150926D01*
X220571182Y-91142452D01*
X220513335Y-90863121D01*
X220511036Y-90854886D01*
X220415814Y-90585987D01*
X220412417Y-90578137D01*
X220281583Y-90324650D01*
X220277155Y-90317338D01*
X220137548Y-90118699D01*
X220127027Y-90110320D01*
X220113639Y-90117372D01*
X218804020Y-91426990D01*
X218796408Y-91440931D01*
X218066357Y-91440931D01*
X218067592Y-91438669D01*
X218067461Y-91436834D01*
X218063210Y-91430220D01*
X216750482Y-90117493D01*
X216738471Y-90110934D01*
X216726733Y-90119901D01*
X216598709Y-90298067D01*
X216594187Y-90305361D01*
X216460720Y-90557437D01*
X216457234Y-90565265D01*
X216359206Y-90833138D01*
X216356817Y-90841361D01*
X216296049Y-91120069D01*
X216294800Y-91128525D01*
X216272418Y-91412911D01*
X216272329Y-91421461D01*
X215900000Y-91421461D01*
X215900000Y-89747723D01*
X217104006Y-89747723D01*
X217110401Y-89758990D01*
X218419190Y-91067780D01*
X218433131Y-91075392D01*
X218434966Y-91075261D01*
X218441580Y-91071010D01*
X219753066Y-89759523D01*
X219760258Y-89746353D01*
X219752936Y-89736118D01*
X219686586Y-89681810D01*
X219679614Y-89676856D01*
X219436386Y-89527804D01*
X219428816Y-89523847D01*
X219167615Y-89409189D01*
X219159555Y-89406287D01*
X218885225Y-89328142D01*
X218876850Y-89326362D01*
X218594449Y-89286170D01*
X218585901Y-89285542D01*
X218300656Y-89284048D01*
X218292122Y-89284585D01*
X218009309Y-89321819D01*
X218000911Y-89323512D01*
X217725775Y-89398781D01*
X217717688Y-89401597D01*
X217455316Y-89513508D01*
X217447677Y-89517401D01*
X217202920Y-89663884D01*
X217195891Y-89668769D01*
X217112475Y-89735599D01*
X217104006Y-89747723D01*
X215900000Y-89747723D01*
X215900000Y-88899000D01*
X215920002Y-88830879D01*
X215973658Y-88784386D01*
X216026000Y-88773000D01*
X220854000Y-88773000D01*
X220922121Y-88793002D01*
G37*
G04 #@! TD.AperFunction*
G04 #@! TD*
G04 #@! TA.AperFunction,Conductor*
G04 #@! TO.N,GND*
G36*
X170984120Y-110637002D02*
G01*
X171005094Y-110653905D01*
X174013072Y-113661883D01*
X174020188Y-113669701D01*
X174024174Y-113675983D01*
X174029954Y-113681411D01*
X174029955Y-113681412D01*
X174071947Y-113720845D01*
X174074789Y-113723600D01*
X174093735Y-113742546D01*
X174096874Y-113744981D01*
X174097524Y-113745554D01*
X174105655Y-113752501D01*
X174130759Y-113776074D01*
X174130762Y-113776076D01*
X174136542Y-113781504D01*
X174143487Y-113785322D01*
X174143490Y-113785324D01*
X174153320Y-113790728D01*
X174169847Y-113801584D01*
X174184966Y-113813312D01*
X174223660Y-113830056D01*
X174223835Y-113830132D01*
X174234496Y-113835354D01*
X174271622Y-113855765D01*
X174279301Y-113857737D01*
X174279302Y-113857737D01*
X174290161Y-113860525D01*
X174308866Y-113866929D01*
X174326434Y-113874531D01*
X174334266Y-113875771D01*
X174334271Y-113875773D01*
X174368279Y-113881160D01*
X174379892Y-113883564D01*
X174420926Y-113894100D01*
X174440063Y-113894100D01*
X174459774Y-113895651D01*
X174470854Y-113897406D01*
X174470856Y-113897406D01*
X174478684Y-113898646D01*
X174520860Y-113894659D01*
X174532719Y-113894100D01*
X184658000Y-113894100D01*
X184658000Y-114173000D01*
X169216190Y-114173000D01*
X169148069Y-114152998D01*
X169127095Y-114136095D01*
X168184905Y-113193905D01*
X168150879Y-113131593D01*
X168148000Y-113104810D01*
X168148000Y-111431190D01*
X168168002Y-111363069D01*
X168184905Y-111342095D01*
X168873095Y-110653905D01*
X168935407Y-110619879D01*
X168962190Y-110617000D01*
X170915999Y-110617000D01*
X170984120Y-110637002D01*
G37*
G04 #@! TD.AperFunction*
G04 #@! TD*
G04 #@! TA.AperFunction,Conductor*
G04 #@! TO.N,+5V*
G36*
X149860000Y-112903000D02*
G01*
X149860000Y-110617000D01*
X152146000Y-110617000D01*
X149860000Y-112903000D01*
G37*
G04 #@! TD.AperFunction*
G04 #@! TD*
G04 #@! TA.AperFunction,Conductor*
G04 #@! TO.N,+3.3V*
G36*
X162774216Y-96921002D02*
G01*
X162804840Y-96948735D01*
X162908652Y-97079712D01*
X162913346Y-97083707D01*
X163033638Y-97186084D01*
X163050978Y-97200842D01*
X163214121Y-97292019D01*
X163391867Y-97349772D01*
X163577445Y-97371901D01*
X163583580Y-97371429D01*
X163583582Y-97371429D01*
X163639619Y-97367117D01*
X163763787Y-97357563D01*
X163943796Y-97307304D01*
X163949285Y-97304531D01*
X163949291Y-97304529D01*
X164104061Y-97226348D01*
X164110614Y-97223038D01*
X164116297Y-97218598D01*
X164116805Y-97218396D01*
X164120669Y-97215944D01*
X164121135Y-97216678D01*
X164182288Y-97192419D01*
X164251959Y-97206073D01*
X164282890Y-97228712D01*
X164405697Y-97351305D01*
X164411927Y-97355145D01*
X164411928Y-97355146D01*
X164549090Y-97439694D01*
X164556262Y-97444115D01*
X164636005Y-97470564D01*
X164717611Y-97497632D01*
X164717613Y-97497632D01*
X164724139Y-97499797D01*
X164730975Y-97500497D01*
X164730978Y-97500498D01*
X164774031Y-97504909D01*
X164828600Y-97510500D01*
X165879400Y-97510500D01*
X165882646Y-97510163D01*
X165882650Y-97510163D01*
X165978308Y-97500238D01*
X165978312Y-97500237D01*
X165985166Y-97499526D01*
X165991702Y-97497345D01*
X165991704Y-97497345D01*
X166123806Y-97453272D01*
X166152946Y-97443550D01*
X166303348Y-97350478D01*
X166428305Y-97225303D01*
X166432438Y-97218599D01*
X166452480Y-97186084D01*
X166505252Y-97138591D01*
X166559740Y-97126200D01*
X166624000Y-97126200D01*
X166624000Y-98475300D01*
X166408462Y-98475300D01*
X166340341Y-98455298D01*
X166332897Y-98450126D01*
X166313703Y-98435741D01*
X166281205Y-98411385D01*
X166144816Y-98360255D01*
X166082634Y-98353500D01*
X164461366Y-98353500D01*
X164399184Y-98360255D01*
X164262795Y-98411385D01*
X164146239Y-98498739D01*
X164058885Y-98615295D01*
X164035003Y-98679000D01*
X161084463Y-98679000D01*
X161063824Y-98623946D01*
X161055286Y-98608351D01*
X160978785Y-98506276D01*
X160966224Y-98493715D01*
X160864149Y-98417214D01*
X160848554Y-98408676D01*
X160728106Y-98363522D01*
X160712851Y-98359895D01*
X160661986Y-98354369D01*
X160655172Y-98354000D01*
X160120115Y-98354000D01*
X160104876Y-98358475D01*
X160103671Y-98359865D01*
X160102000Y-98367548D01*
X160102000Y-98679000D01*
X159594000Y-98679000D01*
X159594000Y-98372116D01*
X159589525Y-98356877D01*
X159588135Y-98355672D01*
X159580452Y-98354001D01*
X159125189Y-98354001D01*
X159057068Y-98333999D01*
X159010575Y-98280343D01*
X159000471Y-98210069D01*
X159029965Y-98145489D01*
X159036094Y-98138906D01*
X160237095Y-96937905D01*
X160299407Y-96903879D01*
X160326190Y-96901000D01*
X162706095Y-96901000D01*
X162774216Y-96921002D01*
G37*
G04 #@! TD.AperFunction*
G04 #@! TD*
G04 #@! TA.AperFunction,Conductor*
G04 #@! TO.N,Net-(J2-Pad2)*
G36*
X200094121Y-88793002D02*
G01*
X200140614Y-88846658D01*
X200152000Y-88899000D01*
X200152000Y-95759000D01*
X200131998Y-95827121D01*
X200078342Y-95873614D01*
X200026000Y-95885000D01*
X198719921Y-95885000D01*
X198651800Y-95864998D01*
X198605307Y-95811342D01*
X198594960Y-95748470D01*
X198594508Y-95748447D01*
X198594614Y-95746367D01*
X198594578Y-95746147D01*
X198594673Y-95745224D01*
X198595000Y-95738815D01*
X198595000Y-95677115D01*
X198590525Y-95661876D01*
X198589135Y-95660671D01*
X198581452Y-95659000D01*
X196647115Y-95659000D01*
X196631876Y-95663475D01*
X196630671Y-95664865D01*
X196629000Y-95672548D01*
X196629000Y-95738766D01*
X196629337Y-95745287D01*
X196629412Y-95746006D01*
X196629383Y-95746164D01*
X196629505Y-95748524D01*
X196628942Y-95748553D01*
X196616542Y-95815826D01*
X196567967Y-95867604D01*
X196504084Y-95885000D01*
X195198000Y-95885000D01*
X195129879Y-95864998D01*
X195083386Y-95811342D01*
X195072000Y-95759000D01*
X195072000Y-95132885D01*
X196629000Y-95132885D01*
X196633475Y-95148124D01*
X196634865Y-95149329D01*
X196642548Y-95151000D01*
X197339885Y-95151000D01*
X197355124Y-95146525D01*
X197356329Y-95145135D01*
X197358000Y-95137452D01*
X197358000Y-95132885D01*
X197866000Y-95132885D01*
X197870475Y-95148124D01*
X197871865Y-95149329D01*
X197879548Y-95151000D01*
X198576885Y-95151000D01*
X198592124Y-95146525D01*
X198593329Y-95145135D01*
X198595000Y-95137452D01*
X198595000Y-95071234D01*
X198594663Y-95064718D01*
X198584925Y-94970868D01*
X198582032Y-94957472D01*
X198531512Y-94806047D01*
X198525347Y-94792885D01*
X198441574Y-94657508D01*
X198432540Y-94646110D01*
X198319871Y-94533637D01*
X198308460Y-94524625D01*
X198172937Y-94441088D01*
X198159759Y-94434944D01*
X198008234Y-94384685D01*
X197994868Y-94381819D01*
X197902230Y-94372328D01*
X197895815Y-94372000D01*
X197884115Y-94372000D01*
X197868876Y-94376475D01*
X197867671Y-94377865D01*
X197866000Y-94385548D01*
X197866000Y-95132885D01*
X197358000Y-95132885D01*
X197358000Y-94390115D01*
X197353525Y-94374876D01*
X197352135Y-94373671D01*
X197344452Y-94372000D01*
X197328234Y-94372000D01*
X197321718Y-94372337D01*
X197227868Y-94382075D01*
X197214472Y-94384968D01*
X197063047Y-94435488D01*
X197049885Y-94441653D01*
X196914508Y-94525426D01*
X196903110Y-94534460D01*
X196790637Y-94647129D01*
X196781625Y-94658540D01*
X196698088Y-94794063D01*
X196691944Y-94807241D01*
X196641685Y-94958766D01*
X196638819Y-94972132D01*
X196629328Y-95064770D01*
X196629000Y-95071185D01*
X196629000Y-95132885D01*
X195072000Y-95132885D01*
X195072000Y-93153014D01*
X196275259Y-93153014D01*
X196282312Y-93162985D01*
X196331071Y-93203754D01*
X196338003Y-93208789D01*
X196579633Y-93360364D01*
X196587184Y-93364413D01*
X196847160Y-93481797D01*
X196855191Y-93484783D01*
X197128690Y-93565797D01*
X197137042Y-93567664D01*
X197419012Y-93610811D01*
X197427545Y-93611527D01*
X197712757Y-93616009D01*
X197721308Y-93615560D01*
X198004486Y-93581292D01*
X198012900Y-93579687D01*
X198288813Y-93507303D01*
X198296929Y-93504572D01*
X198560463Y-93395412D01*
X198568131Y-93391606D01*
X198814420Y-93247686D01*
X198821493Y-93242879D01*
X198923361Y-93163004D01*
X198931830Y-93151147D01*
X198925314Y-93139525D01*
X197616810Y-91831020D01*
X197602869Y-91823408D01*
X197601034Y-91823539D01*
X197594420Y-91827790D01*
X196282551Y-93139660D01*
X196275259Y-93153014D01*
X195072000Y-93153014D01*
X195072000Y-91440661D01*
X195444329Y-91440661D01*
X195460750Y-91725434D01*
X195461824Y-91733940D01*
X195516739Y-92013848D01*
X195518955Y-92022116D01*
X195611353Y-92291992D01*
X195614668Y-92299877D01*
X195742839Y-92554717D01*
X195747195Y-92562083D01*
X195897630Y-92780966D01*
X195907885Y-92789310D01*
X195921625Y-92782164D01*
X197231980Y-91471810D01*
X197238357Y-91460131D01*
X197968408Y-91460131D01*
X197968539Y-91461966D01*
X197972790Y-91468580D01*
X199284887Y-92780676D01*
X199297097Y-92787344D01*
X199308595Y-92778655D01*
X199425241Y-92619860D01*
X199429825Y-92612637D01*
X199565933Y-92361957D01*
X199569501Y-92354163D01*
X199670327Y-92087337D01*
X199672804Y-92079131D01*
X199736484Y-91801088D01*
X199737824Y-91792628D01*
X199763342Y-91506701D01*
X199763588Y-91501762D01*
X199764010Y-91461484D01*
X199763867Y-91456520D01*
X199744343Y-91170126D01*
X199743182Y-91161652D01*
X199685335Y-90882321D01*
X199683036Y-90874086D01*
X199587814Y-90605187D01*
X199584417Y-90597337D01*
X199453583Y-90343850D01*
X199449155Y-90336538D01*
X199309548Y-90137899D01*
X199299027Y-90129520D01*
X199285639Y-90136572D01*
X197976020Y-91446190D01*
X197968408Y-91460131D01*
X197238357Y-91460131D01*
X197239592Y-91457869D01*
X197239461Y-91456034D01*
X197235210Y-91449420D01*
X195922482Y-90136693D01*
X195910471Y-90130134D01*
X195898733Y-90139101D01*
X195770709Y-90317267D01*
X195766187Y-90324561D01*
X195632720Y-90576637D01*
X195629234Y-90584465D01*
X195531206Y-90852338D01*
X195528817Y-90860561D01*
X195468049Y-91139269D01*
X195466800Y-91147725D01*
X195444418Y-91432111D01*
X195444329Y-91440661D01*
X195072000Y-91440661D01*
X195072000Y-89766923D01*
X196276006Y-89766923D01*
X196282401Y-89778190D01*
X197591190Y-91086980D01*
X197605131Y-91094592D01*
X197606966Y-91094461D01*
X197613580Y-91090210D01*
X198925066Y-89778723D01*
X198932258Y-89765553D01*
X198924936Y-89755318D01*
X198858586Y-89701010D01*
X198851614Y-89696056D01*
X198608386Y-89547004D01*
X198600816Y-89543047D01*
X198339615Y-89428389D01*
X198331555Y-89425487D01*
X198057225Y-89347342D01*
X198048850Y-89345562D01*
X197766449Y-89305370D01*
X197757901Y-89304742D01*
X197472656Y-89303248D01*
X197464122Y-89303785D01*
X197181309Y-89341019D01*
X197172911Y-89342712D01*
X196897775Y-89417981D01*
X196889688Y-89420797D01*
X196627316Y-89532708D01*
X196619677Y-89536601D01*
X196374920Y-89683084D01*
X196367891Y-89687969D01*
X196284475Y-89754799D01*
X196276006Y-89766923D01*
X195072000Y-89766923D01*
X195072000Y-88899000D01*
X195092002Y-88830879D01*
X195145658Y-88784386D01*
X195198000Y-88773000D01*
X200026000Y-88773000D01*
X200094121Y-88793002D01*
G37*
G04 #@! TD.AperFunction*
G04 #@! TD*
G04 #@! TA.AperFunction,Conductor*
G04 #@! TO.N,+3.3V*
G36*
X164007755Y-98751684D02*
G01*
X164001000Y-98813866D01*
X164001000Y-99560134D01*
X164007755Y-99622316D01*
X164058885Y-99758705D01*
X164062227Y-99763164D01*
X164077030Y-99830848D01*
X164062433Y-99880561D01*
X164058885Y-99885295D01*
X164055736Y-99893696D01*
X164055734Y-99893699D01*
X164025476Y-99974414D01*
X164007755Y-100021684D01*
X164001000Y-100083866D01*
X164001000Y-100830134D01*
X164007755Y-100892316D01*
X164058885Y-101028705D01*
X164062227Y-101033164D01*
X164077030Y-101100848D01*
X164062433Y-101150561D01*
X164058885Y-101155295D01*
X164007755Y-101291684D01*
X164001000Y-101353866D01*
X164001000Y-102100134D01*
X164007755Y-102162316D01*
X164058885Y-102298705D01*
X164062227Y-102303164D01*
X164077030Y-102370848D01*
X164062433Y-102420561D01*
X164058885Y-102425295D01*
X164007755Y-102561684D01*
X164001000Y-102623866D01*
X164001000Y-103370134D01*
X164007755Y-103432316D01*
X164010529Y-103439715D01*
X164037940Y-103512833D01*
X164058885Y-103568705D01*
X164062227Y-103573164D01*
X164077030Y-103640848D01*
X164062433Y-103690561D01*
X164058885Y-103695295D01*
X164007755Y-103831684D01*
X164001000Y-103893866D01*
X164001000Y-104640134D01*
X164007755Y-104702316D01*
X164058885Y-104838705D01*
X164062227Y-104843164D01*
X164077030Y-104910848D01*
X164062433Y-104960561D01*
X164058885Y-104965295D01*
X164055736Y-104973696D01*
X164055734Y-104973699D01*
X164046581Y-104998116D01*
X164007755Y-105101684D01*
X164001000Y-105163866D01*
X164001000Y-105910134D01*
X164007755Y-105972316D01*
X164058885Y-106108705D01*
X164062471Y-106113490D01*
X164077318Y-106181374D01*
X164062149Y-106233035D01*
X164056177Y-106243942D01*
X164011022Y-106364394D01*
X164007395Y-106379649D01*
X164001869Y-106430514D01*
X164001500Y-106437328D01*
X164001500Y-106534885D01*
X164005975Y-106550124D01*
X164007365Y-106551329D01*
X164015048Y-106553000D01*
X166524384Y-106553000D01*
X166539623Y-106548525D01*
X166540828Y-106547135D01*
X166542499Y-106539452D01*
X166542499Y-106521689D01*
X166562501Y-106453568D01*
X166616157Y-106407075D01*
X166624000Y-106405947D01*
X166624000Y-110871000D01*
X166587500Y-110871000D01*
X166587500Y-110737100D01*
X166576526Y-110631334D01*
X166520550Y-110463554D01*
X166427478Y-110313152D01*
X166302303Y-110188195D01*
X166297765Y-110185398D01*
X166257176Y-110128147D01*
X166253946Y-110057224D01*
X166289572Y-109995813D01*
X166298068Y-109988438D01*
X166308207Y-109980402D01*
X166422739Y-109865671D01*
X166431751Y-109854260D01*
X166516816Y-109716257D01*
X166522963Y-109703076D01*
X166574138Y-109548790D01*
X166577005Y-109535414D01*
X166586672Y-109441062D01*
X166587000Y-109434646D01*
X166587000Y-109322115D01*
X166582525Y-109306876D01*
X166581135Y-109305671D01*
X166573452Y-109304000D01*
X164139116Y-109304000D01*
X164123877Y-109308475D01*
X164122672Y-109309865D01*
X164121001Y-109317548D01*
X164121001Y-109434595D01*
X164121338Y-109441114D01*
X164131257Y-109536706D01*
X164134149Y-109550100D01*
X164185588Y-109704284D01*
X164191761Y-109717462D01*
X164277063Y-109855307D01*
X164286099Y-109866708D01*
X164400828Y-109981238D01*
X164409762Y-109988294D01*
X164450823Y-110046212D01*
X164454053Y-110117135D01*
X164418426Y-110178546D01*
X164410593Y-110185346D01*
X164404652Y-110189022D01*
X164279695Y-110314197D01*
X164186885Y-110464762D01*
X164131203Y-110632639D01*
X164120500Y-110737100D01*
X164120500Y-110871000D01*
X161290000Y-110871000D01*
X161290000Y-108777885D01*
X164121000Y-108777885D01*
X164125475Y-108793124D01*
X164126865Y-108794329D01*
X164134548Y-108796000D01*
X165081885Y-108796000D01*
X165097124Y-108791525D01*
X165098329Y-108790135D01*
X165100000Y-108782452D01*
X165100000Y-108777885D01*
X165608000Y-108777885D01*
X165612475Y-108793124D01*
X165613865Y-108794329D01*
X165621548Y-108796000D01*
X166568884Y-108796000D01*
X166584123Y-108791525D01*
X166585328Y-108790135D01*
X166586999Y-108782452D01*
X166586999Y-108665405D01*
X166586662Y-108658886D01*
X166576743Y-108563294D01*
X166573851Y-108549900D01*
X166522412Y-108395716D01*
X166516239Y-108382538D01*
X166430937Y-108244693D01*
X166421901Y-108233292D01*
X166307171Y-108118761D01*
X166295760Y-108109749D01*
X166157757Y-108024684D01*
X166144576Y-108018537D01*
X165990290Y-107967362D01*
X165976914Y-107964495D01*
X165882562Y-107954828D01*
X165876145Y-107954500D01*
X165626115Y-107954500D01*
X165610876Y-107958975D01*
X165609671Y-107960365D01*
X165608000Y-107968048D01*
X165608000Y-108777885D01*
X165100000Y-108777885D01*
X165100000Y-107972616D01*
X165095525Y-107957377D01*
X165094135Y-107956172D01*
X165086452Y-107954501D01*
X164831905Y-107954501D01*
X164825386Y-107954838D01*
X164729794Y-107964757D01*
X164716400Y-107967649D01*
X164562216Y-108019088D01*
X164549038Y-108025261D01*
X164411193Y-108110563D01*
X164399792Y-108119599D01*
X164285261Y-108234329D01*
X164276249Y-108245740D01*
X164191184Y-108383743D01*
X164185037Y-108396924D01*
X164133862Y-108551210D01*
X164130995Y-108564586D01*
X164121328Y-108658938D01*
X164121000Y-108665355D01*
X164121000Y-108777885D01*
X161290000Y-108777885D01*
X161290000Y-107176669D01*
X164001501Y-107176669D01*
X164001871Y-107183490D01*
X164007395Y-107234352D01*
X164011021Y-107249604D01*
X164056176Y-107370054D01*
X164064714Y-107385649D01*
X164141215Y-107487724D01*
X164153776Y-107500285D01*
X164255851Y-107576786D01*
X164271446Y-107585324D01*
X164391894Y-107630478D01*
X164407149Y-107634105D01*
X164458014Y-107639631D01*
X164464828Y-107640000D01*
X164999885Y-107640000D01*
X165015124Y-107635525D01*
X165016329Y-107634135D01*
X165018000Y-107626452D01*
X165018000Y-107621884D01*
X165526000Y-107621884D01*
X165530475Y-107637123D01*
X165531865Y-107638328D01*
X165539548Y-107639999D01*
X166079169Y-107639999D01*
X166085990Y-107639629D01*
X166136852Y-107634105D01*
X166152104Y-107630479D01*
X166272554Y-107585324D01*
X166288149Y-107576786D01*
X166390224Y-107500285D01*
X166402785Y-107487724D01*
X166479286Y-107385649D01*
X166487824Y-107370054D01*
X166532978Y-107249606D01*
X166536605Y-107234351D01*
X166542131Y-107183486D01*
X166542500Y-107176672D01*
X166542500Y-107079115D01*
X166538025Y-107063876D01*
X166536635Y-107062671D01*
X166528952Y-107061000D01*
X165544115Y-107061000D01*
X165528876Y-107065475D01*
X165527671Y-107066865D01*
X165526000Y-107074548D01*
X165526000Y-107621884D01*
X165018000Y-107621884D01*
X165018000Y-107079115D01*
X165013525Y-107063876D01*
X165012135Y-107062671D01*
X165004452Y-107061000D01*
X164019616Y-107061000D01*
X164004377Y-107065475D01*
X164003172Y-107066865D01*
X164001501Y-107074548D01*
X164001501Y-107176669D01*
X161290000Y-107176669D01*
X161290000Y-101219000D01*
X161169206Y-101219000D01*
X161101085Y-101198998D01*
X161061619Y-101156640D01*
X161061115Y-101155295D01*
X161057754Y-101150811D01*
X161042973Y-101083104D01*
X161057566Y-101033440D01*
X161061115Y-101028705D01*
X161112245Y-100892316D01*
X161119000Y-100830134D01*
X161119000Y-100083866D01*
X161112245Y-100021684D01*
X161094524Y-99974414D01*
X161064266Y-99893699D01*
X161064264Y-99893696D01*
X161061115Y-99885295D01*
X161057529Y-99880510D01*
X161042682Y-99812626D01*
X161057851Y-99760965D01*
X161063823Y-99750058D01*
X161108978Y-99629606D01*
X161112605Y-99614351D01*
X161118131Y-99563486D01*
X161118500Y-99556672D01*
X161118500Y-99459115D01*
X161114025Y-99443876D01*
X161112635Y-99442671D01*
X161104952Y-99441000D01*
X159720000Y-99441000D01*
X159651879Y-99420998D01*
X159605386Y-99367342D01*
X159594000Y-99315000D01*
X159594000Y-99059000D01*
X159614002Y-98990879D01*
X159667658Y-98944386D01*
X159720000Y-98933000D01*
X161100384Y-98933000D01*
X161115623Y-98928525D01*
X161116828Y-98927135D01*
X161118499Y-98919452D01*
X161118499Y-98817331D01*
X161118129Y-98810510D01*
X161112605Y-98759648D01*
X161108979Y-98744396D01*
X161084463Y-98679000D01*
X164035003Y-98679000D01*
X164007755Y-98751684D01*
G37*
G04 #@! TD.AperFunction*
G04 #@! TD*
G04 #@! TA.AperFunction,Conductor*
G04 #@! TO.N,+5V*
G36*
X134597628Y-114576016D02*
G01*
X134598540Y-114580095D01*
X134702140Y-114861671D01*
X134704084Y-114865359D01*
X134704088Y-114865367D01*
X134800805Y-115048807D01*
X134842069Y-115127071D01*
X135015871Y-115371633D01*
X135220490Y-115591061D01*
X135452333Y-115781498D01*
X135707325Y-115939600D01*
X135980988Y-116062589D01*
X136155368Y-116114574D01*
X136264514Y-116147112D01*
X136264516Y-116147112D01*
X136268513Y-116148304D01*
X136272633Y-116148957D01*
X136272635Y-116148957D01*
X136391509Y-116167785D01*
X136564848Y-116195239D01*
X136607577Y-116197179D01*
X136657262Y-116199436D01*
X136657281Y-116199436D01*
X136658681Y-116199500D01*
X136846107Y-116199500D01*
X137069370Y-116184671D01*
X137073464Y-116183846D01*
X137073468Y-116183845D01*
X137214513Y-116155405D01*
X137363480Y-116125368D01*
X137647163Y-116027688D01*
X137650896Y-116025819D01*
X137650900Y-116025817D01*
X137911691Y-115895222D01*
X137911693Y-115895221D01*
X137915435Y-115893347D01*
X138163584Y-115724706D01*
X138387248Y-115524726D01*
X138389966Y-115521555D01*
X138579779Y-115300097D01*
X138579782Y-115300093D01*
X138582499Y-115296923D01*
X138584773Y-115293421D01*
X138584777Y-115293416D01*
X138743628Y-115048807D01*
X138743631Y-115048802D01*
X138745907Y-115045297D01*
X138874600Y-114774270D01*
X138966318Y-114488604D01*
X138977402Y-114427000D01*
X150114000Y-114427000D01*
X150114000Y-122468100D01*
X150093998Y-122536221D01*
X150040342Y-122582714D01*
X149970068Y-122592818D01*
X149912787Y-122569189D01*
X149827666Y-122505857D01*
X149818634Y-122500257D01*
X149620653Y-122399598D01*
X149610792Y-122395595D01*
X149398699Y-122329737D01*
X149388304Y-122327452D01*
X149369959Y-122325020D01*
X149355792Y-122327217D01*
X149352000Y-122340401D01*
X149352000Y-125307488D01*
X149355973Y-125321019D01*
X149366580Y-125322544D01*
X149488343Y-125296996D01*
X149498539Y-125293936D01*
X149705097Y-125212363D01*
X149714634Y-125207629D01*
X149904503Y-125092414D01*
X149913762Y-125085662D01*
X149980588Y-125061687D01*
X150049768Y-125077647D01*
X150099336Y-125128475D01*
X150114000Y-125187469D01*
X150114000Y-125730500D01*
X150093998Y-125798621D01*
X150040342Y-125845114D01*
X149988000Y-125856500D01*
X147954000Y-125856500D01*
X147885879Y-125836498D01*
X147839386Y-125782842D01*
X147828000Y-125730500D01*
X147828000Y-124947868D01*
X147848002Y-124879747D01*
X147901658Y-124833254D01*
X147971932Y-124823150D01*
X148036512Y-124852644D01*
X148045170Y-124860897D01*
X148182174Y-125004515D01*
X148190148Y-125011569D01*
X148368336Y-125144144D01*
X148377366Y-125149743D01*
X148575347Y-125250402D01*
X148585208Y-125254405D01*
X148797301Y-125320263D01*
X148807696Y-125322548D01*
X148826041Y-125324980D01*
X148840208Y-125322783D01*
X148844000Y-125309599D01*
X148844000Y-122342512D01*
X148840027Y-122328981D01*
X148829420Y-122327456D01*
X148707657Y-122353004D01*
X148697461Y-122356064D01*
X148490903Y-122437637D01*
X148481366Y-122442371D01*
X148291497Y-122557586D01*
X148282907Y-122563850D01*
X148115163Y-122709411D01*
X148107743Y-122717041D01*
X148051434Y-122785716D01*
X147992775Y-122825710D01*
X147921805Y-122827642D01*
X147861056Y-122790898D01*
X147829817Y-122727144D01*
X147828000Y-122705825D01*
X147828000Y-117729000D01*
X126762753Y-117729000D01*
X126748879Y-117703593D01*
X126746000Y-117676810D01*
X126746000Y-114427000D01*
X134564319Y-114427000D01*
X134597628Y-114576016D01*
G37*
G04 #@! TD.AperFunction*
G04 #@! TD*
G04 #@! TA.AperFunction,Conductor*
G04 #@! TO.N,+5V*
G36*
X148082000Y-120015000D02*
G01*
X146558000Y-118491000D01*
X127560190Y-118491000D01*
X127492069Y-118470998D01*
X127471095Y-118454095D01*
X126782905Y-117765905D01*
X126748879Y-117703593D01*
X126746000Y-117676810D01*
X126746000Y-117475000D01*
X148082000Y-117475000D01*
X148082000Y-120015000D01*
G37*
G04 #@! TD.AperFunction*
G04 #@! TD*
G04 #@! TA.AperFunction,Conductor*
G04 #@! TO.N,+5V*
G36*
X164208121Y-91587002D02*
G01*
X164254614Y-91640658D01*
X164266000Y-91693000D01*
X164266000Y-91736885D01*
X164270475Y-91752124D01*
X164271865Y-91753329D01*
X164279548Y-91755000D01*
X164412447Y-91755000D01*
X164480568Y-91775002D01*
X164488012Y-91780174D01*
X164527295Y-91809615D01*
X164663684Y-91860745D01*
X164725866Y-91867500D01*
X165276542Y-91867500D01*
X165292334Y-91868494D01*
X165318527Y-91871803D01*
X165318544Y-91871804D01*
X165322470Y-91872300D01*
X165502000Y-91872300D01*
X165570121Y-91892302D01*
X165616614Y-91945958D01*
X165628000Y-91998300D01*
X165628000Y-92798884D01*
X165632475Y-92814123D01*
X165633865Y-92815328D01*
X165641548Y-92816999D01*
X165736000Y-92816999D01*
X165804121Y-92837001D01*
X165850614Y-92890657D01*
X165862000Y-92942999D01*
X165862000Y-93118000D01*
X165841998Y-93186121D01*
X165788342Y-93232614D01*
X165736000Y-93244000D01*
X165626115Y-93244000D01*
X165610876Y-93248475D01*
X165609671Y-93249865D01*
X165608000Y-93257548D01*
X165608000Y-94467500D01*
X165587998Y-94535621D01*
X165534342Y-94582114D01*
X165482000Y-94593500D01*
X164139116Y-94593500D01*
X164123877Y-94597975D01*
X164122672Y-94599365D01*
X164121001Y-94607048D01*
X164121001Y-94724095D01*
X164121338Y-94730614D01*
X164131257Y-94826206D01*
X164134149Y-94839600D01*
X164185588Y-94993784D01*
X164191761Y-95006962D01*
X164277063Y-95144807D01*
X164286099Y-95156208D01*
X164400828Y-95270738D01*
X164409762Y-95277794D01*
X164450823Y-95335712D01*
X164454053Y-95406635D01*
X164418426Y-95468046D01*
X164410593Y-95474846D01*
X164404652Y-95478522D01*
X164399479Y-95483704D01*
X164283588Y-95599797D01*
X164221305Y-95633876D01*
X164150485Y-95628873D01*
X164133296Y-95620037D01*
X164132989Y-95620605D01*
X163968589Y-95531714D01*
X163874376Y-95502550D01*
X163795941Y-95478270D01*
X163795938Y-95478269D01*
X163790054Y-95476448D01*
X163783929Y-95475804D01*
X163783928Y-95475804D01*
X163610313Y-95457556D01*
X163610312Y-95457556D01*
X163604185Y-95456912D01*
X163485587Y-95467706D01*
X163424203Y-95473292D01*
X163424202Y-95473292D01*
X163418062Y-95473851D01*
X163412148Y-95475592D01*
X163412146Y-95475592D01*
X163320552Y-95502550D01*
X163238773Y-95526619D01*
X163073147Y-95613205D01*
X162927495Y-95730313D01*
X162807362Y-95873481D01*
X162804399Y-95878870D01*
X162804396Y-95878875D01*
X162770039Y-95941372D01*
X162717326Y-96037257D01*
X162660815Y-96215401D01*
X162660129Y-96221519D01*
X162653452Y-96281045D01*
X162625981Y-96346511D01*
X162567478Y-96386734D01*
X162528237Y-96393000D01*
X160020000Y-96393000D01*
X158322914Y-98090086D01*
X158260602Y-98124112D01*
X158189787Y-98119047D01*
X158132951Y-98076500D01*
X158119320Y-98050468D01*
X158118517Y-98050844D01*
X158109239Y-98031038D01*
X158023937Y-97893193D01*
X158014901Y-97881792D01*
X157900171Y-97767261D01*
X157888760Y-97758249D01*
X157750757Y-97673184D01*
X157737576Y-97667037D01*
X157583290Y-97615862D01*
X157569914Y-97612995D01*
X157475562Y-97603328D01*
X157469145Y-97603000D01*
X157244115Y-97603000D01*
X157228876Y-97607475D01*
X157227671Y-97608865D01*
X157226000Y-97616548D01*
X157226000Y-98839000D01*
X157205998Y-98907121D01*
X157152342Y-98953614D01*
X157100000Y-98965000D01*
X155782116Y-98965000D01*
X155766877Y-98969475D01*
X155765672Y-98970865D01*
X155764001Y-98978548D01*
X155764001Y-99108095D01*
X155764338Y-99114614D01*
X155774257Y-99210206D01*
X155777150Y-99223607D01*
X155787106Y-99253449D01*
X155789690Y-99324398D01*
X155753505Y-99385482D01*
X155690040Y-99417305D01*
X155619445Y-99409765D01*
X155578564Y-99382496D01*
X155487171Y-99291261D01*
X155475760Y-99282249D01*
X155337757Y-99197184D01*
X155324576Y-99191037D01*
X155170290Y-99139862D01*
X155156914Y-99136995D01*
X155062562Y-99127328D01*
X155056145Y-99127000D01*
X154831115Y-99127000D01*
X154815876Y-99131475D01*
X154814671Y-99132865D01*
X154813000Y-99140548D01*
X154813000Y-100363000D01*
X154792998Y-100431121D01*
X154739342Y-100477614D01*
X154687000Y-100489000D01*
X153369116Y-100489000D01*
X153353877Y-100493475D01*
X153352672Y-100494865D01*
X153351001Y-100502548D01*
X153351001Y-100632095D01*
X153351338Y-100638614D01*
X153361257Y-100734206D01*
X153364149Y-100747600D01*
X153415588Y-100901784D01*
X153421761Y-100914962D01*
X153507063Y-101052807D01*
X153516099Y-101064208D01*
X153597462Y-101145430D01*
X153631541Y-101207713D01*
X153626538Y-101278533D01*
X153597617Y-101323620D01*
X153514870Y-101406512D01*
X153514866Y-101406517D01*
X153509695Y-101411697D01*
X153505855Y-101417927D01*
X153505854Y-101417928D01*
X153488935Y-101445375D01*
X153476736Y-101465167D01*
X153449592Y-101509202D01*
X153396820Y-101556695D01*
X153326748Y-101568119D01*
X153261624Y-101539845D01*
X153235188Y-101509390D01*
X153197934Y-101449190D01*
X153188901Y-101437792D01*
X153074171Y-101323261D01*
X153062760Y-101314249D01*
X152924757Y-101229184D01*
X152911576Y-101223037D01*
X152757290Y-101171862D01*
X152743914Y-101168995D01*
X152649562Y-101159328D01*
X152643145Y-101159000D01*
X152418115Y-101159000D01*
X152402876Y-101163475D01*
X152401671Y-101164865D01*
X152400000Y-101172548D01*
X152400000Y-102395000D01*
X152379998Y-102463121D01*
X152326342Y-102509614D01*
X152274000Y-102521000D01*
X152018000Y-102521000D01*
X151949879Y-102500998D01*
X151903386Y-102447342D01*
X151892000Y-102395000D01*
X151892000Y-101177116D01*
X151887525Y-101161877D01*
X151886133Y-101160671D01*
X151878329Y-101158973D01*
X151816017Y-101124948D01*
X151781992Y-101062635D01*
X151785555Y-100996081D01*
X151807867Y-100929009D01*
X151809814Y-100923157D01*
X151822059Y-100826230D01*
X151832796Y-100741241D01*
X151832797Y-100741232D01*
X151833238Y-100737738D01*
X151833611Y-100711000D01*
X151815373Y-100524999D01*
X151811419Y-100511901D01*
X151792760Y-100450103D01*
X151761355Y-100346083D01*
X151673615Y-100181066D01*
X151660727Y-100165264D01*
X151559388Y-100041010D01*
X151559385Y-100041007D01*
X151555493Y-100036235D01*
X151550744Y-100032306D01*
X151466828Y-99962885D01*
X153351000Y-99962885D01*
X153355475Y-99978124D01*
X153356865Y-99979329D01*
X153364548Y-99981000D01*
X154286885Y-99981000D01*
X154302124Y-99976525D01*
X154303329Y-99975135D01*
X154305000Y-99967452D01*
X154305000Y-99145116D01*
X154300525Y-99129877D01*
X154299135Y-99128672D01*
X154291452Y-99127001D01*
X154061905Y-99127001D01*
X154055386Y-99127338D01*
X153959794Y-99137257D01*
X153946400Y-99140149D01*
X153792216Y-99191588D01*
X153779038Y-99197761D01*
X153641193Y-99283063D01*
X153629792Y-99292099D01*
X153515261Y-99406829D01*
X153506249Y-99418240D01*
X153421184Y-99556243D01*
X153415037Y-99569424D01*
X153363862Y-99723710D01*
X153360995Y-99737086D01*
X153351328Y-99831438D01*
X153351000Y-99837855D01*
X153351000Y-99962885D01*
X151466828Y-99962885D01*
X151416239Y-99921034D01*
X151416236Y-99921032D01*
X151411489Y-99917105D01*
X151247089Y-99828214D01*
X151157822Y-99800581D01*
X151074441Y-99774770D01*
X151074438Y-99774769D01*
X151068554Y-99772948D01*
X151062429Y-99772304D01*
X151062428Y-99772304D01*
X150888813Y-99754056D01*
X150888812Y-99754056D01*
X150882685Y-99753412D01*
X150791673Y-99761695D01*
X150702703Y-99769792D01*
X150702702Y-99769792D01*
X150696562Y-99770351D01*
X150690648Y-99772092D01*
X150690646Y-99772092D01*
X150568466Y-99808052D01*
X150517273Y-99823119D01*
X150511808Y-99825976D01*
X150398340Y-99885295D01*
X150351647Y-99909705D01*
X150205995Y-100026813D01*
X150085862Y-100169981D01*
X150082899Y-100175370D01*
X150082896Y-100175375D01*
X150065984Y-100206139D01*
X149995826Y-100333757D01*
X149993965Y-100339624D01*
X149993964Y-100339626D01*
X149980683Y-100381494D01*
X149939315Y-100511901D01*
X149918482Y-100697630D01*
X149934121Y-100883867D01*
X149985636Y-101063520D01*
X150018003Y-101126500D01*
X150059741Y-101207713D01*
X150071064Y-101229746D01*
X150074887Y-101234570D01*
X150074890Y-101234574D01*
X150145183Y-101323261D01*
X150187152Y-101376212D01*
X150191846Y-101380207D01*
X150221563Y-101405498D01*
X150260476Y-101464881D01*
X150265900Y-101501452D01*
X150265900Y-102289776D01*
X150245898Y-102357897D01*
X150192242Y-102404390D01*
X150127060Y-102415120D01*
X150109567Y-102413328D01*
X150103145Y-102413000D01*
X149878115Y-102413000D01*
X149862876Y-102417475D01*
X149861671Y-102418865D01*
X149860000Y-102426548D01*
X149860000Y-103649000D01*
X149839998Y-103717121D01*
X149786342Y-103763614D01*
X149734000Y-103775000D01*
X149478000Y-103775000D01*
X149409879Y-103754998D01*
X149363386Y-103701342D01*
X149352000Y-103649000D01*
X149352000Y-102431116D01*
X149347525Y-102415877D01*
X149346135Y-102414672D01*
X149343293Y-102414054D01*
X149280981Y-102380029D01*
X149246956Y-102317717D01*
X149250518Y-102251163D01*
X149269814Y-102193157D01*
X149287077Y-102056506D01*
X149292796Y-102011241D01*
X149292797Y-102011232D01*
X149293238Y-102007738D01*
X149293611Y-101981000D01*
X149275373Y-101794999D01*
X149271419Y-101781901D01*
X149233145Y-101655134D01*
X149221355Y-101616083D01*
X149133615Y-101451066D01*
X149106588Y-101417928D01*
X149019388Y-101311010D01*
X149019385Y-101311007D01*
X149015493Y-101306235D01*
X149010744Y-101302306D01*
X148876239Y-101191034D01*
X148876236Y-101191032D01*
X148871489Y-101187105D01*
X148707089Y-101098214D01*
X148617822Y-101070581D01*
X148534441Y-101044770D01*
X148534438Y-101044769D01*
X148528554Y-101042948D01*
X148522429Y-101042304D01*
X148522428Y-101042304D01*
X148348813Y-101024056D01*
X148348812Y-101024056D01*
X148342685Y-101023412D01*
X148224087Y-101034206D01*
X148162703Y-101039792D01*
X148162702Y-101039792D01*
X148156562Y-101040351D01*
X148150648Y-101042092D01*
X148150646Y-101042092D01*
X148114240Y-101052807D01*
X147977273Y-101093119D01*
X147971808Y-101095976D01*
X147832134Y-101168995D01*
X147811647Y-101179705D01*
X147665995Y-101296813D01*
X147545862Y-101439981D01*
X147542899Y-101445370D01*
X147542896Y-101445375D01*
X147475418Y-101568119D01*
X147455826Y-101603757D01*
X147399315Y-101781901D01*
X147378482Y-101967630D01*
X147378998Y-101973774D01*
X147389238Y-102095714D01*
X147394121Y-102153867D01*
X147445636Y-102333520D01*
X147466203Y-102373539D01*
X147505347Y-102449705D01*
X147531064Y-102499746D01*
X147534887Y-102504570D01*
X147534890Y-102504574D01*
X147584221Y-102566813D01*
X147647152Y-102646212D01*
X147651846Y-102650207D01*
X147681563Y-102675498D01*
X147720476Y-102734881D01*
X147725900Y-102771452D01*
X147725900Y-104953322D01*
X147725402Y-104963874D01*
X147723781Y-104971128D01*
X147724030Y-104979049D01*
X147725838Y-105036595D01*
X147725900Y-105040552D01*
X147725900Y-105067383D01*
X147726396Y-105071310D01*
X147726453Y-105072216D01*
X147727292Y-105082860D01*
X147728622Y-105125199D01*
X147730834Y-105132812D01*
X147733964Y-105143586D01*
X147737972Y-105162943D01*
X147740371Y-105181932D01*
X147743291Y-105189307D01*
X147755964Y-105221318D01*
X147759808Y-105232545D01*
X147769415Y-105265609D01*
X147771628Y-105273225D01*
X147781374Y-105289705D01*
X147790065Y-105307445D01*
X147797116Y-105325254D01*
X147821558Y-105358896D01*
X147822020Y-105359532D01*
X147828536Y-105369452D01*
X147850095Y-105405906D01*
X147863622Y-105419433D01*
X147876463Y-105434467D01*
X147887721Y-105449962D01*
X147893829Y-105455015D01*
X147920366Y-105476968D01*
X147929147Y-105484958D01*
X148343084Y-105898896D01*
X148350190Y-105906706D01*
X148354174Y-105912983D01*
X148366981Y-105925010D01*
X148402947Y-105986220D01*
X148406056Y-106003857D01*
X148408474Y-106027166D01*
X148464450Y-106194946D01*
X148557522Y-106345348D01*
X148682697Y-106470305D01*
X148688927Y-106474145D01*
X148688928Y-106474146D01*
X148826090Y-106558694D01*
X148833262Y-106563115D01*
X148913005Y-106589564D01*
X148994611Y-106616632D01*
X148994613Y-106616632D01*
X149001139Y-106618797D01*
X149007975Y-106619497D01*
X149007978Y-106619498D01*
X149051031Y-106623909D01*
X149105600Y-106629500D01*
X150106400Y-106629500D01*
X150109646Y-106629163D01*
X150109650Y-106629163D01*
X150205308Y-106619238D01*
X150205312Y-106619237D01*
X150212166Y-106618526D01*
X150218702Y-106616345D01*
X150218704Y-106616345D01*
X150350806Y-106572272D01*
X150379946Y-106562550D01*
X150530348Y-106469478D01*
X150655305Y-106344303D01*
X150682853Y-106299613D01*
X150739950Y-106206984D01*
X150792722Y-106159491D01*
X150847210Y-106147100D01*
X157480000Y-106147100D01*
X157480000Y-106807000D01*
X140208000Y-106807000D01*
X140208000Y-106045000D01*
X147814115Y-98438885D01*
X155764000Y-98438885D01*
X155768475Y-98454124D01*
X155769865Y-98455329D01*
X155777548Y-98457000D01*
X156699885Y-98457000D01*
X156715124Y-98452525D01*
X156716329Y-98451135D01*
X156718000Y-98443452D01*
X156718000Y-97621116D01*
X156713525Y-97605877D01*
X156712135Y-97604672D01*
X156704452Y-97603001D01*
X156474905Y-97603001D01*
X156468386Y-97603338D01*
X156372794Y-97613257D01*
X156359400Y-97616149D01*
X156205216Y-97667588D01*
X156192038Y-97673761D01*
X156054193Y-97759063D01*
X156042792Y-97768099D01*
X155928261Y-97882829D01*
X155919249Y-97894240D01*
X155834184Y-98032243D01*
X155828037Y-98045424D01*
X155776862Y-98199710D01*
X155773995Y-98213086D01*
X155764328Y-98307438D01*
X155764000Y-98313855D01*
X155764000Y-98438885D01*
X147814115Y-98438885D01*
X150077095Y-96175905D01*
X150139407Y-96141879D01*
X150166190Y-96139000D01*
X154178000Y-96139000D01*
X156249615Y-94067385D01*
X164121000Y-94067385D01*
X164125475Y-94082624D01*
X164126865Y-94083829D01*
X164134548Y-94085500D01*
X165081885Y-94085500D01*
X165097124Y-94081025D01*
X165098329Y-94079635D01*
X165100000Y-94071952D01*
X165100000Y-93262116D01*
X165095525Y-93246877D01*
X165094135Y-93245672D01*
X165086452Y-93244001D01*
X164831905Y-93244001D01*
X164825386Y-93244338D01*
X164729794Y-93254257D01*
X164716400Y-93257149D01*
X164562216Y-93308588D01*
X164549038Y-93314761D01*
X164411193Y-93400063D01*
X164399792Y-93409099D01*
X164285261Y-93523829D01*
X164276249Y-93535240D01*
X164191184Y-93673243D01*
X164185037Y-93686424D01*
X164133862Y-93840710D01*
X164130995Y-93854086D01*
X164121328Y-93948438D01*
X164121000Y-93954855D01*
X164121000Y-94067385D01*
X156249615Y-94067385D01*
X157963331Y-92353669D01*
X164266001Y-92353669D01*
X164266371Y-92360490D01*
X164271895Y-92411352D01*
X164275521Y-92426604D01*
X164320676Y-92547054D01*
X164329214Y-92562649D01*
X164405715Y-92664724D01*
X164418276Y-92677285D01*
X164520351Y-92753786D01*
X164535946Y-92762324D01*
X164656394Y-92807478D01*
X164671649Y-92811105D01*
X164722514Y-92816631D01*
X164729328Y-92817000D01*
X165101885Y-92817000D01*
X165117124Y-92812525D01*
X165118329Y-92811135D01*
X165120000Y-92803452D01*
X165120000Y-92281115D01*
X165115525Y-92265876D01*
X165114135Y-92264671D01*
X165106452Y-92263000D01*
X164284116Y-92263000D01*
X164268877Y-92267475D01*
X164267672Y-92268865D01*
X164266001Y-92276548D01*
X164266001Y-92353669D01*
X157963331Y-92353669D01*
X158713095Y-91603905D01*
X158775407Y-91569879D01*
X158802190Y-91567000D01*
X164140000Y-91567000D01*
X164208121Y-91587002D01*
G37*
G04 #@! TD.AperFunction*
G04 #@! TD*
G04 #@! TA.AperFunction,Conductor*
G04 #@! TO.N,Net-(J4-Pad2)*
G36*
X242004121Y-88793002D02*
G01*
X242050614Y-88846658D01*
X242062000Y-88899000D01*
X242062000Y-95759000D01*
X242041998Y-95827121D01*
X241988342Y-95873614D01*
X241936000Y-95885000D01*
X240501487Y-95885000D01*
X240433366Y-95864998D01*
X240386873Y-95811342D01*
X240376143Y-95746158D01*
X240377672Y-95731233D01*
X240378000Y-95724815D01*
X240378000Y-95663115D01*
X240373525Y-95647876D01*
X240372135Y-95646671D01*
X240364452Y-95645000D01*
X238430115Y-95645000D01*
X238414876Y-95649475D01*
X238413671Y-95650865D01*
X238412000Y-95658548D01*
X238412000Y-95724766D01*
X238412337Y-95731282D01*
X238413864Y-95745996D01*
X238401000Y-95815817D01*
X238352429Y-95867599D01*
X238288537Y-95885000D01*
X236854000Y-95885000D01*
X236785879Y-95864998D01*
X236739386Y-95811342D01*
X236728000Y-95759000D01*
X236728000Y-95118885D01*
X238412000Y-95118885D01*
X238416475Y-95134124D01*
X238417865Y-95135329D01*
X238425548Y-95137000D01*
X239122885Y-95137000D01*
X239138124Y-95132525D01*
X239139329Y-95131135D01*
X239141000Y-95123452D01*
X239141000Y-95118885D01*
X239649000Y-95118885D01*
X239653475Y-95134124D01*
X239654865Y-95135329D01*
X239662548Y-95137000D01*
X240359885Y-95137000D01*
X240375124Y-95132525D01*
X240376329Y-95131135D01*
X240378000Y-95123452D01*
X240378000Y-95057234D01*
X240377663Y-95050718D01*
X240367925Y-94956868D01*
X240365032Y-94943472D01*
X240314512Y-94792047D01*
X240308347Y-94778885D01*
X240224574Y-94643508D01*
X240215540Y-94632110D01*
X240102871Y-94519637D01*
X240091460Y-94510625D01*
X239955937Y-94427088D01*
X239942759Y-94420944D01*
X239791234Y-94370685D01*
X239777868Y-94367819D01*
X239685230Y-94358328D01*
X239678815Y-94358000D01*
X239667115Y-94358000D01*
X239651876Y-94362475D01*
X239650671Y-94363865D01*
X239649000Y-94371548D01*
X239649000Y-95118885D01*
X239141000Y-95118885D01*
X239141000Y-94376115D01*
X239136525Y-94360876D01*
X239135135Y-94359671D01*
X239127452Y-94358000D01*
X239111234Y-94358000D01*
X239104718Y-94358337D01*
X239010868Y-94368075D01*
X238997472Y-94370968D01*
X238846047Y-94421488D01*
X238832885Y-94427653D01*
X238697508Y-94511426D01*
X238686110Y-94520460D01*
X238573637Y-94633129D01*
X238564625Y-94644540D01*
X238481088Y-94780063D01*
X238474944Y-94793241D01*
X238424685Y-94944766D01*
X238421819Y-94958132D01*
X238412328Y-95050770D01*
X238412000Y-95057185D01*
X238412000Y-95118885D01*
X236728000Y-95118885D01*
X236728000Y-93133814D01*
X238032859Y-93133814D01*
X238039912Y-93143785D01*
X238088671Y-93184554D01*
X238095603Y-93189589D01*
X238337233Y-93341164D01*
X238344784Y-93345213D01*
X238604760Y-93462597D01*
X238612791Y-93465583D01*
X238886290Y-93546597D01*
X238894642Y-93548464D01*
X239176612Y-93591611D01*
X239185145Y-93592327D01*
X239470357Y-93596809D01*
X239478908Y-93596360D01*
X239762086Y-93562092D01*
X239770500Y-93560487D01*
X240046413Y-93488103D01*
X240054529Y-93485372D01*
X240318063Y-93376212D01*
X240325731Y-93372406D01*
X240572020Y-93228486D01*
X240579093Y-93223679D01*
X240680961Y-93143804D01*
X240689430Y-93131947D01*
X240682914Y-93120325D01*
X239374410Y-91811820D01*
X239360469Y-91804208D01*
X239358634Y-91804339D01*
X239352020Y-91808590D01*
X238040151Y-93120460D01*
X238032859Y-93133814D01*
X236728000Y-93133814D01*
X236728000Y-91421461D01*
X237201929Y-91421461D01*
X237218350Y-91706234D01*
X237219424Y-91714740D01*
X237274339Y-91994648D01*
X237276555Y-92002916D01*
X237368953Y-92272792D01*
X237372268Y-92280677D01*
X237500439Y-92535517D01*
X237504795Y-92542883D01*
X237655230Y-92761766D01*
X237665485Y-92770110D01*
X237679225Y-92762964D01*
X238989580Y-91452610D01*
X238995957Y-91440931D01*
X239726008Y-91440931D01*
X239726139Y-91442766D01*
X239730390Y-91449380D01*
X241042487Y-92761476D01*
X241054697Y-92768144D01*
X241066195Y-92759455D01*
X241182841Y-92600660D01*
X241187425Y-92593437D01*
X241323533Y-92342757D01*
X241327101Y-92334963D01*
X241427927Y-92068137D01*
X241430404Y-92059931D01*
X241494084Y-91781888D01*
X241495424Y-91773428D01*
X241520942Y-91487501D01*
X241521188Y-91482562D01*
X241521610Y-91442284D01*
X241521467Y-91437320D01*
X241501943Y-91150926D01*
X241500782Y-91142452D01*
X241442935Y-90863121D01*
X241440636Y-90854886D01*
X241345414Y-90585987D01*
X241342017Y-90578137D01*
X241211183Y-90324650D01*
X241206755Y-90317338D01*
X241067148Y-90118699D01*
X241056627Y-90110320D01*
X241043239Y-90117372D01*
X239733620Y-91426990D01*
X239726008Y-91440931D01*
X238995957Y-91440931D01*
X238997192Y-91438669D01*
X238997061Y-91436834D01*
X238992810Y-91430220D01*
X237680082Y-90117493D01*
X237668071Y-90110934D01*
X237656333Y-90119901D01*
X237528309Y-90298067D01*
X237523787Y-90305361D01*
X237390320Y-90557437D01*
X237386834Y-90565265D01*
X237288806Y-90833138D01*
X237286417Y-90841361D01*
X237225649Y-91120069D01*
X237224400Y-91128525D01*
X237202018Y-91412911D01*
X237201929Y-91421461D01*
X236728000Y-91421461D01*
X236728000Y-89747723D01*
X238033606Y-89747723D01*
X238040001Y-89758990D01*
X239348790Y-91067780D01*
X239362731Y-91075392D01*
X239364566Y-91075261D01*
X239371180Y-91071010D01*
X240682666Y-89759523D01*
X240689858Y-89746353D01*
X240682536Y-89736118D01*
X240616186Y-89681810D01*
X240609214Y-89676856D01*
X240365986Y-89527804D01*
X240358416Y-89523847D01*
X240097215Y-89409189D01*
X240089155Y-89406287D01*
X239814825Y-89328142D01*
X239806450Y-89326362D01*
X239524049Y-89286170D01*
X239515501Y-89285542D01*
X239230256Y-89284048D01*
X239221722Y-89284585D01*
X238938909Y-89321819D01*
X238930511Y-89323512D01*
X238655375Y-89398781D01*
X238647288Y-89401597D01*
X238384916Y-89513508D01*
X238377277Y-89517401D01*
X238132520Y-89663884D01*
X238125491Y-89668769D01*
X238042075Y-89735599D01*
X238033606Y-89747723D01*
X236728000Y-89747723D01*
X236728000Y-88899000D01*
X236748002Y-88830879D01*
X236801658Y-88784386D01*
X236854000Y-88773000D01*
X241936000Y-88773000D01*
X242004121Y-88793002D01*
G37*
G04 #@! TD.AperFunction*
G04 #@! TD*
G04 #@! TA.AperFunction,Conductor*
G04 #@! TO.N,+3.3V*
G36*
X169725659Y-91625985D02*
G01*
X169749944Y-91644944D01*
X170450082Y-92345082D01*
X170484108Y-92407394D01*
X170479043Y-92478209D01*
X170468247Y-92500293D01*
X170427725Y-92566032D01*
X170423885Y-92572262D01*
X170368203Y-92740139D01*
X170367503Y-92746975D01*
X170367502Y-92746978D01*
X170365930Y-92762324D01*
X170357500Y-92844600D01*
X170357500Y-93845400D01*
X170368474Y-93951166D01*
X170370655Y-93957702D01*
X170370655Y-93957704D01*
X170376894Y-93976405D01*
X170424450Y-94118946D01*
X170517522Y-94269348D01*
X170642697Y-94394305D01*
X170648927Y-94398145D01*
X170648928Y-94398146D01*
X170793262Y-94487115D01*
X170791962Y-94489225D01*
X170836431Y-94528375D01*
X170855900Y-94595659D01*
X170855900Y-96968322D01*
X170855402Y-96978874D01*
X170853781Y-96986128D01*
X170854030Y-96994049D01*
X170855838Y-97051595D01*
X170855900Y-97055552D01*
X170855900Y-97082383D01*
X170856396Y-97086310D01*
X170856453Y-97087216D01*
X170857292Y-97097860D01*
X170858622Y-97140199D01*
X170860834Y-97147812D01*
X170863964Y-97158586D01*
X170867972Y-97177943D01*
X170870371Y-97196932D01*
X170873291Y-97204307D01*
X170885964Y-97236318D01*
X170889808Y-97247545D01*
X170899415Y-97280609D01*
X170901628Y-97288225D01*
X170911374Y-97304705D01*
X170920065Y-97322445D01*
X170927116Y-97340254D01*
X170927358Y-97340588D01*
X170942000Y-97397616D01*
X170942000Y-97610810D01*
X170921998Y-97678931D01*
X170905095Y-97699905D01*
X169962905Y-98642095D01*
X169900593Y-98676121D01*
X169873810Y-98679000D01*
X168515333Y-98679000D01*
X168447212Y-98658998D01*
X168417690Y-98632636D01*
X168323388Y-98517010D01*
X168323385Y-98517007D01*
X168319493Y-98512235D01*
X168303179Y-98498739D01*
X168180239Y-98397034D01*
X168180236Y-98397032D01*
X168175489Y-98393105D01*
X168011089Y-98304214D01*
X167921822Y-98276581D01*
X167838441Y-98250770D01*
X167838438Y-98250769D01*
X167832554Y-98248948D01*
X167826429Y-98248304D01*
X167826428Y-98248304D01*
X167652813Y-98230056D01*
X167652812Y-98230056D01*
X167646685Y-98229412D01*
X167528087Y-98240206D01*
X167466703Y-98245792D01*
X167466702Y-98245792D01*
X167460562Y-98246351D01*
X167454648Y-98248092D01*
X167454646Y-98248092D01*
X167332466Y-98284052D01*
X167281273Y-98299119D01*
X167115647Y-98385705D01*
X167101557Y-98397034D01*
X167038795Y-98447496D01*
X166973173Y-98474593D01*
X166959843Y-98475300D01*
X166408462Y-98475300D01*
X166399477Y-98472662D01*
X166591829Y-97126200D01*
X166675042Y-97126200D01*
X166743163Y-97146202D01*
X166782185Y-97185896D01*
X166820522Y-97247848D01*
X166945697Y-97372805D01*
X166951927Y-97376645D01*
X166951928Y-97376646D01*
X167084418Y-97458314D01*
X167096262Y-97465615D01*
X167176005Y-97492064D01*
X167257611Y-97519132D01*
X167257613Y-97519132D01*
X167264139Y-97521297D01*
X167270975Y-97521997D01*
X167270978Y-97521998D01*
X167314031Y-97526409D01*
X167368600Y-97532000D01*
X168419400Y-97532000D01*
X168422646Y-97531663D01*
X168422650Y-97531663D01*
X168518308Y-97521738D01*
X168518312Y-97521737D01*
X168525166Y-97521026D01*
X168531702Y-97518845D01*
X168531704Y-97518845D01*
X168663806Y-97474772D01*
X168692946Y-97465050D01*
X168703832Y-97458314D01*
X168741766Y-97434839D01*
X168810218Y-97416001D01*
X168870330Y-97435396D01*
X168871478Y-97433342D01*
X169034621Y-97524519D01*
X169212367Y-97582272D01*
X169397945Y-97604401D01*
X169404080Y-97603929D01*
X169404082Y-97603929D01*
X169460119Y-97599617D01*
X169584287Y-97590063D01*
X169764296Y-97539804D01*
X169769785Y-97537031D01*
X169769791Y-97537029D01*
X169851494Y-97495757D01*
X169931114Y-97455538D01*
X169956895Y-97435396D01*
X170028646Y-97379337D01*
X170078387Y-97340475D01*
X170082413Y-97335811D01*
X170082416Y-97335808D01*
X170196480Y-97203663D01*
X170200507Y-97198998D01*
X170292821Y-97036495D01*
X170351814Y-96859157D01*
X170360388Y-96791288D01*
X170374796Y-96677241D01*
X170374797Y-96677232D01*
X170375238Y-96673738D01*
X170375611Y-96647000D01*
X170357373Y-96460999D01*
X170303355Y-96282083D01*
X170215615Y-96117066D01*
X170211720Y-96112290D01*
X170101388Y-95977010D01*
X170101385Y-95977007D01*
X170097493Y-95972235D01*
X170092744Y-95968306D01*
X169958239Y-95857034D01*
X169958236Y-95857032D01*
X169953489Y-95853105D01*
X169789089Y-95764214D01*
X169699822Y-95736581D01*
X169616441Y-95710770D01*
X169616438Y-95710769D01*
X169610554Y-95708948D01*
X169604429Y-95708304D01*
X169604428Y-95708304D01*
X169430813Y-95690056D01*
X169430812Y-95690056D01*
X169424685Y-95689412D01*
X169306087Y-95700206D01*
X169244703Y-95705792D01*
X169244702Y-95705792D01*
X169238562Y-95706351D01*
X169232648Y-95708092D01*
X169232646Y-95708092D01*
X169194997Y-95719173D01*
X169159422Y-95724300D01*
X169099654Y-95724300D01*
X169031533Y-95704298D01*
X168992510Y-95664603D01*
X168971332Y-95630380D01*
X168967478Y-95624152D01*
X168945941Y-95602652D01*
X168847486Y-95504369D01*
X168842303Y-95499195D01*
X168837765Y-95496398D01*
X168797176Y-95439147D01*
X168793946Y-95368224D01*
X168829572Y-95306813D01*
X168838068Y-95299438D01*
X168848207Y-95291402D01*
X168962739Y-95176671D01*
X168971751Y-95165260D01*
X169056816Y-95027257D01*
X169062963Y-95014076D01*
X169114138Y-94859790D01*
X169117005Y-94846414D01*
X169126672Y-94752062D01*
X169127000Y-94745646D01*
X169127000Y-94633115D01*
X169122525Y-94617876D01*
X169121135Y-94616671D01*
X169113452Y-94615000D01*
X167766000Y-94615000D01*
X167697879Y-94594998D01*
X167651386Y-94541342D01*
X167640000Y-94489000D01*
X167640000Y-94088885D01*
X168148000Y-94088885D01*
X168152475Y-94104124D01*
X168153865Y-94105329D01*
X168161548Y-94107000D01*
X169108884Y-94107000D01*
X169124123Y-94102525D01*
X169125328Y-94101135D01*
X169126999Y-94093452D01*
X169126999Y-93976405D01*
X169126662Y-93969886D01*
X169116743Y-93874294D01*
X169113851Y-93860900D01*
X169062412Y-93706716D01*
X169056239Y-93693538D01*
X168970937Y-93555693D01*
X168961901Y-93544292D01*
X168847171Y-93429761D01*
X168835760Y-93420749D01*
X168697757Y-93335684D01*
X168684576Y-93329537D01*
X168530290Y-93278362D01*
X168516914Y-93275495D01*
X168422562Y-93265828D01*
X168416145Y-93265500D01*
X168166115Y-93265500D01*
X168150876Y-93269975D01*
X168149671Y-93271365D01*
X168148000Y-93279048D01*
X168148000Y-94088885D01*
X167640000Y-94088885D01*
X167640000Y-93283616D01*
X167635525Y-93268377D01*
X167634135Y-93267172D01*
X167626452Y-93265501D01*
X167371905Y-93265501D01*
X167365386Y-93265838D01*
X167300534Y-93272567D01*
X167230713Y-93259702D01*
X167178931Y-93211131D01*
X167161629Y-93142275D01*
X167162797Y-93129421D01*
X167191974Y-92925181D01*
X167221409Y-92860574D01*
X167281101Y-92822136D01*
X167316708Y-92817000D01*
X167601885Y-92817000D01*
X167617124Y-92812525D01*
X167618329Y-92811135D01*
X167620000Y-92803452D01*
X167620000Y-92798884D01*
X168128000Y-92798884D01*
X168132475Y-92814123D01*
X168133865Y-92815328D01*
X168141548Y-92816999D01*
X168518669Y-92816999D01*
X168525490Y-92816629D01*
X168576352Y-92811105D01*
X168591604Y-92807479D01*
X168712054Y-92762324D01*
X168727649Y-92753786D01*
X168829724Y-92677285D01*
X168842285Y-92664724D01*
X168918786Y-92562649D01*
X168927324Y-92547054D01*
X168972478Y-92426606D01*
X168976105Y-92411351D01*
X168981631Y-92360486D01*
X168982000Y-92353672D01*
X168982000Y-92281115D01*
X168977525Y-92265876D01*
X168976135Y-92264671D01*
X168968452Y-92263000D01*
X168146115Y-92263000D01*
X168130876Y-92267475D01*
X168129671Y-92268865D01*
X168128000Y-92276548D01*
X168128000Y-92798884D01*
X167620000Y-92798884D01*
X167620000Y-91993500D01*
X167640002Y-91925379D01*
X167693658Y-91878886D01*
X167746000Y-91867500D01*
X168522134Y-91867500D01*
X168584316Y-91860745D01*
X168720705Y-91809615D01*
X168739041Y-91795873D01*
X168805548Y-91771026D01*
X168814605Y-91770700D01*
X169134970Y-91770700D01*
X169143540Y-91770992D01*
X169193946Y-91774429D01*
X169193950Y-91774429D01*
X169201521Y-91774945D01*
X169208997Y-91773640D01*
X169209000Y-91773640D01*
X169264783Y-91763904D01*
X169271308Y-91762941D01*
X169327467Y-91756145D01*
X169327468Y-91756145D01*
X169335011Y-91755232D01*
X169342119Y-91752546D01*
X169344419Y-91751981D01*
X169361480Y-91747314D01*
X169363734Y-91746634D01*
X169371215Y-91745328D01*
X169430005Y-91719521D01*
X169436102Y-91717033D01*
X169489047Y-91697027D01*
X169489050Y-91697026D01*
X169496149Y-91694343D01*
X169502404Y-91690044D01*
X169504495Y-91688951D01*
X169519957Y-91680345D01*
X169521991Y-91679142D01*
X169528946Y-91676089D01*
X169534971Y-91671466D01*
X169534976Y-91671463D01*
X169579874Y-91637012D01*
X169585211Y-91633134D01*
X169589483Y-91630198D01*
X169656952Y-91608099D01*
X169725659Y-91625985D01*
G37*
G04 #@! TD.AperFunction*
G04 #@! TD*
G04 #@! TA.AperFunction,Conductor*
G04 #@! TO.N,Net-(J4-Pad1)*
G36*
X228288121Y-88793002D02*
G01*
X228334614Y-88846658D01*
X228346000Y-88899000D01*
X228346000Y-95759000D01*
X228325998Y-95827121D01*
X228272342Y-95873614D01*
X228220000Y-95885000D01*
X226786921Y-95885000D01*
X226718800Y-95864998D01*
X226672307Y-95811342D01*
X226661960Y-95748470D01*
X226661508Y-95748447D01*
X226661614Y-95746367D01*
X226661578Y-95746147D01*
X226661673Y-95745224D01*
X226662000Y-95738815D01*
X226662000Y-95677115D01*
X226657525Y-95661876D01*
X226656135Y-95660671D01*
X226648452Y-95659000D01*
X224714115Y-95659000D01*
X224698876Y-95663475D01*
X224697671Y-95664865D01*
X224696000Y-95672548D01*
X224696000Y-95738766D01*
X224696337Y-95745287D01*
X224696412Y-95746006D01*
X224696383Y-95746164D01*
X224696505Y-95748524D01*
X224695942Y-95748553D01*
X224683542Y-95815826D01*
X224634967Y-95867604D01*
X224571084Y-95885000D01*
X223138000Y-95885000D01*
X223069879Y-95864998D01*
X223023386Y-95811342D01*
X223012000Y-95759000D01*
X223012000Y-95132885D01*
X224696000Y-95132885D01*
X224700475Y-95148124D01*
X224701865Y-95149329D01*
X224709548Y-95151000D01*
X225406885Y-95151000D01*
X225422124Y-95146525D01*
X225423329Y-95145135D01*
X225425000Y-95137452D01*
X225425000Y-95132885D01*
X225933000Y-95132885D01*
X225937475Y-95148124D01*
X225938865Y-95149329D01*
X225946548Y-95151000D01*
X226643885Y-95151000D01*
X226659124Y-95146525D01*
X226660329Y-95145135D01*
X226662000Y-95137452D01*
X226662000Y-95071234D01*
X226661663Y-95064718D01*
X226651925Y-94970868D01*
X226649032Y-94957472D01*
X226598512Y-94806047D01*
X226592347Y-94792885D01*
X226508574Y-94657508D01*
X226499540Y-94646110D01*
X226386871Y-94533637D01*
X226375460Y-94524625D01*
X226239937Y-94441088D01*
X226226759Y-94434944D01*
X226075234Y-94384685D01*
X226061868Y-94381819D01*
X225969230Y-94372328D01*
X225962815Y-94372000D01*
X225951115Y-94372000D01*
X225935876Y-94376475D01*
X225934671Y-94377865D01*
X225933000Y-94385548D01*
X225933000Y-95132885D01*
X225425000Y-95132885D01*
X225425000Y-94390115D01*
X225420525Y-94374876D01*
X225419135Y-94373671D01*
X225411452Y-94372000D01*
X225395234Y-94372000D01*
X225388718Y-94372337D01*
X225294868Y-94382075D01*
X225281472Y-94384968D01*
X225130047Y-94435488D01*
X225116885Y-94441653D01*
X224981508Y-94525426D01*
X224970110Y-94534460D01*
X224857637Y-94647129D01*
X224848625Y-94658540D01*
X224765088Y-94794063D01*
X224758944Y-94807241D01*
X224708685Y-94958766D01*
X224705819Y-94972132D01*
X224696328Y-95064770D01*
X224696000Y-95071185D01*
X224696000Y-95132885D01*
X223012000Y-95132885D01*
X223012000Y-93133814D01*
X224332859Y-93133814D01*
X224339912Y-93143785D01*
X224388671Y-93184554D01*
X224395603Y-93189589D01*
X224637233Y-93341164D01*
X224644784Y-93345213D01*
X224904760Y-93462597D01*
X224912791Y-93465583D01*
X225186290Y-93546597D01*
X225194642Y-93548464D01*
X225476612Y-93591611D01*
X225485145Y-93592327D01*
X225770357Y-93596809D01*
X225778908Y-93596360D01*
X226062086Y-93562092D01*
X226070500Y-93560487D01*
X226346413Y-93488103D01*
X226354529Y-93485372D01*
X226618063Y-93376212D01*
X226625731Y-93372406D01*
X226872020Y-93228486D01*
X226879093Y-93223679D01*
X226980961Y-93143804D01*
X226989430Y-93131947D01*
X226982914Y-93120325D01*
X225674410Y-91811820D01*
X225660469Y-91804208D01*
X225658634Y-91804339D01*
X225652020Y-91808590D01*
X224340151Y-93120460D01*
X224332859Y-93133814D01*
X223012000Y-93133814D01*
X223012000Y-91421461D01*
X223501929Y-91421461D01*
X223518350Y-91706234D01*
X223519424Y-91714740D01*
X223574339Y-91994648D01*
X223576555Y-92002916D01*
X223668953Y-92272792D01*
X223672268Y-92280677D01*
X223800439Y-92535517D01*
X223804795Y-92542883D01*
X223955230Y-92761766D01*
X223965485Y-92770110D01*
X223979225Y-92762964D01*
X225289580Y-91452610D01*
X225295957Y-91440931D01*
X226026008Y-91440931D01*
X226026139Y-91442766D01*
X226030390Y-91449380D01*
X227342487Y-92761476D01*
X227354697Y-92768144D01*
X227366195Y-92759455D01*
X227482841Y-92600660D01*
X227487425Y-92593437D01*
X227623533Y-92342757D01*
X227627101Y-92334963D01*
X227727927Y-92068137D01*
X227730404Y-92059931D01*
X227794084Y-91781888D01*
X227795424Y-91773428D01*
X227820942Y-91487501D01*
X227821188Y-91482562D01*
X227821610Y-91442284D01*
X227821467Y-91437320D01*
X227801943Y-91150926D01*
X227800782Y-91142452D01*
X227742935Y-90863121D01*
X227740636Y-90854886D01*
X227645414Y-90585987D01*
X227642017Y-90578137D01*
X227511183Y-90324650D01*
X227506755Y-90317338D01*
X227367148Y-90118699D01*
X227356627Y-90110320D01*
X227343239Y-90117372D01*
X226033620Y-91426990D01*
X226026008Y-91440931D01*
X225295957Y-91440931D01*
X225297192Y-91438669D01*
X225297061Y-91436834D01*
X225292810Y-91430220D01*
X223980082Y-90117493D01*
X223968071Y-90110934D01*
X223956333Y-90119901D01*
X223828309Y-90298067D01*
X223823787Y-90305361D01*
X223690320Y-90557437D01*
X223686834Y-90565265D01*
X223588806Y-90833138D01*
X223586417Y-90841361D01*
X223525649Y-91120069D01*
X223524400Y-91128525D01*
X223502018Y-91412911D01*
X223501929Y-91421461D01*
X223012000Y-91421461D01*
X223012000Y-89747723D01*
X224333606Y-89747723D01*
X224340001Y-89758990D01*
X225648790Y-91067780D01*
X225662731Y-91075392D01*
X225664566Y-91075261D01*
X225671180Y-91071010D01*
X226982666Y-89759523D01*
X226989858Y-89746353D01*
X226982536Y-89736118D01*
X226916186Y-89681810D01*
X226909214Y-89676856D01*
X226665986Y-89527804D01*
X226658416Y-89523847D01*
X226397215Y-89409189D01*
X226389155Y-89406287D01*
X226114825Y-89328142D01*
X226106450Y-89326362D01*
X225824049Y-89286170D01*
X225815501Y-89285542D01*
X225530256Y-89284048D01*
X225521722Y-89284585D01*
X225238909Y-89321819D01*
X225230511Y-89323512D01*
X224955375Y-89398781D01*
X224947288Y-89401597D01*
X224684916Y-89513508D01*
X224677277Y-89517401D01*
X224432520Y-89663884D01*
X224425491Y-89668769D01*
X224342075Y-89735599D01*
X224333606Y-89747723D01*
X223012000Y-89747723D01*
X223012000Y-88899000D01*
X223032002Y-88830879D01*
X223085658Y-88784386D01*
X223138000Y-88773000D01*
X228220000Y-88773000D01*
X228288121Y-88793002D01*
G37*
G04 #@! TD.AperFunction*
G04 #@! TD*
G04 #@! TA.AperFunction,Conductor*
G04 #@! TO.N,Net-(J2-Pad1)*
G36*
X186378121Y-88793002D02*
G01*
X186424614Y-88846658D01*
X186436000Y-88899000D01*
X186436000Y-95759000D01*
X186415998Y-95827121D01*
X186362342Y-95873614D01*
X186310000Y-95885000D01*
X185003921Y-95885000D01*
X184935800Y-95864998D01*
X184889307Y-95811342D01*
X184878960Y-95748470D01*
X184878508Y-95748447D01*
X184878614Y-95746367D01*
X184878578Y-95746147D01*
X184878673Y-95745224D01*
X184879000Y-95738815D01*
X184879000Y-95677115D01*
X184874525Y-95661876D01*
X184873135Y-95660671D01*
X184865452Y-95659000D01*
X182931115Y-95659000D01*
X182915876Y-95663475D01*
X182914671Y-95664865D01*
X182913000Y-95672548D01*
X182913000Y-95738766D01*
X182913337Y-95745287D01*
X182913412Y-95746006D01*
X182913383Y-95746164D01*
X182913505Y-95748524D01*
X182912942Y-95748553D01*
X182900542Y-95815826D01*
X182851967Y-95867604D01*
X182788084Y-95885000D01*
X181482000Y-95885000D01*
X181413879Y-95864998D01*
X181367386Y-95811342D01*
X181356000Y-95759000D01*
X181356000Y-95132885D01*
X182913000Y-95132885D01*
X182917475Y-95148124D01*
X182918865Y-95149329D01*
X182926548Y-95151000D01*
X183623885Y-95151000D01*
X183639124Y-95146525D01*
X183640329Y-95145135D01*
X183642000Y-95137452D01*
X183642000Y-95132885D01*
X184150000Y-95132885D01*
X184154475Y-95148124D01*
X184155865Y-95149329D01*
X184163548Y-95151000D01*
X184860885Y-95151000D01*
X184876124Y-95146525D01*
X184877329Y-95145135D01*
X184879000Y-95137452D01*
X184879000Y-95071234D01*
X184878663Y-95064718D01*
X184868925Y-94970868D01*
X184866032Y-94957472D01*
X184815512Y-94806047D01*
X184809347Y-94792885D01*
X184725574Y-94657508D01*
X184716540Y-94646110D01*
X184603871Y-94533637D01*
X184592460Y-94524625D01*
X184456937Y-94441088D01*
X184443759Y-94434944D01*
X184292234Y-94384685D01*
X184278868Y-94381819D01*
X184186230Y-94372328D01*
X184179815Y-94372000D01*
X184168115Y-94372000D01*
X184152876Y-94376475D01*
X184151671Y-94377865D01*
X184150000Y-94385548D01*
X184150000Y-95132885D01*
X183642000Y-95132885D01*
X183642000Y-94390115D01*
X183637525Y-94374876D01*
X183636135Y-94373671D01*
X183628452Y-94372000D01*
X183612234Y-94372000D01*
X183605718Y-94372337D01*
X183511868Y-94382075D01*
X183498472Y-94384968D01*
X183347047Y-94435488D01*
X183333885Y-94441653D01*
X183198508Y-94525426D01*
X183187110Y-94534460D01*
X183074637Y-94647129D01*
X183065625Y-94658540D01*
X182982088Y-94794063D01*
X182975944Y-94807241D01*
X182925685Y-94958766D01*
X182922819Y-94972132D01*
X182913328Y-95064770D01*
X182913000Y-95071185D01*
X182913000Y-95132885D01*
X181356000Y-95132885D01*
X181356000Y-93153014D01*
X182575259Y-93153014D01*
X182582312Y-93162985D01*
X182631071Y-93203754D01*
X182638003Y-93208789D01*
X182879633Y-93360364D01*
X182887184Y-93364413D01*
X183147160Y-93481797D01*
X183155191Y-93484783D01*
X183428690Y-93565797D01*
X183437042Y-93567664D01*
X183719012Y-93610811D01*
X183727545Y-93611527D01*
X184012757Y-93616009D01*
X184021308Y-93615560D01*
X184304486Y-93581292D01*
X184312900Y-93579687D01*
X184588813Y-93507303D01*
X184596929Y-93504572D01*
X184860463Y-93395412D01*
X184868131Y-93391606D01*
X185114420Y-93247686D01*
X185121493Y-93242879D01*
X185223361Y-93163004D01*
X185231830Y-93151147D01*
X185225314Y-93139525D01*
X183916810Y-91831020D01*
X183902869Y-91823408D01*
X183901034Y-91823539D01*
X183894420Y-91827790D01*
X182582551Y-93139660D01*
X182575259Y-93153014D01*
X181356000Y-93153014D01*
X181356000Y-91440661D01*
X181744329Y-91440661D01*
X181760750Y-91725434D01*
X181761824Y-91733940D01*
X181816739Y-92013848D01*
X181818955Y-92022116D01*
X181911353Y-92291992D01*
X181914668Y-92299877D01*
X182042839Y-92554717D01*
X182047195Y-92562083D01*
X182197630Y-92780966D01*
X182207885Y-92789310D01*
X182221625Y-92782164D01*
X183531980Y-91471810D01*
X183538357Y-91460131D01*
X184268408Y-91460131D01*
X184268539Y-91461966D01*
X184272790Y-91468580D01*
X185584887Y-92780676D01*
X185597097Y-92787344D01*
X185608595Y-92778655D01*
X185725241Y-92619860D01*
X185729825Y-92612637D01*
X185865933Y-92361957D01*
X185869501Y-92354163D01*
X185970327Y-92087337D01*
X185972804Y-92079131D01*
X186036484Y-91801088D01*
X186037824Y-91792628D01*
X186063342Y-91506701D01*
X186063588Y-91501762D01*
X186064010Y-91461484D01*
X186063867Y-91456520D01*
X186044343Y-91170126D01*
X186043182Y-91161652D01*
X185985335Y-90882321D01*
X185983036Y-90874086D01*
X185887814Y-90605187D01*
X185884417Y-90597337D01*
X185753583Y-90343850D01*
X185749155Y-90336538D01*
X185609548Y-90137899D01*
X185599027Y-90129520D01*
X185585639Y-90136572D01*
X184276020Y-91446190D01*
X184268408Y-91460131D01*
X183538357Y-91460131D01*
X183539592Y-91457869D01*
X183539461Y-91456034D01*
X183535210Y-91449420D01*
X182222482Y-90136693D01*
X182210471Y-90130134D01*
X182198733Y-90139101D01*
X182070709Y-90317267D01*
X182066187Y-90324561D01*
X181932720Y-90576637D01*
X181929234Y-90584465D01*
X181831206Y-90852338D01*
X181828817Y-90860561D01*
X181768049Y-91139269D01*
X181766800Y-91147725D01*
X181744418Y-91432111D01*
X181744329Y-91440661D01*
X181356000Y-91440661D01*
X181356000Y-89766923D01*
X182576006Y-89766923D01*
X182582401Y-89778190D01*
X183891190Y-91086980D01*
X183905131Y-91094592D01*
X183906966Y-91094461D01*
X183913580Y-91090210D01*
X185225066Y-89778723D01*
X185232258Y-89765553D01*
X185224936Y-89755318D01*
X185158586Y-89701010D01*
X185151614Y-89696056D01*
X184908386Y-89547004D01*
X184900816Y-89543047D01*
X184639615Y-89428389D01*
X184631555Y-89425487D01*
X184357225Y-89347342D01*
X184348850Y-89345562D01*
X184066449Y-89305370D01*
X184057901Y-89304742D01*
X183772656Y-89303248D01*
X183764122Y-89303785D01*
X183481309Y-89341019D01*
X183472911Y-89342712D01*
X183197775Y-89417981D01*
X183189688Y-89420797D01*
X182927316Y-89532708D01*
X182919677Y-89536601D01*
X182674920Y-89683084D01*
X182667891Y-89687969D01*
X182584475Y-89754799D01*
X182576006Y-89766923D01*
X181356000Y-89766923D01*
X181356000Y-88899000D01*
X181376002Y-88830879D01*
X181429658Y-88784386D01*
X181482000Y-88773000D01*
X186310000Y-88773000D01*
X186378121Y-88793002D01*
G37*
G04 #@! TD.AperFunction*
G04 #@! TD*
G04 #@! TA.AperFunction,Conductor*
G04 #@! TO.N,+3.3V*
G36*
X164131203Y-110632639D02*
G01*
X164120500Y-110737100D01*
X164120500Y-111512900D01*
X164120837Y-111516146D01*
X164120837Y-111516150D01*
X164124962Y-111555900D01*
X164131474Y-111618666D01*
X164133655Y-111625202D01*
X164133655Y-111625204D01*
X164145820Y-111661666D01*
X164187450Y-111786446D01*
X164280522Y-111936848D01*
X164405697Y-112061805D01*
X164411927Y-112065645D01*
X164411928Y-112065646D01*
X164440737Y-112083404D01*
X164488230Y-112136176D01*
X164499654Y-112206248D01*
X164485037Y-112251362D01*
X164476795Y-112266356D01*
X164473826Y-112271757D01*
X164417315Y-112449901D01*
X164396482Y-112635630D01*
X164412121Y-112821867D01*
X164463636Y-113001520D01*
X164549064Y-113167746D01*
X164552887Y-113172570D01*
X164552890Y-113172574D01*
X164658170Y-113305402D01*
X164665152Y-113314212D01*
X164669846Y-113318207D01*
X164702819Y-113346269D01*
X164807478Y-113435342D01*
X164970621Y-113526519D01*
X165148367Y-113584272D01*
X165333945Y-113606401D01*
X165340080Y-113605929D01*
X165340082Y-113605929D01*
X165396119Y-113601617D01*
X165520287Y-113592063D01*
X165700296Y-113541804D01*
X165705785Y-113539031D01*
X165705791Y-113539029D01*
X165798285Y-113492306D01*
X165867114Y-113457538D01*
X165895524Y-113435342D01*
X165919486Y-113416621D01*
X166014387Y-113342475D01*
X166018413Y-113337811D01*
X166018416Y-113337808D01*
X166132480Y-113205663D01*
X166136507Y-113200998D01*
X166228821Y-113038495D01*
X166243091Y-112995600D01*
X166285867Y-112867009D01*
X166287814Y-112861157D01*
X166293553Y-112815727D01*
X166310796Y-112679241D01*
X166310797Y-112679232D01*
X166311238Y-112675738D01*
X166311611Y-112649000D01*
X166293373Y-112462999D01*
X166289419Y-112449901D01*
X166241136Y-112289983D01*
X166239355Y-112284083D01*
X166221343Y-112250207D01*
X166207024Y-112180669D01*
X166232572Y-112114429D01*
X166266291Y-112083910D01*
X166297125Y-112064829D01*
X166303348Y-112060978D01*
X166428305Y-111935803D01*
X166493865Y-111829446D01*
X166517275Y-111791468D01*
X166517276Y-111791466D01*
X166521115Y-111785238D01*
X166576797Y-111617361D01*
X166587500Y-111512900D01*
X166587500Y-110737100D01*
X166576526Y-110631334D01*
X166574346Y-110624800D01*
X166574345Y-110624795D01*
X166571744Y-110617000D01*
X166624000Y-110617000D01*
X166624000Y-115697000D01*
X161580905Y-120740095D01*
X161518593Y-120774121D01*
X161491810Y-120777000D01*
X157024190Y-120777000D01*
X156956069Y-120756998D01*
X156935095Y-120740095D01*
X156246905Y-120051905D01*
X156212879Y-119989593D01*
X156210000Y-119962810D01*
X156210000Y-119051190D01*
X156230002Y-118983069D01*
X156246905Y-118962095D01*
X156935095Y-118273905D01*
X156997407Y-118239879D01*
X157024190Y-118237000D01*
X160020000Y-118237000D01*
X161290000Y-116967000D01*
X161290000Y-110617000D01*
X164136390Y-110617000D01*
X164131203Y-110632639D01*
G37*
G04 #@! TD.AperFunction*
G04 #@! TD*
G04 #@! TA.AperFunction,Conductor*
G04 #@! TO.N,GND*
G36*
X247904000Y-114173000D02*
G01*
X247020371Y-114173000D01*
X247032870Y-113897766D01*
X247032870Y-113897760D01*
X247033059Y-113893596D01*
X247032672Y-113889166D01*
X247007273Y-113598870D01*
X247006909Y-113594708D01*
X246962832Y-113397515D01*
X246942372Y-113305984D01*
X246942371Y-113305981D01*
X246941460Y-113301905D01*
X246837860Y-113020329D01*
X246835916Y-113016641D01*
X246835912Y-113016633D01*
X246699884Y-112758633D01*
X246699883Y-112758632D01*
X246697931Y-112754929D01*
X246524129Y-112510367D01*
X246319510Y-112290939D01*
X246087667Y-112100502D01*
X245832675Y-111942400D01*
X245771176Y-111914761D01*
X245640684Y-111856116D01*
X245559012Y-111819411D01*
X245345650Y-111755805D01*
X245275486Y-111734888D01*
X245275484Y-111734888D01*
X245271487Y-111733696D01*
X245267367Y-111733043D01*
X245267365Y-111733043D01*
X245148491Y-111714215D01*
X244975152Y-111686761D01*
X244932423Y-111684821D01*
X244882738Y-111682564D01*
X244882719Y-111682564D01*
X244881319Y-111682500D01*
X244693893Y-111682500D01*
X244470630Y-111697329D01*
X244466536Y-111698154D01*
X244466532Y-111698155D01*
X244325487Y-111726595D01*
X244176520Y-111756632D01*
X243892837Y-111854312D01*
X243889104Y-111856181D01*
X243889100Y-111856183D01*
X243628309Y-111986778D01*
X243624565Y-111988653D01*
X243609135Y-111999139D01*
X243402198Y-112139773D01*
X243376416Y-112157294D01*
X243152752Y-112357274D01*
X243150035Y-112360444D01*
X243150034Y-112360445D01*
X242989366Y-112547900D01*
X242957501Y-112585077D01*
X242955227Y-112588579D01*
X242955223Y-112588584D01*
X242827997Y-112784495D01*
X242794093Y-112836703D01*
X242665400Y-113107730D01*
X242664121Y-113111713D01*
X242664120Y-113111716D01*
X242591296Y-113338535D01*
X242573682Y-113393396D01*
X242520552Y-113688684D01*
X242520363Y-113692851D01*
X242520362Y-113692858D01*
X242511127Y-113896219D01*
X242506941Y-113988404D01*
X242523091Y-114173000D01*
X182626000Y-114173000D01*
X182626000Y-113894100D01*
X188138322Y-113894100D01*
X188148874Y-113894598D01*
X188156128Y-113896219D01*
X188221595Y-113894162D01*
X188225552Y-113894100D01*
X196139322Y-113894100D01*
X196149874Y-113894598D01*
X196157128Y-113896219D01*
X196222595Y-113894162D01*
X196226552Y-113894100D01*
X196253383Y-113894100D01*
X196257310Y-113893604D01*
X196258216Y-113893547D01*
X196268860Y-113892708D01*
X196311199Y-113891378D01*
X196329586Y-113886036D01*
X196348943Y-113882028D01*
X196360065Y-113880623D01*
X196360066Y-113880623D01*
X196367932Y-113879629D01*
X196380806Y-113874532D01*
X196407318Y-113864036D01*
X196418545Y-113860192D01*
X196451609Y-113850585D01*
X196451611Y-113850584D01*
X196459225Y-113848372D01*
X196475705Y-113838626D01*
X196493445Y-113829935D01*
X196511254Y-113822884D01*
X196545532Y-113797980D01*
X196555452Y-113791464D01*
X196585079Y-113773943D01*
X196585082Y-113773941D01*
X196591906Y-113769905D01*
X196605433Y-113756378D01*
X196620467Y-113743537D01*
X196629547Y-113736940D01*
X196629548Y-113736939D01*
X196635962Y-113732279D01*
X196662974Y-113699627D01*
X196670963Y-113690848D01*
X198081807Y-112280005D01*
X198144119Y-112245979D01*
X198170902Y-112243100D01*
X198179820Y-112243100D01*
X198247941Y-112263102D01*
X198292090Y-112311903D01*
X198293863Y-112315384D01*
X198295760Y-112319963D01*
X198298346Y-112324183D01*
X198298347Y-112324185D01*
X198417241Y-112518202D01*
X198417245Y-112518208D01*
X198419824Y-112522416D01*
X198574031Y-112702969D01*
X198754584Y-112857176D01*
X198758792Y-112859755D01*
X198758798Y-112859759D01*
X198952817Y-112978654D01*
X198957037Y-112981240D01*
X198961607Y-112983133D01*
X198961611Y-112983135D01*
X199171833Y-113070211D01*
X199176406Y-113072105D01*
X199256609Y-113091360D01*
X199402476Y-113126380D01*
X199402482Y-113126381D01*
X199407289Y-113127535D01*
X199644000Y-113146165D01*
X199880711Y-113127535D01*
X199885518Y-113126381D01*
X199885524Y-113126380D01*
X200031391Y-113091360D01*
X200111594Y-113072105D01*
X200116167Y-113070211D01*
X200326389Y-112983135D01*
X200326393Y-112983133D01*
X200330963Y-112981240D01*
X200335183Y-112978654D01*
X200529202Y-112859759D01*
X200529208Y-112859755D01*
X200533416Y-112857176D01*
X200713969Y-112702969D01*
X200868176Y-112522416D01*
X200870755Y-112518208D01*
X200870759Y-112518202D01*
X200989653Y-112324185D01*
X200989654Y-112324183D01*
X200992240Y-112319963D01*
X200994137Y-112315384D01*
X200995910Y-112311903D01*
X201044656Y-112260285D01*
X201108180Y-112243100D01*
X201117099Y-112243100D01*
X201185220Y-112263102D01*
X201206194Y-112280005D01*
X202588078Y-113661890D01*
X202595190Y-113669705D01*
X202599174Y-113675983D01*
X202604952Y-113681409D01*
X202646931Y-113720830D01*
X202649773Y-113723585D01*
X202668735Y-113742547D01*
X202671862Y-113744973D01*
X202672503Y-113745538D01*
X202680661Y-113752506D01*
X202711542Y-113781504D01*
X202728319Y-113790728D01*
X202744832Y-113801575D01*
X202753698Y-113808452D01*
X202753703Y-113808455D01*
X202759966Y-113813313D01*
X202798364Y-113829929D01*
X202798847Y-113830138D01*
X202809495Y-113835354D01*
X202846622Y-113855765D01*
X202863864Y-113860192D01*
X202865161Y-113860525D01*
X202883859Y-113866926D01*
X202901435Y-113874532D01*
X202943278Y-113881159D01*
X202954897Y-113883565D01*
X202995926Y-113894100D01*
X203015064Y-113894100D01*
X203034774Y-113895651D01*
X203053684Y-113898646D01*
X203095860Y-113894659D01*
X203107719Y-113894100D01*
X209728322Y-113894100D01*
X209738874Y-113894598D01*
X209746128Y-113896219D01*
X209811595Y-113894162D01*
X209815552Y-113894100D01*
X229921322Y-113894100D01*
X229931874Y-113894598D01*
X229939128Y-113896219D01*
X230004595Y-113894162D01*
X230008552Y-113894100D01*
X230035383Y-113894100D01*
X230039310Y-113893604D01*
X230040216Y-113893547D01*
X230050860Y-113892708D01*
X230093199Y-113891378D01*
X230111586Y-113886036D01*
X230130943Y-113882028D01*
X230142065Y-113880623D01*
X230142066Y-113880623D01*
X230149932Y-113879629D01*
X230162806Y-113874532D01*
X230189318Y-113864036D01*
X230200545Y-113860192D01*
X230233609Y-113850585D01*
X230233611Y-113850584D01*
X230241225Y-113848372D01*
X230257705Y-113838626D01*
X230275445Y-113829935D01*
X230293254Y-113822884D01*
X230327532Y-113797980D01*
X230337452Y-113791464D01*
X230367079Y-113773943D01*
X230367082Y-113773941D01*
X230373906Y-113769905D01*
X230387433Y-113756378D01*
X230402467Y-113743537D01*
X230411547Y-113736940D01*
X230411548Y-113736939D01*
X230417962Y-113732279D01*
X230444974Y-113699627D01*
X230452963Y-113690848D01*
X230882883Y-113260928D01*
X230890701Y-113253812D01*
X230896983Y-113249826D01*
X230941845Y-113202053D01*
X230944600Y-113199211D01*
X230963546Y-113180265D01*
X230965977Y-113177131D01*
X230966552Y-113176479D01*
X230973501Y-113168344D01*
X230997839Y-113142426D01*
X231059051Y-113106460D01*
X231129991Y-113109297D01*
X231171353Y-113132725D01*
X231228478Y-113181342D01*
X231391621Y-113272519D01*
X231569367Y-113330272D01*
X231754945Y-113352401D01*
X231761080Y-113351929D01*
X231761082Y-113351929D01*
X231817119Y-113347617D01*
X231941287Y-113338063D01*
X232121296Y-113287804D01*
X232126785Y-113285031D01*
X232126791Y-113285029D01*
X232207924Y-113244045D01*
X232288114Y-113203538D01*
X232293653Y-113199211D01*
X232340486Y-113162621D01*
X232435387Y-113088475D01*
X232439413Y-113083811D01*
X232439416Y-113083808D01*
X232530182Y-112978654D01*
X232557507Y-112946998D01*
X232649821Y-112784495D01*
X232659657Y-112754929D01*
X232706867Y-112613009D01*
X232708814Y-112607157D01*
X232718565Y-112529968D01*
X232731796Y-112425241D01*
X232731797Y-112425232D01*
X232732238Y-112421738D01*
X232732611Y-112395000D01*
X232722707Y-112293991D01*
X232714975Y-112215135D01*
X232714974Y-112215132D01*
X232714373Y-112208999D01*
X232714230Y-112208525D01*
X232720438Y-112139773D01*
X232764038Y-112083741D01*
X232837652Y-112060000D01*
X233418134Y-112060000D01*
X233480316Y-112053245D01*
X233527586Y-112035524D01*
X233608301Y-112005266D01*
X233608304Y-112005264D01*
X233616705Y-112002115D01*
X233621164Y-111998773D01*
X233688848Y-111983970D01*
X233738561Y-111998567D01*
X233743295Y-112002115D01*
X233751696Y-112005264D01*
X233751699Y-112005266D01*
X233832414Y-112035524D01*
X233879684Y-112053245D01*
X233941866Y-112060000D01*
X234688134Y-112060000D01*
X234750316Y-112053245D01*
X234886705Y-112002115D01*
X235003261Y-111914761D01*
X235090615Y-111798205D01*
X235141745Y-111661816D01*
X235148500Y-111599634D01*
X235148500Y-109978366D01*
X235141745Y-109916184D01*
X235090615Y-109779795D01*
X235003261Y-109663239D01*
X234886705Y-109575885D01*
X234750316Y-109524755D01*
X234688134Y-109518000D01*
X233941866Y-109518000D01*
X233879684Y-109524755D01*
X233773686Y-109564492D01*
X233702878Y-109569675D01*
X233640509Y-109535754D01*
X233613820Y-109496553D01*
X233611583Y-109491384D01*
X233609372Y-109483774D01*
X233599625Y-109467293D01*
X233590933Y-109449551D01*
X233583884Y-109431746D01*
X233558983Y-109397472D01*
X233552467Y-109387552D01*
X233534943Y-109357920D01*
X233534941Y-109357917D01*
X233530905Y-109351093D01*
X233526812Y-109347000D01*
X247904000Y-109347000D01*
X247904000Y-114173000D01*
G37*
G04 #@! TD.AperFunction*
G04 #@! TA.AperFunction,Conductor*
G36*
X229613621Y-109977102D02*
G01*
X229660114Y-110030758D01*
X229671500Y-110083100D01*
X229671500Y-111599634D01*
X229678255Y-111661816D01*
X229729385Y-111798205D01*
X229734771Y-111805391D01*
X229811355Y-111907578D01*
X229811358Y-111907581D01*
X229816739Y-111914761D01*
X229844466Y-111935542D01*
X229886980Y-111992400D01*
X229894900Y-112036367D01*
X229894900Y-112471098D01*
X229874898Y-112539219D01*
X229857995Y-112560193D01*
X229781193Y-112636995D01*
X229718881Y-112671021D01*
X229692098Y-112673900D01*
X212269301Y-112673900D01*
X212201180Y-112653898D01*
X212154687Y-112600242D01*
X212144295Y-112532108D01*
X212157796Y-112425241D01*
X212157797Y-112425232D01*
X212158238Y-112421738D01*
X212158611Y-112395000D01*
X212148707Y-112293991D01*
X212140975Y-112215135D01*
X212140974Y-112215132D01*
X212140373Y-112208999D01*
X212140230Y-112208525D01*
X212146438Y-112139773D01*
X212190038Y-112083741D01*
X212263652Y-112060000D01*
X212844134Y-112060000D01*
X212906316Y-112053245D01*
X212953586Y-112035524D01*
X213034301Y-112005266D01*
X213034304Y-112005264D01*
X213042705Y-112002115D01*
X213047164Y-111998773D01*
X213114848Y-111983970D01*
X213164561Y-111998567D01*
X213169295Y-112002115D01*
X213177696Y-112005264D01*
X213177699Y-112005266D01*
X213258414Y-112035524D01*
X213305684Y-112053245D01*
X213367866Y-112060000D01*
X214114134Y-112060000D01*
X214176316Y-112053245D01*
X214312705Y-112002115D01*
X214429261Y-111914761D01*
X214516615Y-111798205D01*
X214567745Y-111661816D01*
X214574500Y-111599634D01*
X214574500Y-110083100D01*
X214594502Y-110014979D01*
X214648158Y-109968486D01*
X214700500Y-109957100D01*
X229545500Y-109957100D01*
X229613621Y-109977102D01*
G37*
G04 #@! TD.AperFunction*
G04 #@! TD*
G04 #@! TA.AperFunction,Conductor*
G04 #@! TO.N,GND*
G36*
X247157931Y-104541002D02*
G01*
X247178905Y-104557905D01*
X247867095Y-105246095D01*
X247901121Y-105308407D01*
X247904000Y-105335190D01*
X247904000Y-109601000D01*
X234920216Y-109601000D01*
X234886705Y-109575885D01*
X234750316Y-109524755D01*
X234688134Y-109518000D01*
X233941866Y-109518000D01*
X233879684Y-109524755D01*
X233773686Y-109564492D01*
X233702878Y-109569675D01*
X233640509Y-109535754D01*
X233613820Y-109496553D01*
X233611583Y-109491384D01*
X233609372Y-109483774D01*
X233599625Y-109467293D01*
X233590933Y-109449551D01*
X233583884Y-109431746D01*
X233558983Y-109397472D01*
X233552467Y-109387552D01*
X233534943Y-109357920D01*
X233534941Y-109357917D01*
X233530905Y-109351093D01*
X233517374Y-109337562D01*
X233504532Y-109322527D01*
X233493279Y-109307038D01*
X233460633Y-109280031D01*
X233451853Y-109272041D01*
X233148920Y-108969108D01*
X233141810Y-108961295D01*
X233137826Y-108955017D01*
X233090069Y-108910170D01*
X233087227Y-108907415D01*
X233068265Y-108888453D01*
X233065138Y-108886027D01*
X233064497Y-108885462D01*
X233056337Y-108878493D01*
X233031239Y-108854925D01*
X233025458Y-108849496D01*
X233008681Y-108840272D01*
X232992168Y-108829425D01*
X232983302Y-108822548D01*
X232983297Y-108822545D01*
X232977034Y-108817687D01*
X232938150Y-108800861D01*
X232927505Y-108795646D01*
X232890378Y-108775235D01*
X232871838Y-108770475D01*
X232853141Y-108764074D01*
X232835565Y-108756468D01*
X232793722Y-108749841D01*
X232782103Y-108747435D01*
X232741074Y-108736900D01*
X232721936Y-108736900D01*
X232702225Y-108735349D01*
X232683316Y-108732354D01*
X232657113Y-108734831D01*
X232641139Y-108736341D01*
X232629281Y-108736900D01*
X212540584Y-108736900D01*
X212518695Y-108734831D01*
X212517400Y-108734750D01*
X212509613Y-108733264D01*
X212455779Y-108736651D01*
X212447867Y-108736900D01*
X190811936Y-108736900D01*
X190792225Y-108735349D01*
X190773316Y-108732354D01*
X190747113Y-108734831D01*
X190731139Y-108736341D01*
X190719281Y-108736900D01*
X184608090Y-108736900D01*
X184539969Y-108716898D01*
X184518995Y-108699995D01*
X183908395Y-108089395D01*
X183874369Y-108027083D01*
X183879434Y-107956268D01*
X183921981Y-107899432D01*
X183988501Y-107874621D01*
X183997490Y-107874300D01*
X185918783Y-107874300D01*
X185920104Y-107874307D01*
X186010709Y-107875256D01*
X186014028Y-107874538D01*
X186018734Y-107874300D01*
X207762783Y-107874300D01*
X207764104Y-107874307D01*
X207854709Y-107875256D01*
X207858028Y-107874538D01*
X207862734Y-107874300D01*
X227828783Y-107874300D01*
X227830104Y-107874307D01*
X227920709Y-107875256D01*
X227963370Y-107866032D01*
X227975949Y-107863972D01*
X228012329Y-107859892D01*
X228012332Y-107859891D01*
X228019325Y-107859107D01*
X228051226Y-107847998D01*
X228066036Y-107843836D01*
X228099051Y-107836698D01*
X228105440Y-107833719D01*
X228138619Y-107818248D01*
X228150429Y-107813452D01*
X228191639Y-107799101D01*
X228220283Y-107781202D01*
X228233792Y-107773867D01*
X228264419Y-107759585D01*
X228298910Y-107732831D01*
X228309366Y-107725537D01*
X228340400Y-107706145D01*
X228346376Y-107702411D01*
X228375344Y-107673644D01*
X228375982Y-107673047D01*
X228376653Y-107672527D01*
X228402911Y-107646269D01*
X228475846Y-107573841D01*
X228476506Y-107572800D01*
X228477615Y-107571565D01*
X228914469Y-107134711D01*
X228915406Y-107133782D01*
X228975218Y-107075210D01*
X228975219Y-107075209D01*
X228980250Y-107070282D01*
X228984064Y-107064364D01*
X228984068Y-107064359D01*
X229003895Y-107033593D01*
X229011334Y-107023240D01*
X229034170Y-106994634D01*
X229038563Y-106989131D01*
X229053266Y-106958717D01*
X229060791Y-106945307D01*
X229075275Y-106922833D01*
X229075276Y-106922832D01*
X229079092Y-106916910D01*
X229094024Y-106875885D01*
X229098984Y-106864143D01*
X229117976Y-106824856D01*
X229125574Y-106791947D01*
X229129942Y-106777200D01*
X229141498Y-106745451D01*
X229146971Y-106702126D01*
X229149204Y-106689597D01*
X229157438Y-106653935D01*
X229157439Y-106653927D01*
X229159022Y-106647070D01*
X229159063Y-106635500D01*
X229159165Y-106606261D01*
X229159194Y-106605368D01*
X229159300Y-106604530D01*
X229159300Y-106567315D01*
X229159548Y-106496142D01*
X229159646Y-106468141D01*
X229159646Y-106468136D01*
X229159658Y-106464608D01*
X229159389Y-106463405D01*
X229159300Y-106461760D01*
X229159300Y-106407150D01*
X229179302Y-106339029D01*
X229196127Y-106318132D01*
X229277634Y-106236483D01*
X229282805Y-106231303D01*
X229329109Y-106156184D01*
X229381881Y-106108691D01*
X229436369Y-106096300D01*
X229549828Y-106096300D01*
X229617949Y-106116302D01*
X229664442Y-106169958D01*
X229675091Y-106208692D01*
X229678255Y-106237816D01*
X229729385Y-106374205D01*
X229816739Y-106490761D01*
X229933295Y-106578115D01*
X230069684Y-106629245D01*
X230131866Y-106636000D01*
X230878134Y-106636000D01*
X230940316Y-106629245D01*
X231001626Y-106606261D01*
X231068301Y-106581266D01*
X231068304Y-106581264D01*
X231076705Y-106578115D01*
X231081164Y-106574773D01*
X231148848Y-106559970D01*
X231198561Y-106574567D01*
X231203295Y-106578115D01*
X231211696Y-106581264D01*
X231211699Y-106581266D01*
X231278374Y-106606261D01*
X231339684Y-106629245D01*
X231401866Y-106636000D01*
X232148134Y-106636000D01*
X232210316Y-106629245D01*
X232271626Y-106606261D01*
X232338301Y-106581266D01*
X232338304Y-106581264D01*
X232346705Y-106578115D01*
X232351164Y-106574773D01*
X232418848Y-106559970D01*
X232468561Y-106574567D01*
X232473295Y-106578115D01*
X232481696Y-106581264D01*
X232481699Y-106581266D01*
X232548374Y-106606261D01*
X232609684Y-106629245D01*
X232671866Y-106636000D01*
X233418134Y-106636000D01*
X233480316Y-106629245D01*
X233541626Y-106606261D01*
X233608301Y-106581266D01*
X233608304Y-106581264D01*
X233616705Y-106578115D01*
X233621490Y-106574529D01*
X233689374Y-106559682D01*
X233741035Y-106574851D01*
X233751942Y-106580823D01*
X233872394Y-106625978D01*
X233887649Y-106629605D01*
X233938514Y-106635131D01*
X233945328Y-106635500D01*
X234042885Y-106635500D01*
X234058124Y-106631025D01*
X234059329Y-106629635D01*
X234061000Y-106621952D01*
X234061000Y-106617384D01*
X234569000Y-106617384D01*
X234573475Y-106632623D01*
X234574865Y-106633828D01*
X234582548Y-106635499D01*
X234684669Y-106635499D01*
X234691490Y-106635129D01*
X234742352Y-106629605D01*
X234757604Y-106625979D01*
X234878054Y-106580824D01*
X234893649Y-106572286D01*
X234995724Y-106495785D01*
X235008285Y-106483224D01*
X235084786Y-106381149D01*
X235093324Y-106365554D01*
X235138478Y-106245106D01*
X235142105Y-106229851D01*
X235147631Y-106178986D01*
X235148000Y-106172172D01*
X235148000Y-105637115D01*
X235143525Y-105621876D01*
X235142135Y-105620671D01*
X235134452Y-105619000D01*
X234587115Y-105619000D01*
X234571876Y-105623475D01*
X234570671Y-105624865D01*
X234569000Y-105632548D01*
X234569000Y-106617384D01*
X234061000Y-106617384D01*
X234061000Y-105237000D01*
X234081002Y-105168879D01*
X234134658Y-105122386D01*
X234187000Y-105111000D01*
X235129884Y-105111000D01*
X235145123Y-105106525D01*
X235146328Y-105105135D01*
X235147999Y-105097452D01*
X235147999Y-104647000D01*
X235168001Y-104578879D01*
X235221657Y-104532386D01*
X235273999Y-104521000D01*
X247089810Y-104521000D01*
X247157931Y-104541002D01*
G37*
G04 #@! TD.AperFunction*
G04 #@! TA.AperFunction,Conductor*
G36*
X225128297Y-104541002D02*
G01*
X225174790Y-104594658D01*
X225185520Y-104659843D01*
X225175828Y-104754440D01*
X225175500Y-104760855D01*
X225175500Y-105010885D01*
X225179975Y-105026124D01*
X225181365Y-105027329D01*
X225189048Y-105029000D01*
X226399000Y-105029000D01*
X226467121Y-105049002D01*
X226513614Y-105102658D01*
X226525000Y-105155000D01*
X226525000Y-105411000D01*
X226504998Y-105479121D01*
X226451342Y-105525614D01*
X226399000Y-105537000D01*
X225193616Y-105537000D01*
X225178377Y-105541475D01*
X225177172Y-105542865D01*
X225175501Y-105550548D01*
X225175501Y-105805095D01*
X225175838Y-105811614D01*
X225185757Y-105907206D01*
X225188649Y-105920600D01*
X225242406Y-106081732D01*
X225239276Y-106082776D01*
X225247796Y-106138531D01*
X225218874Y-106203369D01*
X225159489Y-106242278D01*
X225122925Y-106247700D01*
X214700000Y-106247700D01*
X214631879Y-106227698D01*
X214585386Y-106174042D01*
X214574000Y-106121700D01*
X214574000Y-105637115D01*
X214569525Y-105621876D01*
X214568135Y-105620671D01*
X214560452Y-105619000D01*
X213613000Y-105619000D01*
X213544879Y-105598998D01*
X213498386Y-105545342D01*
X213487000Y-105493000D01*
X213487000Y-105237000D01*
X213507002Y-105168879D01*
X213560658Y-105122386D01*
X213613000Y-105111000D01*
X214555884Y-105111000D01*
X214571123Y-105106525D01*
X214572328Y-105105135D01*
X214573999Y-105097452D01*
X214573999Y-104647000D01*
X214594001Y-104578879D01*
X214647657Y-104532386D01*
X214699999Y-104521000D01*
X225060176Y-104521000D01*
X225128297Y-104541002D01*
G37*
G04 #@! TD.AperFunction*
G04 #@! TA.AperFunction,Conductor*
G36*
X204575797Y-104541002D02*
G01*
X204622290Y-104594658D01*
X204633020Y-104659843D01*
X204623328Y-104754440D01*
X204623000Y-104760855D01*
X204623000Y-105010885D01*
X204627475Y-105026124D01*
X204628865Y-105027329D01*
X204636548Y-105029000D01*
X205846500Y-105029000D01*
X205914621Y-105049002D01*
X205961114Y-105102658D01*
X205972500Y-105155000D01*
X205972500Y-105411000D01*
X205952498Y-105479121D01*
X205898842Y-105525614D01*
X205846500Y-105537000D01*
X204641116Y-105537000D01*
X204625877Y-105541475D01*
X204624672Y-105542865D01*
X204623001Y-105550548D01*
X204623001Y-105805095D01*
X204623338Y-105811614D01*
X204633257Y-105907206D01*
X204636149Y-105920600D01*
X204689906Y-106081732D01*
X204686776Y-106082776D01*
X204695296Y-106138531D01*
X204666374Y-106203369D01*
X204606989Y-106242278D01*
X204570425Y-106247700D01*
X193110000Y-106247700D01*
X193041879Y-106227698D01*
X192995386Y-106174042D01*
X192984000Y-106121700D01*
X192984000Y-105637115D01*
X192979525Y-105621876D01*
X192978135Y-105620671D01*
X192970452Y-105619000D01*
X192023000Y-105619000D01*
X191954879Y-105598998D01*
X191908386Y-105545342D01*
X191897000Y-105493000D01*
X191897000Y-105237000D01*
X191917002Y-105168879D01*
X191970658Y-105122386D01*
X192023000Y-105111000D01*
X192965884Y-105111000D01*
X192981123Y-105106525D01*
X192982328Y-105105135D01*
X192983999Y-105097452D01*
X192983999Y-104647000D01*
X193004001Y-104578879D01*
X193057657Y-104532386D01*
X193109999Y-104521000D01*
X204507676Y-104521000D01*
X204575797Y-104541002D01*
G37*
G04 #@! TD.AperFunction*
G04 #@! TA.AperFunction,Conductor*
G36*
X182985797Y-104541002D02*
G01*
X183032290Y-104594658D01*
X183043020Y-104659843D01*
X183033328Y-104754440D01*
X183033000Y-104760855D01*
X183033000Y-105010885D01*
X183037475Y-105026124D01*
X183038865Y-105027329D01*
X183046548Y-105029000D01*
X184256500Y-105029000D01*
X184324621Y-105049002D01*
X184371114Y-105102658D01*
X184382500Y-105155000D01*
X184382500Y-105411000D01*
X184362498Y-105479121D01*
X184308842Y-105525614D01*
X184256500Y-105537000D01*
X183051116Y-105537000D01*
X183035877Y-105541475D01*
X183034672Y-105542865D01*
X183033001Y-105550548D01*
X183033001Y-105805095D01*
X183033338Y-105811614D01*
X183043257Y-105907206D01*
X183046149Y-105920600D01*
X183082586Y-106029816D01*
X183085170Y-106100766D01*
X183048986Y-106161849D01*
X182985522Y-106193674D01*
X182914927Y-106186135D01*
X182873967Y-106158787D01*
X181451275Y-104736095D01*
X181417249Y-104673783D01*
X181422314Y-104602968D01*
X181464861Y-104546132D01*
X181531381Y-104521321D01*
X181540370Y-104521000D01*
X182917676Y-104521000D01*
X182985797Y-104541002D01*
G37*
G04 #@! TD.AperFunction*
G04 #@! TD*
G04 #@! TA.AperFunction,Conductor*
G04 #@! TO.N,GND*
G36*
X172762120Y-99207002D02*
G01*
X172783094Y-99223905D01*
X182232499Y-108673310D01*
X182266525Y-108735622D01*
X182261460Y-108806437D01*
X182232500Y-108851500D01*
X181611072Y-109472928D01*
X181548761Y-109506952D01*
X181477946Y-109501888D01*
X181424335Y-109463468D01*
X181404388Y-109439010D01*
X181404385Y-109439007D01*
X181400493Y-109434235D01*
X181389104Y-109424813D01*
X181261239Y-109319034D01*
X181261236Y-109319032D01*
X181256489Y-109315105D01*
X181092089Y-109226214D01*
X181002821Y-109198581D01*
X180919441Y-109172770D01*
X180919438Y-109172769D01*
X180913554Y-109170948D01*
X180907429Y-109170304D01*
X180907428Y-109170304D01*
X180733813Y-109152056D01*
X180733812Y-109152056D01*
X180727685Y-109151412D01*
X180609087Y-109162206D01*
X180547703Y-109167792D01*
X180547702Y-109167792D01*
X180541562Y-109168351D01*
X180535648Y-109170092D01*
X180535646Y-109170092D01*
X180413466Y-109206052D01*
X180362273Y-109221119D01*
X180196647Y-109307705D01*
X180050995Y-109424813D01*
X180026595Y-109453892D01*
X179967486Y-109493218D01*
X179930074Y-109498900D01*
X177469901Y-109498900D01*
X177401780Y-109478898D01*
X177380806Y-109461995D01*
X169267920Y-101349108D01*
X169260810Y-101341295D01*
X169256826Y-101335017D01*
X169209069Y-101290170D01*
X169206227Y-101287415D01*
X169187265Y-101268453D01*
X169184138Y-101266027D01*
X169183497Y-101265462D01*
X169175337Y-101258493D01*
X169150239Y-101234925D01*
X169144458Y-101229496D01*
X169127681Y-101220272D01*
X169111168Y-101209425D01*
X169102302Y-101202548D01*
X169102297Y-101202545D01*
X169096034Y-101197687D01*
X169057150Y-101180861D01*
X169046505Y-101175646D01*
X169009378Y-101155235D01*
X168990838Y-101150475D01*
X168972141Y-101144074D01*
X168954565Y-101136468D01*
X168912722Y-101129841D01*
X168901103Y-101127435D01*
X168860074Y-101116900D01*
X168840936Y-101116900D01*
X168821225Y-101115349D01*
X168802316Y-101112354D01*
X168789199Y-101113594D01*
X168760139Y-101116341D01*
X168748281Y-101116900D01*
X167258000Y-101116900D01*
X167189879Y-101096898D01*
X167143386Y-101043242D01*
X167132000Y-100990900D01*
X167132000Y-99313000D01*
X167152002Y-99244879D01*
X167205658Y-99198386D01*
X167258000Y-99187000D01*
X172693999Y-99187000D01*
X172762120Y-99207002D01*
G37*
G04 #@! TD.AperFunction*
G04 #@! TD*
G04 #@! TA.AperFunction,Conductor*
G04 #@! TO.N,GND*
G36*
X236728000Y-108077000D02*
G01*
X236728000Y-108585000D01*
X236220000Y-109093000D01*
X233272812Y-109093000D01*
X233148920Y-108969108D01*
X233141810Y-108961295D01*
X233137826Y-108955017D01*
X233090069Y-108910170D01*
X233087227Y-108907415D01*
X233068265Y-108888453D01*
X233065138Y-108886027D01*
X233064497Y-108885462D01*
X233056337Y-108878493D01*
X233031239Y-108854925D01*
X233025458Y-108849496D01*
X233008681Y-108840272D01*
X232992168Y-108829425D01*
X232983302Y-108822548D01*
X232983297Y-108822545D01*
X232977034Y-108817687D01*
X232938150Y-108800861D01*
X232927505Y-108795646D01*
X232890378Y-108775235D01*
X232871838Y-108770475D01*
X232853141Y-108764074D01*
X232835565Y-108756468D01*
X232793722Y-108749841D01*
X232782103Y-108747435D01*
X232741074Y-108736900D01*
X232721936Y-108736900D01*
X232702225Y-108735349D01*
X232683316Y-108732354D01*
X232657113Y-108734831D01*
X232641139Y-108736341D01*
X232629281Y-108736900D01*
X212540584Y-108736900D01*
X212518695Y-108734831D01*
X212517400Y-108734750D01*
X212509613Y-108733264D01*
X212455779Y-108736651D01*
X212447867Y-108736900D01*
X190811936Y-108736900D01*
X190792225Y-108735349D01*
X190773316Y-108732354D01*
X190747113Y-108734831D01*
X190731139Y-108736341D01*
X190719281Y-108736900D01*
X184100090Y-108736900D01*
X184031969Y-108716898D01*
X184010995Y-108699995D01*
X183400395Y-108089395D01*
X183366369Y-108027083D01*
X183371434Y-107956268D01*
X183413981Y-107899432D01*
X183480501Y-107874621D01*
X183489490Y-107874300D01*
X185918783Y-107874300D01*
X185920104Y-107874307D01*
X186010709Y-107875256D01*
X186014028Y-107874538D01*
X186018734Y-107874300D01*
X207762783Y-107874300D01*
X207764104Y-107874307D01*
X207854709Y-107875256D01*
X207858028Y-107874538D01*
X207862734Y-107874300D01*
X227828783Y-107874300D01*
X227830104Y-107874307D01*
X227920709Y-107875256D01*
X227963370Y-107866032D01*
X227975949Y-107863972D01*
X228012329Y-107859892D01*
X228012332Y-107859891D01*
X228019325Y-107859107D01*
X228051226Y-107847998D01*
X228066036Y-107843836D01*
X228099051Y-107836698D01*
X228105440Y-107833719D01*
X228138619Y-107818248D01*
X228150429Y-107813452D01*
X228191639Y-107799101D01*
X228220283Y-107781202D01*
X228233792Y-107773867D01*
X228264419Y-107759585D01*
X228298910Y-107732831D01*
X228309366Y-107725537D01*
X228340400Y-107706145D01*
X228346376Y-107702411D01*
X228375344Y-107673644D01*
X228375982Y-107673047D01*
X228376653Y-107672527D01*
X228402911Y-107646269D01*
X228475846Y-107573841D01*
X228476506Y-107572800D01*
X228477615Y-107571565D01*
X228480180Y-107569000D01*
X236220000Y-107569000D01*
X236728000Y-108077000D01*
G37*
G04 #@! TD.AperFunction*
G04 #@! TD*
G04 #@! TA.AperFunction,Conductor*
G04 #@! TO.N,Net-(J3-Pad1)*
G36*
X207206121Y-88793002D02*
G01*
X207252614Y-88846658D01*
X207264000Y-88899000D01*
X207264000Y-95759000D01*
X207243998Y-95827121D01*
X207190342Y-95873614D01*
X207138000Y-95885000D01*
X205831921Y-95885000D01*
X205763800Y-95864998D01*
X205717307Y-95811342D01*
X205706960Y-95748470D01*
X205706508Y-95748447D01*
X205706614Y-95746367D01*
X205706578Y-95746147D01*
X205706673Y-95745224D01*
X205707000Y-95738815D01*
X205707000Y-95677115D01*
X205702525Y-95661876D01*
X205701135Y-95660671D01*
X205693452Y-95659000D01*
X203759115Y-95659000D01*
X203743876Y-95663475D01*
X203742671Y-95664865D01*
X203741000Y-95672548D01*
X203741000Y-95738766D01*
X203741337Y-95745287D01*
X203741412Y-95746006D01*
X203741383Y-95746164D01*
X203741505Y-95748524D01*
X203740942Y-95748553D01*
X203728542Y-95815826D01*
X203679967Y-95867604D01*
X203616084Y-95885000D01*
X202310000Y-95885000D01*
X202241879Y-95864998D01*
X202195386Y-95811342D01*
X202184000Y-95759000D01*
X202184000Y-95132885D01*
X203741000Y-95132885D01*
X203745475Y-95148124D01*
X203746865Y-95149329D01*
X203754548Y-95151000D01*
X204451885Y-95151000D01*
X204467124Y-95146525D01*
X204468329Y-95145135D01*
X204470000Y-95137452D01*
X204470000Y-95132885D01*
X204978000Y-95132885D01*
X204982475Y-95148124D01*
X204983865Y-95149329D01*
X204991548Y-95151000D01*
X205688885Y-95151000D01*
X205704124Y-95146525D01*
X205705329Y-95145135D01*
X205707000Y-95137452D01*
X205707000Y-95071234D01*
X205706663Y-95064718D01*
X205696925Y-94970868D01*
X205694032Y-94957472D01*
X205643512Y-94806047D01*
X205637347Y-94792885D01*
X205553574Y-94657508D01*
X205544540Y-94646110D01*
X205431871Y-94533637D01*
X205420460Y-94524625D01*
X205284937Y-94441088D01*
X205271759Y-94434944D01*
X205120234Y-94384685D01*
X205106868Y-94381819D01*
X205014230Y-94372328D01*
X205007815Y-94372000D01*
X204996115Y-94372000D01*
X204980876Y-94376475D01*
X204979671Y-94377865D01*
X204978000Y-94385548D01*
X204978000Y-95132885D01*
X204470000Y-95132885D01*
X204470000Y-94390115D01*
X204465525Y-94374876D01*
X204464135Y-94373671D01*
X204456452Y-94372000D01*
X204440234Y-94372000D01*
X204433718Y-94372337D01*
X204339868Y-94382075D01*
X204326472Y-94384968D01*
X204175047Y-94435488D01*
X204161885Y-94441653D01*
X204026508Y-94525426D01*
X204015110Y-94534460D01*
X203902637Y-94647129D01*
X203893625Y-94658540D01*
X203810088Y-94794063D01*
X203803944Y-94807241D01*
X203753685Y-94958766D01*
X203750819Y-94972132D01*
X203741328Y-95064770D01*
X203741000Y-95071185D01*
X203741000Y-95132885D01*
X202184000Y-95132885D01*
X202184000Y-93133814D01*
X203403259Y-93133814D01*
X203410312Y-93143785D01*
X203459071Y-93184554D01*
X203466003Y-93189589D01*
X203707633Y-93341164D01*
X203715184Y-93345213D01*
X203975160Y-93462597D01*
X203983191Y-93465583D01*
X204256690Y-93546597D01*
X204265042Y-93548464D01*
X204547012Y-93591611D01*
X204555545Y-93592327D01*
X204840757Y-93596809D01*
X204849308Y-93596360D01*
X205132486Y-93562092D01*
X205140900Y-93560487D01*
X205416813Y-93488103D01*
X205424929Y-93485372D01*
X205688463Y-93376212D01*
X205696131Y-93372406D01*
X205942420Y-93228486D01*
X205949493Y-93223679D01*
X206051361Y-93143804D01*
X206059830Y-93131947D01*
X206053314Y-93120325D01*
X204744810Y-91811820D01*
X204730869Y-91804208D01*
X204729034Y-91804339D01*
X204722420Y-91808590D01*
X203410551Y-93120460D01*
X203403259Y-93133814D01*
X202184000Y-93133814D01*
X202184000Y-91421461D01*
X202572329Y-91421461D01*
X202588750Y-91706234D01*
X202589824Y-91714740D01*
X202644739Y-91994648D01*
X202646955Y-92002916D01*
X202739353Y-92272792D01*
X202742668Y-92280677D01*
X202870839Y-92535517D01*
X202875195Y-92542883D01*
X203025630Y-92761766D01*
X203035885Y-92770110D01*
X203049625Y-92762964D01*
X204359980Y-91452610D01*
X204366357Y-91440931D01*
X205096408Y-91440931D01*
X205096539Y-91442766D01*
X205100790Y-91449380D01*
X206412887Y-92761476D01*
X206425097Y-92768144D01*
X206436595Y-92759455D01*
X206553241Y-92600660D01*
X206557825Y-92593437D01*
X206693933Y-92342757D01*
X206697501Y-92334963D01*
X206798327Y-92068137D01*
X206800804Y-92059931D01*
X206864484Y-91781888D01*
X206865824Y-91773428D01*
X206891342Y-91487501D01*
X206891588Y-91482562D01*
X206892010Y-91442284D01*
X206891867Y-91437320D01*
X206872343Y-91150926D01*
X206871182Y-91142452D01*
X206813335Y-90863121D01*
X206811036Y-90854886D01*
X206715814Y-90585987D01*
X206712417Y-90578137D01*
X206581583Y-90324650D01*
X206577155Y-90317338D01*
X206437548Y-90118699D01*
X206427027Y-90110320D01*
X206413639Y-90117372D01*
X205104020Y-91426990D01*
X205096408Y-91440931D01*
X204366357Y-91440931D01*
X204367592Y-91438669D01*
X204367461Y-91436834D01*
X204363210Y-91430220D01*
X203050482Y-90117493D01*
X203038471Y-90110934D01*
X203026733Y-90119901D01*
X202898709Y-90298067D01*
X202894187Y-90305361D01*
X202760720Y-90557437D01*
X202757234Y-90565265D01*
X202659206Y-90833138D01*
X202656817Y-90841361D01*
X202596049Y-91120069D01*
X202594800Y-91128525D01*
X202572418Y-91412911D01*
X202572329Y-91421461D01*
X202184000Y-91421461D01*
X202184000Y-89747723D01*
X203404006Y-89747723D01*
X203410401Y-89758990D01*
X204719190Y-91067780D01*
X204733131Y-91075392D01*
X204734966Y-91075261D01*
X204741580Y-91071010D01*
X206053066Y-89759523D01*
X206060258Y-89746353D01*
X206052936Y-89736118D01*
X205986586Y-89681810D01*
X205979614Y-89676856D01*
X205736386Y-89527804D01*
X205728816Y-89523847D01*
X205467615Y-89409189D01*
X205459555Y-89406287D01*
X205185225Y-89328142D01*
X205176850Y-89326362D01*
X204894449Y-89286170D01*
X204885901Y-89285542D01*
X204600656Y-89284048D01*
X204592122Y-89284585D01*
X204309309Y-89321819D01*
X204300911Y-89323512D01*
X204025775Y-89398781D01*
X204017688Y-89401597D01*
X203755316Y-89513508D01*
X203747677Y-89517401D01*
X203502920Y-89663884D01*
X203495891Y-89668769D01*
X203412475Y-89735599D01*
X203404006Y-89747723D01*
X202184000Y-89747723D01*
X202184000Y-88899000D01*
X202204002Y-88830879D01*
X202257658Y-88784386D01*
X202310000Y-88773000D01*
X207138000Y-88773000D01*
X207206121Y-88793002D01*
G37*
G04 #@! TD.AperFunction*
G04 #@! TD*
G04 #@! TA.AperFunction,Conductor*
G04 #@! TO.N,GND*
G36*
X155702000Y-122702597D02*
G01*
X155681998Y-122770718D01*
X155673434Y-122782488D01*
X155586512Y-122888496D01*
X155586508Y-122888502D01*
X155583128Y-122892624D01*
X155556878Y-122938739D01*
X155505798Y-122988044D01*
X155436168Y-123001906D01*
X155370096Y-122975923D01*
X155342857Y-122946773D01*
X155253785Y-122814470D01*
X155247124Y-122806184D01*
X155093820Y-122645480D01*
X155085852Y-122638431D01*
X154907664Y-122505856D01*
X154898634Y-122500257D01*
X154700653Y-122399598D01*
X154690792Y-122395595D01*
X154478699Y-122329737D01*
X154468304Y-122327452D01*
X154449959Y-122325020D01*
X154435792Y-122327217D01*
X154432000Y-122340401D01*
X154432000Y-125307488D01*
X154435973Y-125321019D01*
X154446580Y-125322544D01*
X154568343Y-125296996D01*
X154578539Y-125293936D01*
X154785097Y-125212363D01*
X154794634Y-125207629D01*
X154984503Y-125092414D01*
X154993093Y-125086150D01*
X155160837Y-124940589D01*
X155168257Y-124932959D01*
X155309073Y-124761220D01*
X155315102Y-124752449D01*
X155338533Y-124711285D01*
X155389615Y-124661978D01*
X155459245Y-124648116D01*
X155525316Y-124674099D01*
X155552555Y-124703249D01*
X155644804Y-124840272D01*
X155648483Y-124844129D01*
X155648485Y-124844131D01*
X155667171Y-124863719D01*
X155699718Y-124926816D01*
X155702000Y-124950690D01*
X155702000Y-125730500D01*
X155681998Y-125798621D01*
X155628342Y-125845114D01*
X155576000Y-125856500D01*
X150748000Y-125856500D01*
X150679879Y-125836498D01*
X150633386Y-125782842D01*
X150622000Y-125730500D01*
X150622000Y-125181900D01*
X150642002Y-125113779D01*
X150695658Y-125067286D01*
X150765932Y-125057182D01*
X150823213Y-125080811D01*
X150908334Y-125144143D01*
X150917366Y-125149743D01*
X151115347Y-125250402D01*
X151125208Y-125254405D01*
X151337301Y-125320263D01*
X151347696Y-125322548D01*
X151366041Y-125324980D01*
X151380208Y-125322783D01*
X151384000Y-125309599D01*
X151384000Y-125307488D01*
X151892000Y-125307488D01*
X151895973Y-125321019D01*
X151906580Y-125322544D01*
X152028343Y-125296996D01*
X152038539Y-125293936D01*
X152245097Y-125212363D01*
X152254634Y-125207629D01*
X152444503Y-125092414D01*
X152453093Y-125086150D01*
X152620837Y-124940589D01*
X152628257Y-124932959D01*
X152769073Y-124761220D01*
X152775095Y-124752458D01*
X152798810Y-124710798D01*
X152849893Y-124661492D01*
X152919524Y-124647631D01*
X152985594Y-124673615D01*
X153012832Y-124702764D01*
X153102215Y-124835531D01*
X153108876Y-124843816D01*
X153262180Y-125004520D01*
X153270148Y-125011569D01*
X153448336Y-125144144D01*
X153457366Y-125149743D01*
X153655347Y-125250402D01*
X153665208Y-125254405D01*
X153877301Y-125320263D01*
X153887696Y-125322548D01*
X153906041Y-125324980D01*
X153920208Y-125322783D01*
X153924000Y-125309599D01*
X153924000Y-124097115D01*
X153919525Y-124081876D01*
X153918135Y-124080671D01*
X153910452Y-124079000D01*
X151910115Y-124079000D01*
X151894876Y-124083475D01*
X151893671Y-124084865D01*
X151892000Y-124092548D01*
X151892000Y-125307488D01*
X151384000Y-125307488D01*
X151384000Y-123552885D01*
X151892000Y-123552885D01*
X151896475Y-123568124D01*
X151897865Y-123569329D01*
X151905548Y-123571000D01*
X153905885Y-123571000D01*
X153921124Y-123566525D01*
X153922329Y-123565135D01*
X153924000Y-123557452D01*
X153924000Y-122342512D01*
X153920027Y-122328981D01*
X153909420Y-122327456D01*
X153787657Y-122353004D01*
X153777461Y-122356064D01*
X153570903Y-122437637D01*
X153561366Y-122442371D01*
X153371497Y-122557586D01*
X153362907Y-122563850D01*
X153195163Y-122709411D01*
X153187743Y-122717041D01*
X153046927Y-122888780D01*
X153040905Y-122897542D01*
X153017190Y-122939202D01*
X152966107Y-122988508D01*
X152896476Y-123002369D01*
X152830406Y-122976385D01*
X152803168Y-122947236D01*
X152713785Y-122814469D01*
X152707124Y-122806184D01*
X152553820Y-122645480D01*
X152545852Y-122638431D01*
X152367664Y-122505856D01*
X152358634Y-122500257D01*
X152160653Y-122399598D01*
X152150792Y-122395595D01*
X151938699Y-122329737D01*
X151928304Y-122327452D01*
X151909959Y-122325020D01*
X151895792Y-122327217D01*
X151892000Y-122340401D01*
X151892000Y-123552885D01*
X151384000Y-123552885D01*
X151384000Y-122342512D01*
X151380027Y-122328981D01*
X151369420Y-122327456D01*
X151247657Y-122353004D01*
X151237461Y-122356064D01*
X151030903Y-122437637D01*
X151021366Y-122442371D01*
X150831497Y-122557586D01*
X150822238Y-122564338D01*
X150755412Y-122588313D01*
X150686232Y-122572353D01*
X150636664Y-122521525D01*
X150622000Y-122462531D01*
X150622000Y-112955190D01*
X150642002Y-112887069D01*
X150658905Y-112866095D01*
X152109095Y-111415905D01*
X152171407Y-111381879D01*
X152198190Y-111379000D01*
X155702000Y-111379000D01*
X155702000Y-122702597D01*
G37*
G04 #@! TD.AperFunction*
G04 #@! TD*
G04 #@! TA.AperFunction,Conductor*
G04 #@! TO.N,+5V*
G36*
X148464450Y-106194946D02*
G01*
X148557522Y-106345348D01*
X148682697Y-106470305D01*
X148688927Y-106474145D01*
X148688928Y-106474146D01*
X148826554Y-106558980D01*
X148833262Y-106563115D01*
X148913005Y-106589564D01*
X148994611Y-106616632D01*
X148994613Y-106616632D01*
X149001139Y-106618797D01*
X149007975Y-106619497D01*
X149007978Y-106619498D01*
X149051031Y-106623909D01*
X149105600Y-106629500D01*
X150106400Y-106629500D01*
X150109646Y-106629163D01*
X150109650Y-106629163D01*
X150114000Y-106628712D01*
X150114000Y-114681000D01*
X138904546Y-114681000D01*
X138965038Y-114492591D01*
X138965038Y-114492590D01*
X138966318Y-114488604D01*
X139019448Y-114193316D01*
X139033059Y-113893596D01*
X139006909Y-113594708D01*
X138962832Y-113397515D01*
X138942372Y-113305984D01*
X138942371Y-113305981D01*
X138941460Y-113301905D01*
X138837860Y-113020329D01*
X138835916Y-113016641D01*
X138835912Y-113016633D01*
X138699884Y-112758633D01*
X138699883Y-112758632D01*
X138697931Y-112754929D01*
X138524129Y-112510367D01*
X138319510Y-112290939D01*
X138087667Y-112100502D01*
X137832675Y-111942400D01*
X137559012Y-111819411D01*
X137345650Y-111755805D01*
X137275486Y-111734888D01*
X137275484Y-111734888D01*
X137271487Y-111733696D01*
X137267367Y-111733043D01*
X137267365Y-111733043D01*
X137148491Y-111714215D01*
X136975152Y-111686761D01*
X136932423Y-111684821D01*
X136882738Y-111682564D01*
X136882719Y-111682564D01*
X136881319Y-111682500D01*
X136693893Y-111682500D01*
X136470630Y-111697329D01*
X136466536Y-111698154D01*
X136466532Y-111698155D01*
X136325487Y-111726595D01*
X136176520Y-111756632D01*
X135892837Y-111854312D01*
X135889104Y-111856181D01*
X135889100Y-111856183D01*
X135628309Y-111986778D01*
X135624565Y-111988653D01*
X135376416Y-112157294D01*
X135152752Y-112357274D01*
X135150035Y-112360444D01*
X135150034Y-112360445D01*
X135024155Y-112507311D01*
X134957501Y-112585077D01*
X134955227Y-112588579D01*
X134955223Y-112588584D01*
X134844792Y-112758633D01*
X134794093Y-112836703D01*
X134665400Y-113107730D01*
X134573682Y-113393396D01*
X134520552Y-113688684D01*
X134506941Y-113988404D01*
X134533091Y-114287292D01*
X134534001Y-114291364D01*
X134534002Y-114291369D01*
X134597628Y-114576016D01*
X134598540Y-114580095D01*
X134599984Y-114584018D01*
X134599984Y-114584020D01*
X134635666Y-114681000D01*
X126746000Y-114681000D01*
X126746000Y-110923190D01*
X126766002Y-110855069D01*
X126782905Y-110834095D01*
X129497223Y-108119777D01*
X134575777Y-108119777D01*
X134585074Y-108131793D01*
X134628069Y-108161898D01*
X134637555Y-108167376D01*
X134828993Y-108256645D01*
X134839285Y-108260391D01*
X135043309Y-108315059D01*
X135054104Y-108316962D01*
X135264525Y-108335372D01*
X135275475Y-108335372D01*
X135485896Y-108316962D01*
X135496691Y-108315059D01*
X135700715Y-108260391D01*
X135711007Y-108256645D01*
X135902445Y-108167376D01*
X135911931Y-108161898D01*
X135955764Y-108131207D01*
X135964139Y-108120729D01*
X135957071Y-108107281D01*
X135282812Y-107433022D01*
X135268868Y-107425408D01*
X135267035Y-107425539D01*
X135260420Y-107429790D01*
X134582207Y-108108003D01*
X134575777Y-108119777D01*
X129497223Y-108119777D01*
X130924995Y-106692005D01*
X130987307Y-106657979D01*
X131014090Y-106655100D01*
X133020322Y-106655100D01*
X133030874Y-106655598D01*
X133038128Y-106657219D01*
X133103595Y-106655162D01*
X133107552Y-106655100D01*
X133134383Y-106655100D01*
X133138310Y-106654604D01*
X133139216Y-106654547D01*
X133149860Y-106653708D01*
X133192199Y-106652378D01*
X133210586Y-106647036D01*
X133229943Y-106643028D01*
X133241065Y-106641623D01*
X133241066Y-106641623D01*
X133248932Y-106640629D01*
X133261806Y-106635532D01*
X133288318Y-106625036D01*
X133299545Y-106621192D01*
X133332609Y-106611585D01*
X133332611Y-106611584D01*
X133340225Y-106609372D01*
X133356705Y-106599626D01*
X133374445Y-106590935D01*
X133392254Y-106583884D01*
X133426532Y-106558980D01*
X133436452Y-106552464D01*
X133466079Y-106534943D01*
X133466082Y-106534941D01*
X133472906Y-106530905D01*
X133486433Y-106517378D01*
X133501467Y-106504537D01*
X133510547Y-106497940D01*
X133510548Y-106497939D01*
X133516962Y-106493279D01*
X133543973Y-106460628D01*
X133551963Y-106451848D01*
X133565806Y-106438005D01*
X133628118Y-106403979D01*
X133654901Y-106401100D01*
X133978646Y-106401100D01*
X134046767Y-106421102D01*
X134093260Y-106474758D01*
X134103364Y-106545032D01*
X134092841Y-106580350D01*
X134074355Y-106619993D01*
X134070609Y-106630285D01*
X134015941Y-106834309D01*
X134014038Y-106845104D01*
X133995628Y-107055525D01*
X133995628Y-107066475D01*
X134014038Y-107276896D01*
X134015941Y-107287691D01*
X134070609Y-107491715D01*
X134074355Y-107502007D01*
X134163623Y-107693441D01*
X134169103Y-107702932D01*
X134199794Y-107746765D01*
X134210271Y-107755140D01*
X134223718Y-107748072D01*
X135180905Y-106790885D01*
X135243217Y-106756859D01*
X135314032Y-106761924D01*
X135359095Y-106790885D01*
X136317003Y-107748793D01*
X136328777Y-107755223D01*
X136340793Y-107745926D01*
X136370897Y-107702932D01*
X136376377Y-107693441D01*
X136465645Y-107502007D01*
X136469391Y-107491715D01*
X136524059Y-107287691D01*
X136525962Y-107276896D01*
X136544372Y-107066475D01*
X136544372Y-107055525D01*
X136525962Y-106845104D01*
X136524059Y-106834309D01*
X136469391Y-106630285D01*
X136465645Y-106619993D01*
X136447159Y-106580350D01*
X136436498Y-106510158D01*
X136465478Y-106445346D01*
X136524898Y-106406489D01*
X136561354Y-106401100D01*
X136859442Y-106401100D01*
X136927563Y-106421102D01*
X136974056Y-106474758D01*
X136984160Y-106545032D01*
X136975377Y-106574507D01*
X136975766Y-106574649D01*
X136973883Y-106579822D01*
X136971560Y-106584804D01*
X136970138Y-106590112D01*
X136970137Y-106590114D01*
X136959584Y-106629500D01*
X136914022Y-106799537D01*
X136894647Y-107021000D01*
X136914022Y-107242463D01*
X136926141Y-107287691D01*
X136965083Y-107433022D01*
X136971560Y-107457196D01*
X136973882Y-107462177D01*
X136973883Y-107462178D01*
X137063186Y-107653689D01*
X137063189Y-107653694D01*
X137065512Y-107658676D01*
X137068668Y-107663183D01*
X137068669Y-107663185D01*
X137133115Y-107755223D01*
X137193023Y-107840781D01*
X137350219Y-107997977D01*
X137354727Y-108001134D01*
X137354730Y-108001136D01*
X137430495Y-108054187D01*
X137532323Y-108125488D01*
X137537305Y-108127811D01*
X137537310Y-108127814D01*
X137728822Y-108217117D01*
X137733804Y-108219440D01*
X137739112Y-108220862D01*
X137739114Y-108220863D01*
X137804949Y-108238503D01*
X137948537Y-108276978D01*
X138170000Y-108296353D01*
X138391463Y-108276978D01*
X138535051Y-108238503D01*
X138600886Y-108220863D01*
X138600888Y-108220862D01*
X138606196Y-108219440D01*
X138611178Y-108217117D01*
X138802690Y-108127814D01*
X138802695Y-108127811D01*
X138807677Y-108125488D01*
X138909505Y-108054187D01*
X138985270Y-108001136D01*
X138985273Y-108001134D01*
X138989781Y-107997977D01*
X139146977Y-107840781D01*
X139206886Y-107755223D01*
X139271331Y-107663185D01*
X139271332Y-107663183D01*
X139274488Y-107658676D01*
X139276811Y-107653694D01*
X139276814Y-107653689D01*
X139366117Y-107462178D01*
X139366118Y-107462177D01*
X139368440Y-107457196D01*
X139374918Y-107433022D01*
X139413859Y-107287691D01*
X139425978Y-107242463D01*
X139445353Y-107021000D01*
X139425978Y-106799537D01*
X139380416Y-106629500D01*
X139369863Y-106590114D01*
X139369862Y-106590112D01*
X139368440Y-106584804D01*
X139366117Y-106579822D01*
X139364234Y-106574649D01*
X139365432Y-106574213D01*
X139355702Y-106510160D01*
X139384681Y-106445347D01*
X139444100Y-106406490D01*
X139476497Y-106401700D01*
X139476475Y-106401348D01*
X139480420Y-106401100D01*
X139484383Y-106401100D01*
X139488310Y-106400604D01*
X139489216Y-106400547D01*
X139499860Y-106399708D01*
X139542199Y-106398378D01*
X139560586Y-106393036D01*
X139579943Y-106389028D01*
X139591065Y-106387623D01*
X139591066Y-106387623D01*
X139598932Y-106386629D01*
X139609504Y-106382444D01*
X139638318Y-106371036D01*
X139649545Y-106367192D01*
X139682609Y-106357585D01*
X139682611Y-106357584D01*
X139690225Y-106355372D01*
X139706705Y-106345626D01*
X139724445Y-106336935D01*
X139742254Y-106329884D01*
X139776532Y-106304980D01*
X139786452Y-106298464D01*
X139816079Y-106280943D01*
X139816082Y-106280941D01*
X139822906Y-106276905D01*
X139836433Y-106263378D01*
X139851467Y-106250537D01*
X139860547Y-106243940D01*
X139860548Y-106243939D01*
X139866962Y-106239279D01*
X139893974Y-106206627D01*
X139901963Y-106197848D01*
X140017906Y-106081905D01*
X140080218Y-106047879D01*
X140107001Y-106045000D01*
X148414424Y-106045000D01*
X148464450Y-106194946D01*
G37*
G04 #@! TD.AperFunction*
G04 #@! TD*
M02*
